<svg xmlns="http://www.w3.org/2000/svg">
	<symbol id="ubicacion" viewBox="0 0 80.92 116.6">
		<path d="M71.87,131.07l-1.8-1.6C29.2,93.33,31.35,56.26,31.47,54.69a40.41,40.41,0,0,1,80.82.11c.16,2.66,1.59,39.12-38.61,74.67Zm0-111.15a35,35,0,0,0-35,35c0,.54-1.89,35.13,35,68.87,36.86-33.74,35-68.33,35-68.68v-.19A35,35,0,0,0,71.87,19.92Z" transform="translate(-31.41 -14.47)"/>
		<path d="M89.46,83.09H74.27V73.5a2,2,0,1,0-4,0v9.59H55.05V62.62H44.75l27.5-28.09,27.5,28.09H89.46Zm-9.74-5.46H84V57.17h2.78L72.25,42.32,57.72,57.17H60.5V77.63h4.28V73.5a7.47,7.47,0,0,1,14.94,0Z" transform="translate(-31.41 -14.47)"/>
	</symbol>
	<symbol id="terreno" viewBox="0 0 101.63 117.24">
		<path class="cls-1" d="M26.16,79.35v29.32a2,2,0,0,0,1,1.71L76,137.73h0a1.39,1.39,0,0,0,.26.1,1.43,1.43,0,0,0,.7.15h0a1.73,1.73,0,0,0,.5-.07l.16-.06a1.48,1.48,0,0,0,.29-.12l48.87-27.36a2,2,0,0,0,1-1.71V50s0-.09,0-.14l0-.17a1.83,1.83,0,0,0-.19-.6s0,0,0-.05h0a2.16,2.16,0,0,0-.44-.51l-.15-.12c-.06,0-.1-.08-.15-.11L77.93,21l-.2-.07a1.63,1.63,0,0,0-.75-.15,1.64,1.64,0,0,0-.74.15L76,21,27.16,48.33l-.16.12-.14.11a1.78,1.78,0,0,0-.44.51v0s0,0,0,.06a2,2,0,0,0-.19.58,1.1,1.1,0,0,0,0,.18s0,.08,0,.13ZM77,24.91,121.84,50,77,75.16,32.12,50ZM30.07,79.35V72.92L75,98.09v15.07L30.07,88ZM78.93,98.09l45-25.17V88l-45,25.18Zm45-29.65-45,25.17V78.54l45-25.17ZM75,78.54V93.61L30.07,68.44V53.37Zm-44.95,29V92.46L75,117.63V132.7ZM78.93,132.7V117.63l45-25.17v15.07Z" transform="translate(-26.16 -20.75)"/>
		<path class="cls-1" d="M40.41,51.42a1.92,1.92,0,0,0,2.13.41,1.78,1.78,0,0,0,1.05-1,1.6,1.6,0,0,0,.16-.74,2,2,0,1,0-3.91,0A1.92,1.92,0,0,0,40.41,51.42Z" transform="translate(-26.16 -20.75)"/>
		<path class="cls-1" d="M53.52,57.85a1.95,1.95,0,0,0,2-2V44.17a2,2,0,0,0-3.91,0V55.9a1.95,1.95,0,0,0,2,2Z" transform="translate(-26.16 -20.75)"/>
		<path class="cls-1" d="M65.25,63.72a2,2,0,0,0,2-2V38.31a2,2,0,1,0-3.91,0V61.76a1.95,1.95,0,0,0,2,2Z" transform="translate(-26.16 -20.75)"/>
		<path class="cls-1" d="M112.16,52a1.94,1.94,0,1,0-1.63-.86A1.94,1.94,0,0,0,112.16,52Z" transform="translate(-26.16 -20.75)"/>
		<path class="cls-1" d="M100.43,57.85a2,2,0,0,0,2-2V44.17a2,2,0,0,0-3.91,0V55.9a1.95,1.95,0,0,0,2,2Z" transform="translate(-26.16 -20.75)"/>
		<path class="cls-1" d="M88.71,63.72a1.95,1.95,0,0,0,2-2V38.31a2,2,0,1,0-3.91,0V61.76a1.95,1.95,0,0,0,2,2Z" transform="translate(-26.16 -20.75)"/>
		<path class="cls-1" d="M77,69.58a1.95,1.95,0,0,0,2-2V32.45a2,2,0,1,0-3.91,0V67.63A2,2,0,0,0,75.6,69,1.92,1.92,0,0,0,77,69.58Z" transform="translate(-26.16 -20.75)"/>
	</symbol>
	<symbol id="terreno-azul" viewBox="0 0 114.66 132.27">
		<path class="cls-1" d="M13,82.25v33.07a2.19,2.19,0,0,0,1.13,1.92L69.2,148.1h0a1.57,1.57,0,0,0,.3.12,1.5,1.5,0,0,0,.78.16h0a2.1,2.1,0,0,0,.56-.07l.19-.07a2.33,2.33,0,0,0,.33-.14l55.12-30.87a2.19,2.19,0,0,0,1.13-1.92V49.17c0-.05,0-.1,0-.15l0-.2a2.27,2.27,0,0,0-.21-.67s0,0,0,0v0a2.3,2.3,0,0,0-.5-.58l-.17-.12a1.92,1.92,0,0,0-.17-.13L71.38,16.38l-.23-.07a1.81,1.81,0,0,0-.85-.18,1.84,1.84,0,0,0-.41,0,2.13,2.13,0,0,0-.43.13l-.24.08L14.1,47.25l-.18.13-.16.12a2.3,2.3,0,0,0-.5.58v0s0,0,0,.07a1.91,1.91,0,0,0-.21.65l0,.2s0,.1,0,.15ZM70.3,20.83l50.61,28.34L70.3,77.51,19.69,49.17ZM17.38,82.25V75l50.72,28.4v17L17.38,92Zm55.13,21.13L123.22,75V92l-50.71,28.4Zm50.71-33.45L72.51,98.33v-17l50.71-28.4ZM68.1,81.33v17L17.38,69.93v-17ZM17.38,114V97l50.72,28.4v17Zm55.13,28.4v-17L123.22,97v17Z" transform="translate(-12.97 -16.13)"/>
		<path class="cls-1" d="M70.44,18.87,18.77,47.71l-1.61.8L68.83,79l52.08-29.78ZM32.64,50a1.95,1.95,0,0,1-1.19,1.19,2.18,2.18,0,0,1-2.4-.46,2.16,2.16,0,0,1-.64-1.57,2.21,2.21,0,0,1,4.41,0A2,2,0,0,1,32.64,50Zm13.41,5.78a2.25,2.25,0,0,1-.65,1.56,2.2,2.2,0,0,1-1.56.64,2.19,2.19,0,0,1-2.2-2.2V42.56a2.21,2.21,0,1,1,4.41,0ZM59.28,62.4a2.22,2.22,0,0,1-2.21,2.21A2.25,2.25,0,0,1,55.51,64a2.2,2.2,0,0,1-.64-1.56V35.94a2.21,2.21,0,0,1,4.41,0ZM72.51,69a2.25,2.25,0,0,1-.65,1.56,2.2,2.2,0,0,1-1.56.64A2.19,2.19,0,0,1,68.1,69V29.33a2.21,2.21,0,1,1,4.41,0ZM85.74,62.4a2.21,2.21,0,1,1-4.41,0V35.94a2.21,2.21,0,0,1,4.41,0ZM99,55.79a2.19,2.19,0,0,1-.64,1.56,2.2,2.2,0,0,1-3.76-1.56V42.56a2.2,2.2,0,1,1,4.4,0Zm11-4.41a2.19,2.19,0,1,1,1.84-1A2.19,2.19,0,0,1,110,51.38Z" transform="translate(-12.97 -16.13)"/>
		<polygon class="cls-1" points="1.79 55.21 55.46 84.85 110.25 58.85 110.25 80.9 57.46 106.88 4.41 75.85 1.79 55.21"/>
	</symbol>
	<symbol id="tamaño" viewBox="0 0 121.13 121.07"><path class="cls-1" d="M35.7,37.52V70.11L79.36,59.05V22.26ZM34.15,71.16,22,73.76,21,119.43l58.37,22.14V60.1L34.15,71.16ZM81.5,141.57,103,132.1V92.66l24.73-.51-.51,31.52,13.66-4.74V73.26l-14.2-3.15h-.55L81.5,59.6Zm44.66-72-1-32L81.5,22.26V59.05Z" transform="translate(-20.38 -21.42)"/></symbol>
	<symbol id="recamara"  viewBox="0 0 119.34 120.14"><path class="cls-1" d="M132.47,108.32H26.54V65H132.47ZM28.68,106.39H130.32V66.88H28.68Z" transform="translate(-20.43 -27.21)"/><path class="cls-1" d="M30,109.17V94.08a6.65,6.65,0,0,1,6.64-6.64H69.88a6.65,6.65,0,0,1,6.64,6.64v15.17m-1.93-.32V94.08a4.71,4.71,0,0,0-4.71-4.71H36.66A4.71,4.71,0,0,0,32,94.08v14.85" transform="translate(-20.43 -27.21)"/><path class="cls-1" d="M83,108.77V94.08a6.65,6.65,0,0,1,6.64-6.64h33.23a6.65,6.65,0,0,1,6.64,6.64v15m-1.94-.32V94.08a4.71,4.71,0,0,0-4.7-4.71H89.65a4.72,4.72,0,0,0-4.71,4.71v14.69" transform="translate(-20.43 -27.21)"/><path class="cls-2" d="M134.78,53.92H25.46V46.73H134.78ZM27.39,52H132.85V48.66H27.39Z" transform="translate(-20.43 -27.21)"/><path class="cls-2" d="M60.9,48.31H33.7V30.58H60.9ZM35.63,46.38H59V32.51H35.63Z" transform="translate(-20.43 -27.21)"/><path class="cls-2" d="M57.07,44.62H37.54V34.3H57.07Zm-17.6-1.93H55.14V36.23H39.47Z" transform="translate(-20.43 -27.21)"/><path class="cls-2" d="M125.13,48.31h-6.67V29.39h6.67Zm-4.74-1.93h2.81V31.32h-2.81Z" transform="translate(-20.43 -27.21)"/><rect class="cls-3" x="95.93" y="36.48" width="16.99" height="4.74" transform="translate(24.06 105.55) rotate(-77.86)"/><path class="cls-2" d="M115.48,48.31h-6.67V31.17h6.67Zm-4.74-1.93h2.81V33.1h-2.81Z" transform="translate(-20.43 -27.21)"/><path class="cls-2" d="M120.39,48.31h-6.67V27.21h6.67Zm-4.74-1.93h2.81V29.14h-2.81Z" transform="translate(-20.43 -27.21)"/><path class="cls-4" d="M21,121.73m0,2.66v-9.77A6.6,6.6,0,0,1,27.57,108H132.63a6.6,6.6,0,0,1,6.54,6.64v9.93" transform="translate(-20.43 -27.21)"/><path class="cls-4" d="M31.57,124.41H21v22.34H139.17V124.41h-71" transform="translate(-20.43 -27.21)"/><path class="cls-2" d="M33.44,133.59a.94.94,0,0,1-.53-.16,1,1,0,0,1-.42-.64l-4.21-23.67a1,1,0,0,1,.21-.79,1,1,0,0,1,.74-.35H130.3a1,1,0,0,1,.23,1.91L33.67,133.56A.91.91,0,0,1,33.44,133.59Zm-3.06-23.68,3.83,21.53,88.08-21.53Z" transform="translate(-20.43 -27.21)"/></symbol>
	<symbol id="perfil" viewBox="0 0 121.22 124.96"><defs><style>.cls-1{fill:#f6f6f6;}</style></defs><path class="cls-1" d="M77.69,79.46a30.82,30.82,0,1,1,30.82-30.82A30.85,30.85,0,0,1,77.69,79.46Zm0-54.82a24,24,0,1,0,24,24A24,24,0,0,0,77.69,24.64Z" transform="translate(-17.08 -17.82)"/><path class="cls-1" d="M138.3,142.79h-6.82a49.08,49.08,0,0,0-49-49H72.92a49.08,49.08,0,0,0-49,49H17.08A55.91,55.91,0,0,1,72.92,86.94h9.54A55.91,55.91,0,0,1,138.3,142.79Z" transform="translate(-17.08 -17.82)"/></symbol>
	<symbol id="medio-baño"  viewBox="0 0 102.38 134.49"><defs><style>.cls-1{fill:none;stroke:#fff;stroke-miterlimit:10;stroke-width:1.2px;}</style></defs><rect class="cls-1" x="0.6" y="0.6" width="11.37" height="55.15"/><path class="cls-1" d="M122.45,91.06H127V79.89H25.82V91.06H37.19v58H76.41c0-20.46,15.19-19.32,15.19-19.32C130.09,122.89,122.45,91.06,122.45,91.06Z" transform="translate(-25.22 -15.14)"/> </symbol>
	<symbol id="info"  viewBox="0 0 125.17 106.26"><defs><style>.cls-1,.cls-2{fill:#fff;}.cls-2{fill-rule:evenodd;}</style></defs><path class="cls-1" d="M77.48,97.43A21.75,21.75,0,0,0,84,113a22.53,22.53,0,0,0,27.39,3.23l18.42,18.18a5.25,5.25,0,0,0,3.72,1.52h0a5.28,5.28,0,0,0,3.72-1.52,5.15,5.15,0,0,0,0-7.34l-18.43-18.18a21.83,21.83,0,0,0-3.27-27,22.52,22.52,0,0,0-31.55,0A21.71,21.71,0,0,0,77.48,97.43Zm57,32.37a1.33,1.33,0,0,1,0,1.88,1.39,1.39,0,0,1-1.9,0l-18-17.78c.33-.29.66-.59,1-.9s.63-.64.92-1ZM99.79,79.27a18.42,18.42,0,0,1,13,5.32,18,18,0,0,1,0,25.67,18.57,18.57,0,0,1-26,0,18,18,0,0,1,0-25.67A18.4,18.4,0,0,1,99.79,79.27Z" transform="translate(-15.1 -31.15)"/><path class="cls-1" d="M133.54,137.41a6.71,6.71,0,0,1-4.76-1.95l-17.62-17.39a24,24,0,0,1-28.18-4,23.28,23.28,0,0,1,0-33.24,24,24,0,0,1,33.62,0,23.21,23.21,0,0,1,4.09,27.83L138.29,126a6.62,6.62,0,0,1,0,9.44A6.67,6.67,0,0,1,133.54,137.41Zm-21.92-23,19.24,19a3.92,3.92,0,0,0,5.36,0,3.67,3.67,0,0,0,0-5.24l-19.26-19,.62-1a20.28,20.28,0,0,0-3.06-25.2,21,21,0,0,0-29.47,0,20.35,20.35,0,0,0,0,29,21.08,21.08,0,0,0,25.59,3Zm21.92,19.16a2.8,2.8,0,0,1-2-.81l-19.14-18.88,1.2-1c.31-.27.62-.55.92-.84s.58-.6.86-.91l1-1.15,19.11,18.86a2.8,2.8,0,0,1,0,4A2.85,2.85,0,0,1,133.54,133.53ZM99.79,117.06a19.86,19.86,0,0,1-14.05-5.75,19.47,19.47,0,0,1,0-27.77,20,20,0,0,1,28.09,0,19.47,19.47,0,0,1,0,27.77A19.84,19.84,0,0,1,99.79,117.06Zm0-36.32a16.93,16.93,0,0,0-12,4.9,16.5,16.5,0,0,0,0,23.57,17.07,17.07,0,0,0,23.94,0,16.54,16.54,0,0,0,0-23.58A17,17,0,0,0,99.79,80.74Z" transform="translate(-15.1 -31.15)"/><path class="cls-1" d="M107.61,93.72A2.3,2.3,0,0,1,106,93h0l-.32-.3a2.3,2.3,0,0,1-.15-3.25,2.35,2.35,0,0,1,3.29-.14l.47.44a2.29,2.29,0,0,1,0,3.26A2.34,2.34,0,0,1,107.61,93.72Zm-1.12-1.2a1.64,1.64,0,0,0,2.25,0,1.55,1.55,0,0,0,0-2.2l-.45-.43a1.6,1.6,0,0,0-2.24.1,1.51,1.51,0,0,0-.42,1.12,1.56,1.56,0,0,0,.51,1.08l.35.33Z" transform="translate(-15.1 -31.15)"/><path class="cls-1" d="M102.18,90.52a2.48,2.48,0,0,1-.65-.09,10.72,10.72,0,0,0-6.07,0h0a2.33,2.33,0,0,1-2.88-1.55A2.3,2.3,0,0,1,94.15,86a15.39,15.39,0,0,1,8.69,0,2.3,2.3,0,0,1,1.39,1.11,2.27,2.27,0,0,1,.18,1.75A2.33,2.33,0,0,1,102.18,90.52Zm-3.7-1.27a11.61,11.61,0,0,1,3.25.47,1.56,1.56,0,0,0,1.85-2.24,1.53,1.53,0,0,0-.94-.75,14.5,14.5,0,0,0-8.28,0,1.55,1.55,0,0,0-1,.76,1.49,1.49,0,0,0-.12,1.17,1.59,1.59,0,0,0,2,1.06h0A11.34,11.34,0,0,1,98.48,89.25Z" transform="translate(-15.1 -31.15)"/><path class="cls-2" d="M99.1,116.26c-1.33,0-1.6.12-1.6,1.87l.21,11h-22l.16-16.86c0-1.75-.92-3.09-2.67-3.09H61.49a3,3,0,0,0-3.1,3.09l-.11,16.86-23.53.18.06-42.68c0-2.25-2.05-3.93-3.09-3.09s-.95.66-.95,2.91V130a2.55,2.55,0,0,0,2.64,2.67H59.88A2.84,2.84,0,0,0,62.52,130V112.42h8.82V130c0,1.33,1.79,2.67,3.09,2.67l24.5,0A2.94,2.94,0,0,0,102,130l.06-11.24m2.4-42L67,38.07,20.8,87.16c-.88,1.76-2.63,1.76-4,0-.42-.49-.19-.33-.19-1.17a3.52,3.52,0,0,1,.88-2.26L30.77,69.61V41.48c0-2.25-.07-3.36,2.64-3.59h0c1.33,0,1.51,2.56,1.51,4.81V65.55l29.81-32a5.59,5.59,0,0,1,2.67-.92c.43,0,.85.42,1.3.92C85.89,51.6,91.83,58.06,110.77,78.31" transform="translate(-15.1 -31.15)"/><path class="cls-1" d="M98.93,134.18l-24.5,0c-2.05,0-4.56-1.92-4.56-4.15V113.9H64V130a4.3,4.3,0,0,1-4.11,4.15H33.41A4.06,4.06,0,0,1,29.29,130V86c0-2,.05-2.51,1.38-3.57a2.71,2.71,0,0,1,3-.34,5,5,0,0,1,2.63,4.48l-.06,41.19,20.58-.16.11-15.39a4.52,4.52,0,0,1,4.57-4.57H73.15c2.48,0,4.15,1.84,4.15,4.57l-.15,15.38h19L96,118.16c0-2.5.81-3.37,3.08-3.37v2.95H99c0,.1,0,.23,0,.39l.24,12.43h-25l.18-18.34c0-1.06-.41-1.6-1.2-1.6H61.49a1.56,1.56,0,0,0-1.62,1.61l-.12,18.32-26.48.21.07-44.18a2.2,2.2,0,0,0-.89-1.78l-.27.23a3.51,3.51,0,0,1,.07,1v44a1.1,1.1,0,0,0,1.16,1.2H59.88A1.4,1.4,0,0,0,61,130V111H72.82v19c0,.36,1,1.2,1.61,1.2l24.5,0a1.5,1.5,0,0,0,1.58-1.19l.07-11.25,3,0L103.46,130A4.41,4.41,0,0,1,98.93,134.18ZM32.65,84.64h0ZM19,90a4.28,4.28,0,0,1-3.33-1.9,1.88,1.88,0,0,1-.53-1.71,1.44,1.44,0,0,0,0-.35,5,5,0,0,1,1.31-3.3L29.29,69V41.48c0-2.3,0-4.73,4-5.06h0c3.1,0,3.1,4.24,3.1,6.28V61.8L64,32.25a7,7,0,0,1,3.39-1.1,3.45,3.45,0,0,1,2.39,1.38C83,46.41,89.58,53.46,100.49,65.14L111.85,77.3l-2.16,2L98.33,67.15c-10.91-11.67-17.49-18.72-30.7-32.6a5.78,5.78,0,0,0-.43-.43,4.31,4.31,0,0,0-1.55.6L33.44,69.3V42.7a10.53,10.53,0,0,0-.32-3.3,1.64,1.64,0,0,0-.75.23,6.06,6.06,0,0,0-.12,1.69V70.19L18.59,84.74A2.09,2.09,0,0,0,18.12,86c0,.15,0,.28,0,.39A1.67,1.67,0,0,0,19,87c.14,0,.32-.21.47-.5l.25-.35,47.2-50.22,38.58,39.88-2.12,2L67,40.21,22,88a3.55,3.55,0,0,1-2.72,1.91Z" transform="translate(-15.1 -31.15)"/></symbol> 
	<symbol id="galeria"  viewBox="0 0 128.37 96.53"><defs><style>.cls-1,.cls-2{fill:#fff;}.cls-2{fill-rule:evenodd;}</style></defs><path class="cls-1" d="M130.22,135.82H23.15a10.87,10.87,0,0,1-10.61-10.57V64.3A10.29,10.29,0,0,1,22.7,54.15h26l1.47-7.7a8.54,8.54,0,0,1,8.64-7.16H95a8.57,8.57,0,0,1,8.66,7.24l1.45,7.62h26.09a9.93,9.93,0,0,1,9.69,10.15v61A10.64,10.64,0,0,1,130.22,135.82ZM22.7,60a4.42,4.42,0,0,0-4.3,4.31v61A5,5,0,0,0,23.15,130H130.22a4.73,4.73,0,0,0,4.83-4.73V64.3A4.1,4.1,0,0,0,131.22,60H100.28L97.91,47.54A2.78,2.78,0,0,0,95,45.13H58.82A2.73,2.73,0,0,0,56,47.46L53.56,60Z" transform="translate(-12.54 -39.29)"/><path class="cls-2" d="M89.13,83.9a17.44,17.44,0,0,0-6.23-4.32,16.05,16.05,0,0,0-7.3-1.46,18.85,18.85,0,0,0-7.22,1.46,20.73,20.73,0,0,0-5.77,4.32,9.34,9.34,0,0,0-3.84,5.74,19.4,19.4,0,0,0-1.93,7.16A19.54,19.54,0,0,0,58.77,104c.46,2.41,1.92,4.32,3.84,6.24a38.68,38.68,0,0,0,5.77,3.83,19.75,19.75,0,0,0,7.22,1.41,16.76,16.76,0,0,0,7.3-1.41,27.41,27.41,0,0,0,6.23-3.83c1.45-1.92,3.38-3.83,3.92-6.24a20.2,20.2,0,0,0,1.38-7.24,20,20,0,0,0-1.38-7.16c-.54-2.41-2.47-4.32-3.92-5.74Z" transform="translate(-12.54 -39.29)"/><path class="cls-1" d="M31.71,76.67A6.83,6.83,0,0,1,24.94,70c0-3.59,2.91-6.29,6.77-6.29s6.77,2.7,6.77,6.29A6.74,6.74,0,0,1,31.71,76.67Zm0-10.07c-1.91,0-3.84,1.16-3.84,3.37a3.86,3.86,0,0,0,3.84,3.78A3.82,3.82,0,0,0,35.55,70C35.55,67.66,33.56,66.6,31.71,66.6Z" transform="translate(-12.54 -39.29)"/></symbol>
	<symbol id="parking"  viewBox="0 0 122.55 127.45"><defs><style>.cls-1,.cls-2{fill:none;}.cls-1,.cls-2,.cls-4{stroke:#fff;stroke-miterlimit:10;}.cls-1{stroke-width:1.2px;}.cls-3,.cls-4{fill:#fff;}.cls-4{stroke-width:0.2px;}</style></defs><rect class="cls-1" x="12.01" y="24.04" width="56.88" height="56.88" rx="4.04" transform="translate(81.51 -11.41) rotate(90)"/><rect class="cls-2" x="28.13" y="57.91" width="1.82" height="69.04"/><path class="cls-3" d="M40.64,35.72H30.77V66.24H38V56.06h3.3c7,0,12.07-3.3,12.07-10.39C53.37,39,48.52,35.72,40.64,35.72Zm0,15.15H38v-10h2.55c3.57,0,5.37,1.54,5.37,4.8C45.92,49.5,43.94,50.87,40.68,50.87Z" transform="translate(-11.41 -23.44)"/><path class="cls-4" d="M125.76,109.47H70.62l3.07-20a3.26,3.26,0,0,1,3.21-2.75h42.58a3.26,3.26,0,0,1,3.21,2.75Zm-2.12-.59L120.9,89.77a1.41,1.41,0,0,0-1.41-1.2H76.89a1.41,1.41,0,0,0-1.41,1.2l-2.74,19.11Z" transform="translate(-11.41 -23.44)"/><path class="cls-4" d="M77.67,146.43V132.38H68.78v14.05a.85.85,0,0,0,.85.85h7.19A.85.85,0,0,0,77.67,146.43Zm-7.08-1V134.19h5.27v11.27Z" transform="translate(-11.41 -23.44)"/><path class="cls-4" d="M127.15,146.43V132.38h-8.9v14.05a.85.85,0,0,0,.86.85h7.19A.85.85,0,0,0,127.15,146.43Zm-7.08-1V134.19h5.26v11.27Z" transform="translate(-11.41 -23.44)"/><path class="cls-2" d="M125.76,108.73H70.62a6.92,6.92,0,0,0-6.91,6.91V127.4l1.91-.09.11,0h64.78l.17,0,2,.11V115.64A6.92,6.92,0,0,0,125.76,108.73Z" transform="translate(-11.41 -23.44)"/><path class="cls-2" d="M123.63,114.18a4.65,4.65,0,1,1-4.65,4.65A4.65,4.65,0,0,1,123.63,114.18Z" transform="translate(-11.41 -23.44)"/><path class="cls-2" d="M72.75,114.18a4.65,4.65,0,1,1-4.65,4.65A4.65,4.65,0,0,1,72.75,114.18Z" transform="translate(-11.41 -23.44)"/><path class="cls-3" d="M62.42,133.07v-6.52a1.09,1.09,0,0,1,1.08-1.08h69.37a1.09,1.09,0,0,1,1.09,1.08v6.52a1.08,1.08,0,0,1-1.09,1.08H63.5A1.08,1.08,0,0,1,62.42,133.07Zm69.72-1.36v-3.79a.63.63,0,0,0-.63-.63H64.87a.63.63,0,0,0-.63.63v3.78a.63.63,0,0,0,.63.63h66.64A.63.63,0,0,0,132.14,131.71Z" transform="translate(-11.41 -23.44)"/></symbol>
	<symbol id="elevador"  viewBox="0 0 119.46 119.46"><defs><style>.cls-1{fill:#2a4b9b;fill-rule:evenodd;}</style></defs><g id="Forma_1" data-name="Forma 1"><path class="cls-1" d="M131,30H16.72a2.6,2.6,0,0,0-2.59,2.6V146.9a2.59,2.59,0,0,0,2.59,2.6H37.5a2.6,2.6,0,0,0,2.6-2.6v-2.59h67.51v2.59a2.6,2.6,0,0,0,2.6,2.6H131a2.59,2.59,0,0,0,2.59-2.6V32.64A2.6,2.6,0,0,0,131,30ZM71.26,139.11H40.1V61.21H71.26Zm36.35,0H76.45V61.21h31.16Zm20.78,5.2H112.81v-2.6h0V58.61a2.61,2.61,0,0,0-2.6-2.6H37.5a2.61,2.61,0,0,0-2.6,2.6v83.1h0v2.6H19.32V35.24H128.39ZM120.6,87.17a2.6,2.6,0,1,0-2.6-2.59A2.6,2.6,0,0,0,120.6,87.17Zm0,10.39A2.6,2.6,0,1,0,118,95,2.6,2.6,0,0,0,120.6,97.56ZM54.92,50.06l3.35-3.36,3.36,3.36a2.6,2.6,0,0,0,3.68-3.67l-5.2-5.2a2.6,2.6,0,0,0-3.67,0l-5.19,5.2a2.6,2.6,0,0,0,3.67,3.67Zm32.68,0a2.6,2.6,0,0,0,3.67,0l5.19-5.19a2.6,2.6,0,0,0-3.67-3.68l-3.35,3.36-3.36-3.36a2.6,2.6,0,0,0-3.68,3.68Z" transform="translate(-14.13 -30.04)"/></g></symbol>
	<symbol id="dudas" viewBox="0 0 114.14 122.5"><defs><style>.cls-1{fill:#fff;}</style></defs><path class="cls-1" d="M119.34,59c1.74.61,3.55,1.18,5.32,1.88a7.28,7.28,0,0,1,4.79,6.92c.18,5.42.25,10.87,0,16.28-.24,4.64-2.81,7-7.65,7.78-.68.12-1.36.29-2,.47-.15,0-.27.21-.41.32-1.53,5.85-2.83,11.77-4.66,17.53-3.38,10.65-10.65,18.07-20.39,23.17-1.34.7-3.22.36-4.56,1.05-3.08,1.58-7.33,1.25-8.9,5.47-.23.63-1.86.95-2.87,1-5,.44-10.13,1.1-15.52-1.58-.07-2.66-.32-5.6-.19-8.53a4.88,4.88,0,0,1,4.87-5.07,51.09,51.09,0,0,1,10,0c1.69.22,3.28,1.65,4.79,2.71A24.65,24.65,0,0,1,84.59,131c5.63-.95,10.51-2.62,14.58-6.09A37.55,37.55,0,0,0,110.72,108a75,75,0,0,0,3.67-25.16c-.07-6.13.18-12.27,0-18.4-.27-7.88-1.65-15.59-6-22.37-6.8-10.64-16.08-17.48-29.16-18C75,23.9,70.8,24,66.6,24,53,24.06,43.25,31,36.19,41.94a31.06,31.06,0,0,0-5.13,17.79c.19,8.4,0,16.82,0,25.23,0,5.63-.59,6.53-4.24,6.86-6.79.63-10.15-1.15-11-6.06a39.93,39.93,0,0,1-.32-6.29c0-3.5-.09-7,0-10.51.19-5.81,1.7-8,7.31-9.25,3.08-.66,3.9-2.24,4.31-4.94C29.59,38.85,38.47,28,53.37,22.15c9.12-3.57,18.51-4,28.28-2.61,14.55,2.15,25,9.77,31.77,22.41C116.14,47.06,117.32,53,119.34,59Zm-.42,6.22a177.34,177.34,0,0,0,0,20.1c.12,2.31,2.56,3,4.14,1.31A6.49,6.49,0,0,0,124.92,83,131.89,131.89,0,0,0,125,68.93C124.8,65.83,123.5,65.18,118.92,65.19ZM20,75.34h.08a62.94,62.94,0,0,0,.14,8.91,4.7,4.7,0,0,0,3,3c2.07.52,2.64-1.59,2.7-3.06.19-5.43.18-10.86.11-16.28,0-1.73-.9-3-3-2.9-1.81.14-3,1-3,2.95C20,70.44,20,72.89,20,75.34Zm46.62,61c2.95,0,5.53,0,8.11,0,1.43,0,2.84-.08,3.1-2s-.44-3.55-2.4-4a15.58,15.58,0,0,0-4.68-.24C67.07,130.32,66.46,131.19,66.65,136.35Z" transform="translate(-15.47 -18.79)"/><path class="cls-1" d="M51.76,122.33c-.22-3.14-.46-5.5-.52-7.86-.14-5.06-.6-5.71-5.31-6.81-4-.94-5.72-2.65-5.74-6.77q-.15-22.06,0-44.12a8.14,8.14,0,0,1,8-7.93c3.14-.17,6.3,0,9.45,0,12.26,0,24.51.15,36.77-.07,6-.11,10.18,3.3,10.1,9.82-.18,13.48.16,27,0,40.44-.08,7-2.56,9-8.8,8.85-4.55-.1-9.13.31-13.65-.08-6.15-.54-11.08,1.73-15.73,5.36-3.14,2.46-6.43,4.74-9.74,7A36.25,36.25,0,0,1,51.76,122.33Zm47.35-18.77A26,26,0,0,0,100,99.2c0-13.65.07-27.29,0-40.94,0-3-1.53-4.48-4.82-5a25.38,25.38,0,0,0-4.19-.14c-12.59,0-25.19.06-37.79,0-3.26,0-6.15.52-8.54,2.67-1.11,12.11-.61,43.2.73,47.12a3.47,3.47,0,0,0,1,.41c1.56.14,3.13.2,4.69.34,3.23.31,4.2,1.31,4.46,4.56.15,1.83.26,3.67.46,6.46,3.09-2,5.56-3.2,7.63-4.92,5.06-4.23,10.37-7,17.38-6.23C86.78,104.05,92.76,103.56,99.11,103.56Z" transform="translate(-15.47 -18.79)"/><path class="cls-1" d="M118.92,65.19c4.58,0,5.88.64,6.06,3.74A131.89,131.89,0,0,1,124.92,83a6.49,6.49,0,0,1-1.85,3.61c-1.58,1.71-4,1-4.14-1.31A177.34,177.34,0,0,1,118.92,65.19Z" transform="translate(-15.47 -18.79)"/><path class="cls-1" d="M20,75.34c0-2.45,0-4.9,0-7.35,0-1.94,1.21-2.81,3-2.95,2.06-.15,2.93,1.17,3,2.9.07,5.42.08,10.85-.11,16.28-.06,1.47-.63,3.58-2.7,3.06a4.7,4.7,0,0,1-3-3,62.94,62.94,0,0,1-.14-8.91Z" transform="translate(-15.47 -18.79)"/><path class="cls-1" d="M66.65,136.35c-.19-5.16.42-6,4.13-6.27a15.58,15.58,0,0,1,4.68.24c2,.48,2.68,2,2.4,4s-1.67,2-3.1,2C72.18,136.36,69.6,136.35,66.65,136.35Z" transform="translate(-15.47 -18.79)"/><path class="cls-1" d="M67.51,92.81c3.79-5.84,4-11.41.13-16.76,3.14-2.38,3.14-2.39,6.75-.53,1.33,5.77-1.13,12.15,2.78,17.52C72.59,94.9,71.61,94.88,67.51,92.81Z" transform="translate(-15.47 -18.79)"/><path class="cls-1" d="M74,64.88c-3,3.53-3.54,3.51-6-.16C71.07,62.67,71.08,62.67,74,64.88Z" transform="translate(-15.47 -18.79)"/></symbol>
	<symbol id="deptos" viewBox="0 0 118.53 117.86"><defs><style>.cls-1{fill:#2a4b9b;fill-rule:evenodd;}</style></defs><path class="cls-1" d="M30.34,28.45H87a11.61,11.61,0,0,1,6.26,2.06h0c1.57,1.58,2.61,3.15,2.61,5.22V139c0,1.07-.54,1.57-.54,2.07H99V106.8a4.6,4.6,0,0,1,1.58-3.56h0a5.72,5.72,0,0,1,4.14-1.58h25a5.85,5.85,0,0,1,4.18,1.58h0a4.56,4.56,0,0,1,1.53,3.56v34.29h3.11c1.08,0,1.57.49,1.57,1.57v2.57c0,.58-.49,1.08-1.57,1.08H30.34c-2.57,0-4.64-.5-6.21-2.08h0A6.43,6.43,0,0,1,21.52,139V35.73c0-2.07,1-3.64,2.61-5.22h0a11.55,11.55,0,0,1,6.21-2.06ZM124.93,111h-4.15c-.49,0-1,0-1,.5l-.58.49v4.15l.58.58h0c0,.49.5.49,1,.49h4.15c.58,0,.58,0,1.08-.49h0v-5.22c-.5-.5-.5-.5-1.08-.5Zm-10.85,19.14h-4.72c-.5,0-.5,0-1,.57h0v5.72h6.21c0-.5.5-.5.5-1.08v-3.56a1.78,1.78,0,0,0-.5-1.08h0a.51.51,0,0,0-.49-.57Zm10.85,0h-4.15c-.49,0-1,0-1,.57h0a1.71,1.71,0,0,0-.58,1.08v3.56c0,.58.58.58.58,1.08H126v-5.72h0c-.5-.57-.5-.57-1.08-.57Zm-10.85-9.28h-5.72v5.71c.5,0,.5.5,1,.5h4.72l.49-.5a2.11,2.11,0,0,0,.5-1.07v-3.65c0-.5-.5-.5-.5-1Zm10.85,0h-5.14c0,.49-.58.49-.58,1v3.65a2,2,0,0,0,.58,1.07,1.74,1.74,0,0,0,1,.5h4.15c.58,0,.58-.5,1.08-.5v-5.71ZM114.08,111h-4.72c-.5,0-.5,0-1,.5v5.22h0c.5.49.5.49,1,.49h4.72a.48.48,0,0,0,.49-.49h0l.5-.58V112l-.5-.49a.48.48,0,0,0-.49-.5ZM50.63,61.16H39.7c-1,0-1.53,0-2.07.5h0a4.39,4.39,0,0,0-1,2.07v7.78a2.63,2.63,0,0,0,1,2.07h0c.54.58,1,.58,2.07.58H50.63a2.86,2.86,0,0,0,2.07-.58h0a2.52,2.52,0,0,0,1-2.07V63.73a4,4,0,0,0-1-2.07h0a3.2,3.2,0,0,0-2.07-.5Zm0-19.71H39.7c-1,0-1.53,0-2.07.49h0a4.11,4.11,0,0,0-1,2.07V51.8a2.64,2.64,0,0,0,1,2.07h0c.54.5,1,.5,2.07.5H50.63a3.2,3.2,0,0,0,2.07-.5h0a2.53,2.53,0,0,0,1-2.07V44a3.81,3.81,0,0,0-1-2.07h0a3.25,3.25,0,0,0-2.07-.49Zm27.05,0H66.74a3.26,3.26,0,0,0-2.07.49h0a3.79,3.79,0,0,0-1,2.07V51.8a2.52,2.52,0,0,0,1,2.07h0a3.21,3.21,0,0,0,2.07.5H77.68c1,0,1.53,0,2.07-.5h0a2.67,2.67,0,0,0,1-2.07V44a4.16,4.16,0,0,0-1-2.07h0c-.54-.49-1-.49-2.07-.49ZM50.63,120.38H39.7a2.78,2.78,0,0,0-2.07,1h0c-.5.5-1,1.08-1,1.58v7.78a2.63,2.63,0,0,0,1,2.07h0a2.75,2.75,0,0,0,2.07,1H50.63a4,4,0,0,0,2.07-1h0a2.52,2.52,0,0,0,1-2.07V123a2.69,2.69,0,0,0-1-1.58h0a4,4,0,0,0-2.07-1Zm27.05,0H66.74a4.07,4.07,0,0,0-2.07,1h0a2.67,2.67,0,0,0-1,1.58v7.78a2.51,2.51,0,0,0,1,2.07h0a4,4,0,0,0,2.07,1H77.68a2.77,2.77,0,0,0,2.07-1h0a2.65,2.65,0,0,0,1-2.07V123c0-.5-.54-1.08-1-1.58h0a2.79,2.79,0,0,0-2.07-1ZM50.63,100.59H39.7a2.8,2.8,0,0,0-2.07,1.07h0c-.5,0-1,1.08-1,1.58V111a3,3,0,0,0,1,2.07h0c.54.5,1,.5,2.07.5H50.63a3.2,3.2,0,0,0,2.07-.5h0a2.8,2.8,0,0,0,1-2.07v-7.78c0-.5-.5-1.58-1-1.58h0a4.14,4.14,0,0,0-2.07-1.07Zm27.05,0H66.74a4.18,4.18,0,0,0-2.07,1.07h0c-.54,0-1,1.08-1,1.58V111a2.8,2.8,0,0,0,1,2.07h0a3.21,3.21,0,0,0,2.07.5H77.68c1,0,1.53,0,2.07-.5h0a3,3,0,0,0,1-2.07v-7.78c0-.5-.54-1.58-1-1.58h0a2.82,2.82,0,0,0-2.07-1.07ZM50.63,80.87H39.7c-1,0-1.53.5-2.07.5h0a4.39,4.39,0,0,0-1,2.07v7.87a3,3,0,0,0,1,2.07h0c.54.5,1,.5,2.07.5H50.63a3.2,3.2,0,0,0,2.07-.5h0a2.8,2.8,0,0,0,1-2.07V83.44a4,4,0,0,0-1-2.07h0c-.5,0-1.57-.5-2.07-.5Zm27.05,0H66.74c-.49,0-1.57.5-2.07.5h0a4,4,0,0,0-1,2.07v7.87a2.8,2.8,0,0,0,1,2.07h0a3.21,3.21,0,0,0,2.07.5H77.68c1,0,1.53,0,2.07-.5h0a3,3,0,0,0,1-2.07V83.44a4.46,4.46,0,0,0-1-2.07h0c-.54,0-1-.5-2.07-.5Zm0-19.71H66.74a3.21,3.21,0,0,0-2.07.5h0a4,4,0,0,0-1,2.07v7.78a2.51,2.51,0,0,0,1,2.07h0a2.87,2.87,0,0,0,2.07.58H77.68c1,0,1.53,0,2.07-.58h0a2.65,2.65,0,0,0,1-2.07V63.73a4.46,4.46,0,0,0-1-2.07h0c-.54-.5-1-.5-2.07-.5Z" transform="translate(-21.52 -28.45)"/></symbol>
	<symbol id="corazon" viewBox="0 0 88.53 74.87"><defs><style>.cls-1{fill:#2a4b9b;}</style></defs><path class="cls-1" d="M75.41,123.42l-.34-.34-36.2-36.2h0A22.74,22.74,0,1,1,77,64a22.74,22.74,0,1,1,36.28,24.64ZM40.19,86.81l35.25,35.24,37.17-34.19A21.76,21.76,0,1,0,77.46,65.79L77,67.61l-.48-1.82A21.75,21.75,0,1,0,39.89,86.5Z" transform="translate(-32.71 -48.55)"/></symbol>
	<symbol id="cuenta-corazon" viewBox="0 0 80.24 108.39"><defs><style>.cls-1{fill:#f6f6f6;}.cls-2{fill:#2a4b9b;}</style></defs><path class="cls-1" d="M53.29,93.28,19.45,59.42l.06-.06a21.3,21.3,0,1,1,35.2-23.59A21.3,21.3,0,1,1,87.35,61.94ZM23.65,58.41,53.4,88.16l31.5-29A17.61,17.61,0,1,0,56.49,41.29l-1.78,6.82-1.79-6.82A17.61,17.61,0,1,0,23.29,58.05Z" transform="translate(-14.59 -24.44)"/><circle class="cls-2" cx="39.2" cy="99.52" r="8.87"/></symbol>
	<symbol id="comentarios"  viewBox="0 0 107.03 106.96"><defs><style>.cls-1{fill:#fff;}</style></defs><path class="cls-1" d="M130.24,138.74l-31.1-6a52.45,52.45,0,0,1-22.85,5.21,53.08,53.08,0,1,1,53.09-53.08,52.38,52.38,0,0,1-5.59,23.66Zm-53.95-101a47.15,47.15,0,0,0,0,94.3,46.62,46.62,0,0,0,21.1-5l.9-.45,24.28,4.69-5-23.54.5-1a46.66,46.66,0,0,0,5.4-21.87A47.21,47.21,0,0,0,76.29,37.71Z" transform="translate(-23.21 -31.78)"/></symbol>
	<symbol id="cuenta-comentarios" viewBox="0 0 83.94 132.52"><defs><style>.cls-1{fill:#f6f6f6;}.cls-2{fill:#2a4b9b;}</style></defs><path class="cls-1" d="M96,95.67,71.6,91a41.15,41.15,0,0,1-17.94,4.1A41.65,41.65,0,1,1,95.3,53.43,41.06,41.06,0,0,1,90.91,72ZM53.66,16.29a37.14,37.14,0,0,0,0,74.27,36.74,36.74,0,0,0,16.62-4l.68-.34L90.13,90l-4-18.58.38-.72a36.72,36.72,0,0,0,4.25-17.22A37.18,37.18,0,0,0,53.66,16.29Z" transform="translate(-12.02 -11.78)"/><path class="cls-2" d="M62.89,133.45A10.85,10.85,0,1,1,52,122.6,10.85,10.85,0,0,1,62.89,133.45Z" transform="translate(-12.02 -11.78)"/></symbol>
	<symbol id="cita" viewBox="0 0 110.09 119.97"><defs><style>.cls-1{fill:#fff;}</style></defs><path class="cls-1" d="M55.09,97.58h8.29v26A1.42,1.42,0,0,0,64.81,125h7.28a1.42,1.42,0,0,0,1.43-1.42V83.85a1.43,1.43,0,0,0-1.43-1.43h-6.2a1.43,1.43,0,0,0-1.43,1.43A5.16,5.16,0,0,1,64.22,85,5.6,5.6,0,0,1,63,87.3,5.78,5.78,0,0,1,59.93,89a32.78,32.78,0,0,1-4.91.46,1.43,1.43,0,0,0-1.36,1.43v5.3A1.43,1.43,0,0,0,55.09,97.58Zm1.42-5.38a28.59,28.59,0,0,0,4-.45,8.7,8.7,0,0,0,4.54-2.49A8.19,8.19,0,0,0,67,85.83c.06-.2.11-.38.15-.56h3.57v36.89H66.23v-26a1.42,1.42,0,0,0-1.42-1.42h-8.3Z" transform="translate(-25.61 -24.15)"/><path class="cls-1" d="M82,122a15.47,15.47,0,0,0,10.2,3.36c5.1,0,9-1.63,11.65-4.84a16.59,16.59,0,0,0,3.84-10.72c0-4.6-1.39-8.2-4.13-10.67A13.79,13.79,0,0,0,94,95.44a13.32,13.32,0,0,0-4.63.72c-.21.08-.43.18-.66.29l.38-4.64h13a1.43,1.43,0,0,0,1.43-1.42V83.78a1.43,1.43,0,0,0-1.43-1.43H80.77a1.42,1.42,0,0,0-1.42,1.33l-1.5,21.89a1.48,1.48,0,0,0,.36,1.05,1.39,1.39,0,0,0,1,.47l7.78.33a1.43,1.43,0,0,0,1.33-.77,3.44,3.44,0,0,1,1.94-1.74,6.47,6.47,0,0,1,2-.28,3.56,3.56,0,0,1,3.24,1.47,7.55,7.55,0,0,1,1.17,4.32,7,7,0,0,1-1.23,4.28,3.72,3.72,0,0,1-3.26,1.47,3.62,3.62,0,0,1-2.79-1A6.18,6.18,0,0,1,88,112a1.42,1.42,0,0,0-1.4-1.17H78.83a1.43,1.43,0,0,0-1,.45,1.47,1.47,0,0,0-.38,1.08A13.24,13.24,0,0,0,82,122Zm3.51-8.28a8.19,8.19,0,0,0,1.87,3.48A6.39,6.39,0,0,0,92.18,119a6.54,6.54,0,0,0,5.55-2.61,9.78,9.78,0,0,0,1.79-6,10.38,10.38,0,0,0-1.66-5.92,6.35,6.35,0,0,0-5.6-2.72,9.27,9.27,0,0,0-2.94.44,6.25,6.25,0,0,0-3,2.32l-5.48-.23L82.1,85.2h18.53V89H87.76a1.43,1.43,0,0,0-1.42,1.31l-.71,8.67a1.44,1.44,0,0,0,.7,1.34,1.4,1.4,0,0,0,1.5,0,14.92,14.92,0,0,1,2.53-1.41A10.48,10.48,0,0,1,94,98.29a10.86,10.86,0,0,1,7.61,2.94c2.15,1.94,3.19,4.74,3.19,8.56a13.65,13.65,0,0,1-3.2,8.92c-2.09,2.55-5.17,3.79-9.44,3.79a12.51,12.51,0,0,1-8.37-2.7,9.78,9.78,0,0,1-3.35-6.09Z" transform="translate(-25.61 -24.15)"/><path class="cls-1" d="M123.58,42.69h-3.5a2,2,0,0,0-.85.18V31.18a7,7,0,1,0-14.06,0V42.73a2.58,2.58,0,0,0-.39,0H56.53a2.26,2.26,0,0,0-.53.07V31.18a7,7,0,0,0-14.07,0V42.82a2.08,2.08,0,0,0-.71-.13H37.73A12.13,12.13,0,0,0,25.61,54.81V132a12.12,12.12,0,0,0,12.12,12.11h85.85A12.13,12.13,0,0,0,135.7,132V54.81A12.14,12.14,0,0,0,123.58,42.69ZM109.11,31.18a3.09,3.09,0,0,1,6.18,0V52.34a3.09,3.09,0,1,1-6.18,0Zm-63.24,0a3.1,3.1,0,0,1,6.19,0V52.34a3.1,3.1,0,1,1-6.19,0ZM131.42,132a7.85,7.85,0,0,1-7.84,7.84H37.73A7.85,7.85,0,0,1,29.88,132V54.81A7.86,7.86,0,0,1,37.73,47h1.36v4.19a9.79,9.79,0,1,0,19.57,0V47h44v4.19a9.79,9.79,0,1,0,19.58,0V47h1.36a7.85,7.85,0,0,1,7.84,7.85Z" transform="translate(-25.61 -24.15)"/><path class="cls-1" d="M125.21,73.46H36.46a2.13,2.13,0,0,0-2.13,2.14V128a7.36,7.36,0,0,0,7.35,7.35H120a7.36,7.36,0,0,0,7.35-7.35V75.6A2.13,2.13,0,0,0,125.21,73.46ZM123.07,128a3.08,3.08,0,0,1-3.08,3.08H41.68A3.08,3.08,0,0,1,38.6,128V77.73h84.47Z" transform="translate(-25.61 -24.15)"/></symbol>
	<symbol id="cita2" viewBox="0 0 119.96 130.74"><defs><style>.cls-1{fill:#fff;}</style></defs><path class="cls-1" d="M48.76,92.07h9v28.34A1.56,1.56,0,0,0,59.35,122h7.94a1.55,1.55,0,0,0,1.55-1.56V77.11a1.54,1.54,0,0,0-1.55-1.55H60.53A1.54,1.54,0,0,0,59,77.11a5.29,5.29,0,0,1-.27,1.29,6,6,0,0,1-1.3,2.47A6.4,6.4,0,0,1,54,82.69a37.32,37.32,0,0,1-5.35.49,1.56,1.56,0,0,0-1.48,1.56v5.78A1.56,1.56,0,0,0,48.76,92.07Zm1.56-5.86a30.47,30.47,0,0,0,4.39-.49A9.42,9.42,0,0,0,59.66,83a9,9,0,0,0,2-3.74c.06-.21.12-.41.16-.6h3.89v40.2H60.91V90.52A1.56,1.56,0,0,0,59.35,89h-9Z" transform="translate(-16.64 -12.06)"/><path class="cls-1" d="M78,118.67a16.83,16.83,0,0,0,11.11,3.67c5.56,0,9.83-1.78,12.69-5.28A18.06,18.06,0,0,0,106,105.38c0-5-1.51-8.93-4.5-11.63a15,15,0,0,0-10.38-4,14.3,14.3,0,0,0-5,.79l-.73.31.42-5H99.94a1.55,1.55,0,0,0,1.55-1.56V77a1.54,1.54,0,0,0-1.55-1.55H76.74a1.54,1.54,0,0,0-1.54,1.44l-1.63,23.86a1.56,1.56,0,0,0,1.48,1.66l8.48.36A1.56,1.56,0,0,0,85,102a3.79,3.79,0,0,1,2.12-1.9,7,7,0,0,1,2.18-.3,3.88,3.88,0,0,1,3.53,1.6,8.22,8.22,0,0,1,1.28,4.71,7.73,7.73,0,0,1-1.34,4.66,4.09,4.09,0,0,1-3.56,1.6,4,4,0,0,1-3-1,6.74,6.74,0,0,1-1.52-3.48,1.56,1.56,0,0,0-1.53-1.28H74.63a1.56,1.56,0,0,0-1.55,1.67A14.43,14.43,0,0,0,78,118.67Zm3.82-9a8.89,8.89,0,0,0,2,3.79,7,7,0,0,0,5.29,2,7.13,7.13,0,0,0,6-2.85,10.72,10.72,0,0,0,2-6.51,11.33,11.33,0,0,0-1.81-6.46,6.91,6.91,0,0,0-6.1-3,9.92,9.92,0,0,0-3.2.48,6.8,6.8,0,0,0-3.32,2.52l-6-.25,1.42-20.82h20.2v4.1h-14a1.56,1.56,0,0,0-1.55,1.43l-.77,9.44A1.54,1.54,0,0,0,82.8,95a1.56,1.56,0,0,0,1.65,0,15.14,15.14,0,0,1,2.75-1.54,11.5,11.5,0,0,1,4-.59,11.89,11.89,0,0,1,8.3,3.2c2.34,2.12,3.47,5.17,3.47,9.33a14.89,14.89,0,0,1-3.48,9.72c-2.28,2.78-5.64,4.13-10.29,4.13A13.64,13.64,0,0,1,80,116.29a10.65,10.65,0,0,1-3.65-6.64Z" transform="translate(-16.64 -12.06)"/><path class="cls-1" d="M123.4,32.26h-3.81a2.38,2.38,0,0,0-.93.19V19.72a7.67,7.67,0,0,0-15.33,0V32.3a3,3,0,0,0-.42,0H50.33a2.12,2.12,0,0,0-.57.08V19.72a7.67,7.67,0,0,0-15.33,0V32.4a2.25,2.25,0,0,0-.78-.14H29.84a13.22,13.22,0,0,0-13.2,13.21v84.12a13.21,13.21,0,0,0,13.2,13.2H123.4a13.21,13.21,0,0,0,13.2-13.2V45.47A13.22,13.22,0,0,0,123.4,32.26ZM107.63,19.72a3.37,3.37,0,1,1,6.73,0V42.78a3.37,3.37,0,1,1-6.73,0Zm-68.91,0a3.37,3.37,0,0,1,6.74,0V42.78a3.37,3.37,0,1,1-6.74,0Zm93.22,109.87a8.55,8.55,0,0,1-8.54,8.54H29.84a8.55,8.55,0,0,1-8.54-8.54V45.47a8.55,8.55,0,0,1,8.54-8.55h1.49v4.55a10.67,10.67,0,1,0,21.33,0V36.92h47.92v4.55a10.67,10.67,0,1,0,21.33,0V36.92h1.49a8.55,8.55,0,0,1,8.54,8.55Z" transform="translate(-16.64 -12.06)"/><path class="cls-1" d="M125.17,65.79H28.47a2.33,2.33,0,0,0-2.33,2.33v57.15a8,8,0,0,0,8,8h85.34a8,8,0,0,0,8-8V68.12A2.33,2.33,0,0,0,125.17,65.79Zm-2.33,59.48a3.36,3.36,0,0,1-3.35,3.35H34.15a3.36,3.36,0,0,1-3.35-3.35V70.45h92Z" transform="translate(-16.64 -12.06)"/></symbol>
	<symbol id="casa"  viewBox="0 0 120.19 120.11"><defs><style>.cls-1{fill:#2a4b9b;fill-rule:evenodd;}</style></defs><path class="cls-1" d="M39.9,25.33H72.22l-1.61,1.61-30.16,36-1.6-.55v-37ZM32,145.44H69.56V112.11H84.37v33.33h38.14V95.2h14.8L77.49,27.49,17.12,95.2H32Zm10.59-43.92h18v18h-18Zm54,0H114v18H96.56Z" transform="translate(-17.12 -25.33)"/></symbol>
	<symbol id="campana" viewBox="0 0 67.24 131.9"><defs><style>.cls-1{fill:#2a4b9b;}.cls-2{fill:#f6f6f6;}</style></defs><circle class="cls-1" cx="32.37" cy="121.6" r="10.3"/><path class="cls-2" d="M50.77,102.51a12,12,0,0,1-12-11.59H26a8.18,8.18,0,0,1-7.83-10.49L21.84,68,24,48.06A27.39,27.39,0,0,1,41.58,25.35a9.59,9.59,0,0,1-.33-2.5,9.92,9.92,0,0,1,19.84,0,9.37,9.37,0,0,1-.3,2.36,27.69,27.69,0,0,1,18,23l2,19.3,3.92,12.81a8.18,8.18,0,0,1-7.81,10.57H62.74A12,12,0,0,1,50.77,102.51Zm.4-85.3a5.65,5.65,0,0,0-5.64,5.64,5.53,5.53,0,0,0,.75,2.75L47.63,28,45,28.72A23.13,23.13,0,0,0,28.29,48.53L26,69,22.26,81.64a3.88,3.88,0,0,0,3.72,5H43.67l-.45,2.52a8.68,8.68,0,0,0-.14,1.39,7.69,7.69,0,1,0,15.24-1.39l-.45-2.52h19a3.88,3.88,0,0,0,3.72-5L76.52,68.19l-2-19.51a23.37,23.37,0,0,0-17.1-20l-2.64-.7,1.31-2.4a5.5,5.5,0,0,0,.72-2.68A5.64,5.64,0,0,0,51.17,17.21Z" transform="translate(-17.81 -12.93)"/></symbol>
	<symbol id="buscador" viewBox="0 0 103.02 102.83"><defs><style>.cls-1{fill:#2a4b9b;fill-rule:evenodd;}</style></defs><path class="cls-1" d="M122.69,127.71,105,110.13a6.12,6.12,0,0,0-6.78-1.37l-3.17-3.17a42.16,42.16,0,0,0-1.8-58.3c-16.29-16.21-43-16.21-59.7,0C17.3,64,17.3,90.67,33.59,107c15.82,16.21,41.61,16.64,58.33,1.8l3.17,3.17a6.12,6.12,0,0,0,1.37,6.7l17.62,17.65a6.35,6.35,0,0,0,8.61,0c2.27-2.73,2.27-6.26,0-8.57ZM88.32,102h0c-13.59,14-35.74,14-49.76,0C25,88.44,25,66.24,38.56,52.26c14-13.54,36.17-13.54,49.76,0,13.54,14,13.54,36.18,0,49.72Z" transform="translate(-21.37 -35.13)"/></symbol>
	<symbol id="baño"  viewBox="0 0 133.32 112.38"><defs><style>.cls-1{fill:#fff;stroke:#fff;stroke-miterlimit:10;stroke-width:0.2px;}</style></defs><path class="cls-1" d="M25.45,94.88H23.54V40c0-4.44,3.26-8.06,7.27-8.06H36.5c4,0,7.27,3.62,7.27,8.06v5.71H41.86V40c0-3.39-2.4-6.16-5.36-6.16H30.81c-3,0-5.36,2.77-5.36,6.16Z" transform="translate(-11.18 -31.86)"/><path class="cls-1" d="M115.43,134.25H40.26A20.74,20.74,0,0,1,20,117.8L16.12,99.6H139.57l-3.85,18.2a20.74,20.74,0,0,1-20.29,16.45Zm-97-32.75,3.36,15.91a18.84,18.84,0,0,0,18.43,14.93h75.17a18.84,18.84,0,0,0,18.43-14.93l3.36-15.91Z" transform="translate(-11.18 -31.86)"/><path class="cls-1" d="M144.39,100.52H11.28V93.87H144.39ZM13.18,99.21H142.49v-4H13.18Z" transform="translate(-11.18 -31.86)"/><path class="cls-1" d="M40.83,144.14H35.56l2.07-11.8H47Zm-3-1.91h1.85l4.2-8H39.23Z" transform="translate(-11.18 -31.86)"/><path class="cls-1" d="M120.13,144.14h-5.27l-6.2-11.8h9.41ZM116,142.23h1.85l-1.4-8h-4.65Z" transform="translate(-11.18 -31.86)"/><path class="cls-1" d="M49.16,56.32h-13a2.3,2.3,0,0,1-1.71-3.85l6.65-7.31a2.3,2.3,0,0,1,3.43,0l6.39,7.3a2.3,2.3,0,0,1-1.73,3.82Zm-6.39-10a.35.35,0,0,0-.29.13l-6.65,7.3a.38.38,0,0,0-.07.43.39.39,0,0,0,.37.23h13a.37.37,0,0,0,.36-.23.38.38,0,0,0-.06-.42l-6.39-7.31a.41.41,0,0,0-.3-.13Z" transform="translate(-11.18 -31.86)"/><path class="cls-1" d="M135.62,79H94V37h41.58ZM96,77.1h37.76V38.9H96Z" transform="translate(-11.18 -31.86)"/><path class="cls-1" d="M138.4,40.89H90.32a.94.94,0,0,1-.95-1v-5a1,1,0,1,1,1.9,0V39h46.18V34.92a1,1,0,1,1,1.9,0v5A.94.94,0,0,1,138.4,40.89Z" transform="translate(-11.18 -31.86)"/><path class="cls-1" d="M135.62,69.47H94V37h41.58ZM96,67.57h37.76V38.9H96Z" transform="translate(-11.18 -31.86)"/><path class="cls-1" d="M86.8,33.56h0Z" transform="translate(-11.18 -31.86)"/><path class="cls-1" d="M141.62,34.51H86.8a1,1,0,1,1,0-1.9h54.82a1,1,0,1,1,0,1.9Z" transform="translate(-11.18 -31.86)"/></symbol>
	<symbol id="balcon"	 viewBox="0 0 117.26 98.02"><defs><style>.cls-1{fill:#2a4b9b;fill-rule:evenodd;}</style></defs><g id="Shape_1" data-name="Shape 1"><path class="cls-1" d="M131.26,123.33h-12.5V79.92h5.84v28.94a2.34,2.34,0,1,0,4.67,0V79.92h2a2.33,2.33,0,1,0,0-4.66h-22.9V41.41A2.33,2.33,0,0,0,106,39.08H43.89a2.33,2.33,0,0,0-2.33,2.33V75.26H18.67a2.33,2.33,0,1,0,0,4.66h2v43.41h-2a2.34,2.34,0,0,0-2.34,2.34v9.1a2.33,2.33,0,0,0,2.34,2.33H131.26a2.33,2.33,0,0,0,2.33-2.33v-9.1A2.33,2.33,0,0,0,131.26,123.33Zm-22.9-43.41h5.73v43.41h-5.73ZM46.23,43.75h57.46V75.26H98.07V52.15a2.33,2.33,0,0,0-2.33-2.33H54.19a2.33,2.33,0,0,0-2.34,2.33V75.26H46.23Zm57.46,36.17v43.41H98.07V79.92ZM77.18,75.26V54.48H93.4V75.26ZM93.4,79.92v43.41H87.69V79.92ZM83,79.92v43.41H77.18V79.92Zm-26.5-4.66V54.48h16V75.26Zm16,4.66v43.41H66.9V79.92Zm-10.28,0v43.41H56.52V79.92Zm-16,0h5.62v43.41H46.23Zm-10.63,0h6v43.41h-6Zm-10.28,0h5.61v43.41H25.32Zm103.6,52.52H21V128H128.92Zm-2-18.44a2.33,2.33,0,0,0-2.34,2.33V118a2.34,2.34,0,0,0,4.67,0v-1.64A2.33,2.33,0,0,0,126.94,114Z" transform="translate(-16.33 -39.08)"/></g></symbol>
	<symbol id="asador"  viewBox="0 0 115.07 126.72"><defs><style>.cls-1{fill:#2a4b9b;}</style></defs><path class="cls-1" d="M93.87,15.06c1.49,2.7,1.22,3.11-2.76,4v3.34h8.42c10.7.05,18.63,6.56,20.83,17A5.26,5.26,0,0,0,122.1,42c2.67,2.27,3.11,6.34.35,8.35-1.93,1.4-2.2,3-2.1,5.1,2.09.37,3.88.69,5.47-1.6,1.74-2.5,5.38-2.49,7.66-.46a5.51,5.51,0,0,1-7.28,8.26c-2.85-2.47-2.85-2.47-6.35-2.21-2.29,3.74-4.09,7.56-6.71,10.72a39.49,39.49,0,0,1-8.39,7.08c-1.56,1-1.79,1.91-1.4,3.51q6.72,28,13.36,55.94c.36,1.49,1.5,3.59-.76,4.21-2.56.7-2.42-1.89-2.79-3.4-2.26-9.23-4.47-18.47-6.57-27.74-.43-1.88-1.23-2.42-3.13-2.41q-25.36.12-50.72,0c-1.92,0-2.81.53-3.11,2.43-.34,2.09-.91,4.14-1.37,6.17,6.6,3.46,10.16,10.21,6.83,17.64a12.77,12.77,0,0,1-15.16,7,13,13,0,0,1-9.44-13.37c.69-7.09,5.59-11.39,14.1-12.08Q48.94,97,53.37,78.5A32.39,32.39,0,0,1,37,59.39a22.1,22.1,0,0,0-3.64,0A4.07,4.07,0,0,0,31,60.62c-2.31,2.77-6,3.23-8.41.9a5.51,5.51,0,0,1,.15-8.09,5.31,5.31,0,0,1,8.14,1c1.42,2.09,3.17.94,5,1.25.06-2.13.1-3.75-1.91-5.16-2.91-2-2.57-6.16.17-8.53a5.68,5.68,0,0,0,1.79-2.85A20.48,20.48,0,0,1,56.44,22.45H65.1V19.11c-4-.94-4.25-1.35-2.75-4ZM116.65,52h-2.88q-33.36,0-66.71,0c-1.5,0-3.83.7-3.86-1.75,0-2.71,2.44-1.85,4-1.85q34.46-.08,68.92,0a7.67,7.67,0,0,0,2.68-.14c.69-.27,1.72-1.25,1.61-1.67-.18-.73-1-1.4-1.78-1.86-.41-.26-1.11-.06-1.69-.06H39.38a5,5,0,0,0-2,.08c-.66.3-1.5.91-1.6,1.51S36.4,48,36.88,48c2.31.43,2.37,2,2.52,3.83,1.26,14.66,12,25.28,26.69,25.88,8.6.35,17.24.3,25.83-.15C105,76.91,116.18,65.18,116.65,52ZM39.79,40.79h76.89c-.17-1-.23-1.76-.45-2.53-2.07-7.39-8.42-12-16.58-12.08q-21.54-.06-43.08,0A20.12,20.12,0,0,0,51,27C44.64,28.81,39.62,35.05,39.79,40.79Zm55,40.37c0,2.84-.07,5.62,0,8.4.07,2.2-.83,3.13-3,3.12q-13.66-.06-27.34,0c-2.25,0-3.06-1-3-3.18.1-2.77,0-5.55,0-8.39L56.82,80c-1.9,8-3.76,15.74-5.64,23.66h53.87c-1.91-8-3.79-15.81-5.69-23.71ZM65.31,88.79h25.5V81.7H65.31ZM52.57,128.33a9.18,9.18,0,1,0-9.3,9.08A9.15,9.15,0,0,0,52.57,128.33ZM68.92,22.27H87.21V19H68.92ZM29,57.63c-1.2-.88-1.93-1.83-2.48-1.73-.73.13-1.32,1.07-2,1.66.57.6,1.12,1.65,1.71,1.68S27.74,58.43,29,57.63Zm103.43,0c-1.19-.89-1.92-1.84-2.47-1.74-.74.12-1.33,1.06-2,1.66.57.6,1.12,1.65,1.71,1.68S131.17,58.43,132.44,57.64Z" transform="translate(-20.57 -14.74)"/><path class="cls-1" d="M43.44,141.45a13.56,13.56,0,0,1-3.6-.48,13.33,13.33,0,0,1-9.68-13.72c.71-7.22,5.74-11.6,14.17-12.36L53,78.67a32.49,32.49,0,0,1-16.24-19l-.86,0a12.89,12.89,0,0,0-2.49.07,3.87,3.87,0,0,0-2.15,1.07,6.65,6.65,0,0,1-4.69,2.51,5.62,5.62,0,0,1-4.19-1.58,5.85,5.85,0,0,1,.15-8.58,5.64,5.64,0,0,1,8.63,1.09c.87,1.29,1.81,1.21,3,1.11a7.79,7.79,0,0,1,1.37,0c0-1.88,0-3.28-1.78-4.52a5,5,0,0,1-2.17-3.91,6.45,6.45,0,0,1,2.32-5.13,5.35,5.35,0,0,0,1.68-2.68,20.83,20.83,0,0,1,20.85-17c2,0,3.91,0,5.9,0h2.44V19.37c-2.13-.51-3.15-.89-3.48-1.64s0-1.48.77-2.83l.1-.16h31.9l.09.16c.75,1.35,1.07,2.16.77,2.83s-1.35,1.13-3.48,1.64v2.76h8.1c10.8,0,18.91,6.64,21.14,17.22a5,5,0,0,0,1.63,2.44,6.44,6.44,0,0,1,2.33,5.06,4.84,4.84,0,0,1-2,3.8c-1.7,1.25-2,2.58-2,4.57,1.94.34,3.48.51,4.88-1.51a4.82,4.82,0,0,1,3.45-2,6.1,6.1,0,0,1,4.7,1.52,5.84,5.84,0,0,1,.49,8.2,5.9,5.9,0,0,1-8.2.55c-2.7-2.34-2.74-2.38-5.95-2.15-.67,1.09-1.3,2.21-1.91,3.28a48.75,48.75,0,0,1-4.74,7.33,39.77,39.77,0,0,1-8.46,7.15c-1.5,1-1.6,1.77-1.26,3.16,4.16,17.34,8.54,35.63,13.36,55.94.06.25.14.51.23.79a3.84,3.84,0,0,1,.16,2.85,2.13,2.13,0,0,1-1.39,1,2.21,2.21,0,0,1-1.87-.14c-.81-.52-1-1.65-1.16-2.65,0-.3-.09-.59-.15-.84-2.5-10.19-4.65-19.27-6.58-27.75-.38-1.66-1-2.15-2.76-2.15h-.05c-16.95.09-34,.08-50.72,0h-.05c-1.83,0-2.48.51-2.74,2.15-.23,1.47-.59,2.94-.94,4.36-.13.53-.25,1.06-.38,1.59,7.14,3.86,9.85,11,6.75,17.94A13,13,0,0,1,43.44,141.45ZM34.81,59l1.1,0,1.08,0h.23l.08.23A31.91,31.91,0,0,0,53.52,78.21l.23.12-.06.25-8.83,36.93h-.24c-8.34.68-13.12,4.76-13.81,11.79a12.68,12.68,0,0,0,9.2,13,12.46,12.46,0,0,0,14.78-6.85c3-6.74.4-13.5-6.69-17.21l-.22-.12.06-.24c.14-.61.29-1.23.44-1.84.34-1.41.69-2.86.93-4.31.35-2.25,1.56-2.7,3.38-2.7h.06c16.71.08,33.77.08,50.71,0h0c2.07,0,3,.7,3.41,2.66,1.92,8.47,4.07,17.55,6.57,27.74.06.27.12.57.17.89.14.86.3,1.84.87,2.2a1.65,1.65,0,0,0,1.34.06,1.47,1.47,0,0,0,1-.64,3.31,3.31,0,0,0-.21-2.35c-.09-.29-.17-.57-.24-.83-4.82-20.3-9.19-38.6-13.36-55.93A3.08,3.08,0,0,1,104.56,77a39.68,39.68,0,0,0,8.33-7,48.89,48.89,0,0,0,4.68-7.24c.64-1.13,1.3-2.29,2-3.44l.08-.15h.17c3.6-.26,3.67-.25,6.59,2.3A5.27,5.27,0,0,0,133.7,61a5.19,5.19,0,0,0-.44-7.29,5.41,5.41,0,0,0-4.18-1.35,4.17,4.17,0,0,0-3,1.76c-1.71,2.46-3.7,2.11-5.8,1.73l-.25,0v-.26c-.11-2.3.22-3.92,2.23-5.39A4.21,4.21,0,0,0,124,46.83a5.81,5.81,0,0,0-2.1-4.54,5.64,5.64,0,0,1-1.84-2.8c-2.18-10.27-10-16.67-20.51-16.71-1.94,0-3.87,0-5.84,0H90.79V18.85l.25-.06c2-.46,3.06-.81,3.29-1.32s-.11-1.07-.66-2.08H62.54c-.55,1-.83,1.68-.66,2.08s1.34.86,3.29,1.32l.25.06v3.93h-9A20.21,20.21,0,0,0,36.22,39.24a6,6,0,0,1-1.89,3,5.8,5.8,0,0,0-2.1,4.6,4.37,4.37,0,0,0,1.89,3.42c2.18,1.52,2.12,3.33,2.05,5.43v.37L35.79,56a6.42,6.42,0,0,0-1.58,0c-1.24.1-2.52.2-3.6-1.39a5.14,5.14,0,0,0-9.39,2.81,5.21,5.21,0,0,0,1.6,3.84,4.93,4.93,0,0,0,3.43,1.4h.28a5.92,5.92,0,0,0,4.22-2.27,4.4,4.4,0,0,1,2.55-1.29A8.46,8.46,0,0,1,34.81,59Zm8.6,78.73h-.14a9.54,9.54,0,0,1,.13-19.07h.12a9.54,9.54,0,0,1-.11,19.08Zm0-18.42a8.88,8.88,0,0,0-.13,17.76h.13a8.77,8.77,0,0,0,8.85-8.75h0a8.8,8.8,0,0,0-8.74-9Zm62.07-15.38H50.76l5.81-24.38,5.2,1.29v.26c0,.86,0,1.72,0,2.57,0,1.92,0,3.9,0,5.84a3,3,0,0,0,.57,2.21,2.81,2.81,0,0,0,2.06.62h0c9.07,0,18.27,0,27.34,0h0a2.27,2.27,0,0,0,2.69-2.78c-.07-2-.06-3.95,0-5.88,0-.84,0-1.68,0-2.53v-.24L99.6,79.5Zm-53.88-.65h53.05l-5.52-23-4,1.1c0,.76,0,1.53,0,2.28,0,1.92,0,3.92,0,5.86A2.91,2.91,0,0,1,91.78,93h0C82.67,93,73.48,93,64.42,93h0a3.33,3.33,0,0,1-2.52-.83,3.48,3.48,0,0,1-.76-2.69c.06-1.92,0-3.89,0-5.8,0-.78,0-1.55,0-2.33l-4.06-1ZM91.13,89.12H65V81.37H91.13Zm-25.49-.65H90.48V82H65.64ZM77.46,78.3c-3.8,0-7.59-.07-11.38-.23-14.63-.59-25.74-11.36-27-26.17l0-.17c-.14-1.74-.25-3-2.24-3.36-.7-.13-1.43-1.52-1.31-2.23s1-1.4,1.78-1.75a3,3,0,0,1,1.52-.13l.57,0h77.53a4.56,4.56,0,0,0,.51,0,2.15,2.15,0,0,1,1.36.15,4,4,0,0,1,1.92,2.05c.17.69-1.11,1.78-1.81,2.06a5.07,5.07,0,0,1-2.09.18l-.71,0H100.18c-17.37,0-35.34,0-53,0h0c-.3,0-.62,0-1-.06-.88-.08-1.8-.17-2.28.28a1.7,1.7,0,0,0-.4,1.31,1.54,1.54,0,0,0,.4,1.16c.48.44,1.38.37,2.26.31.3,0,.6-.05.87-.05h0q27.1,0,54.2,0H117V52c-.48,13.36-12,25.22-25,25.91C87.15,78.18,82.31,78.3,77.46,78.3ZM38.19,44.88a1.47,1.47,0,0,0-.62.1c-.64.3-1.35.86-1.42,1.27a2,2,0,0,0,.79,1.47c2.48.46,2.63,2.24,2.77,4l0,.16C41,66.55,51.59,76.83,66.1,77.42c8.62.35,17.29.3,25.8-.15,12.66-.67,23.76-12,24.41-24.94h-15q-27.09,0-54.2,0h0c-.26,0-.54,0-.83.05a3.62,3.62,0,0,1-2.74-.48,2.18,2.18,0,0,1-.61-1.64,2.26,2.26,0,0,1,.61-1.79c.69-.65,1.81-.54,2.78-.45.31,0,.62.06.9.06h0c17.67,0,35.62,0,53,0h15.91c.24,0,.49,0,.74,0a4.58,4.58,0,0,0,1.81-.14c.64-.25,1.42-1.06,1.42-1.31-.12-.47-.67-1-1.63-1.64a1.75,1.75,0,0,0-.94-.05c-.2,0-.39,0-.58,0H39.38l-.62,0Zm91.55,14.69h-.05c-.57,0-1-.61-1.44-1.18-.17-.21-.33-.43-.5-.61l-.22-.24.24-.22a6.13,6.13,0,0,0,.55-.58,3.23,3.23,0,0,1,1.59-1.17c.5-.07,1,.34,1.66.93.31.27.66.58,1.06.88l.39.28-.41.25c-.41.27-.77.53-1.1.77A3.36,3.36,0,0,1,129.74,59.57Zm-1.3-2q.17.2.33.42c.3.4.69.9.95.92h0a3,3,0,0,0,1.38-.77c.23-.16.48-.35.76-.53l-.74-.63c-.43-.38-.87-.77-1.09-.77h0c-.4.07-.81.52-1.22,1Zm-102.13,2h0c-.57,0-1-.61-1.44-1.17a5.26,5.26,0,0,0-.5-.61l-.23-.24.25-.23a6.13,6.13,0,0,0,.55-.58,3.27,3.27,0,0,1,1.58-1.17c.51-.07,1,.34,1.67.92.31.27.66.58,1.06.88l.38.28-.4.26c-.41.26-.77.52-1.09.76A3.34,3.34,0,0,1,26.31,59.57Zm-1.3-2,.33.42c.31.4.69.9.95.92h0a3.17,3.17,0,0,0,1.39-.77c.23-.17.47-.35.75-.54-.28-.22-.52-.43-.74-.63-.43-.38-.88-.76-1.09-.76h0a2.71,2.71,0,0,0-1.21,1Zm92.06-16.46H39.48V40.8c-.18-5.91,5-12.27,11.43-14.17a20.59,20.59,0,0,1,5.67-.75c13.85-.06,27.95-.07,43.08,0,8.3,0,14.77,4.74,16.9,12.32a11.91,11.91,0,0,1,.31,1.64c0,.29.09.59.14.92Zm-76.95-.65H116.3c0-.19-.06-.37-.09-.55a11.28,11.28,0,0,0-.29-1.57c-2-7.28-8.28-11.82-16.27-11.84-15.14,0-29.22,0-43.08,0a20,20,0,0,0-5.48.73C45,29,40.14,34.92,40.12,40.47ZM87.53,22.6H68.59V18.68H87.53Zm-18.29-.66H86.88V19.33H69.24Z" transform="translate(-20.57 -14.74)"/><path class="cls-1" d="M48.94,128.31A5.54,5.54,0,1,1,37.86,128a5.54,5.54,0,0,1,11.08.29Zm-5.67,2.4c.88-1.07,1.84-1.75,1.76-2.28-.11-.73-1-1.35-1.55-2-.62.62-1.56,1.15-1.74,1.87C41.61,128.79,42.5,129.56,43.27,130.71Z" transform="translate(-20.57 -14.74)"/><path class="cls-1" d="M43.39,134.07h0a5.85,5.85,0,0,1-4.2-1.86A5.75,5.75,0,0,1,37.54,128a5.82,5.82,0,0,1,5.87-5.58h.14a5.82,5.82,0,0,1,5.71,5.9h0A6,6,0,0,1,43.39,134.07Zm0-11a5.18,5.18,0,0,0,0,10.35h0a5.31,5.31,0,0,0,5.22-5.12h0a5.17,5.17,0,0,0-5.07-5.23Zm-.16,8.19-.25-.37c-.26-.38-.53-.73-.78-1-.54-.68-.93-1.17-.8-1.67a3.22,3.22,0,0,1,1.24-1.5,7.54,7.54,0,0,0,.59-.52l.25-.25.23.28c.16.19.35.38.54.57a3.23,3.23,0,0,1,1.09,1.62c.07.5-.36,1-1,1.57-.27.28-.58.6-.88,1Zm.21-4.39-.38.32a2.87,2.87,0,0,0-1,1.16c0,.19.34.67.69,1.1.17.22.37.46.56.73.21-.24.43-.47.63-.67.38-.4.81-.84.78-1a2.87,2.87,0,0,0-.9-1.25Z" transform="translate(-20.57 -14.74)"/></symbol>
	<symbol id="areas-verdes" viewBox="0 0 131.04 131.15"><defs><style>.cls-1{fill:#2a4b9b;}</style></defs><path class="cls-1" d="M94.78,14.13c4.38,1.17,8.45,3.07,10.7,7.15,1.43,2.59,1.43,6.06,3.09,8.43s4.86,3.27,6.67,5.44a12.81,12.81,0,0,1,2.38,6.51A3.72,3.72,0,0,0,119.89,45a17,17,0,0,1,7.57,8c.61,1.26,1,2.69-.61,3.18-.69.22-2.23-.65-2.66-1.43a15.62,15.62,0,0,0-7.63-7.18,4.08,4.08,0,0,1-2.6-4.25c.15-4.53-1.84-7.65-6.21-9.1-2.24-.74-3.12-2.31-3.29-4.59A12.22,12.22,0,0,0,80,29.7a4.72,4.72,0,0,1-3.56,4.67c-3.72,1.23-5.86,3.91-5.86,7.76,0,3-.79,5.15-4,6,1.15,4.64,2.51,9,3.29,13.49,1,5.92,1.55,11.92,2.38,17.88a6.26,6.26,0,0,0,1.13,3c3.92,4.81,12.33,4.62,16.19-.28,1.34-1.7.8-12.56-.72-14.1-2-2-4.08-4.08-6.12-6.12-1-1-2.08-2.1-.74-3.45s2.47-.29,3.45.73c1.38,1.45,2.75,2.92,4.12,4.39l.66-.3a64.33,64.33,0,0,1,.09-7.22c.11-1,1-2.57,1.81-2.69,1.82-.29,2,1.34,2,2.78,0,3.56.06,7.13.1,10.69,0,.05.11.1.43.38a56.31,56.31,0,0,1,4.58-4.56c.73-.58,2.36-1,3-.54,1.36.92.67,2.18-.35,3.18-2,2-3.88,4-6,5.91A4.66,4.66,0,0,0,94.2,75.7a6.93,6.93,0,0,1,0,1c0,5.42.93,6.94,5.22,8.52s8.94.61,11.58-2.77c1.17-1.49,1.65-3.49,2.68-5.11.86-1.34,1.82-2.9,3.14-3.6,4.14-2.2,7-5.24,8.15-9.85.33-1.36.73-2.88,2.59-2.39s1.56,2,1.1,3.35c-.82,2.29-1.81,4.52-2.77,6.86a1.18,1.18,0,0,0,.45.34c8.41,2.05,13,7.76,15.21,15.8l.6,2.17v6.63c-2.31,9.29-7.17,16.17-17.2,18v26.09c4.68,0,9.25-.08,13.81.06,1.14,0,2.26.77,3.39,1.18v1.53a12,12,0,0,1-3.27,1q-61.87.08-123.76,0c-.59,0-1.31.17-1.75-.1-.64-.4-1.56-1.2-1.49-1.71a3.25,3.25,0,0,1,1.62-1.85,4.37,4.37,0,0,1,2-.12H40V113.11c-1.54-.32-3.1-.58-4.63-1C23.34,109,14,98,12.21,85.17,10.89,75.7,13,66.6,15,57.49c.65-3,1.57-5.89,2.41-8.82.4-1.37.74-3.14,2.73-2.57s1.27,2.16.95,3.6c-1.71,7.6-3.74,15.15-4.95,22.83-1.82,11.51.59,22,9.55,30.18A23.09,23.09,0,0,0,40.13,109c0-4.82,0-9.46-.06-14.09,0-.61-.74-1.28-1.25-1.81C36.75,91,34.54,89,32.59,86.71c-.54-.62-.36-1.89-.51-2.86,1,.08,2.43-.23,3.06.32a41.08,41.08,0,0,1,4.11,4.68l.91-.61V75.37a5.65,5.65,0,0,1,.08-2.26,9.36,9.36,0,0,1,1.77-2c.62.66,1.71,1.28,1.78,2,.23,2.33.09,4.69.09,7.76,1.83-1.79,3.2-3.09,4.54-4.42,1-1,2.15-2,3.46-.67S52.16,78,51.22,79a4.66,4.66,0,0,1-.55.54c-6,4-7.68,9.67-6.86,16.63.48,4.09.08,8.29.08,13A53.17,53.17,0,0,0,49.16,108C60.81,104.3,69,92.4,68.35,78.9A115.18,115.18,0,0,0,53.89,28.24a32.82,32.82,0,0,0-5.4-7c-4.29-4.34-8.79-4.51-12.82,0-3.18,3.56-5.6,7.82-8.13,11.9-1.24,2-1.83,4.39-3,6.43-.45.79-1.74,1.08-2.65,1.6-.26-1-1-2.31-.68-3,2.67-5.37,5.36-10.76,8.45-15.89a19.55,19.55,0,0,1,10.12-8.09h4.58a21.69,21.69,0,0,1,10.57,8.7c2.45,3.93,4.65,8,6.7,12.2,1.48,3,2.55,6.22,3.8,9.34l.72.1c.2-.72.38-1.44.62-2.14.8-2.45,1.08-5.31,2.57-7.22C71,32.91,74.41,32,76,29.71s1.62-5.83,3-8.42c2.24-4.07,6.29-6,10.65-7.16ZM90.12,140.62V87c-6.34,3.67-12.38,3.81-18.35-.56-3.83,14.68-12.29,24.3-27.72,26.64v27.54Zm30.78-25.84c-9.08-2.59-14.14-7.17-16.23-15-.69-2.59-.63-5.37-1.08-8a2.78,2.78,0,0,0-1.28-2c-2.59-.88-5.27-1.51-8-2.23v53H120.9Zm4.26-4a38.61,38.61,0,0,0,4.69-1.91c6.42-3.64,9.78-12,8.05-19.87s-7.44-13.12-14.27-13.46c-3.41-.17-5.49,1.17-6.84,4.29a17.26,17.26,0,0,1-7.51,8.68,3.5,3.5,0,0,0-1.58,2.26c-.69,6.76,1.2,12.65,6.65,16.94,1.76,1.39,4,2.13,6.67,3.48v-3.67c0-4.41-.08-8.83.09-13.23,0-.8,1.11-1.57,1.7-2.35.67.79,1.74,1.49,1.93,2.38a22,22,0,0,1,.09,4.67l.9.54a12.23,12.23,0,0,1,2.31-3c.67-.47,1.9-.14,2.87-.17-.07.92.15,2-.27,2.71a9.76,9.76,0,0,1-2.65,2.71C125,104,124.18,106.85,125.16,110.83Z" transform="translate(-11.46 -13.8)"/><path class="cls-1" d="M14.08,144.94a1.66,1.66,0,0,1-.88-.2c-.18-.12-1.77-1.15-1.65-2.05a3.55,3.55,0,0,1,1.79-2.09,2.72,2.72,0,0,1,1.61-.19l.56,0H39.68V113.38l-1.16-.23c-1.06-.2-2.15-.42-3.22-.69-12.19-3.17-21.61-14.12-23.43-27.25-1.3-9.35.72-18.47,2.67-27.28l.11-.51c.52-2.39,1.23-4.78,1.91-7.09l.59-2a3.75,3.75,0,0,1,1.36-2.42,2.21,2.21,0,0,1,1.7-.1c2.06.59,1.65,2.18,1.32,3.47-.05.17-.09.35-.13.52-.48,2.11-1,4.21-1.47,6.31-1.28,5.39-2.6,11-3.48,16.5C14.51,84.89,17.69,95,25.9,102.46a22.75,22.75,0,0,0,13.89,6.15c0-1,0-2.09,0-3.13,0-3.64,0-7.08-.06-10.58,0-.42-.56-1-1-1.41l-.16-.17c-.73-.75-1.47-1.48-2.21-2.21-1.36-1.33-2.76-2.71-4-4.18a3.37,3.37,0,0,1-.52-2.09c0-.32,0-.64-.07-.94l-.07-.41.43,0a8.42,8.42,0,0,0,1,0,3.32,3.32,0,0,1,2.25.4,24.34,24.34,0,0,1,3,3.33c.31.39.63.78,1,1.16l.5-.34V75.37c0-.22,0-.45,0-.68A3.53,3.53,0,0,1,39.93,73a5.54,5.54,0,0,1,1.26-1.55q.3-.28.57-.57l.25-.27.25.26a6.37,6.37,0,0,0,.65.59c.57.48,1.16,1,1.22,1.6a47.32,47.32,0,0,1,.11,5.27c0,.55,0,1.12,0,1.72l1-1c1.11-1.07,2.06-2,3-2.91s2.29-2.31,3.95-.67a2.06,2.06,0,0,1,.69,1.45,3.55,3.55,0,0,1-1.36,2.28l-.14.16a2.57,2.57,0,0,1-.45.42c-5.45,3.68-7.59,8.87-6.72,16.31a60.91,60.91,0,0,1,.17,8.69c0,1.27-.07,2.57-.08,3.91l1.43-.27a24.87,24.87,0,0,0,3.4-.76c11.76-3.74,19.56-15.57,19-28.76A115.16,115.16,0,0,0,53.59,28.4a31.64,31.64,0,0,0-5.34-6.95c-2.11-2.14-4.24-3.22-6.33-3.22h-.15c-2,.05-4,1.13-5.85,3.21a68.4,68.4,0,0,0-6.9,9.9c-.4.65-.8,1.3-1.19,1.95a21.37,21.37,0,0,0-1.57,3.31,25,25,0,0,1-1.44,3.11A3.81,3.81,0,0,1,22.93,41a9.18,9.18,0,0,0-.89.42l-.39.23-.11-.44a7.54,7.54,0,0,0-.33-1A3.09,3.09,0,0,1,20.89,38c3-6,5.48-11,8.46-15.92a19.75,19.75,0,0,1,10.29-8.22l.12,0,4.71,0a21.86,21.86,0,0,1,10.72,8.83c2.23,3.57,4.42,7.58,6.72,12.23,1,2.1,1.88,4.32,2.69,6.47.34.9.69,1.81,1.05,2.71l.23,0,.11-.4c.14-.49.28-1,.44-1.47.23-.72.43-1.5.62-2.26a13.46,13.46,0,0,1,2-5.06,12.64,12.64,0,0,1,3.36-2.69,11.06,11.06,0,0,0,3.3-2.7,12.75,12.75,0,0,0,1.64-4.36,17.36,17.36,0,0,1,1.38-4c2.5-4.55,7.12-6.3,10.87-7.32h5.27c5.57,1.48,8.93,3.73,10.91,7.31a17.25,17.25,0,0,1,1.4,4,13,13,0,0,0,1.67,4.38,11.56,11.56,0,0,0,3.36,2.79,14.54,14.54,0,0,1,3.29,2.62c1.69,2,2.26,5,2.46,6.69a3.37,3.37,0,0,0,2.09,3.12,17.45,17.45,0,0,1,7.72,8.14,3.29,3.29,0,0,1,.4,2.66,1.82,1.82,0,0,1-1.22,1c-.87.28-2.57-.72-3.06-1.6a15.24,15.24,0,0,0-7.46-7,4.43,4.43,0,0,1-2.81-4.58c.16-4.45-1.85-7.4-6-8.77-2.22-.73-3.34-2.29-3.52-4.89A11.83,11.83,0,0,0,92.36,18.33h-.11A11.76,11.76,0,0,0,80.37,29.72a5,5,0,0,1-3.79,5C72.91,35.91,71,38.48,71,42.12c0,2.5-.47,5.18-3.88,6.23.34,1.35.69,2.68,1,4,.84,3.15,1.64,6.13,2.17,9.21.64,3.7,1.1,7.49,1.54,11.16.26,2.21.53,4.5.84,6.73a5.85,5.85,0,0,0,1.06,2.79,9.7,9.7,0,0,0,7.64,3.39h.09A10.18,10.18,0,0,0,89.4,82c1.22-1.55.67-12.27-.7-13.65-1.69-1.71-3.4-3.4-5.1-5.1l-1-1a5.42,5.42,0,0,1-1.32-1.72,1.94,1.94,0,0,1,.58-2.21,2.17,2.17,0,0,1,1.53-.74h0A3.69,3.69,0,0,1,85.77,59c1,1,1.89,2,2.83,3l1.14,1.21L90,63.1c0-.61,0-1.23,0-1.85a39.14,39.14,0,0,1,.11-5.19c.12-1,1.12-2.83,2.09-3a1.89,1.89,0,0,1,1.6.35,3.59,3.59,0,0,1,.8,2.76c0,3.52.06,7,.1,10.55h0l.06,0c.36-.37.71-.75,1.06-1.12a32.88,32.88,0,0,1,3.33-3.24c.77-.61,2.58-1.1,3.38-.56a1.83,1.83,0,0,1,.9,1.35,3.11,3.11,0,0,1-1.2,2.35c-.68.67-1.34,1.35-2,2-1.27,1.31-2.59,2.66-4,3.89a4.34,4.34,0,0,0-1.67,4.15,3.88,3.88,0,0,1,0,.76c0,.1,0,.21,0,.31,0,5.29.84,6.67,5,8.2,4.33,1.58,8.71.53,11.2-2.65a12.55,12.55,0,0,0,1.49-2.76,17.68,17.68,0,0,1,1.18-2.34l.07-.1a9.85,9.85,0,0,1,3.2-3.61c4.41-2.34,6.95-5.41,8-9.63A3.81,3.81,0,0,1,126,61.34a2.13,2.13,0,0,1,1.69-.15,2.19,2.19,0,0,1,1.47,1.05A3.55,3.55,0,0,1,129,65c-.57,1.62-1.22,3.17-1.91,4.82-.26.61-.52,1.22-.77,1.85a.34.34,0,0,0,.13.09c8,2,13,7.2,15.46,16,.2.72.39,1.45.6,2.17v6.71c-2.62,10.59-8.24,16.55-17.21,18.3v25.48l3.45,0c3.44,0,6.7,0,10,.07a6.65,6.65,0,0,1,2.45.76c.35.16.7.31,1.05.44l.22.08v2l-.24.08c-.34.11-.67.24-1,.37a6.41,6.41,0,0,1-2.36.62c-37.32,0-75.26,0-112,0H15.13l-.49,0A5.12,5.12,0,0,1,14.08,144.94Zm.26-3.88a1.42,1.42,0,0,0-.66.12,3,3,0,0,0-1.46,1.6c0,.23.56.89,1.34,1.38a1.85,1.85,0,0,0,1,.08l.54,0H26.92c36.7,0,74.65,0,112,0a6,6,0,0,0,2.11-.56l.82-.32v-1c-.29-.11-.58-.24-.87-.38a6.13,6.13,0,0,0-2.19-.7c-3.32-.09-6.57-.08-10-.06h-4.12V114.4l.28-.05c8.95-1.65,14.33-7.29,16.93-17.77V90.09c-.19-.71-.39-1.42-.58-2.14-2.36-8.58-7.25-13.67-15-15.56a1.19,1.19,0,0,1-.55-.36l-.2-.16.07-.27c.28-.7.57-1.39.86-2.07.68-1.63,1.33-3.18,1.9-4.77a3,3,0,0,0,.17-2.21,1.49,1.49,0,0,0-1-.7,1.45,1.45,0,0,0-1.18.07c-.57.34-.81,1.3-1,2.06-1,4.37-3.77,7.67-8.31,10.08a9.4,9.4,0,0,0-2.94,3.38l-.07.1a17.39,17.39,0,0,0-1.13,2.24,13.77,13.77,0,0,1-1.57,2.9c-2.68,3.43-7.38,4.55-12,2.87-4.42-1.62-5.44-3.27-5.44-8.83,0-.11,0-.23,0-.34a3.29,3.29,0,0,0,0-.63A5,5,0,0,1,95.75,71c1.37-1.22,2.68-2.56,4-3.86.67-.68,1.34-1.37,2-2a2.6,2.6,0,0,0,1-1.8,1.19,1.19,0,0,0-.61-.86,3.07,3.07,0,0,0-2.58.53,31.37,31.37,0,0,0-3.25,3.17c-.43.46-.86.91-1.3,1.36l-.22.23-.24-.21a2.92,2.92,0,0,0-.29-.24.51.51,0,0,1-.25-.4c0-3.56-.08-7.12-.11-10.69a3.17,3.17,0,0,0-.56-2.25,1.24,1.24,0,0,0-1-.19c-.54.08-1.43,1.47-1.53,2.38a41.47,41.47,0,0,0-.11,5.11c0,.69,0,1.39,0,2.08v.23L89.57,64,88.1,62.46c-.93-1-1.87-2-2.82-3-.6-.64-1.25-1.26-1.9-1.26h0a1.52,1.52,0,0,0-1.05.53,1.28,1.28,0,0,0-.44,1.49,5,5,0,0,0,1.17,1.48l1,1c1.7,1.7,3.41,3.4,5.1,5.11s2.22,12.67.75,14.54a10.89,10.89,0,0,1-8.46,3.91h-.1a10.37,10.37,0,0,1-8.16-3.63A6.53,6.53,0,0,1,72,79.54c-.32-2.25-.59-4.53-.86-6.75-.44-3.66-.89-7.44-1.52-11.12-.53-3.05-1.32-6-2.16-9.15-.38-1.42-.76-2.86-1.13-4.32l-.08-.32.32-.09c3.08-.81,3.71-2.85,3.71-5.67,0-3.91,2.16-6.77,6.08-8.07a4.39,4.39,0,0,0,3.33-4.37,12.42,12.42,0,0,1,12.55-12h.11a12.47,12.47,0,0,1,12.44,12c.17,2.33,1.11,3.65,3.06,4.3,4.44,1.48,6.6,4.65,6.44,9.44a3.73,3.73,0,0,0,2.4,3.93,15.88,15.88,0,0,1,7.79,7.32c.39.71,1.81,1.45,2.26,1.27a1.16,1.16,0,0,0,.8-.61,2.72,2.72,0,0,0-.39-2.1,16.68,16.68,0,0,0-7.42-7.84,4.1,4.1,0,0,1-2.46-3.64,12.67,12.67,0,0,0-2.3-6.34,13.6,13.6,0,0,0-3.14-2.48,12.25,12.25,0,0,1-3.55-3,14.15,14.15,0,0,1-1.77-4.6,16.55,16.55,0,0,0-1.34-3.87c-1.87-3.39-5.09-5.54-10.44-7h-5c-5.35,1.47-8.56,3.62-10.4,7A16.35,16.35,0,0,0,78,25.32a13.58,13.58,0,0,1-1.75,4.58,11.81,11.81,0,0,1-3.48,2.88,12,12,0,0,0-3.19,2.53,13.1,13.1,0,0,0-1.89,4.81c-.19.77-.39,1.57-.63,2.31-.16.48-.29,1-.42,1.44l-.28,1-1.21-.16-.07-.19c-.38-1-.75-1.93-1.12-2.91-.81-2.13-1.65-4.33-2.67-6.4C59,30.55,56.83,26.56,54.62,23a21.28,21.28,0,0,0-10.35-8.53H39.82a19.12,19.12,0,0,0-9.89,7.92c-3,4.92-5.47,9.89-8.44,15.87-.18.36.1,1.09.35,1.74l.24.65.58-.26a3.44,3.44,0,0,0,1.58-1,23.09,23.09,0,0,0,1.39-3,23.11,23.11,0,0,1,1.62-3.41L28.45,31a68.46,68.46,0,0,1,7-10c2-2.22,4.12-3.38,6.34-3.44h.17c2.28,0,4.57,1.15,6.81,3.42a32.47,32.47,0,0,1,5.45,7.11,115.76,115.76,0,0,1,14.51,50.8c.62,13.5-7.37,25.61-19.43,29.45a28.11,28.11,0,0,1-3.48.78c-.59.1-1.19.21-1.82.34l-.4.09v-.42c0-1.49,0-2.94.07-4.34a58.09,58.09,0,0,0-.16-8.59c-.9-7.72,1.33-13.11,7-17a1.84,1.84,0,0,0,.32-.31l.17-.19c.59-.58,1.17-1.2,1.17-1.8a1.35,1.35,0,0,0-.5-1c-1-1-1.78-.56-3,.65-.94.94-1.88,1.86-3,2.93l-2.12,2v-.79c0-.9,0-1.74,0-2.53a51,51,0,0,0-.11-5.19c0-.36-.52-.76-1-1.15-.15-.13-.31-.26-.45-.4l-.36.35a5.29,5.29,0,0,0-1.12,1.35,2.8,2.8,0,0,0-.08,1.38c0,.25,0,.5,0,.74v13l-1.31.88L39,89.07c-.4-.46-.77-.93-1.15-1.41a25.14,25.14,0,0,0-2.93-3.24,3,3,0,0,0-1.79-.23l-.66,0h0c0,.19,0,.39,0,.6a3,3,0,0,0,.36,1.68c1.25,1.44,2.65,2.82,4,4.14.75.74,1.49,1.47,2.22,2.22l.16.17a3.23,3.23,0,0,1,1.19,1.86c.08,3.51.07,7,.06,10.6v3.86l-.36,0A23.36,23.36,0,0,1,25.45,103C17.05,95.29,13.8,85,15.79,72.47c.88-5.56,2.2-11.14,3.48-16.54q.75-3.15,1.47-6.31c0-.18.09-.36.13-.54.37-1.43.51-2.26-.84-2.65a1.53,1.53,0,0,0-1.19,0c-.57.32-.82,1.22-1,2l-.59,2c-.68,2.3-1.38,4.67-1.9,7l-.11.52c-1.94,8.75-3.94,17.81-2.66,27,1.78,12.86,11,23.59,22.93,26.68,1.05.27,2.13.49,3.18.69l1.44.29.26.06v28.27H31.74c-5.41,0-10.82,0-16.23,0l-.6,0A5.59,5.59,0,0,0,14.34,141.06Zm76.11-.1H43.71V112.79l.29-.05c14.39-2.18,23.38-10.81,27.45-26.38l.12-.49.4.3c5.63,4.11,11.5,4.3,18,.54l.5-.3Zm-46.07-.67h45.4V87.58C83.4,91.09,77.57,90.91,72,87c-4.18,15.46-13.21,24.09-27.6,26.37Zm76.86.58H94V87.08l.42.11,2.17.58c1.91.49,3.9,1,5.8,1.66a3.09,3.09,0,0,1,1.51,2.23c.17,1.08.27,2.19.37,3.26a28.05,28.05,0,0,0,.7,4.75c2,7.65,7,12.21,16,14.78l.24.07ZM94.7,140.2h25.87V115c-9.13-2.66-14.14-7.35-16.23-15.19a28.63,28.63,0,0,1-.71-4.86c-.1-1.06-.2-2.15-.37-3.21a2.54,2.54,0,0,0-1.05-1.7c-1.89-.64-3.86-1.16-5.76-1.65L94.7,88Zm26.65-28.41-.49-.25c-.87-.45-1.69-.82-2.49-1.18a20.15,20.15,0,0,1-4.23-2.33c-5.24-4.14-7.52-9.94-6.78-17.24a3.83,3.83,0,0,1,1.76-2.53,16.79,16.79,0,0,0,7.36-8.51c1.42-3.29,3.6-4.67,7.17-4.5,7,.35,12.85,5.87,14.58,13.72,1.78,8-1.68,16.54-8.22,20.24a20.54,20.54,0,0,1-3.2,1.37c-.51.18-1,.37-1.52.57l-.36.14-.09-.37c-1-4.16-.09-7.11,3-9.31A9.41,9.41,0,0,0,130.35,99a3.29,3.29,0,0,0,.22-1.64c0-.18,0-.37,0-.55l-.63,0a3,3,0,0,0-1.7.15,6.67,6.67,0,0,0-1.57,1.9c-.21.33-.43.66-.66,1l-.18.24-1.33-.79V99c0-.47,0-1,0-1.42a11.93,11.93,0,0,0-.12-3.18A3.58,3.58,0,0,0,123.28,93l-.46-.44-.43.45c-.45.48-.93,1-1,1.4-.12,3.28-.11,6.63-.09,9.87,0,1.11,0,2.23,0,3.34Zm1.71-35.88c-2.93,0-4.73,1.25-6,4.1a17.53,17.53,0,0,1-7.66,8.84,3.13,3.13,0,0,0-1.41,2c-.73,7.06,1.47,12.66,6.51,16.64a20,20,0,0,0,4.1,2.24c.66.3,1.33.61,2,1v-3.12c0-1.11,0-2.23,0-3.34,0-3.25,0-6.6.1-9.9a3.15,3.15,0,0,1,1.14-1.83c.23-.25.45-.48.63-.71l.25-.34.28.32a7.36,7.36,0,0,0,.68.69,4,4,0,0,1,1.32,1.84,13,13,0,0,1,.14,3.35c0,.4,0,.8,0,1.2l.47.28.45-.69a7.29,7.29,0,0,1,1.76-2.09,3.47,3.47,0,0,1,2.13-.27c.32,0,.64,0,.92,0l.38,0,0,.38c0,.27,0,.56,0,.85a3.7,3.7,0,0,1-.31,2,10.22,10.22,0,0,1-2.74,2.82c-2.74,2-3.6,4.52-2.78,8.22.39-.15.78-.3,1.17-.43a20.63,20.63,0,0,0,3.1-1.32c6.29-3.56,9.61-11.77,7.89-19.51-1.67-7.55-7.28-12.86-13.95-13.19Z" transform="translate(-11.46 -13.8)"/></symbol>
	<symbol id="areas=comunes"  viewBox="0 0 135.66 135.78"><defs><style>.cls-1{fill:#2a4b9b;}</style></defs><path class="cls-1" d="M83.9,14c1.87.4,3.75.76,5.62,1.21a45,45,0,0,1,34.2,46.74c-.32,4.53-2.42,7.89-6.71,9.53a10.1,10.1,0,0,1-11.59-2.66c-3.27,1.22-6.12,2.8-9.15,3.29-3.37.55-6.2-1.39-8.34-3.76l-6.65,4.21V95.46c4.83,0,9.55,0,14.27,0,1.58,0,3.88-.53,4,1.84.08,2.64-2.33,2.05-4,2.06q-22.92,0-45.84,0h-3V104a20.76,20.76,0,0,1,4.4.08c1,.21,1.82,1.16,2.72,1.77-.86.67-1.66,1.76-2.59,1.9a50.76,50.76,0,0,1-6.05.1c-1.8,0-2.55-.86-2.54-2.58,0-2.1,0-4.21,0-6.32,0-3.13.37-3.51,3.47-3.51q14,0,27.93,0h3.13v-15a37.46,37.46,0,0,1,0-4.74c.31-2.48-.37-4-2.94-4.85-1.33-.43-2.39-1.69-3.58-2.58-6.75,5.28-11.14,5.28-16.8.07-2,1.15-3.73,2.67-5.79,3.35a10.18,10.18,0,0,1-13.34-8.92,44.67,44.67,0,0,1,6.66-27.93c.8-1.28,1.94-2.19,3.16-1.11.57.5.62,2.35.15,3.14a42.8,42.8,0,0,0-5.86,16.76c-.11.86-.16,1.73-.26,2.78h13c.75-12.78,3.57-24.92,12.2-35.05-2.85.44-7.44,3.15-11.53,6.72-1.25,1.09-2.61,3.14-4.32,1.1-1.53-1.83.54-3,1.72-4A43.37,43.37,0,0,1,72.93,14.44,9.7,9.7,0,0,0,74.41,14Zm-4,4.21-1.41,0c-5.27,12.16-5.3,25.16-5.81,38.24H85.71C85.11,43.3,85.14,30.32,79.86,18.2ZM68.44,56.49C68.87,50.17,69,44,69.78,37.8S71.88,25.61,73,19.64C62.08,23.39,54.76,45,56.06,56.49Zm16.8-37c3.63,12.17,3.9,24.62,4.54,36.9h13C101.5,41.67,98.68,28,85.24,19.49Zm34.35,37c-.35-16.85-13.51-31.92-24.91-34.93,8.49,10.11,11.31,22.13,12,34.93ZM38.74,60.66c-.32,4.41,2.31,7.54,6.23,7.61s6.82-3.14,6.45-7.61Zm17,0c-.15,4.74,2.61,7.78,6.63,7.64s6.56-3.43,6-7.64Zm34.14,0c-.32,4.53,2.48,7.71,6.5,7.61s6.55-3.26,6.16-7.61Zm17,0c-.21,4.68,2.57,7.76,6.59,7.64s6.55-3.37,6.08-7.64Zm-21.39,0H72.77c-.31,2.95.62,5.15,3,6.63a6.41,6.41,0,0,0,9.66-6.63Z" transform="translate(-11.34 -13.64)"/><path class="cls-1" d="M48.84,108.28c-.53,0-1.06,0-1.58,0-.7,0-1.4,0-2.1,0H45a2.74,2.74,0,0,1-2-.69,3,3,0,0,1-.74-2.24c0-1,0-2,0-3s0-2.19,0-3.28c0-3.35.53-3.85,3.82-3.86q9.31,0,18.62,0H76.79V80.48q0-.74,0-1.47a21.56,21.56,0,0,1,.07-3.31c.32-2.5-.44-3.75-2.7-4.48a8,8,0,0,1-2.61-1.74c-.28-.25-.57-.5-.86-.73-6.7,5.18-11.17,5.2-16.85.06-.52.33-1,.67-1.55,1a17.65,17.65,0,0,1-4.08,2.23,10.46,10.46,0,0,1-9.09-1.2,10.61,10.61,0,0,1-4.71-8A45.06,45.06,0,0,1,41.1,34.7,3.27,3.27,0,0,1,43.2,33a1.85,1.85,0,0,1,1.58.55c.73.64.76,2.68.22,3.58a42,42,0,0,0-5.81,16.62c-.07.59-.13,1.18-.18,1.82l0,.57H51.24c.92-14.84,4.51-25.43,11.6-34.13-2.75.8-6.75,3.26-10.37,6.41-.2.17-.4.37-.61.57a4,4,0,0,1-2.45,1.49h-.09a2.42,2.42,0,0,1-1.67-1A2.26,2.26,0,0,1,47,27.79c.1-1,1-1.73,1.81-2.38.2-.15.38-.31.55-.46A43.91,43.91,0,0,1,72.89,14.1a5.08,5.08,0,0,0,.93-.27c.16-.07.32-.12.49-.18H84l1.82.39c1.28.26,2.55.52,3.81.82A45.54,45.54,0,0,1,124.07,62c-.35,4.91-2.68,8.21-6.93,9.83a10.4,10.4,0,0,1-11.82-2.58c-.94.36-1.85.75-2.74,1.13a27.39,27.39,0,0,1-6.25,2.1c-2.91.46-5.76-.75-8.46-3.65l-6.24,3.95V95.11h3.64c3.46,0,6.87,0,10.28,0l.77,0c1,0,2.19-.09,2.9.58a2.19,2.19,0,0,1,.63,1.62,2.28,2.28,0,0,1-.59,1.84c-.72.71-1.9.65-3,.6l-.76,0h0q-18,0-36,0H47v3.94l1,0a12.2,12.2,0,0,1,3.14.12,5.32,5.32,0,0,1,2,1.22c.26.22.53.43.79.62l.4.27-.38.29a9.51,9.51,0,0,0-.76.68,4,4,0,0,1-2,1.28A16.26,16.26,0,0,1,48.84,108.28Zm-3.15-.76c.53,0,1.06,0,1.59,0a22.7,22.7,0,0,0,3.87-.11,3.64,3.64,0,0,0,1.61-1.11l.46-.43-.47-.38A4.82,4.82,0,0,0,51,104.44a11.57,11.57,0,0,0-3-.1c-.46,0-.91,0-1.37,0h-.35V99.05H59.5q18,0,36,0h0l.8,0a3.37,3.37,0,0,0,2.43-.39,1.7,1.7,0,0,0,.39-1.33,1.54,1.54,0,0,0-.41-1.13,3.41,3.41,0,0,0-2.4-.39h-.8c-3.41,0-6.83,0-10.28,0H80.94V72.36l.16-.11L88,67.89l.19.22c2.59,2.86,5.28,4.07,8,3.64a27.49,27.49,0,0,0,6.09-2c1-.41,2-.83,3-1.22l.21-.08.16.17a9.75,9.75,0,0,0,11.22,2.57c4-1.51,6.16-4.62,6.48-9.22A44.84,44.84,0,0,0,89.44,15.53c-1.26-.3-2.52-.56-3.79-.82l-1.79-.38H74.47l-.41.15a5.39,5.39,0,0,1-1.08.31A43.25,43.25,0,0,0,49.87,25.47c-.18.16-.38.32-.58.48-.7.57-1.49,1.21-1.56,1.91A1.6,1.6,0,0,0,48.19,29a1.71,1.71,0,0,0,1.17.74h0c.66,0,1.32-.65,2-1.28.22-.21.43-.43.64-.61,4.23-3.68,8.82-6.35,11.7-6.79l.93-.14-.61.71c-7.48,8.78-11.21,19.53-12.11,34.84l0,.33H38.2l.12-1.32c0-.66.1-1.26.17-1.85a42.85,42.85,0,0,1,5.91-16.9,3.1,3.1,0,0,0-.08-2.7,1.2,1.2,0,0,0-1-.38,2.7,2.7,0,0,0-1.61,1.41,44.4,44.4,0,0,0-6.61,27.72,9.91,9.91,0,0,0,4.4,7.5A9.78,9.78,0,0,0,48,71.4a17.16,17.16,0,0,0,3.91-2.15c.59-.4,1.2-.8,1.81-1.17L53.9,68l.19.18c5.59,5.13,9.71,5.1,16.36-.1l.21-.16.21.16c.38.28.75.6,1.11.92a7.29,7.29,0,0,0,2.37,1.61c2.58.83,3.53,2.39,3.17,5.22A20.22,20.22,0,0,0,77.46,79c0,.5,0,1,0,1.49V95.81H46.08C43.19,95.82,43,96,43,99c0,1.09,0,2.19,0,3.28s0,2,0,3a2.33,2.33,0,0,0,.53,1.73,2.27,2.27,0,0,0,1.65.49ZM79.17,68.67a6.73,6.73,0,0,1-3.56-1.08c-2.48-1.52-3.52-3.8-3.18-7l0-.31h13.3l0,.29a6.42,6.42,0,0,1-3.11,7A6.54,6.54,0,0,1,79.17,68.67ZM73.09,61A5.91,5.91,0,0,0,76,67a6.06,6.06,0,0,0,9.18-6Zm23.08,7.61a6.48,6.48,0,0,1-4.74-2,7.82,7.82,0,0,1-1.92-6l0-.32h13.31l0,.31a7.63,7.63,0,0,1-1.72,5.85,6.52,6.52,0,0,1-4.78,2.14Zm-6-7.61a7,7,0,0,0,1.75,5.18,5.76,5.76,0,0,0,4.23,1.73h.18a5.79,5.79,0,0,0,4.28-1.9,6.82,6.82,0,0,0,1.57-5ZM62.08,68.62a6.28,6.28,0,0,1-4.59-1.82,8.18,8.18,0,0,1-2.12-6.18v-.34h13.3l0,.31a7.4,7.4,0,0,1-1.56,5.77,6.52,6.52,0,0,1-4.8,2.25Zm-6-7.64A7.41,7.41,0,0,0,58,66.31a5.68,5.68,0,0,0,4.36,1.61,5.84,5.84,0,0,0,4.3-2A6.61,6.61,0,0,0,68.06,61Zm-11,7.64H45a6.53,6.53,0,0,1-4.76-2.06,7.77,7.77,0,0,1-1.8-5.92l0-.32H51.74l0,.32a7.64,7.64,0,0,1-1.85,6A6.52,6.52,0,0,1,45.08,68.62Zm-6-7.61a7,7,0,0,0,1.65,5.08A5.73,5.73,0,0,0,45,67.92h.11a5.82,5.82,0,0,0,4.33-1.79A6.91,6.91,0,0,0,51.1,61Zm74.12,7.61a6.36,6.36,0,0,1-4.64-1.86,8.1,8.1,0,0,1-2-6.14l0-.33h13.32l0,.31a7.53,7.53,0,0,1-1.63,5.82,6.54,6.54,0,0,1-4.79,2.19Zm-6-7.64a7.27,7.27,0,0,0,1.86,5.29,5.68,5.68,0,0,0,4.15,1.65h.23a5.84,5.84,0,0,0,4.28-2,6.75,6.75,0,0,0,1.5-5ZM120,56.83H106.4l0-.32c-.88-15.21-4.57-25.92-12-34.72l-.7-.84,1.06.28c11.62,3.06,24.81,18.29,25.17,35.25Zm-12.89-.69h12.17c-.51-16-12.54-30.33-23.56-33.92C102.63,30.91,106.16,41.44,107.06,56.14Zm-38.29.69h-13l0-.3c-1.32-11.63,6-33.38,17.12-37.22l.56-.19-.11.58c-.32,1.82-.67,3.64-1,5.47-.8,4.14-1.62,8.41-2.14,12.67s-.77,8.63-1,12.87c-.11,1.93-.21,3.86-.34,5.8Zm-12.39-.69H68.11c.12-1.83.22-3.65.33-5.47.23-4.25.47-8.64,1-12.91S70.78,29.18,71.58,25c.31-1.63.62-3.25.92-4.86C62.25,24.37,55.3,45.11,56.38,56.14Zm29.7.63H72.28v-.36c0-1.1.08-2.2.13-3.29.42-11.74.86-23.88,5.71-35.08l.1-.21,1.86,0,.09.21C84.93,29,85.4,40.3,85.89,52.29c0,1.37.11,2.74.17,4.11ZM73,56.07H85.35c-.06-1.25-.11-2.5-.16-3.75-.49-11.85-1-23-5.56-33.78h-.95C74,29.54,73.55,41,73.11,53.14,73.08,54.12,73,55.09,73,56.07Zm30.19.66H89.45l0-.33c-.07-1.24-.13-2.48-.19-3.72-.53-10.91-1.08-22.19-4.33-33.09l-.27-.89.79.5c14.1,9,16.54,23.87,17.73,37.15ZM90.11,56h12.32C101.22,42.7,98.85,29,85.84,20.3c3,10.7,3.58,21.7,4.1,32.35C90,53.78,90.05,54.91,90.11,56Z" transform="translate(-11.34 -13.64)"/><path class="cls-1" d="M11.69,114.13a10.64,10.64,0,0,1,3.09-1c10.79-.08,21.59,0,32.38-.08,2.29,0,3.18.91,3.08,3.15s-.08,4.39,0,6.58c.06,1.9-.81,2.76-2.66,2.75H41c.71,5.82,1.37,11.28,2,16.73.13,1.13.26,2.26.4,3.4.19,1.46.27,3.16-1.66,3.11-.75,0-1.94-1.61-2.1-2.61-1-6.32-1.71-12.68-2.53-19-.06-.43-.15-.84-.25-1.42H25c-.57,4.46-1.15,9-1.72,13.44a63.27,63.27,0,0,1-1,7c-.25,1-1.37,2.57-2.12,2.59-1.94,0-1.82-1.71-1.65-3.15q1.1-9.14,2.22-18.28c.05-.43.07-.87.11-1.35l-9.16-1.27Zm34.48,7.28v-4.47h-27c-3.93,0-4.23.43-3.11,4.47Z" transform="translate(-11.34 -13.64)"/><path class="cls-1" d="M41.83,149.08h-.1c-1,0-2.27-1.85-2.43-2.9-.73-4.71-1.34-9.52-1.92-14.17-.21-1.63-.41-3.25-.62-4.87,0-.29-.09-.57-.15-.9l0-.21H25.31l-1.68,13.14c-.09.67-.16,1.34-.23,2a37.9,37.9,0,0,1-.77,5c-.28,1.11-1.49,2.84-2.46,2.85a2,2,0,0,1-1.56-.56c-.64-.71-.56-1.86-.43-3q.69-5.78,1.4-11.53l.82-6.75c0-.32.05-.63.07-1v0L11.64,125l-.3,0V113.89l.23-.09a9.77,9.77,0,0,0,1-.4,5.72,5.72,0,0,1,2.24-.66c10.8-.08,21.59,0,32.39-.07h.05a3.51,3.51,0,0,1,2.65.84,3.44,3.44,0,0,1,.72,2.67c-.1,2.37-.06,4.74,0,6.55a3,3,0,0,1-.71,2.34,3,3,0,0,1-2.26.77h0c-1.36,0-2.72,0-4.18,0h-2l2.16,17.86c.08.62.15,1.24.23,1.87.13,1.05.22,2.23-.43,2.94A1.9,1.9,0,0,1,41.83,149.08ZM24.7,125.32H37.15l.14.78c.07.35.12.64.16.94.21,1.63.42,3.25.62,4.87.59,4.65,1.19,9.46,1.92,14.16.14.93,1.26,2.29,1.76,2.31a1.33,1.33,0,0,0,1.06-.34,3.29,3.29,0,0,0,.25-2.38c-.08-.63-.16-1.26-.23-1.89l-2.26-18.63h2.81c1.45,0,2.82,0,4.19,0h0a2.41,2.41,0,0,0,1.77-.55,2.46,2.46,0,0,0,.51-1.84c-.06-1.82-.1-4.22,0-6.6a2.88,2.88,0,0,0-.54-2.16,3.06,3.06,0,0,0-2.19-.63c-10.79.07-21.59,0-32.38.08a5.1,5.1,0,0,0-2,.6c-.25.12-.51.23-.78.34v10l8.87,1.24.32,0,0,.69c0,.34,0,.66-.08,1l-.82,6.75q-.7,5.78-1.4,11.53c-.11.91-.19,1.93.26,2.42a1.34,1.34,0,0,0,1,.34c.51,0,1.55-1.36,1.79-2.33a37.44,37.44,0,0,0,.76-5c.07-.68.14-1.36.23-2Zm21.82-3.56H15.83l-.07-.26c-.62-2.24-.8-3.36-.25-4.09s1.62-.82,3.7-.82H46.52Zm-30.16-.7H45.82v-3.77H19.21c-1.77,0-2.79.09-3.14.55S15.9,119.33,16.36,121.06Z" transform="translate(-11.34 -13.64)"/><path class="cls-1" d="M81.18,107.87c0,7.84,0,15.37.07,22.9,0,.63.8,1.46,1.44,1.82,2.06,1.17,4.22,2.16,6.33,3.22a11.36,11.36,0,0,1,1.61.88c1.47,1,1.81,10.61.35,11.66a4,4,0,0,1-2.21.55c-6.41,0-12.82,0-19.22,0-2.1,0-3-.79-3.06-2.94-.24-8.61-.33-8.72,7.55-12.44,2.41-1.14,3.26-2.47,3.17-5.14-.22-6.74-.07-13.48-.07-20.55H64.6a9.87,9.87,0,0,1-3.13-.08c-.89-.31-1.56-1.24-2.33-1.9a15.32,15.32,0,0,1,2.43-1.81,5.38,5.38,0,0,1,2.09,0h48V99.38a19.28,19.28,0,0,1-4.45-.09c-.85-.2-1.49-1.3-2.22-2,.73-.61,1.41-1.64,2.21-1.73a22.46,22.46,0,0,1,6.29,0,3.31,3.31,0,0,1,2.1,2.3c.3,2.33,0,4.72.13,7.09.07,2.17-.92,2.92-3,2.91-9.39-.06-18.79,0-28.18,0Zm6.35,37c.72-5,.49-4.7-3.12-7.07-3.85-2.54-7.07-2.05-10.75.16-3.49,2.09-3.92,2.62-2.69,6.91Z" transform="translate(-11.34 -13.64)"/><path class="cls-1" d="M69.48,149.29c-2.27,0-3.27-1-3.34-3.28v-.28c-.23-8.54-.09-8.78,7.76-12.49,2.3-1.08,3-2.3,3-4.81-.15-4.79-.12-9.51-.09-14.5,0-1.88,0-3.78,0-5.71H64.58c-.31,0-.62,0-.93,0a5.71,5.71,0,0,1-2.3-.14,5.26,5.26,0,0,1-1.77-1.33,7.82,7.82,0,0,0-.66-.63l-.33-.28.34-.26c.24-.18.46-.38.69-.57a9.06,9.06,0,0,1,1.8-1.28,3,3,0,0,1,1.6-.13c.22,0,.43,0,.64,0h47.65V99.74c-.34,0-.68,0-1,0a10.49,10.49,0,0,1-3.18-.14,3.72,3.72,0,0,1-1.73-1.38,8.73,8.73,0,0,0-.64-.7l-.28-.27.3-.25a7.61,7.61,0,0,0,.65-.63,3.25,3.25,0,0,1,1.74-1.18,22.53,22.53,0,0,1,6.38,0,3.61,3.61,0,0,1,2.4,2.6,30.49,30.49,0,0,1,.13,4.48c0,.87,0,1.77,0,2.65a3.22,3.22,0,0,1-.72,2.45,3.43,3.43,0,0,1-2.61.81h0c-6.8,0-13.73,0-20.43,0H81.53v4.45c0,6.23,0,12.12.06,18.1,0,.45.69,1.18,1.28,1.52,1.42.8,2.93,1.54,4.38,2.26l1.93.95.37.18a8.32,8.32,0,0,1,1.29.73c1.11.79,1.42,4.73,1.43,6.93,0,1.36-.09,4.58-1.08,5.29a4.27,4.27,0,0,1-2.42.61c-2.94,0-5.88,0-8.82,0-3.47,0-6.94,0-10.4,0Zm-4.9-41.76H77.49v.34q0,3.07,0,6.07c0,5,0,9.69.1,14.47.09,2.78-.82,4.26-3.37,5.46-7.59,3.59-7.59,3.59-7.36,11.84V146c0,1.92.75,2.6,2.64,2.6h.06c3.47,0,6.94,0,10.41,0,2.93,0,5.88,0,8.82,0a3.67,3.67,0,0,0,2-.48c.39-.28.8-1.88.79-4.73,0-3.44-.6-6-1.14-6.37a9.09,9.09,0,0,0-1.19-.66l-.38-.19-1.91-1c-1.47-.71-3-1.46-4.43-2.28a3.12,3.12,0,0,1-1.62-2.12c-.08-6-.08-11.87-.07-18.1v-5.14H92.26c6.69,0,13.62,0,20.43,0h.06a2.79,2.79,0,0,0,2.1-.61,2.55,2.55,0,0,0,.52-1.94c0-.89,0-1.8,0-2.69a31.86,31.86,0,0,0-.13-4.37,3.06,3.06,0,0,0-1.82-2,22.34,22.34,0,0,0-6.19,0c-.43,0-.88.51-1.32,1-.14.14-.28.29-.43.42l.43.48A3.21,3.21,0,0,0,107.29,99a10.37,10.37,0,0,0,3,.13c.47,0,.93,0,1.4,0H112v5.33H63.66c-.23,0-.46,0-.7,0a2.6,2.6,0,0,0-1.24.07,8.39,8.39,0,0,0-1.65,1.18l-.39.33c.14.12.27.26.4.39a4.58,4.58,0,0,0,1.5,1.16,5.33,5.33,0,0,0,2,.11C63.93,107.55,64.26,107.53,64.58,107.53Zm23.25,37.7H70.71l-.07-.25c-1.28-4.46-.78-5.13,2.84-7.31,4.17-2.5,7.49-2.54,11.13-.15l.8.52c3,2,3.13,2.22,2.46,6.89Zm-16.6-.7h16c.59-4.11.52-4.15-2.19-5.9l-.81-.53c-3.43-2.26-6.43-2.2-10.38.17C70.53,140.25,70.14,140.64,71.23,144.53Z" transform="translate(-11.34 -13.64)"/><path class="cls-1" d="M133.31,125.65H121.38q-1.09,8.52-2.16,16.95a18.63,18.63,0,0,1-.61,4.14c-.33.86-1.41,1.43-2.15,2.13-.54-.86-1.62-1.77-1.55-2.57.51-5.5,1.26-11,1.92-16.46.16-1.3.28-2.6.46-4.35-2.26,0-4.33,0-6.39,0s-2.9-.84-2.82-2.87c.09-2.28.06-4.57,0-6.85,0-1.86.75-2.75,2.65-2.75q16.59,0,33.18,0c1.88,0,2.74.84,2.71,2.71,0,2.2-.09,4.39,0,6.58s-.8,3.27-3.07,3.19c-1.92-.07-3.84,0-6.21,0,.56,4.61,1.08,9,1.61,13.39.29,2.44.74,4.88.79,7.32,0,.88-.94,1.77-1.45,2.66-.77-.76-2.09-1.44-2.22-2.29C135.05,139.72,134.23,132.85,133.31,125.65Zm-21.22-4.33H142.5v-4.17H112.09Z" transform="translate(-11.34 -13.64)"/><path class="cls-1" d="M138.39,149.42l-.33-.32c-.23-.22-.52-.44-.8-.67-.69-.53-1.41-1.09-1.52-1.81-.79-5.21-1.44-10.37-2.13-15.82-.2-1.59-.4-3.19-.61-4.81H121.68l-2.11,16.65c0,.41-.08.82-.12,1.24a11,11,0,0,1-.51,3,4.33,4.33,0,0,1-1.52,1.67c-.25.2-.5.39-.72.6l-.31.28-.22-.35c-.17-.25-.39-.52-.6-.79a3.07,3.07,0,0,1-1-2c.37-4.05.88-8.14,1.38-12.1.18-1.46.37-2.92.54-4.37.09-.81.18-1.62.27-2.54,0-.45.09-.92.14-1.42h-6.12a3.1,3.1,0,0,1-2.32-.78,3.18,3.18,0,0,1-.73-2.46c.1-2.45,0-4.93,0-6.82a3.12,3.12,0,0,1,.72-2.35,3,3,0,0,1,2.27-.75h0c11,0,22.17,0,33.18,0h0a2.66,2.66,0,0,1,3,3.06v.53c0,2-.07,4,0,6a3.51,3.51,0,0,1-.77,2.75,3.41,3.41,0,0,1-2.66.79c-1.3,0-2.57,0-4,0h-1.77l1.57,13q.12,1,.27,2a44.6,44.6,0,0,1,.51,5.31,3.63,3.63,0,0,1-.94,2,7.63,7.63,0,0,0-.55.8Zm-25.06-24.29h4.35l0,.39c-.07.65-.13,1.24-.19,1.8-.09.92-.17,1.74-.27,2.55-.17,1.46-.36,2.92-.54,4.37-.49,4-1,8.05-1.38,12.08,0,.41.41,1,.85,1.5.14.17.28.35.41.53L117,148a3.73,3.73,0,0,0,1.29-1.36,9.87,9.87,0,0,0,.48-2.79c0-.43.06-.86.12-1.28l2.19-17.25h12.55l0,.3c.22,1.72.43,3.42.64,5.11.69,5.45,1.34,10.6,2.13,15.81.07.45.67.91,1.25,1.36l.55.44.36-.51a3.18,3.18,0,0,0,.82-1.6,45.78,45.78,0,0,0-.51-5.24c-.1-.68-.19-1.36-.28-2.05L137,125.15h.39l2.16,0c1.41,0,2.75,0,4.07,0h.23a2.55,2.55,0,0,0,1.9-.59,2.86,2.86,0,0,0,.58-2.23c-.1-2-.06-4.08,0-6.07v-.54a2.4,2.4,0,0,0-.52-1.79,2.48,2.48,0,0,0-1.83-.56h0c-11,0-22.18,0-33.18,0h0a2.38,2.38,0,0,0-1.77.55,2.46,2.46,0,0,0-.52,1.84c0,1.9.08,4.4,0,6.87a2.5,2.5,0,0,0,.53,1.94,2.45,2.45,0,0,0,1.82.57h.11Zm29.51-3.46h-31.1V116.8h31.1Zm-30.41-.7h29.72v-3.48H112.43Z" transform="translate(-11.34 -13.64)"/></symbol>
	<symbol id="alberca"  viewBox="0 0 105.64 120.28"><defs><style>.cls-1{fill:#2a4b9b;fill-rule:evenodd;}</style></defs><g id="Forma_1" data-name="Forma 1"><path class="cls-1" d="M41.54,91.53,46,88.92a6,6,0,0,1,6.07,0l4.16,2.51a13,13,0,0,0,13.26.07l4.44-2.61A6,6,0,0,1,80,89l4.16,2.51a12.94,12.94,0,0,0,13.25.07l4.45-2.61a6,6,0,0,1,6.08,0l4.15,2.51a13,13,0,0,0,13.26.07l4.45-2.61-3.56-6.08-4.45,2.61a6,6,0,0,1-6.07,0l-4.16-2.51a13,13,0,0,0-13.26-.07l-4.45,2.61a5.93,5.93,0,0,1-6.06,0l-4.16-2.51a13.15,13.15,0,0,0-1.29-.67V33.83a7.55,7.55,0,1,1,15.09,0v8h7v-8a14.59,14.59,0,1,0-29.17,0v28H45.7v-28a7.55,7.55,0,1,1,15.09,0v8h7v-8a14.59,14.59,0,1,0-29.17,0V85.05l-.68.4a5.93,5.93,0,0,1-6.06,0l-4.13-2.49-3.63,6,4.13,2.49A13,13,0,0,0,41.54,91.53ZM45.7,68.9H75.3V81.16a13.18,13.18,0,0,0-4.94,1.68l-4.44,2.61a6,6,0,0,1-6.07,0l-4.16-2.51a13,13,0,0,0-10-1.43ZM121.79,109a5.93,5.93,0,0,1-6.07,0l-4.16-2.5a13,13,0,0,0-13.26-.08L93.85,109a5.91,5.91,0,0,1-6.06,0l-4.16-2.5a13,13,0,0,0-13.27-.08L65.92,109a5.93,5.93,0,0,1-6.07,0l-4.16-2.5a13,13,0,0,0-13.26-.08L38,109a5.93,5.93,0,0,1-6.06,0l-4.14-2.49-3.62,6L28.29,115a13,13,0,0,0,13.25.07L46,112.44a5.93,5.93,0,0,1,6.07,0l4.16,2.5a13,13,0,0,0,13.26.07l4.44-2.61a5.94,5.94,0,0,1,6.08,0l4.16,2.5a12.94,12.94,0,0,0,13.25.07l4.45-2.61a5.94,5.94,0,0,1,6.08,0l4.15,2.5a13,13,0,0,0,13.26.07l4.45-2.61-3.56-6.08Zm0,22.67a5.93,5.93,0,0,1-6.07,0l-4.16-2.5A13,13,0,0,0,98.3,129l-4.45,2.6a5.91,5.91,0,0,1-6.06,0l-4.16-2.5A13,13,0,0,0,70.36,129l-4.44,2.6a5.93,5.93,0,0,1-6.07,0l-4.16-2.5A13,13,0,0,0,42.43,129L38,131.64a5.91,5.91,0,0,1-6.06,0l-4.13-2.49-3.63,6,4.13,2.49a13,13,0,0,0,13.25.07L46,135.11a5.93,5.93,0,0,1,6.07,0l4.16,2.5a13,13,0,0,0,13.26.07l4.44-2.61a5.94,5.94,0,0,1,6.08,0l4.16,2.5a12.94,12.94,0,0,0,13.25.07l4.45-2.61a5.93,5.93,0,0,1,6.07,0l4.16,2.5a13,13,0,0,0,13.26.07l4.45-2.61L126.24,129Z" transform="translate(-24.16 -19.23)"/></g></symbol>



</svg>