<?xml version="1.0" encoding="utf-8"?>
<!-- Generator: Adobe Illustrator 25.1.0, SVG Export Plug-In . SVG Version: 6.00 Build 0)  -->
<svg version="1.1" id="Capa_1" xmlns="http://www.w3.org/2000/svg" xmlns:xlink="http://www.w3.org/1999/xlink" x="0px" y="0px"
	 viewBox="0 0 1200 1200" style="enable-background:new 0 0 1200 1200;" xml:space="preserve">

<g id="Forma_1_1_">
	<g>
		<path class="st0" d="M310.53,699.47l36.37-21.35c15.38-9.03,34.42-8.92,49.7,0.28l34.02,20.47c33.34,20.07,74.89,20.29,108.44,0.6
			l36.36-21.35c15.38-9.03,34.42-8.92,49.7,0.28l34.02,20.47c16.84,10.14,35.78,15.21,54.73,15.21c18.55,0,37.12-4.87,53.72-14.61
			l36.37-21.35c15.38-9.03,34.42-8.92,49.7,0.28l34.03,20.48c33.34,20.06,74.89,20.29,108.44,0.6l36.41-21.37l-29.14-49.74
			l-36.41,21.37c-15.35,9.01-34.37,8.91-49.62-0.27l-34.03-20.47c-33.36-20.08-74.94-20.31-108.52-0.6l-36.37,21.35
			c-15.36,9.01-34.37,8.91-49.63-0.27l-34.02-20.47c-3.43-2.07-6.95-3.91-10.54-5.55V227.42c0-34.07,27.69-61.78,61.73-61.78
			c34.04,0,61.73,27.72,61.73,61.78v65.18h57.6v-65.18c0-65.86-53.53-119.44-119.33-119.44s-119.33,53.58-119.33,119.44v229.29
			H344.55V227.42c0-34.07,27.69-61.78,61.73-61.78c34.04,0,61.73,27.72,61.73,61.78v65.18h57.6v-65.18
			c0-65.86-53.53-119.44-119.33-119.44c-65.8,0-119.33,53.58-119.33,119.44v419.05l-5.56,3.26c-15.35,9.01-34.37,8.91-49.63-0.27
			l-33.8-20.34l-29.68,49.41l33.8,20.34C235.42,718.94,276.97,719.17,310.53,699.47z M344.55,514.37L344.55,514.37h242.12v100.25
			c-14.02,1.78-27.76,6.37-40.38,13.78l-36.37,21.35c-15.35,9.01-34.37,8.91-49.63-0.27l-34.02-20.47
			c-24.91-14.99-54.4-18.91-81.73-11.73V514.37z M967,842.18c-15.35,9.01-34.37,8.91-49.63-0.27l-34.03-20.48
			c-33.36-20.08-74.94-20.3-108.52-0.6l-36.37,21.34c-15.35,9.01-34.37,8.91-49.62-0.27l-34.03-20.48
			c-33.36-20.08-74.94-20.31-108.52-0.6l-36.37,21.34c-15.35,9.02-34.37,8.91-49.62-0.27l-34.03-20.48
			c-33.36-20.08-74.95-20.3-108.52-0.6l-36.37,21.34c-15.35,9.01-34.37,8.91-49.62-0.27l-33.8-20.34l-29.68,49.41l33.8,20.34
			c33.34,20.06,74.89,20.29,108.44,0.6l36.37-21.35c15.38-9.03,34.42-8.92,49.7,0.28l34.03,20.48
			c33.34,20.06,74.89,20.29,108.44,0.6l36.37-21.35c15.38-9.03,34.42-8.92,49.7,0.27l34.03,20.48
			c16.84,10.13,35.78,15.21,54.72,15.21c18.56,0,37.12-4.87,53.72-14.62l36.37-21.35c15.37-9.03,34.41-8.93,49.7,0.28l34.03,20.48
			c33.34,20.06,74.89,20.29,108.44,0.6l36.41-21.37l-29.14-49.73L967,842.18z M967,1027.65c-15.35,9.01-34.37,8.91-49.63-0.27
			l-34.03-20.48c-33.36-20.07-74.94-20.3-108.52-0.6l-36.37,21.35c-15.35,9.01-34.37,8.91-49.63-0.27l-34.03-20.47
			c-33.36-20.08-74.94-20.3-108.52-0.6l-36.37,21.35c-15.35,9.01-34.37,8.91-49.63-0.27l-34.02-20.48
			c-33.36-20.08-74.95-20.3-108.52-0.6l-36.37,21.35c-15.35,9.01-34.37,8.91-49.63-0.27l-33.8-20.34l-29.68,49.41l33.8,20.34
			c33.34,20.07,74.89,20.29,108.44,0.6l36.37-21.35c15.38-9.03,34.42-8.92,49.7,0.27l34.03,20.47c33.34,20.07,74.89,20.3,108.44,0.6
			l36.37-21.35c15.38-9.03,34.42-8.92,49.7,0.27l34.03,20.47c16.84,10.14,35.78,15.21,54.73,15.21c18.56,0,37.12-4.87,53.72-14.61
			l36.37-21.35c15.38-9.03,34.42-8.92,49.7,0.27l34.03,20.48c33.34,20.07,74.89,20.29,108.44,0.6l36.41-21.37l-29.14-49.74
			L967,1027.65z"/>
	</g>
</g>
</svg>
