<svg id="Capa_1" data-name="Capa 1" xmlns="http://www.w3.org/2000/svg" viewBox="0 0 105.64 120.28"><g id="Forma_1" data-name="Forma 1"><path class="cls-1" d="M41.54,91.53,46,88.92a6,6,0,0,1,6.07,0l4.16,2.51a13,13,0,0,0,13.26.07l4.44-2.61A6,6,0,0,1,80,89l4.16,2.51a12.94,12.94,0,0,0,13.25.07l4.45-2.61a6,6,0,0,1,6.08,0l4.15,2.51a13,13,0,0,0,13.26.07l4.45-2.61-3.56-6.08-4.45,2.61a6,6,0,0,1-6.07,0l-4.16-2.51a13,13,0,0,0-13.26-.07l-4.45,2.61a5.93,5.93,0,0,1-6.06,0l-4.16-2.51a13.15,13.15,0,0,0-1.29-.67V33.83a7.55,7.55,0,1,1,15.09,0v8h7v-8a14.59,14.59,0,1,0-29.17,0v28H45.7v-28a7.55,7.55,0,1,1,15.09,0v8h7v-8a14.59,14.59,0,1,0-29.17,0V85.05l-.68.4a5.93,5.93,0,0,1-6.06,0l-4.13-2.49-3.63,6,4.13,2.49A13,13,0,0,0,41.54,91.53ZM45.7,68.9H75.3V81.16a13.18,13.18,0,0,0-4.94,1.68l-4.44,2.61a6,6,0,0,1-6.07,0l-4.16-2.51a13,13,0,0,0-10-1.43ZM121.79,109a5.93,5.93,0,0,1-6.07,0l-4.16-2.5a13,13,0,0,0-13.26-.08L93.85,109a5.91,5.91,0,0,1-6.06,0l-4.16-2.5a13,13,0,0,0-13.27-.08L65.92,109a5.93,5.93,0,0,1-6.07,0l-4.16-2.5a13,13,0,0,0-13.26-.08L38,109a5.93,5.93,0,0,1-6.06,0l-4.14-2.49-3.62,6L28.29,115a13,13,0,0,0,13.25.07L46,112.44a5.93,5.93,0,0,1,6.07,0l4.16,2.5a13,13,0,0,0,13.26.07l4.44-2.61a5.94,5.94,0,0,1,6.08,0l4.16,2.5a12.94,12.94,0,0,0,13.25.07l4.45-2.61a5.94,5.94,0,0,1,6.08,0l4.15,2.5a13,13,0,0,0,13.26.07l4.45-2.61-3.56-6.08Zm0,22.67a5.93,5.93,0,0,1-6.07,0l-4.16-2.5A13,13,0,0,0,98.3,129l-4.45,2.6a5.91,5.91,0,0,1-6.06,0l-4.16-2.5A13,13,0,0,0,70.36,129l-4.44,2.6a5.93,5.93,0,0,1-6.07,0l-4.16-2.5A13,13,0,0,0,42.43,129L38,131.64a5.91,5.91,0,0,1-6.06,0l-4.13-2.49-3.63,6,4.13,2.49a13,13,0,0,0,13.25.07L46,135.11a5.93,5.93,0,0,1,6.07,0l4.16,2.5a13,13,0,0,0,13.26.07l4.44-2.61a5.94,5.94,0,0,1,6.08,0l4.16,2.5a12.94,12.94,0,0,0,13.25.07l4.45-2.61a5.93,5.93,0,0,1,6.07,0l4.16,2.5a13,13,0,0,0,13.26.07l4.45-2.61L126.24,129Z" transform="translate(-24.16 -19.23)"/></g></svg>