<svg id="Capa_1" data-name="Capa 1" xmlns="http://www.w3.org/2000/svg" viewBox="0 0 135.66 135.78"><path class="cls-1" d="M83.9,14c1.87.4,3.75.76,5.62,1.21a45,45,0,0,1,34.2,46.74c-.32,4.53-2.42,7.89-6.71,9.53a10.1,10.1,0,0,1-11.59-2.66c-3.27,1.22-6.12,2.8-9.15,3.29-3.37.55-6.2-1.39-8.34-3.76l-6.65,4.21V95.46c4.83,0,9.55,0,14.27,0,1.58,0,3.88-.53,4,1.84.08,2.64-2.33,2.05-4,2.06q-22.92,0-45.84,0h-3V104a20.76,20.76,0,0,1,4.4.08c1,.21,1.82,1.16,2.72,1.77-.86.67-1.66,1.76-2.59,1.9a50.76,50.76,0,0,1-6.05.1c-1.8,0-2.55-.86-2.54-2.58,0-2.1,0-4.21,0-6.32,0-3.13.37-3.51,3.47-3.51q14,0,27.93,0h3.13v-15a37.46,37.46,0,0,1,0-4.74c.31-2.48-.37-4-2.94-4.85-1.33-.43-2.39-1.69-3.58-2.58-6.75,5.28-11.14,5.28-16.8.07-2,1.15-3.73,2.67-5.79,3.35a10.18,10.18,0,0,1-13.34-8.92,44.67,44.67,0,0,1,6.66-27.93c.8-1.28,1.94-2.19,3.16-1.11.57.5.62,2.35.15,3.14a42.8,42.8,0,0,0-5.86,16.76c-.11.86-.16,1.73-.26,2.78h13c.75-12.78,3.57-24.92,12.2-35.05-2.85.44-7.44,3.15-11.53,6.72-1.25,1.09-2.61,3.14-4.32,1.1-1.53-1.83.54-3,1.72-4A43.37,43.37,0,0,1,72.93,14.44,9.7,9.7,0,0,0,74.41,14Zm-4,4.21-1.41,0c-5.27,12.16-5.3,25.16-5.81,38.24H85.71C85.11,43.3,85.14,30.32,79.86,18.2ZM68.44,56.49C68.87,50.17,69,44,69.78,37.8S71.88,25.61,73,19.64C62.08,23.39,54.76,45,56.06,56.49Zm16.8-37c3.63,12.17,3.9,24.62,4.54,36.9h13C101.5,41.67,98.68,28,85.24,19.49Zm34.35,37c-.35-16.85-13.51-31.92-24.91-34.93,8.49,10.11,11.31,22.13,12,34.93ZM38.74,60.66c-.32,4.41,2.31,7.54,6.23,7.61s6.82-3.14,6.45-7.61Zm17,0c-.15,4.74,2.61,7.78,6.63,7.64s6.56-3.43,6-7.64Zm34.14,0c-.32,4.53,2.48,7.71,6.5,7.61s6.55-3.26,6.16-7.61Zm17,0c-.21,4.68,2.57,7.76,6.59,7.64s6.55-3.37,6.08-7.64Zm-21.39,0H72.77c-.31,2.95.62,5.15,3,6.63a6.41,6.41,0,0,0,9.66-6.63Z" transform="translate(-11.34 -13.64)"/><path class="cls-1" d="M48.84,108.28c-.53,0-1.06,0-1.58,0-.7,0-1.4,0-2.1,0H45a2.74,2.74,0,0,1-2-.69,3,3,0,0,1-.74-2.24c0-1,0-2,0-3s0-2.19,0-3.28c0-3.35.53-3.85,3.82-3.86q9.31,0,18.62,0H76.79V80.48q0-.74,0-1.47a21.56,21.56,0,0,1,.07-3.31c.32-2.5-.44-3.75-2.7-4.48a8,8,0,0,1-2.61-1.74c-.28-.25-.57-.5-.86-.73-6.7,5.18-11.17,5.2-16.85.06-.52.33-1,.67-1.55,1a17.65,17.65,0,0,1-4.08,2.23,10.46,10.46,0,0,1-9.09-1.2,10.61,10.61,0,0,1-4.71-8A45.06,45.06,0,0,1,41.1,34.7,3.27,3.27,0,0,1,43.2,33a1.85,1.85,0,0,1,1.58.55c.73.64.76,2.68.22,3.58a42,42,0,0,0-5.81,16.62c-.07.59-.13,1.18-.18,1.82l0,.57H51.24c.92-14.84,4.51-25.43,11.6-34.13-2.75.8-6.75,3.26-10.37,6.41-.2.17-.4.37-.61.57a4,4,0,0,1-2.45,1.49h-.09a2.42,2.42,0,0,1-1.67-1A2.26,2.26,0,0,1,47,27.79c.1-1,1-1.73,1.81-2.38.2-.15.38-.31.55-.46A43.91,43.91,0,0,1,72.89,14.1a5.08,5.08,0,0,0,.93-.27c.16-.07.32-.12.49-.18H84l1.82.39c1.28.26,2.55.52,3.81.82A45.54,45.54,0,0,1,124.07,62c-.35,4.91-2.68,8.21-6.93,9.83a10.4,10.4,0,0,1-11.82-2.58c-.94.36-1.85.75-2.74,1.13a27.39,27.39,0,0,1-6.25,2.1c-2.91.46-5.76-.75-8.46-3.65l-6.24,3.95V95.11h3.64c3.46,0,6.87,0,10.28,0l.77,0c1,0,2.19-.09,2.9.58a2.19,2.19,0,0,1,.63,1.62,2.28,2.28,0,0,1-.59,1.84c-.72.71-1.9.65-3,.6l-.76,0h0q-18,0-36,0H47v3.94l1,0a12.2,12.2,0,0,1,3.14.12,5.32,5.32,0,0,1,2,1.22c.26.22.53.43.79.62l.4.27-.38.29a9.51,9.51,0,0,0-.76.68,4,4,0,0,1-2,1.28A16.26,16.26,0,0,1,48.84,108.28Zm-3.15-.76c.53,0,1.06,0,1.59,0a22.7,22.7,0,0,0,3.87-.11,3.64,3.64,0,0,0,1.61-1.11l.46-.43-.47-.38A4.82,4.82,0,0,0,51,104.44a11.57,11.57,0,0,0-3-.1c-.46,0-.91,0-1.37,0h-.35V99.05H59.5q18,0,36,0h0l.8,0a3.37,3.37,0,0,0,2.43-.39,1.7,1.7,0,0,0,.39-1.33,1.54,1.54,0,0,0-.41-1.13,3.41,3.41,0,0,0-2.4-.39h-.8c-3.41,0-6.83,0-10.28,0H80.94V72.36l.16-.11L88,67.89l.19.22c2.59,2.86,5.28,4.07,8,3.64a27.49,27.49,0,0,0,6.09-2c1-.41,2-.83,3-1.22l.21-.08.16.17a9.75,9.75,0,0,0,11.22,2.57c4-1.51,6.16-4.62,6.48-9.22A44.84,44.84,0,0,0,89.44,15.53c-1.26-.3-2.52-.56-3.79-.82l-1.79-.38H74.47l-.41.15a5.39,5.39,0,0,1-1.08.31A43.25,43.25,0,0,0,49.87,25.47c-.18.16-.38.32-.58.48-.7.57-1.49,1.21-1.56,1.91A1.6,1.6,0,0,0,48.19,29a1.71,1.71,0,0,0,1.17.74h0c.66,0,1.32-.65,2-1.28.22-.21.43-.43.64-.61,4.23-3.68,8.82-6.35,11.7-6.79l.93-.14-.61.71c-7.48,8.78-11.21,19.53-12.11,34.84l0,.33H38.2l.12-1.32c0-.66.1-1.26.17-1.85a42.85,42.85,0,0,1,5.91-16.9,3.1,3.1,0,0,0-.08-2.7,1.2,1.2,0,0,0-1-.38,2.7,2.7,0,0,0-1.61,1.41,44.4,44.4,0,0,0-6.61,27.72,9.91,9.91,0,0,0,4.4,7.5A9.78,9.78,0,0,0,48,71.4a17.16,17.16,0,0,0,3.91-2.15c.59-.4,1.2-.8,1.81-1.17L53.9,68l.19.18c5.59,5.13,9.71,5.1,16.36-.1l.21-.16.21.16c.38.28.75.6,1.11.92a7.29,7.29,0,0,0,2.37,1.61c2.58.83,3.53,2.39,3.17,5.22A20.22,20.22,0,0,0,77.46,79c0,.5,0,1,0,1.49V95.81H46.08C43.19,95.82,43,96,43,99c0,1.09,0,2.19,0,3.28s0,2,0,3a2.33,2.33,0,0,0,.53,1.73,2.27,2.27,0,0,0,1.65.49ZM79.17,68.67a6.73,6.73,0,0,1-3.56-1.08c-2.48-1.52-3.52-3.8-3.18-7l0-.31h13.3l0,.29a6.42,6.42,0,0,1-3.11,7A6.54,6.54,0,0,1,79.17,68.67ZM73.09,61A5.91,5.91,0,0,0,76,67a6.06,6.06,0,0,0,9.18-6Zm23.08,7.61a6.48,6.48,0,0,1-4.74-2,7.82,7.82,0,0,1-1.92-6l0-.32h13.31l0,.31a7.63,7.63,0,0,1-1.72,5.85,6.52,6.52,0,0,1-4.78,2.14Zm-6-7.61a7,7,0,0,0,1.75,5.18,5.76,5.76,0,0,0,4.23,1.73h.18a5.79,5.79,0,0,0,4.28-1.9,6.82,6.82,0,0,0,1.57-5ZM62.08,68.62a6.28,6.28,0,0,1-4.59-1.82,8.18,8.18,0,0,1-2.12-6.18v-.34h13.3l0,.31a7.4,7.4,0,0,1-1.56,5.77,6.52,6.52,0,0,1-4.8,2.25Zm-6-7.64A7.41,7.41,0,0,0,58,66.31a5.68,5.68,0,0,0,4.36,1.61,5.84,5.84,0,0,0,4.3-2A6.61,6.61,0,0,0,68.06,61Zm-11,7.64H45a6.53,6.53,0,0,1-4.76-2.06,7.77,7.77,0,0,1-1.8-5.92l0-.32H51.74l0,.32a7.64,7.64,0,0,1-1.85,6A6.52,6.52,0,0,1,45.08,68.62Zm-6-7.61a7,7,0,0,0,1.65,5.08A5.73,5.73,0,0,0,45,67.92h.11a5.82,5.82,0,0,0,4.33-1.79A6.91,6.91,0,0,0,51.1,61Zm74.12,7.61a6.36,6.36,0,0,1-4.64-1.86,8.1,8.1,0,0,1-2-6.14l0-.33h13.32l0,.31a7.53,7.53,0,0,1-1.63,5.82,6.54,6.54,0,0,1-4.79,2.19Zm-6-7.64a7.27,7.27,0,0,0,1.86,5.29,5.68,5.68,0,0,0,4.15,1.65h.23a5.84,5.84,0,0,0,4.28-2,6.75,6.75,0,0,0,1.5-5ZM120,56.83H106.4l0-.32c-.88-15.21-4.57-25.92-12-34.72l-.7-.84,1.06.28c11.62,3.06,24.81,18.29,25.17,35.25Zm-12.89-.69h12.17c-.51-16-12.54-30.33-23.56-33.92C102.63,30.91,106.16,41.44,107.06,56.14Zm-38.29.69h-13l0-.3c-1.32-11.63,6-33.38,17.12-37.22l.56-.19-.11.58c-.32,1.82-.67,3.64-1,5.47-.8,4.14-1.62,8.41-2.14,12.67s-.77,8.63-1,12.87c-.11,1.93-.21,3.86-.34,5.8Zm-12.39-.69H68.11c.12-1.83.22-3.65.33-5.47.23-4.25.47-8.64,1-12.91S70.78,29.18,71.58,25c.31-1.63.62-3.25.92-4.86C62.25,24.37,55.3,45.11,56.38,56.14Zm29.7.63H72.28v-.36c0-1.1.08-2.2.13-3.29.42-11.74.86-23.88,5.71-35.08l.1-.21,1.86,0,.09.21C84.93,29,85.4,40.3,85.89,52.29c0,1.37.11,2.74.17,4.11ZM73,56.07H85.35c-.06-1.25-.11-2.5-.16-3.75-.49-11.85-1-23-5.56-33.78h-.95C74,29.54,73.55,41,73.11,53.14,73.08,54.12,73,55.09,73,56.07Zm30.19.66H89.45l0-.33c-.07-1.24-.13-2.48-.19-3.72-.53-10.91-1.08-22.19-4.33-33.09l-.27-.89.79.5c14.1,9,16.54,23.87,17.73,37.15ZM90.11,56h12.32C101.22,42.7,98.85,29,85.84,20.3c3,10.7,3.58,21.7,4.1,32.35C90,53.78,90.05,54.91,90.11,56Z" transform="translate(-11.34 -13.64)"/><path class="cls-1" d="M11.69,114.13a10.64,10.64,0,0,1,3.09-1c10.79-.08,21.59,0,32.38-.08,2.29,0,3.18.91,3.08,3.15s-.08,4.39,0,6.58c.06,1.9-.81,2.76-2.66,2.75H41c.71,5.82,1.37,11.28,2,16.73.13,1.13.26,2.26.4,3.4.19,1.46.27,3.16-1.66,3.11-.75,0-1.94-1.61-2.1-2.61-1-6.32-1.71-12.68-2.53-19-.06-.43-.15-.84-.25-1.42H25c-.57,4.46-1.15,9-1.72,13.44a63.27,63.27,0,0,1-1,7c-.25,1-1.37,2.57-2.12,2.59-1.94,0-1.82-1.71-1.65-3.15q1.1-9.14,2.22-18.28c.05-.43.07-.87.11-1.35l-9.16-1.27Zm34.48,7.28v-4.47h-27c-3.93,0-4.23.43-3.11,4.47Z" transform="translate(-11.34 -13.64)"/><path class="cls-1" d="M41.83,149.08h-.1c-1,0-2.27-1.85-2.43-2.9-.73-4.71-1.34-9.52-1.92-14.17-.21-1.63-.41-3.25-.62-4.87,0-.29-.09-.57-.15-.9l0-.21H25.31l-1.68,13.14c-.09.67-.16,1.34-.23,2a37.9,37.9,0,0,1-.77,5c-.28,1.11-1.49,2.84-2.46,2.85a2,2,0,0,1-1.56-.56c-.64-.71-.56-1.86-.43-3q.69-5.78,1.4-11.53l.82-6.75c0-.32.05-.63.07-1v0L11.64,125l-.3,0V113.89l.23-.09a9.77,9.77,0,0,0,1-.4,5.72,5.72,0,0,1,2.24-.66c10.8-.08,21.59,0,32.39-.07h.05a3.51,3.51,0,0,1,2.65.84,3.44,3.44,0,0,1,.72,2.67c-.1,2.37-.06,4.74,0,6.55a3,3,0,0,1-.71,2.34,3,3,0,0,1-2.26.77h0c-1.36,0-2.72,0-4.18,0h-2l2.16,17.86c.08.62.15,1.24.23,1.87.13,1.05.22,2.23-.43,2.94A1.9,1.9,0,0,1,41.83,149.08ZM24.7,125.32H37.15l.14.78c.07.35.12.64.16.94.21,1.63.42,3.25.62,4.87.59,4.65,1.19,9.46,1.92,14.16.14.93,1.26,2.29,1.76,2.31a1.33,1.33,0,0,0,1.06-.34,3.29,3.29,0,0,0,.25-2.38c-.08-.63-.16-1.26-.23-1.89l-2.26-18.63h2.81c1.45,0,2.82,0,4.19,0h0a2.41,2.41,0,0,0,1.77-.55,2.46,2.46,0,0,0,.51-1.84c-.06-1.82-.1-4.22,0-6.6a2.88,2.88,0,0,0-.54-2.16,3.06,3.06,0,0,0-2.19-.63c-10.79.07-21.59,0-32.38.08a5.1,5.1,0,0,0-2,.6c-.25.12-.51.23-.78.34v10l8.87,1.24.32,0,0,.69c0,.34,0,.66-.08,1l-.82,6.75q-.7,5.78-1.4,11.53c-.11.91-.19,1.93.26,2.42a1.34,1.34,0,0,0,1,.34c.51,0,1.55-1.36,1.79-2.33a37.44,37.44,0,0,0,.76-5c.07-.68.14-1.36.23-2Zm21.82-3.56H15.83l-.07-.26c-.62-2.24-.8-3.36-.25-4.09s1.62-.82,3.7-.82H46.52Zm-30.16-.7H45.82v-3.77H19.21c-1.77,0-2.79.09-3.14.55S15.9,119.33,16.36,121.06Z" transform="translate(-11.34 -13.64)"/><path class="cls-1" d="M81.18,107.87c0,7.84,0,15.37.07,22.9,0,.63.8,1.46,1.44,1.82,2.06,1.17,4.22,2.16,6.33,3.22a11.36,11.36,0,0,1,1.61.88c1.47,1,1.81,10.61.35,11.66a4,4,0,0,1-2.21.55c-6.41,0-12.82,0-19.22,0-2.1,0-3-.79-3.06-2.94-.24-8.61-.33-8.72,7.55-12.44,2.41-1.14,3.26-2.47,3.17-5.14-.22-6.74-.07-13.48-.07-20.55H64.6a9.87,9.87,0,0,1-3.13-.08c-.89-.31-1.56-1.24-2.33-1.9a15.32,15.32,0,0,1,2.43-1.81,5.38,5.38,0,0,1,2.09,0h48V99.38a19.28,19.28,0,0,1-4.45-.09c-.85-.2-1.49-1.3-2.22-2,.73-.61,1.41-1.64,2.21-1.73a22.46,22.46,0,0,1,6.29,0,3.31,3.31,0,0,1,2.1,2.3c.3,2.33,0,4.72.13,7.09.07,2.17-.92,2.92-3,2.91-9.39-.06-18.79,0-28.18,0Zm6.35,37c.72-5,.49-4.7-3.12-7.07-3.85-2.54-7.07-2.05-10.75.16-3.49,2.09-3.92,2.62-2.69,6.91Z" transform="translate(-11.34 -13.64)"/><path class="cls-1" d="M69.48,149.29c-2.27,0-3.27-1-3.34-3.28v-.28c-.23-8.54-.09-8.78,7.76-12.49,2.3-1.08,3-2.3,3-4.81-.15-4.79-.12-9.51-.09-14.5,0-1.88,0-3.78,0-5.71H64.58c-.31,0-.62,0-.93,0a5.71,5.71,0,0,1-2.3-.14,5.26,5.26,0,0,1-1.77-1.33,7.82,7.82,0,0,0-.66-.63l-.33-.28.34-.26c.24-.18.46-.38.69-.57a9.06,9.06,0,0,1,1.8-1.28,3,3,0,0,1,1.6-.13c.22,0,.43,0,.64,0h47.65V99.74c-.34,0-.68,0-1,0a10.49,10.49,0,0,1-3.18-.14,3.72,3.72,0,0,1-1.73-1.38,8.73,8.73,0,0,0-.64-.7l-.28-.27.3-.25a7.61,7.61,0,0,0,.65-.63,3.25,3.25,0,0,1,1.74-1.18,22.53,22.53,0,0,1,6.38,0,3.61,3.61,0,0,1,2.4,2.6,30.49,30.49,0,0,1,.13,4.48c0,.87,0,1.77,0,2.65a3.22,3.22,0,0,1-.72,2.45,3.43,3.43,0,0,1-2.61.81h0c-6.8,0-13.73,0-20.43,0H81.53v4.45c0,6.23,0,12.12.06,18.1,0,.45.69,1.18,1.28,1.52,1.42.8,2.93,1.54,4.38,2.26l1.93.95.37.18a8.32,8.32,0,0,1,1.29.73c1.11.79,1.42,4.73,1.43,6.93,0,1.36-.09,4.58-1.08,5.29a4.27,4.27,0,0,1-2.42.61c-2.94,0-5.88,0-8.82,0-3.47,0-6.94,0-10.4,0Zm-4.9-41.76H77.49v.34q0,3.07,0,6.07c0,5,0,9.69.1,14.47.09,2.78-.82,4.26-3.37,5.46-7.59,3.59-7.59,3.59-7.36,11.84V146c0,1.92.75,2.6,2.64,2.6h.06c3.47,0,6.94,0,10.41,0,2.93,0,5.88,0,8.82,0a3.67,3.67,0,0,0,2-.48c.39-.28.8-1.88.79-4.73,0-3.44-.6-6-1.14-6.37a9.09,9.09,0,0,0-1.19-.66l-.38-.19-1.91-1c-1.47-.71-3-1.46-4.43-2.28a3.12,3.12,0,0,1-1.62-2.12c-.08-6-.08-11.87-.07-18.1v-5.14H92.26c6.69,0,13.62,0,20.43,0h.06a2.79,2.79,0,0,0,2.1-.61,2.55,2.55,0,0,0,.52-1.94c0-.89,0-1.8,0-2.69a31.86,31.86,0,0,0-.13-4.37,3.06,3.06,0,0,0-1.82-2,22.34,22.34,0,0,0-6.19,0c-.43,0-.88.51-1.32,1-.14.14-.28.29-.43.42l.43.48A3.21,3.21,0,0,0,107.29,99a10.37,10.37,0,0,0,3,.13c.47,0,.93,0,1.4,0H112v5.33H63.66c-.23,0-.46,0-.7,0a2.6,2.6,0,0,0-1.24.07,8.39,8.39,0,0,0-1.65,1.18l-.39.33c.14.12.27.26.4.39a4.58,4.58,0,0,0,1.5,1.16,5.33,5.33,0,0,0,2,.11C63.93,107.55,64.26,107.53,64.58,107.53Zm23.25,37.7H70.71l-.07-.25c-1.28-4.46-.78-5.13,2.84-7.31,4.17-2.5,7.49-2.54,11.13-.15l.8.52c3,2,3.13,2.22,2.46,6.89Zm-16.6-.7h16c.59-4.11.52-4.15-2.19-5.9l-.81-.53c-3.43-2.26-6.43-2.2-10.38.17C70.53,140.25,70.14,140.64,71.23,144.53Z" transform="translate(-11.34 -13.64)"/><path class="cls-1" d="M133.31,125.65H121.38q-1.09,8.52-2.16,16.95a18.63,18.63,0,0,1-.61,4.14c-.33.86-1.41,1.43-2.15,2.13-.54-.86-1.62-1.77-1.55-2.57.51-5.5,1.26-11,1.92-16.46.16-1.3.28-2.6.46-4.35-2.26,0-4.33,0-6.39,0s-2.9-.84-2.82-2.87c.09-2.28.06-4.57,0-6.85,0-1.86.75-2.75,2.65-2.75q16.59,0,33.18,0c1.88,0,2.74.84,2.71,2.71,0,2.2-.09,4.39,0,6.58s-.8,3.27-3.07,3.19c-1.92-.07-3.84,0-6.21,0,.56,4.61,1.08,9,1.61,13.39.29,2.44.74,4.88.79,7.32,0,.88-.94,1.77-1.45,2.66-.77-.76-2.09-1.44-2.22-2.29C135.05,139.72,134.23,132.85,133.31,125.65Zm-21.22-4.33H142.5v-4.17H112.09Z" transform="translate(-11.34 -13.64)"/><path class="cls-1" d="M138.39,149.42l-.33-.32c-.23-.22-.52-.44-.8-.67-.69-.53-1.41-1.09-1.52-1.81-.79-5.21-1.44-10.37-2.13-15.82-.2-1.59-.4-3.19-.61-4.81H121.68l-2.11,16.65c0,.41-.08.82-.12,1.24a11,11,0,0,1-.51,3,4.33,4.33,0,0,1-1.52,1.67c-.25.2-.5.39-.72.6l-.31.28-.22-.35c-.17-.25-.39-.52-.6-.79a3.07,3.07,0,0,1-1-2c.37-4.05.88-8.14,1.38-12.1.18-1.46.37-2.92.54-4.37.09-.81.18-1.62.27-2.54,0-.45.09-.92.14-1.42h-6.12a3.1,3.1,0,0,1-2.32-.78,3.18,3.18,0,0,1-.73-2.46c.1-2.45,0-4.93,0-6.82a3.12,3.12,0,0,1,.72-2.35,3,3,0,0,1,2.27-.75h0c11,0,22.17,0,33.18,0h0a2.66,2.66,0,0,1,3,3.06v.53c0,2-.07,4,0,6a3.51,3.51,0,0,1-.77,2.75,3.41,3.41,0,0,1-2.66.79c-1.3,0-2.57,0-4,0h-1.77l1.57,13q.12,1,.27,2a44.6,44.6,0,0,1,.51,5.31,3.63,3.63,0,0,1-.94,2,7.63,7.63,0,0,0-.55.8Zm-25.06-24.29h4.35l0,.39c-.07.65-.13,1.24-.19,1.8-.09.92-.17,1.74-.27,2.55-.17,1.46-.36,2.92-.54,4.37-.49,4-1,8.05-1.38,12.08,0,.41.41,1,.85,1.5.14.17.28.35.41.53L117,148a3.73,3.73,0,0,0,1.29-1.36,9.87,9.87,0,0,0,.48-2.79c0-.43.06-.86.12-1.28l2.19-17.25h12.55l0,.3c.22,1.72.43,3.42.64,5.11.69,5.45,1.34,10.6,2.13,15.81.07.45.67.91,1.25,1.36l.55.44.36-.51a3.18,3.18,0,0,0,.82-1.6,45.78,45.78,0,0,0-.51-5.24c-.1-.68-.19-1.36-.28-2.05L137,125.15h.39l2.16,0c1.41,0,2.75,0,4.07,0h.23a2.55,2.55,0,0,0,1.9-.59,2.86,2.86,0,0,0,.58-2.23c-.1-2-.06-4.08,0-6.07v-.54a2.4,2.4,0,0,0-.52-1.79,2.48,2.48,0,0,0-1.83-.56h0c-11,0-22.18,0-33.18,0h0a2.38,2.38,0,0,0-1.77.55,2.46,2.46,0,0,0-.52,1.84c0,1.9.08,4.4,0,6.87a2.5,2.5,0,0,0,.53,1.94,2.45,2.45,0,0,0,1.82.57h.11Zm29.51-3.46h-31.1V116.8h31.1Zm-30.41-.7h29.72v-3.48H112.43Z" transform="translate(-11.34 -13.64)"/></svg>