<svg id="Capa_1" data-name="Capa 1" xmlns="http://www.w3.org/2000/svg" viewBox="0 0 131.04 131.15"><path class="cls-1" d="M94.78,14.13c4.38,1.17,8.45,3.07,10.7,7.15,1.43,2.59,1.43,6.06,3.09,8.43s4.86,3.27,6.67,5.44a12.81,12.81,0,0,1,2.38,6.51A3.72,3.72,0,0,0,119.89,45a17,17,0,0,1,7.57,8c.61,1.26,1,2.69-.61,3.18-.69.22-2.23-.65-2.66-1.43a15.62,15.62,0,0,0-7.63-7.18,4.08,4.08,0,0,1-2.6-4.25c.15-4.53-1.84-7.65-6.21-9.1-2.24-.74-3.12-2.31-3.29-4.59A12.22,12.22,0,0,0,80,29.7a4.72,4.72,0,0,1-3.56,4.67c-3.72,1.23-5.86,3.91-5.86,7.76,0,3-.79,5.15-4,6,1.15,4.64,2.51,9,3.29,13.49,1,5.92,1.55,11.92,2.38,17.88a6.26,6.26,0,0,0,1.13,3c3.92,4.81,12.33,4.62,16.19-.28,1.34-1.7.8-12.56-.72-14.1-2-2-4.08-4.08-6.12-6.12-1-1-2.08-2.1-.74-3.45s2.47-.29,3.45.73c1.38,1.45,2.75,2.92,4.12,4.39l.66-.3a64.33,64.33,0,0,1,.09-7.22c.11-1,1-2.57,1.81-2.69,1.82-.29,2,1.34,2,2.78,0,3.56.06,7.13.1,10.69,0,.05.11.1.43.38a56.31,56.31,0,0,1,4.58-4.56c.73-.58,2.36-1,3-.54,1.36.92.67,2.18-.35,3.18-2,2-3.88,4-6,5.91A4.66,4.66,0,0,0,94.2,75.7a6.93,6.93,0,0,1,0,1c0,5.42.93,6.94,5.22,8.52s8.94.61,11.58-2.77c1.17-1.49,1.65-3.49,2.68-5.11.86-1.34,1.82-2.9,3.14-3.6,4.14-2.2,7-5.24,8.15-9.85.33-1.36.73-2.88,2.59-2.39s1.56,2,1.1,3.35c-.82,2.29-1.81,4.52-2.77,6.86a1.18,1.18,0,0,0,.45.34c8.41,2.05,13,7.76,15.21,15.8l.6,2.17v6.63c-2.31,9.29-7.17,16.17-17.2,18v26.09c4.68,0,9.25-.08,13.81.06,1.14,0,2.26.77,3.39,1.18v1.53a12,12,0,0,1-3.27,1q-61.87.08-123.76,0c-.59,0-1.31.17-1.75-.1-.64-.4-1.56-1.2-1.49-1.71a3.25,3.25,0,0,1,1.62-1.85,4.37,4.37,0,0,1,2-.12H40V113.11c-1.54-.32-3.1-.58-4.63-1C23.34,109,14,98,12.21,85.17,10.89,75.7,13,66.6,15,57.49c.65-3,1.57-5.89,2.41-8.82.4-1.37.74-3.14,2.73-2.57s1.27,2.16.95,3.6c-1.71,7.6-3.74,15.15-4.95,22.83-1.82,11.51.59,22,9.55,30.18A23.09,23.09,0,0,0,40.13,109c0-4.82,0-9.46-.06-14.09,0-.61-.74-1.28-1.25-1.81C36.75,91,34.54,89,32.59,86.71c-.54-.62-.36-1.89-.51-2.86,1,.08,2.43-.23,3.06.32a41.08,41.08,0,0,1,4.11,4.68l.91-.61V75.37a5.65,5.65,0,0,1,.08-2.26,9.36,9.36,0,0,1,1.77-2c.62.66,1.71,1.28,1.78,2,.23,2.33.09,4.69.09,7.76,1.83-1.79,3.2-3.09,4.54-4.42,1-1,2.15-2,3.46-.67S52.16,78,51.22,79a4.66,4.66,0,0,1-.55.54c-6,4-7.68,9.67-6.86,16.63.48,4.09.08,8.29.08,13A53.17,53.17,0,0,0,49.16,108C60.81,104.3,69,92.4,68.35,78.9A115.18,115.18,0,0,0,53.89,28.24a32.82,32.82,0,0,0-5.4-7c-4.29-4.34-8.79-4.51-12.82,0-3.18,3.56-5.6,7.82-8.13,11.9-1.24,2-1.83,4.39-3,6.43-.45.79-1.74,1.08-2.65,1.6-.26-1-1-2.31-.68-3,2.67-5.37,5.36-10.76,8.45-15.89a19.55,19.55,0,0,1,10.12-8.09h4.58a21.69,21.69,0,0,1,10.57,8.7c2.45,3.93,4.65,8,6.7,12.2,1.48,3,2.55,6.22,3.8,9.34l.72.1c.2-.72.38-1.44.62-2.14.8-2.45,1.08-5.31,2.57-7.22C71,32.91,74.41,32,76,29.71s1.62-5.83,3-8.42c2.24-4.07,6.29-6,10.65-7.16ZM90.12,140.62V87c-6.34,3.67-12.38,3.81-18.35-.56-3.83,14.68-12.29,24.3-27.72,26.64v27.54Zm30.78-25.84c-9.08-2.59-14.14-7.17-16.23-15-.69-2.59-.63-5.37-1.08-8a2.78,2.78,0,0,0-1.28-2c-2.59-.88-5.27-1.51-8-2.23v53H120.9Zm4.26-4a38.61,38.61,0,0,0,4.69-1.91c6.42-3.64,9.78-12,8.05-19.87s-7.44-13.12-14.27-13.46c-3.41-.17-5.49,1.17-6.84,4.29a17.26,17.26,0,0,1-7.51,8.68,3.5,3.5,0,0,0-1.58,2.26c-.69,6.76,1.2,12.65,6.65,16.94,1.76,1.39,4,2.13,6.67,3.48v-3.67c0-4.41-.08-8.83.09-13.23,0-.8,1.11-1.57,1.7-2.35.67.79,1.74,1.49,1.93,2.38a22,22,0,0,1,.09,4.67l.9.54a12.23,12.23,0,0,1,2.31-3c.67-.47,1.9-.14,2.87-.17-.07.92.15,2-.27,2.71a9.76,9.76,0,0,1-2.65,2.71C125,104,124.18,106.85,125.16,110.83Z" transform="translate(-11.46 -13.8)"/><path class="cls-1" d="M14.08,144.94a1.66,1.66,0,0,1-.88-.2c-.18-.12-1.77-1.15-1.65-2.05a3.55,3.55,0,0,1,1.79-2.09,2.72,2.72,0,0,1,1.61-.19l.56,0H39.68V113.38l-1.16-.23c-1.06-.2-2.15-.42-3.22-.69-12.19-3.17-21.61-14.12-23.43-27.25-1.3-9.35.72-18.47,2.67-27.28l.11-.51c.52-2.39,1.23-4.78,1.91-7.09l.59-2a3.75,3.75,0,0,1,1.36-2.42,2.21,2.21,0,0,1,1.7-.1c2.06.59,1.65,2.18,1.32,3.47-.05.17-.09.35-.13.52-.48,2.11-1,4.21-1.47,6.31-1.28,5.39-2.6,11-3.48,16.5C14.51,84.89,17.69,95,25.9,102.46a22.75,22.75,0,0,0,13.89,6.15c0-1,0-2.09,0-3.13,0-3.64,0-7.08-.06-10.58,0-.42-.56-1-1-1.41l-.16-.17c-.73-.75-1.47-1.48-2.21-2.21-1.36-1.33-2.76-2.71-4-4.18a3.37,3.37,0,0,1-.52-2.09c0-.32,0-.64-.07-.94l-.07-.41.43,0a8.42,8.42,0,0,0,1,0,3.32,3.32,0,0,1,2.25.4,24.34,24.34,0,0,1,3,3.33c.31.39.63.78,1,1.16l.5-.34V75.37c0-.22,0-.45,0-.68A3.53,3.53,0,0,1,39.93,73a5.54,5.54,0,0,1,1.26-1.55q.3-.28.57-.57l.25-.27.25.26a6.37,6.37,0,0,0,.65.59c.57.48,1.16,1,1.22,1.6a47.32,47.32,0,0,1,.11,5.27c0,.55,0,1.12,0,1.72l1-1c1.11-1.07,2.06-2,3-2.91s2.29-2.31,3.95-.67a2.06,2.06,0,0,1,.69,1.45,3.55,3.55,0,0,1-1.36,2.28l-.14.16a2.57,2.57,0,0,1-.45.42c-5.45,3.68-7.59,8.87-6.72,16.31a60.91,60.91,0,0,1,.17,8.69c0,1.27-.07,2.57-.08,3.91l1.43-.27a24.87,24.87,0,0,0,3.4-.76c11.76-3.74,19.56-15.57,19-28.76A115.16,115.16,0,0,0,53.59,28.4a31.64,31.64,0,0,0-5.34-6.95c-2.11-2.14-4.24-3.22-6.33-3.22h-.15c-2,.05-4,1.13-5.85,3.21a68.4,68.4,0,0,0-6.9,9.9c-.4.65-.8,1.3-1.19,1.95a21.37,21.37,0,0,0-1.57,3.31,25,25,0,0,1-1.44,3.11A3.81,3.81,0,0,1,22.93,41a9.18,9.18,0,0,0-.89.42l-.39.23-.11-.44a7.54,7.54,0,0,0-.33-1A3.09,3.09,0,0,1,20.89,38c3-6,5.48-11,8.46-15.92a19.75,19.75,0,0,1,10.29-8.22l.12,0,4.71,0a21.86,21.86,0,0,1,10.72,8.83c2.23,3.57,4.42,7.58,6.72,12.23,1,2.1,1.88,4.32,2.69,6.47.34.9.69,1.81,1.05,2.71l.23,0,.11-.4c.14-.49.28-1,.44-1.47.23-.72.43-1.5.62-2.26a13.46,13.46,0,0,1,2-5.06,12.64,12.64,0,0,1,3.36-2.69,11.06,11.06,0,0,0,3.3-2.7,12.75,12.75,0,0,0,1.64-4.36,17.36,17.36,0,0,1,1.38-4c2.5-4.55,7.12-6.3,10.87-7.32h5.27c5.57,1.48,8.93,3.73,10.91,7.31a17.25,17.25,0,0,1,1.4,4,13,13,0,0,0,1.67,4.38,11.56,11.56,0,0,0,3.36,2.79,14.54,14.54,0,0,1,3.29,2.62c1.69,2,2.26,5,2.46,6.69a3.37,3.37,0,0,0,2.09,3.12,17.45,17.45,0,0,1,7.72,8.14,3.29,3.29,0,0,1,.4,2.66,1.82,1.82,0,0,1-1.22,1c-.87.28-2.57-.72-3.06-1.6a15.24,15.24,0,0,0-7.46-7,4.43,4.43,0,0,1-2.81-4.58c.16-4.45-1.85-7.4-6-8.77-2.22-.73-3.34-2.29-3.52-4.89A11.83,11.83,0,0,0,92.36,18.33h-.11A11.76,11.76,0,0,0,80.37,29.72a5,5,0,0,1-3.79,5C72.91,35.91,71,38.48,71,42.12c0,2.5-.47,5.18-3.88,6.23.34,1.35.69,2.68,1,4,.84,3.15,1.64,6.13,2.17,9.21.64,3.7,1.1,7.49,1.54,11.16.26,2.21.53,4.5.84,6.73a5.85,5.85,0,0,0,1.06,2.79,9.7,9.7,0,0,0,7.64,3.39h.09A10.18,10.18,0,0,0,89.4,82c1.22-1.55.67-12.27-.7-13.65-1.69-1.71-3.4-3.4-5.1-5.1l-1-1a5.42,5.42,0,0,1-1.32-1.72,1.94,1.94,0,0,1,.58-2.21,2.17,2.17,0,0,1,1.53-.74h0A3.69,3.69,0,0,1,85.77,59c1,1,1.89,2,2.83,3l1.14,1.21L90,63.1c0-.61,0-1.23,0-1.85a39.14,39.14,0,0,1,.11-5.19c.12-1,1.12-2.83,2.09-3a1.89,1.89,0,0,1,1.6.35,3.59,3.59,0,0,1,.8,2.76c0,3.52.06,7,.1,10.55h0l.06,0c.36-.37.71-.75,1.06-1.12a32.88,32.88,0,0,1,3.33-3.24c.77-.61,2.58-1.1,3.38-.56a1.83,1.83,0,0,1,.9,1.35,3.11,3.11,0,0,1-1.2,2.35c-.68.67-1.34,1.35-2,2-1.27,1.31-2.59,2.66-4,3.89a4.34,4.34,0,0,0-1.67,4.15,3.88,3.88,0,0,1,0,.76c0,.1,0,.21,0,.31,0,5.29.84,6.67,5,8.2,4.33,1.58,8.71.53,11.2-2.65a12.55,12.55,0,0,0,1.49-2.76,17.68,17.68,0,0,1,1.18-2.34l.07-.1a9.85,9.85,0,0,1,3.2-3.61c4.41-2.34,6.95-5.41,8-9.63A3.81,3.81,0,0,1,126,61.34a2.13,2.13,0,0,1,1.69-.15,2.19,2.19,0,0,1,1.47,1.05A3.55,3.55,0,0,1,129,65c-.57,1.62-1.22,3.17-1.91,4.82-.26.61-.52,1.22-.77,1.85a.34.34,0,0,0,.13.09c8,2,13,7.2,15.46,16,.2.72.39,1.45.6,2.17v6.71c-2.62,10.59-8.24,16.55-17.21,18.3v25.48l3.45,0c3.44,0,6.7,0,10,.07a6.65,6.65,0,0,1,2.45.76c.35.16.7.31,1.05.44l.22.08v2l-.24.08c-.34.11-.67.24-1,.37a6.41,6.41,0,0,1-2.36.62c-37.32,0-75.26,0-112,0H15.13l-.49,0A5.12,5.12,0,0,1,14.08,144.94Zm.26-3.88a1.42,1.42,0,0,0-.66.12,3,3,0,0,0-1.46,1.6c0,.23.56.89,1.34,1.38a1.85,1.85,0,0,0,1,.08l.54,0H26.92c36.7,0,74.65,0,112,0a6,6,0,0,0,2.11-.56l.82-.32v-1c-.29-.11-.58-.24-.87-.38a6.13,6.13,0,0,0-2.19-.7c-3.32-.09-6.57-.08-10-.06h-4.12V114.4l.28-.05c8.95-1.65,14.33-7.29,16.93-17.77V90.09c-.19-.71-.39-1.42-.58-2.14-2.36-8.58-7.25-13.67-15-15.56a1.19,1.19,0,0,1-.55-.36l-.2-.16.07-.27c.28-.7.57-1.39.86-2.07.68-1.63,1.33-3.18,1.9-4.77a3,3,0,0,0,.17-2.21,1.49,1.49,0,0,0-1-.7,1.45,1.45,0,0,0-1.18.07c-.57.34-.81,1.3-1,2.06-1,4.37-3.77,7.67-8.31,10.08a9.4,9.4,0,0,0-2.94,3.38l-.07.1a17.39,17.39,0,0,0-1.13,2.24,13.77,13.77,0,0,1-1.57,2.9c-2.68,3.43-7.38,4.55-12,2.87-4.42-1.62-5.44-3.27-5.44-8.83,0-.11,0-.23,0-.34a3.29,3.29,0,0,0,0-.63A5,5,0,0,1,95.75,71c1.37-1.22,2.68-2.56,4-3.86.67-.68,1.34-1.37,2-2a2.6,2.6,0,0,0,1-1.8,1.19,1.19,0,0,0-.61-.86,3.07,3.07,0,0,0-2.58.53,31.37,31.37,0,0,0-3.25,3.17c-.43.46-.86.91-1.3,1.36l-.22.23-.24-.21a2.92,2.92,0,0,0-.29-.24.51.51,0,0,1-.25-.4c0-3.56-.08-7.12-.11-10.69a3.17,3.17,0,0,0-.56-2.25,1.24,1.24,0,0,0-1-.19c-.54.08-1.43,1.47-1.53,2.38a41.47,41.47,0,0,0-.11,5.11c0,.69,0,1.39,0,2.08v.23L89.57,64,88.1,62.46c-.93-1-1.87-2-2.82-3-.6-.64-1.25-1.26-1.9-1.26h0a1.52,1.52,0,0,0-1.05.53,1.28,1.28,0,0,0-.44,1.49,5,5,0,0,0,1.17,1.48l1,1c1.7,1.7,3.41,3.4,5.1,5.11s2.22,12.67.75,14.54a10.89,10.89,0,0,1-8.46,3.91h-.1a10.37,10.37,0,0,1-8.16-3.63A6.53,6.53,0,0,1,72,79.54c-.32-2.25-.59-4.53-.86-6.75-.44-3.66-.89-7.44-1.52-11.12-.53-3.05-1.32-6-2.16-9.15-.38-1.42-.76-2.86-1.13-4.32l-.08-.32.32-.09c3.08-.81,3.71-2.85,3.71-5.67,0-3.91,2.16-6.77,6.08-8.07a4.39,4.39,0,0,0,3.33-4.37,12.42,12.42,0,0,1,12.55-12h.11a12.47,12.47,0,0,1,12.44,12c.17,2.33,1.11,3.65,3.06,4.3,4.44,1.48,6.6,4.65,6.44,9.44a3.73,3.73,0,0,0,2.4,3.93,15.88,15.88,0,0,1,7.79,7.32c.39.71,1.81,1.45,2.26,1.27a1.16,1.16,0,0,0,.8-.61,2.72,2.72,0,0,0-.39-2.1,16.68,16.68,0,0,0-7.42-7.84,4.1,4.1,0,0,1-2.46-3.64,12.67,12.67,0,0,0-2.3-6.34,13.6,13.6,0,0,0-3.14-2.48,12.25,12.25,0,0,1-3.55-3,14.15,14.15,0,0,1-1.77-4.6,16.55,16.55,0,0,0-1.34-3.87c-1.87-3.39-5.09-5.54-10.44-7h-5c-5.35,1.47-8.56,3.62-10.4,7A16.35,16.35,0,0,0,78,25.32a13.58,13.58,0,0,1-1.75,4.58,11.81,11.81,0,0,1-3.48,2.88,12,12,0,0,0-3.19,2.53,13.1,13.1,0,0,0-1.89,4.81c-.19.77-.39,1.57-.63,2.31-.16.48-.29,1-.42,1.44l-.28,1-1.21-.16-.07-.19c-.38-1-.75-1.93-1.12-2.91-.81-2.13-1.65-4.33-2.67-6.4C59,30.55,56.83,26.56,54.62,23a21.28,21.28,0,0,0-10.35-8.53H39.82a19.12,19.12,0,0,0-9.89,7.92c-3,4.92-5.47,9.89-8.44,15.87-.18.36.1,1.09.35,1.74l.24.65.58-.26a3.44,3.44,0,0,0,1.58-1,23.09,23.09,0,0,0,1.39-3,23.11,23.11,0,0,1,1.62-3.41L28.45,31a68.46,68.46,0,0,1,7-10c2-2.22,4.12-3.38,6.34-3.44h.17c2.28,0,4.57,1.15,6.81,3.42a32.47,32.47,0,0,1,5.45,7.11,115.76,115.76,0,0,1,14.51,50.8c.62,13.5-7.37,25.61-19.43,29.45a28.11,28.11,0,0,1-3.48.78c-.59.1-1.19.21-1.82.34l-.4.09v-.42c0-1.49,0-2.94.07-4.34a58.09,58.09,0,0,0-.16-8.59c-.9-7.72,1.33-13.11,7-17a1.84,1.84,0,0,0,.32-.31l.17-.19c.59-.58,1.17-1.2,1.17-1.8a1.35,1.35,0,0,0-.5-1c-1-1-1.78-.56-3,.65-.94.94-1.88,1.86-3,2.93l-2.12,2v-.79c0-.9,0-1.74,0-2.53a51,51,0,0,0-.11-5.19c0-.36-.52-.76-1-1.15-.15-.13-.31-.26-.45-.4l-.36.35a5.29,5.29,0,0,0-1.12,1.35,2.8,2.8,0,0,0-.08,1.38c0,.25,0,.5,0,.74v13l-1.31.88L39,89.07c-.4-.46-.77-.93-1.15-1.41a25.14,25.14,0,0,0-2.93-3.24,3,3,0,0,0-1.79-.23l-.66,0h0c0,.19,0,.39,0,.6a3,3,0,0,0,.36,1.68c1.25,1.44,2.65,2.82,4,4.14.75.74,1.49,1.47,2.22,2.22l.16.17a3.23,3.23,0,0,1,1.19,1.86c.08,3.51.07,7,.06,10.6v3.86l-.36,0A23.36,23.36,0,0,1,25.45,103C17.05,95.29,13.8,85,15.79,72.47c.88-5.56,2.2-11.14,3.48-16.54q.75-3.15,1.47-6.31c0-.18.09-.36.13-.54.37-1.43.51-2.26-.84-2.65a1.53,1.53,0,0,0-1.19,0c-.57.32-.82,1.22-1,2l-.59,2c-.68,2.3-1.38,4.67-1.9,7l-.11.52c-1.94,8.75-3.94,17.81-2.66,27,1.78,12.86,11,23.59,22.93,26.68,1.05.27,2.13.49,3.18.69l1.44.29.26.06v28.27H31.74c-5.41,0-10.82,0-16.23,0l-.6,0A5.59,5.59,0,0,0,14.34,141.06Zm76.11-.1H43.71V112.79l.29-.05c14.39-2.18,23.38-10.81,27.45-26.38l.12-.49.4.3c5.63,4.11,11.5,4.3,18,.54l.5-.3Zm-46.07-.67h45.4V87.58C83.4,91.09,77.57,90.91,72,87c-4.18,15.46-13.21,24.09-27.6,26.37Zm76.86.58H94V87.08l.42.11,2.17.58c1.91.49,3.9,1,5.8,1.66a3.09,3.09,0,0,1,1.51,2.23c.17,1.08.27,2.19.37,3.26a28.05,28.05,0,0,0,.7,4.75c2,7.65,7,12.21,16,14.78l.24.07ZM94.7,140.2h25.87V115c-9.13-2.66-14.14-7.35-16.23-15.19a28.63,28.63,0,0,1-.71-4.86c-.1-1.06-.2-2.15-.37-3.21a2.54,2.54,0,0,0-1.05-1.7c-1.89-.64-3.86-1.16-5.76-1.65L94.7,88Zm26.65-28.41-.49-.25c-.87-.45-1.69-.82-2.49-1.18a20.15,20.15,0,0,1-4.23-2.33c-5.24-4.14-7.52-9.94-6.78-17.24a3.83,3.83,0,0,1,1.76-2.53,16.79,16.79,0,0,0,7.36-8.51c1.42-3.29,3.6-4.67,7.17-4.5,7,.35,12.85,5.87,14.58,13.72,1.78,8-1.68,16.54-8.22,20.24a20.54,20.54,0,0,1-3.2,1.37c-.51.18-1,.37-1.52.57l-.36.14-.09-.37c-1-4.16-.09-7.11,3-9.31A9.41,9.41,0,0,0,130.35,99a3.29,3.29,0,0,0,.22-1.64c0-.18,0-.37,0-.55l-.63,0a3,3,0,0,0-1.7.15,6.67,6.67,0,0,0-1.57,1.9c-.21.33-.43.66-.66,1l-.18.24-1.33-.79V99c0-.47,0-1,0-1.42a11.93,11.93,0,0,0-.12-3.18A3.58,3.58,0,0,0,123.28,93l-.46-.44-.43.45c-.45.48-.93,1-1,1.4-.12,3.28-.11,6.63-.09,9.87,0,1.11,0,2.23,0,3.34Zm1.71-35.88c-2.93,0-4.73,1.25-6,4.1a17.53,17.53,0,0,1-7.66,8.84,3.13,3.13,0,0,0-1.41,2c-.73,7.06,1.47,12.66,6.51,16.64a20,20,0,0,0,4.1,2.24c.66.3,1.33.61,2,1v-3.12c0-1.11,0-2.23,0-3.34,0-3.25,0-6.6.1-9.9a3.15,3.15,0,0,1,1.14-1.83c.23-.25.45-.48.63-.71l.25-.34.28.32a7.36,7.36,0,0,0,.68.69,4,4,0,0,1,1.32,1.84,13,13,0,0,1,.14,3.35c0,.4,0,.8,0,1.2l.47.28.45-.69a7.29,7.29,0,0,1,1.76-2.09,3.47,3.47,0,0,1,2.13-.27c.32,0,.64,0,.92,0l.38,0,0,.38c0,.27,0,.56,0,.85a3.7,3.7,0,0,1-.31,2,10.22,10.22,0,0,1-2.74,2.82c-2.74,2-3.6,4.52-2.78,8.22.39-.15.78-.3,1.17-.43a20.63,20.63,0,0,0,3.1-1.32c6.29-3.56,9.61-11.77,7.89-19.51-1.67-7.55-7.28-12.86-13.95-13.19Z" transform="translate(-11.46 -13.8)"/></svg>