<svg id="Capa_1" data-name="Capa 1" xmlns="http://www.w3.org/2000/svg" viewBox="0 0 115.07 126.72"><path class="cls-1" d="M93.87,15.06c1.49,2.7,1.22,3.11-2.76,4v3.34h8.42c10.7.05,18.63,6.56,20.83,17A5.26,5.26,0,0,0,122.1,42c2.67,2.27,3.11,6.34.35,8.35-1.93,1.4-2.2,3-2.1,5.1,2.09.37,3.88.69,5.47-1.6,1.74-2.5,5.38-2.49,7.66-.46a5.51,5.51,0,0,1-7.28,8.26c-2.85-2.47-2.85-2.47-6.35-2.21-2.29,3.74-4.09,7.56-6.71,10.72a39.49,39.49,0,0,1-8.39,7.08c-1.56,1-1.79,1.91-1.4,3.51q6.72,28,13.36,55.94c.36,1.49,1.5,3.59-.76,4.21-2.56.7-2.42-1.89-2.79-3.4-2.26-9.23-4.47-18.47-6.57-27.74-.43-1.88-1.23-2.42-3.13-2.41q-25.36.12-50.72,0c-1.92,0-2.81.53-3.11,2.43-.34,2.09-.91,4.14-1.37,6.17,6.6,3.46,10.16,10.21,6.83,17.64a12.77,12.77,0,0,1-15.16,7,13,13,0,0,1-9.44-13.37c.69-7.09,5.59-11.39,14.1-12.08Q48.94,97,53.37,78.5A32.39,32.39,0,0,1,37,59.39a22.1,22.1,0,0,0-3.64,0A4.07,4.07,0,0,0,31,60.62c-2.31,2.77-6,3.23-8.41.9a5.51,5.51,0,0,1,.15-8.09,5.31,5.31,0,0,1,8.14,1c1.42,2.09,3.17.94,5,1.25.06-2.13.1-3.75-1.91-5.16-2.91-2-2.57-6.16.17-8.53a5.68,5.68,0,0,0,1.79-2.85A20.48,20.48,0,0,1,56.44,22.45H65.1V19.11c-4-.94-4.25-1.35-2.75-4ZM116.65,52h-2.88q-33.36,0-66.71,0c-1.5,0-3.83.7-3.86-1.75,0-2.71,2.44-1.85,4-1.85q34.46-.08,68.92,0a7.67,7.67,0,0,0,2.68-.14c.69-.27,1.72-1.25,1.61-1.67-.18-.73-1-1.4-1.78-1.86-.41-.26-1.11-.06-1.69-.06H39.38a5,5,0,0,0-2,.08c-.66.3-1.5.91-1.6,1.51S36.4,48,36.88,48c2.31.43,2.37,2,2.52,3.83,1.26,14.66,12,25.28,26.69,25.88,8.6.35,17.24.3,25.83-.15C105,76.91,116.18,65.18,116.65,52ZM39.79,40.79h76.89c-.17-1-.23-1.76-.45-2.53-2.07-7.39-8.42-12-16.58-12.08q-21.54-.06-43.08,0A20.12,20.12,0,0,0,51,27C44.64,28.81,39.62,35.05,39.79,40.79Zm55,40.37c0,2.84-.07,5.62,0,8.4.07,2.2-.83,3.13-3,3.12q-13.66-.06-27.34,0c-2.25,0-3.06-1-3-3.18.1-2.77,0-5.55,0-8.39L56.82,80c-1.9,8-3.76,15.74-5.64,23.66h53.87c-1.91-8-3.79-15.81-5.69-23.71ZM65.31,88.79h25.5V81.7H65.31ZM52.57,128.33a9.18,9.18,0,1,0-9.3,9.08A9.15,9.15,0,0,0,52.57,128.33ZM68.92,22.27H87.21V19H68.92ZM29,57.63c-1.2-.88-1.93-1.83-2.48-1.73-.73.13-1.32,1.07-2,1.66.57.6,1.12,1.65,1.71,1.68S27.74,58.43,29,57.63Zm103.43,0c-1.19-.89-1.92-1.84-2.47-1.74-.74.12-1.33,1.06-2,1.66.57.6,1.12,1.65,1.71,1.68S131.17,58.43,132.44,57.64Z" transform="translate(-20.57 -14.74)"/><path class="cls-1" d="M43.44,141.45a13.56,13.56,0,0,1-3.6-.48,13.33,13.33,0,0,1-9.68-13.72c.71-7.22,5.74-11.6,14.17-12.36L53,78.67a32.49,32.49,0,0,1-16.24-19l-.86,0a12.89,12.89,0,0,0-2.49.07,3.87,3.87,0,0,0-2.15,1.07,6.65,6.65,0,0,1-4.69,2.51,5.62,5.62,0,0,1-4.19-1.58,5.85,5.85,0,0,1,.15-8.58,5.64,5.64,0,0,1,8.63,1.09c.87,1.29,1.81,1.21,3,1.11a7.79,7.79,0,0,1,1.37,0c0-1.88,0-3.28-1.78-4.52a5,5,0,0,1-2.17-3.91,6.45,6.45,0,0,1,2.32-5.13,5.35,5.35,0,0,0,1.68-2.68,20.83,20.83,0,0,1,20.85-17c2,0,3.91,0,5.9,0h2.44V19.37c-2.13-.51-3.15-.89-3.48-1.64s0-1.48.77-2.83l.1-.16h31.9l.09.16c.75,1.35,1.07,2.16.77,2.83s-1.35,1.13-3.48,1.64v2.76h8.1c10.8,0,18.91,6.64,21.14,17.22a5,5,0,0,0,1.63,2.44,6.44,6.44,0,0,1,2.33,5.06,4.84,4.84,0,0,1-2,3.8c-1.7,1.25-2,2.58-2,4.57,1.94.34,3.48.51,4.88-1.51a4.82,4.82,0,0,1,3.45-2,6.1,6.1,0,0,1,4.7,1.52,5.84,5.84,0,0,1,.49,8.2,5.9,5.9,0,0,1-8.2.55c-2.7-2.34-2.74-2.38-5.95-2.15-.67,1.09-1.3,2.21-1.91,3.28a48.75,48.75,0,0,1-4.74,7.33,39.77,39.77,0,0,1-8.46,7.15c-1.5,1-1.6,1.77-1.26,3.16,4.16,17.34,8.54,35.63,13.36,55.94.06.25.14.51.23.79a3.84,3.84,0,0,1,.16,2.85,2.13,2.13,0,0,1-1.39,1,2.21,2.21,0,0,1-1.87-.14c-.81-.52-1-1.65-1.16-2.65,0-.3-.09-.59-.15-.84-2.5-10.19-4.65-19.27-6.58-27.75-.38-1.66-1-2.15-2.76-2.15h-.05c-16.95.09-34,.08-50.72,0h-.05c-1.83,0-2.48.51-2.74,2.15-.23,1.47-.59,2.94-.94,4.36-.13.53-.25,1.06-.38,1.59,7.14,3.86,9.85,11,6.75,17.94A13,13,0,0,1,43.44,141.45ZM34.81,59l1.1,0,1.08,0h.23l.08.23A31.91,31.91,0,0,0,53.52,78.21l.23.12-.06.25-8.83,36.93h-.24c-8.34.68-13.12,4.76-13.81,11.79a12.68,12.68,0,0,0,9.2,13,12.46,12.46,0,0,0,14.78-6.85c3-6.74.4-13.5-6.69-17.21l-.22-.12.06-.24c.14-.61.29-1.23.44-1.84.34-1.41.69-2.86.93-4.31.35-2.25,1.56-2.7,3.38-2.7h.06c16.71.08,33.77.08,50.71,0h0c2.07,0,3,.7,3.41,2.66,1.92,8.47,4.07,17.55,6.57,27.74.06.27.12.57.17.89.14.86.3,1.84.87,2.2a1.65,1.65,0,0,0,1.34.06,1.47,1.47,0,0,0,1-.64,3.31,3.31,0,0,0-.21-2.35c-.09-.29-.17-.57-.24-.83-4.82-20.3-9.19-38.6-13.36-55.93A3.08,3.08,0,0,1,104.56,77a39.68,39.68,0,0,0,8.33-7,48.89,48.89,0,0,0,4.68-7.24c.64-1.13,1.3-2.29,2-3.44l.08-.15h.17c3.6-.26,3.67-.25,6.59,2.3A5.27,5.27,0,0,0,133.7,61a5.19,5.19,0,0,0-.44-7.29,5.41,5.41,0,0,0-4.18-1.35,4.17,4.17,0,0,0-3,1.76c-1.71,2.46-3.7,2.11-5.8,1.73l-.25,0v-.26c-.11-2.3.22-3.92,2.23-5.39A4.21,4.21,0,0,0,124,46.83a5.81,5.81,0,0,0-2.1-4.54,5.64,5.64,0,0,1-1.84-2.8c-2.18-10.27-10-16.67-20.51-16.71-1.94,0-3.87,0-5.84,0H90.79V18.85l.25-.06c2-.46,3.06-.81,3.29-1.32s-.11-1.07-.66-2.08H62.54c-.55,1-.83,1.68-.66,2.08s1.34.86,3.29,1.32l.25.06v3.93h-9A20.21,20.21,0,0,0,36.22,39.24a6,6,0,0,1-1.89,3,5.8,5.8,0,0,0-2.1,4.6,4.37,4.37,0,0,0,1.89,3.42c2.18,1.52,2.12,3.33,2.05,5.43v.37L35.79,56a6.42,6.42,0,0,0-1.58,0c-1.24.1-2.52.2-3.6-1.39a5.14,5.14,0,0,0-9.39,2.81,5.21,5.21,0,0,0,1.6,3.84,4.93,4.93,0,0,0,3.43,1.4h.28a5.92,5.92,0,0,0,4.22-2.27,4.4,4.4,0,0,1,2.55-1.29A8.46,8.46,0,0,1,34.81,59Zm8.6,78.73h-.14a9.54,9.54,0,0,1,.13-19.07h.12a9.54,9.54,0,0,1-.11,19.08Zm0-18.42a8.88,8.88,0,0,0-.13,17.76h.13a8.77,8.77,0,0,0,8.85-8.75h0a8.8,8.8,0,0,0-8.74-9Zm62.07-15.38H50.76l5.81-24.38,5.2,1.29v.26c0,.86,0,1.72,0,2.57,0,1.92,0,3.9,0,5.84a3,3,0,0,0,.57,2.21,2.81,2.81,0,0,0,2.06.62h0c9.07,0,18.27,0,27.34,0h0a2.27,2.27,0,0,0,2.69-2.78c-.07-2-.06-3.95,0-5.88,0-.84,0-1.68,0-2.53v-.24L99.6,79.5Zm-53.88-.65h53.05l-5.52-23-4,1.1c0,.76,0,1.53,0,2.28,0,1.92,0,3.92,0,5.86A2.91,2.91,0,0,1,91.78,93h0C82.67,93,73.48,93,64.42,93h0a3.33,3.33,0,0,1-2.52-.83,3.48,3.48,0,0,1-.76-2.69c.06-1.92,0-3.89,0-5.8,0-.78,0-1.55,0-2.33l-4.06-1ZM91.13,89.12H65V81.37H91.13Zm-25.49-.65H90.48V82H65.64ZM77.46,78.3c-3.8,0-7.59-.07-11.38-.23-14.63-.59-25.74-11.36-27-26.17l0-.17c-.14-1.74-.25-3-2.24-3.36-.7-.13-1.43-1.52-1.31-2.23s1-1.4,1.78-1.75a3,3,0,0,1,1.52-.13l.57,0h77.53a4.56,4.56,0,0,0,.51,0,2.15,2.15,0,0,1,1.36.15,4,4,0,0,1,1.92,2.05c.17.69-1.11,1.78-1.81,2.06a5.07,5.07,0,0,1-2.09.18l-.71,0H100.18c-17.37,0-35.34,0-53,0h0c-.3,0-.62,0-1-.06-.88-.08-1.8-.17-2.28.28a1.7,1.7,0,0,0-.4,1.31,1.54,1.54,0,0,0,.4,1.16c.48.44,1.38.37,2.26.31.3,0,.6-.05.87-.05h0q27.1,0,54.2,0H117V52c-.48,13.36-12,25.22-25,25.91C87.15,78.18,82.31,78.3,77.46,78.3ZM38.19,44.88a1.47,1.47,0,0,0-.62.1c-.64.3-1.35.86-1.42,1.27a2,2,0,0,0,.79,1.47c2.48.46,2.63,2.24,2.77,4l0,.16C41,66.55,51.59,76.83,66.1,77.42c8.62.35,17.29.3,25.8-.15,12.66-.67,23.76-12,24.41-24.94h-15q-27.09,0-54.2,0h0c-.26,0-.54,0-.83.05a3.62,3.62,0,0,1-2.74-.48,2.18,2.18,0,0,1-.61-1.64,2.26,2.26,0,0,1,.61-1.79c.69-.65,1.81-.54,2.78-.45.31,0,.62.06.9.06h0c17.67,0,35.62,0,53,0h15.91c.24,0,.49,0,.74,0a4.58,4.58,0,0,0,1.81-.14c.64-.25,1.42-1.06,1.42-1.31-.12-.47-.67-1-1.63-1.64a1.75,1.75,0,0,0-.94-.05c-.2,0-.39,0-.58,0H39.38l-.62,0Zm91.55,14.69h-.05c-.57,0-1-.61-1.44-1.18-.17-.21-.33-.43-.5-.61l-.22-.24.24-.22a6.13,6.13,0,0,0,.55-.58,3.23,3.23,0,0,1,1.59-1.17c.5-.07,1,.34,1.66.93.31.27.66.58,1.06.88l.39.28-.41.25c-.41.27-.77.53-1.1.77A3.36,3.36,0,0,1,129.74,59.57Zm-1.3-2q.17.2.33.42c.3.4.69.9.95.92h0a3,3,0,0,0,1.38-.77c.23-.16.48-.35.76-.53l-.74-.63c-.43-.38-.87-.77-1.09-.77h0c-.4.07-.81.52-1.22,1Zm-102.13,2h0c-.57,0-1-.61-1.44-1.17a5.26,5.26,0,0,0-.5-.61l-.23-.24.25-.23a6.13,6.13,0,0,0,.55-.58,3.27,3.27,0,0,1,1.58-1.17c.51-.07,1,.34,1.67.92.31.27.66.58,1.06.88l.38.28-.4.26c-.41.26-.77.52-1.09.76A3.34,3.34,0,0,1,26.31,59.57Zm-1.3-2,.33.42c.31.4.69.9.95.92h0a3.17,3.17,0,0,0,1.39-.77c.23-.17.47-.35.75-.54-.28-.22-.52-.43-.74-.63-.43-.38-.88-.76-1.09-.76h0a2.71,2.71,0,0,0-1.21,1Zm92.06-16.46H39.48V40.8c-.18-5.91,5-12.27,11.43-14.17a20.59,20.59,0,0,1,5.67-.75c13.85-.06,27.95-.07,43.08,0,8.3,0,14.77,4.74,16.9,12.32a11.91,11.91,0,0,1,.31,1.64c0,.29.09.59.14.92Zm-76.95-.65H116.3c0-.19-.06-.37-.09-.55a11.28,11.28,0,0,0-.29-1.57c-2-7.28-8.28-11.82-16.27-11.84-15.14,0-29.22,0-43.08,0a20,20,0,0,0-5.48.73C45,29,40.14,34.92,40.12,40.47ZM87.53,22.6H68.59V18.68H87.53Zm-18.29-.66H86.88V19.33H69.24Z" transform="translate(-20.57 -14.74)"/><path class="cls-1" d="M48.94,128.31A5.54,5.54,0,1,1,37.86,128a5.54,5.54,0,0,1,11.08.29Zm-5.67,2.4c.88-1.07,1.84-1.75,1.76-2.28-.11-.73-1-1.35-1.55-2-.62.62-1.56,1.15-1.74,1.87C41.61,128.79,42.5,129.56,43.27,130.71Z" transform="translate(-20.57 -14.74)"/><path class="cls-1" d="M43.39,134.07h0a5.85,5.85,0,0,1-4.2-1.86A5.75,5.75,0,0,1,37.54,128a5.82,5.82,0,0,1,5.87-5.58h.14a5.82,5.82,0,0,1,5.71,5.9h0A6,6,0,0,1,43.39,134.07Zm0-11a5.18,5.18,0,0,0,0,10.35h0a5.31,5.31,0,0,0,5.22-5.12h0a5.17,5.17,0,0,0-5.07-5.23Zm-.16,8.19-.25-.37c-.26-.38-.53-.73-.78-1-.54-.68-.93-1.17-.8-1.67a3.22,3.22,0,0,1,1.24-1.5,7.54,7.54,0,0,0,.59-.52l.25-.25.23.28c.16.19.35.38.54.57a3.23,3.23,0,0,1,1.09,1.62c.07.5-.36,1-1,1.57-.27.28-.58.6-.88,1Zm.21-4.39-.38.32a2.87,2.87,0,0,0-1,1.16c0,.19.34.67.69,1.1.17.22.37.46.56.73.21-.24.43-.47.63-.67.38-.4.81-.84.78-1a2.87,2.87,0,0,0-.9-1.25Z" transform="translate(-20.57 -14.74)"/></svg>