<svg id="Capa_1" data-name="Capa 1" xmlns="http://www.w3.org/2000/svg" viewBox="0 0 117.26 98.02"><g id="Shape_1" data-name="Shape 1"><path class="cls-1" d="M131.26,123.33h-12.5V79.92h5.84v28.94a2.34,2.34,0,1,0,4.67,0V79.92h2a2.33,2.33,0,1,0,0-4.66h-22.9V41.41A2.33,2.33,0,0,0,106,39.08H43.89a2.33,2.33,0,0,0-2.33,2.33V75.26H18.67a2.33,2.33,0,1,0,0,4.66h2v43.41h-2a2.34,2.34,0,0,0-2.34,2.34v9.1a2.33,2.33,0,0,0,2.34,2.33H131.26a2.33,2.33,0,0,0,2.33-2.33v-9.1A2.33,2.33,0,0,0,131.26,123.33Zm-22.9-43.41h5.73v43.41h-5.73ZM46.23,43.75h57.46V75.26H98.07V52.15a2.33,2.33,0,0,0-2.33-2.33H54.19a2.33,2.33,0,0,0-2.34,2.33V75.26H46.23Zm57.46,36.17v43.41H98.07V79.92ZM77.18,75.26V54.48H93.4V75.26ZM93.4,79.92v43.41H87.69V79.92ZM83,79.92v43.41H77.18V79.92Zm-26.5-4.66V54.48h16V75.26Zm16,4.66v43.41H66.9V79.92Zm-10.28,0v43.41H56.52V79.92Zm-16,0h5.62v43.41H46.23Zm-10.63,0h6v43.41h-6Zm-10.28,0h5.61v43.41H25.32Zm103.6,52.52H21V128H128.92Zm-2-18.44a2.33,2.33,0,0,0-2.34,2.33V118a2.34,2.34,0,0,0,4.67,0v-1.64A2.33,2.33,0,0,0,126.94,114Z" transform="translate(-16.33 -39.08)"/></g></svg>