<svg id="Capa_1" data-name="Capa 1" xmlns="http://www.w3.org/2000/svg" viewBox="0 0 226.88 191.47"><path class="cls-1" d="M253.51,138.83H52.3V48.59C52.3,43.31,56,39,60.53,39h9.62c4.53,0,8.22,4.28,8.22,9.56V55.9a5,5,0,0,0-1.12.82L66,69.08A4.74,4.74,0,0,0,69.52,77h22a4.74,4.74,0,0,0,3.56-7.87L84.32,56.79a4.49,4.49,0,0,0-1-.77V48.59c0-8-5.9-14.49-13.15-14.49H60.53c-7.25,0-13.15,6.5-13.15,14.49v90.24H26.63v13h8.68l6,28.55a35.87,35.87,0,0,0,29.21,28l-3,17.25H78l8.78-16.74H193.4L202,225.11l.24.46h10.45l-3-17.25a35.9,35.9,0,0,0,29.21-28l6-28.55h8.64Zm-222,9v-5.1h217v5.1ZM91.17,72.08H69.93l10.82-11.9ZM203.68,203.91H76.51a31,31,0,0,1-30.34-24.59l-5.48-25.88h198.8L234,179.32a31,31,0,0,1-30.33,24.59ZM73.41,220.64l2.07-11.81h5.75L75,220.64Zm131.3-11.81,2.06,11.81h-1.61L199,208.83h5.75Z" transform="translate(-26.63 -34.1)"/><path class="cls-1" d="M155.24,40.12h3.49v8.33a2.46,2.46,0,0,0,2.46,2.46h5.45v64.47h72V50.91h3.87A2.46,2.46,0,0,0,245,48.45V40.12h3a2.47,2.47,0,0,0,0-4.93H155.24a2.47,2.47,0,1,0,0,4.93Zm16.32,70.33V99.26h62.19v11.19Zm62.19-16.11H171.56V50.91h62.19ZM166.64,42.61V46h-3V40.12h76.42V46h-1.41V42.61Z" transform="translate(-26.63 -34.1)"/></svg>