<svg id="Capa_1" data-name="Capa 1" xmlns="http://www.w3.org/2000/svg" viewBox="0 0 103.02 102.83"><path class="cls-1" d="M122.69,127.71,105,110.13a6.12,6.12,0,0,0-6.78-1.37l-3.17-3.17a42.16,42.16,0,0,0-1.8-58.3c-16.29-16.21-43-16.21-59.7,0C17.3,64,17.3,90.67,33.59,107c15.82,16.21,41.61,16.64,58.33,1.8l3.17,3.17a6.12,6.12,0,0,0,1.37,6.7l17.62,17.65a6.35,6.35,0,0,0,8.61,0c2.27-2.73,2.27-6.26,0-8.57ZM88.32,102h0c-13.59,14-35.74,14-49.76,0C25,88.44,25,66.24,38.56,52.26c14-13.54,36.17-13.54,49.76,0,13.54,14,13.54,36.18,0,49.72Z" transform="translate(-21.37 -35.13)"/></svg>