<svg id="Capa_1" data-name="Capa 1" xmlns="http://www.w3.org/2000/svg" viewBox="0 0 163.73 218.12"><path class="cls-1" d="M138.29,234.82a29.19,29.19,0,0,1-29.14-28.23H77.93A19.89,19.89,0,0,1,58.86,181l9-30.27,5.34-48.54a66.74,66.74,0,0,1,42.72-55.3,23,23,0,0,1-.81-6.07,24.16,24.16,0,1,1,48.32,0,23.24,23.24,0,0,1-.73,5.75,67.41,67.41,0,0,1,43.77,56.07l4.85,47,9.56,31.2a19.9,19.9,0,0,1-19,25.72H167.43A29.19,29.19,0,0,1,138.29,234.82Zm1-207.69a13.75,13.75,0,0,0-13.73,13.73,13.51,13.51,0,0,0,1.84,6.7l3.27,5.76-6.38,1.82a56.37,56.37,0,0,0-40.7,48.23L78,153.29,68.86,184a9.45,9.45,0,0,0,9.07,12.15H121l-1.09,6.13a19.26,19.26,0,0,0-.35,3.38,18.73,18.73,0,0,0,37.46,0,20.27,20.27,0,0,0-.35-3.38l-1.1-6.13h46.27a9.47,9.47,0,0,0,9-12.23L201,151.25l-4.9-47.5a56.87,56.87,0,0,0-41.63-48.81L148,53.22l3.2-5.83A13.43,13.43,0,0,0,153,40.86,13.75,13.75,0,0,0,139.25,27.13Z" transform="translate(-58.02 -16.7)"/></svg>