<svg id="Capa_1" data-name="Capa 1" xmlns="http://www.w3.org/2000/svg" viewBox="0 0 119.96 130.74"><path class="cls-1" d="M48.76,92.07h9v28.34A1.56,1.56,0,0,0,59.35,122h7.94a1.55,1.55,0,0,0,1.55-1.56V77.11a1.54,1.54,0,0,0-1.55-1.55H60.53A1.54,1.54,0,0,0,59,77.11a5.29,5.29,0,0,1-.27,1.29,6,6,0,0,1-1.3,2.47A6.4,6.4,0,0,1,54,82.69a37.32,37.32,0,0,1-5.35.49,1.56,1.56,0,0,0-1.48,1.56v5.78A1.56,1.56,0,0,0,48.76,92.07Zm1.56-5.86a30.47,30.47,0,0,0,4.39-.49A9.42,9.42,0,0,0,59.66,83a9,9,0,0,0,2-3.74c.06-.21.12-.41.16-.6h3.89v40.2H60.91V90.52A1.56,1.56,0,0,0,59.35,89h-9Z" transform="translate(-16.64 -12.06)"/><path class="cls-1" d="M78,118.67a16.83,16.83,0,0,0,11.11,3.67c5.56,0,9.83-1.78,12.69-5.28A18.06,18.06,0,0,0,106,105.38c0-5-1.51-8.93-4.5-11.63a15,15,0,0,0-10.38-4,14.3,14.3,0,0,0-5,.79l-.73.31.42-5H99.94a1.55,1.55,0,0,0,1.55-1.56V77a1.54,1.54,0,0,0-1.55-1.55H76.74a1.54,1.54,0,0,0-1.54,1.44l-1.63,23.86a1.56,1.56,0,0,0,1.48,1.66l8.48.36A1.56,1.56,0,0,0,85,102a3.79,3.79,0,0,1,2.12-1.9,7,7,0,0,1,2.18-.3,3.88,3.88,0,0,1,3.53,1.6,8.22,8.22,0,0,1,1.28,4.71,7.73,7.73,0,0,1-1.34,4.66,4.09,4.09,0,0,1-3.56,1.6,4,4,0,0,1-3-1,6.74,6.74,0,0,1-1.52-3.48,1.56,1.56,0,0,0-1.53-1.28H74.63a1.56,1.56,0,0,0-1.55,1.67A14.43,14.43,0,0,0,78,118.67Zm3.82-9a8.89,8.89,0,0,0,2,3.79,7,7,0,0,0,5.29,2,7.13,7.13,0,0,0,6-2.85,10.72,10.72,0,0,0,2-6.51,11.33,11.33,0,0,0-1.81-6.46,6.91,6.91,0,0,0-6.1-3,9.92,9.92,0,0,0-3.2.48,6.8,6.8,0,0,0-3.32,2.52l-6-.25,1.42-20.82h20.2v4.1h-14a1.56,1.56,0,0,0-1.55,1.43l-.77,9.44A1.54,1.54,0,0,0,82.8,95a1.56,1.56,0,0,0,1.65,0,15.14,15.14,0,0,1,2.75-1.54,11.5,11.5,0,0,1,4-.59,11.89,11.89,0,0,1,8.3,3.2c2.34,2.12,3.47,5.17,3.47,9.33a14.89,14.89,0,0,1-3.48,9.72c-2.28,2.78-5.64,4.13-10.29,4.13A13.64,13.64,0,0,1,80,116.29a10.65,10.65,0,0,1-3.65-6.64Z" transform="translate(-16.64 -12.06)"/><path class="cls-1" d="M123.4,32.26h-3.81a2.38,2.38,0,0,0-.93.19V19.72a7.67,7.67,0,0,0-15.33,0V32.3a3,3,0,0,0-.42,0H50.33a2.12,2.12,0,0,0-.57.08V19.72a7.67,7.67,0,0,0-15.33,0V32.4a2.25,2.25,0,0,0-.78-.14H29.84a13.22,13.22,0,0,0-13.2,13.21v84.12a13.21,13.21,0,0,0,13.2,13.2H123.4a13.21,13.21,0,0,0,13.2-13.2V45.47A13.22,13.22,0,0,0,123.4,32.26ZM107.63,19.72a3.37,3.37,0,1,1,6.73,0V42.78a3.37,3.37,0,1,1-6.73,0Zm-68.91,0a3.37,3.37,0,0,1,6.74,0V42.78a3.37,3.37,0,1,1-6.74,0Zm93.22,109.87a8.55,8.55,0,0,1-8.54,8.54H29.84a8.55,8.55,0,0,1-8.54-8.54V45.47a8.55,8.55,0,0,1,8.54-8.55h1.49v4.55a10.67,10.67,0,1,0,21.33,0V36.92h47.92v4.55a10.67,10.67,0,1,0,21.33,0V36.92h1.49a8.55,8.55,0,0,1,8.54,8.55Z" transform="translate(-16.64 -12.06)"/><path class="cls-1" d="M125.17,65.79H28.47a2.33,2.33,0,0,0-2.33,2.33v57.15a8,8,0,0,0,8,8h85.34a8,8,0,0,0,8-8V68.12A2.33,2.33,0,0,0,125.17,65.79Zm-2.33,59.48a3.36,3.36,0,0,1-3.35,3.35H34.15a3.36,3.36,0,0,1-3.35-3.35V70.45h92Z" transform="translate(-16.64 -12.06)"/></svg>