<svg id="Capa_1" data-name="Capa 1" xmlns="http://www.w3.org/2000/svg" viewBox="0 0 110.09 119.97"><path class="cls-1" d="M55.09,97.58h8.29v26A1.42,1.42,0,0,0,64.81,125h7.28a1.42,1.42,0,0,0,1.43-1.42V83.85a1.43,1.43,0,0,0-1.43-1.43h-6.2a1.43,1.43,0,0,0-1.43,1.43A5.16,5.16,0,0,1,64.22,85,5.6,5.6,0,0,1,63,87.3,5.78,5.78,0,0,1,59.93,89a32.78,32.78,0,0,1-4.91.46,1.43,1.43,0,0,0-1.36,1.43v5.3A1.43,1.43,0,0,0,55.09,97.58Zm1.42-5.38a28.59,28.59,0,0,0,4-.45,8.7,8.7,0,0,0,4.54-2.49A8.19,8.19,0,0,0,67,85.83c.06-.2.11-.38.15-.56h3.57v36.89H66.23v-26a1.42,1.42,0,0,0-1.42-1.42h-8.3Z" transform="translate(-25.61 -24.15)"/><path class="cls-1" d="M82,122a15.47,15.47,0,0,0,10.2,3.36c5.1,0,9-1.63,11.65-4.84a16.59,16.59,0,0,0,3.84-10.72c0-4.6-1.39-8.2-4.13-10.67A13.79,13.79,0,0,0,94,95.44a13.32,13.32,0,0,0-4.63.72c-.21.08-.43.18-.66.29l.38-4.64h13a1.43,1.43,0,0,0,1.43-1.42V83.78a1.43,1.43,0,0,0-1.43-1.43H80.77a1.42,1.42,0,0,0-1.42,1.33l-1.5,21.89a1.48,1.48,0,0,0,.36,1.05,1.39,1.39,0,0,0,1,.47l7.78.33a1.43,1.43,0,0,0,1.33-.77,3.44,3.44,0,0,1,1.94-1.74,6.47,6.47,0,0,1,2-.28,3.56,3.56,0,0,1,3.24,1.47,7.55,7.55,0,0,1,1.17,4.32,7,7,0,0,1-1.23,4.28,3.72,3.72,0,0,1-3.26,1.47,3.62,3.62,0,0,1-2.79-1A6.18,6.18,0,0,1,88,112a1.42,1.42,0,0,0-1.4-1.17H78.83a1.43,1.43,0,0,0-1,.45,1.47,1.47,0,0,0-.38,1.08A13.24,13.24,0,0,0,82,122Zm3.51-8.28a8.19,8.19,0,0,0,1.87,3.48A6.39,6.39,0,0,0,92.18,119a6.54,6.54,0,0,0,5.55-2.61,9.78,9.78,0,0,0,1.79-6,10.38,10.38,0,0,0-1.66-5.92,6.35,6.35,0,0,0-5.6-2.72,9.27,9.27,0,0,0-2.94.44,6.25,6.25,0,0,0-3,2.32l-5.48-.23L82.1,85.2h18.53V89H87.76a1.43,1.43,0,0,0-1.42,1.31l-.71,8.67a1.44,1.44,0,0,0,.7,1.34,1.4,1.4,0,0,0,1.5,0,14.92,14.92,0,0,1,2.53-1.41A10.48,10.48,0,0,1,94,98.29a10.86,10.86,0,0,1,7.61,2.94c2.15,1.94,3.19,4.74,3.19,8.56a13.65,13.65,0,0,1-3.2,8.92c-2.09,2.55-5.17,3.79-9.44,3.79a12.51,12.51,0,0,1-8.37-2.7,9.78,9.78,0,0,1-3.35-6.09Z" transform="translate(-25.61 -24.15)"/><path class="cls-1" d="M123.58,42.69h-3.5a2,2,0,0,0-.85.18V31.18a7,7,0,1,0-14.06,0V42.73a2.58,2.58,0,0,0-.39,0H56.53a2.26,2.26,0,0,0-.53.07V31.18a7,7,0,0,0-14.07,0V42.82a2.08,2.08,0,0,0-.71-.13H37.73A12.13,12.13,0,0,0,25.61,54.81V132a12.12,12.12,0,0,0,12.12,12.11h85.85A12.13,12.13,0,0,0,135.7,132V54.81A12.14,12.14,0,0,0,123.58,42.69ZM109.11,31.18a3.09,3.09,0,0,1,6.18,0V52.34a3.09,3.09,0,1,1-6.18,0Zm-63.24,0a3.1,3.1,0,0,1,6.19,0V52.34a3.1,3.1,0,1,1-6.19,0ZM131.42,132a7.85,7.85,0,0,1-7.84,7.84H37.73A7.85,7.85,0,0,1,29.88,132V54.81A7.86,7.86,0,0,1,37.73,47h1.36v4.19a9.79,9.79,0,1,0,19.57,0V47h44v4.19a9.79,9.79,0,1,0,19.58,0V47h1.36a7.85,7.85,0,0,1,7.84,7.85Z" transform="translate(-25.61 -24.15)"/><path class="cls-1" d="M125.21,73.46H36.46a2.13,2.13,0,0,0-2.13,2.14V128a7.36,7.36,0,0,0,7.35,7.35H120a7.36,7.36,0,0,0,7.35-7.35V75.6A2.13,2.13,0,0,0,125.21,73.46ZM123.07,128a3.08,3.08,0,0,1-3.08,3.08H41.68A3.08,3.08,0,0,1,38.6,128V77.73h84.47Z" transform="translate(-25.61 -24.15)"/></svg>