<svg id="Capa_1" data-name="Capa 1" xmlns="http://www.w3.org/2000/svg" viewBox="0 0 239.27 241.92"><path class="cls-1" d="M234.32,99.65l-2-62.18-88-30.78V5.25L142.19,6l-2.06-.73V6.69L51.92,37.51v63.74L25.7,106.88,23.54,201l115.13,43.68,1.46.56v1.91l2.33-1,1.8.68v-1.47l45.6-20.06V150.67l39.28-.8-1,62.31,34.66-12V106ZM136,234.86,31.92,195.37l1.88-81.78,20.13-4.32L136,89.19ZM136,78.7,60.18,97.91V43.37L136,16.87Zm12.37-61.82L224.22,43.4,226,96.91,148.38,78.64ZM254.55,194.29l-18,6.22.94-59.06-55.93,1.13V219.9l-33.22,14.62V88.17l80.94,19.06,25.23,5.35Z" transform="translate(-23.54 -5.24)"/></svg>