<svg id="Capa_1" data-name="Capa 1" xmlns="http://www.w3.org/2000/svg" viewBox="0 0 118.53 117.86"><path class="cls-1" d="M30.34,28.45H87a11.61,11.61,0,0,1,6.26,2.06h0c1.57,1.58,2.61,3.15,2.61,5.22V139c0,1.07-.54,1.57-.54,2.07H99V106.8a4.6,4.6,0,0,1,1.58-3.56h0a5.72,5.72,0,0,1,4.14-1.58h25a5.85,5.85,0,0,1,4.18,1.58h0a4.56,4.56,0,0,1,1.53,3.56v34.29h3.11c1.08,0,1.57.49,1.57,1.57v2.57c0,.58-.49,1.08-1.57,1.08H30.34c-2.57,0-4.64-.5-6.21-2.08h0A6.43,6.43,0,0,1,21.52,139V35.73c0-2.07,1-3.64,2.61-5.22h0a11.55,11.55,0,0,1,6.21-2.06ZM124.93,111h-4.15c-.49,0-1,0-1,.5l-.58.49v4.15l.58.58h0c0,.49.5.49,1,.49h4.15c.58,0,.58,0,1.08-.49h0v-5.22c-.5-.5-.5-.5-1.08-.5Zm-10.85,19.14h-4.72c-.5,0-.5,0-1,.57h0v5.72h6.21c0-.5.5-.5.5-1.08v-3.56a1.78,1.78,0,0,0-.5-1.08h0a.51.51,0,0,0-.49-.57Zm10.85,0h-4.15c-.49,0-1,0-1,.57h0a1.71,1.71,0,0,0-.58,1.08v3.56c0,.58.58.58.58,1.08H126v-5.72h0c-.5-.57-.5-.57-1.08-.57Zm-10.85-9.28h-5.72v5.71c.5,0,.5.5,1,.5h4.72l.49-.5a2.11,2.11,0,0,0,.5-1.07v-3.65c0-.5-.5-.5-.5-1Zm10.85,0h-5.14c0,.49-.58.49-.58,1v3.65a2,2,0,0,0,.58,1.07,1.74,1.74,0,0,0,1,.5h4.15c.58,0,.58-.5,1.08-.5v-5.71ZM114.08,111h-4.72c-.5,0-.5,0-1,.5v5.22h0c.5.49.5.49,1,.49h4.72a.48.48,0,0,0,.49-.49h0l.5-.58V112l-.5-.49a.48.48,0,0,0-.49-.5ZM50.63,61.16H39.7c-1,0-1.53,0-2.07.5h0a4.39,4.39,0,0,0-1,2.07v7.78a2.63,2.63,0,0,0,1,2.07h0c.54.58,1,.58,2.07.58H50.63a2.86,2.86,0,0,0,2.07-.58h0a2.52,2.52,0,0,0,1-2.07V63.73a4,4,0,0,0-1-2.07h0a3.2,3.2,0,0,0-2.07-.5Zm0-19.71H39.7c-1,0-1.53,0-2.07.49h0a4.11,4.11,0,0,0-1,2.07V51.8a2.64,2.64,0,0,0,1,2.07h0c.54.5,1,.5,2.07.5H50.63a3.2,3.2,0,0,0,2.07-.5h0a2.53,2.53,0,0,0,1-2.07V44a3.81,3.81,0,0,0-1-2.07h0a3.25,3.25,0,0,0-2.07-.49Zm27.05,0H66.74a3.26,3.26,0,0,0-2.07.49h0a3.79,3.79,0,0,0-1,2.07V51.8a2.52,2.52,0,0,0,1,2.07h0a3.21,3.21,0,0,0,2.07.5H77.68c1,0,1.53,0,2.07-.5h0a2.67,2.67,0,0,0,1-2.07V44a4.16,4.16,0,0,0-1-2.07h0c-.54-.49-1-.49-2.07-.49ZM50.63,120.38H39.7a2.78,2.78,0,0,0-2.07,1h0c-.5.5-1,1.08-1,1.58v7.78a2.63,2.63,0,0,0,1,2.07h0a2.75,2.75,0,0,0,2.07,1H50.63a4,4,0,0,0,2.07-1h0a2.52,2.52,0,0,0,1-2.07V123a2.69,2.69,0,0,0-1-1.58h0a4,4,0,0,0-2.07-1Zm27.05,0H66.74a4.07,4.07,0,0,0-2.07,1h0a2.67,2.67,0,0,0-1,1.58v7.78a2.51,2.51,0,0,0,1,2.07h0a4,4,0,0,0,2.07,1H77.68a2.77,2.77,0,0,0,2.07-1h0a2.65,2.65,0,0,0,1-2.07V123c0-.5-.54-1.08-1-1.58h0a2.79,2.79,0,0,0-2.07-1ZM50.63,100.59H39.7a2.8,2.8,0,0,0-2.07,1.07h0c-.5,0-1,1.08-1,1.58V111a3,3,0,0,0,1,2.07h0c.54.5,1,.5,2.07.5H50.63a3.2,3.2,0,0,0,2.07-.5h0a2.8,2.8,0,0,0,1-2.07v-7.78c0-.5-.5-1.58-1-1.58h0a4.14,4.14,0,0,0-2.07-1.07Zm27.05,0H66.74a4.18,4.18,0,0,0-2.07,1.07h0c-.54,0-1,1.08-1,1.58V111a2.8,2.8,0,0,0,1,2.07h0a3.21,3.21,0,0,0,2.07.5H77.68c1,0,1.53,0,2.07-.5h0a3,3,0,0,0,1-2.07v-7.78c0-.5-.54-1.58-1-1.58h0a2.82,2.82,0,0,0-2.07-1.07ZM50.63,80.87H39.7c-1,0-1.53.5-2.07.5h0a4.39,4.39,0,0,0-1,2.07v7.87a3,3,0,0,0,1,2.07h0c.54.5,1,.5,2.07.5H50.63a3.2,3.2,0,0,0,2.07-.5h0a2.8,2.8,0,0,0,1-2.07V83.44a4,4,0,0,0-1-2.07h0c-.5,0-1.57-.5-2.07-.5Zm27.05,0H66.74c-.49,0-1.57.5-2.07.5h0a4,4,0,0,0-1,2.07v7.87a2.8,2.8,0,0,0,1,2.07h0a3.21,3.21,0,0,0,2.07.5H77.68c1,0,1.53,0,2.07-.5h0a3,3,0,0,0,1-2.07V83.44a4.46,4.46,0,0,0-1-2.07h0c-.54,0-1-.5-2.07-.5Zm0-19.71H66.74a3.21,3.21,0,0,0-2.07.5h0a4,4,0,0,0-1,2.07v7.78a2.51,2.51,0,0,0,1,2.07h0a2.87,2.87,0,0,0,2.07.58H77.68c1,0,1.53,0,2.07-.58h0a2.65,2.65,0,0,0,1-2.07V63.73a4.46,4.46,0,0,0-1-2.07h0c-.54-.5-1-.5-2.07-.5Z" transform="translate(-21.52 -28.45)"/></svg>