<svg id="Capa_1" data-name="Capa 1" xmlns="http://www.w3.org/2000/svg" viewBox="0 0 114.14 122.5"><path class="cls-1" d="M119.34,59c1.74.61,3.55,1.18,5.32,1.88a7.28,7.28,0,0,1,4.79,6.92c.18,5.42.25,10.87,0,16.28-.24,4.64-2.81,7-7.65,7.78-.68.12-1.36.29-2,.47-.15,0-.27.21-.41.32-1.53,5.85-2.83,11.77-4.66,17.53-3.38,10.65-10.65,18.07-20.39,23.17-1.34.7-3.22.36-4.56,1.05-3.08,1.58-7.33,1.25-8.9,5.47-.23.63-1.86.95-2.87,1-5,.44-10.13,1.1-15.52-1.58-.07-2.66-.32-5.6-.19-8.53a4.88,4.88,0,0,1,4.87-5.07,51.09,51.09,0,0,1,10,0c1.69.22,3.28,1.65,4.79,2.71A24.65,24.65,0,0,1,84.59,131c5.63-.95,10.51-2.62,14.58-6.09A37.55,37.55,0,0,0,110.72,108a75,75,0,0,0,3.67-25.16c-.07-6.13.18-12.27,0-18.4-.27-7.88-1.65-15.59-6-22.37-6.8-10.64-16.08-17.48-29.16-18C75,23.9,70.8,24,66.6,24,53,24.06,43.25,31,36.19,41.94a31.06,31.06,0,0,0-5.13,17.79c.19,8.4,0,16.82,0,25.23,0,5.63-.59,6.53-4.24,6.86-6.79.63-10.15-1.15-11-6.06a39.93,39.93,0,0,1-.32-6.29c0-3.5-.09-7,0-10.51.19-5.81,1.7-8,7.31-9.25,3.08-.66,3.9-2.24,4.31-4.94C29.59,38.85,38.47,28,53.37,22.15c9.12-3.57,18.51-4,28.28-2.61,14.55,2.15,25,9.77,31.77,22.41C116.14,47.06,117.32,53,119.34,59Zm-.42,6.22a177.34,177.34,0,0,0,0,20.1c.12,2.31,2.56,3,4.14,1.31A6.49,6.49,0,0,0,124.92,83,131.89,131.89,0,0,0,125,68.93C124.8,65.83,123.5,65.18,118.92,65.19ZM20,75.34h.08a62.94,62.94,0,0,0,.14,8.91,4.7,4.7,0,0,0,3,3c2.07.52,2.64-1.59,2.7-3.06.19-5.43.18-10.86.11-16.28,0-1.73-.9-3-3-2.9-1.81.14-3,1-3,2.95C20,70.44,20,72.89,20,75.34Zm46.62,61c2.95,0,5.53,0,8.11,0,1.43,0,2.84-.08,3.1-2s-.44-3.55-2.4-4a15.58,15.58,0,0,0-4.68-.24C67.07,130.32,66.46,131.19,66.65,136.35Z" transform="translate(-15.47 -18.79)"/><path class="cls-1" d="M51.76,122.33c-.22-3.14-.46-5.5-.52-7.86-.14-5.06-.6-5.71-5.31-6.81-4-.94-5.72-2.65-5.74-6.77q-.15-22.06,0-44.12a8.14,8.14,0,0,1,8-7.93c3.14-.17,6.3,0,9.45,0,12.26,0,24.51.15,36.77-.07,6-.11,10.18,3.3,10.1,9.82-.18,13.48.16,27,0,40.44-.08,7-2.56,9-8.8,8.85-4.55-.1-9.13.31-13.65-.08-6.15-.54-11.08,1.73-15.73,5.36-3.14,2.46-6.43,4.74-9.74,7A36.25,36.25,0,0,1,51.76,122.33Zm47.35-18.77A26,26,0,0,0,100,99.2c0-13.65.07-27.29,0-40.94,0-3-1.53-4.48-4.82-5a25.38,25.38,0,0,0-4.19-.14c-12.59,0-25.19.06-37.79,0-3.26,0-6.15.52-8.54,2.67-1.11,12.11-.61,43.2.73,47.12a3.47,3.47,0,0,0,1,.41c1.56.14,3.13.2,4.69.34,3.23.31,4.2,1.31,4.46,4.56.15,1.83.26,3.67.46,6.46,3.09-2,5.56-3.2,7.63-4.92,5.06-4.23,10.37-7,17.38-6.23C86.78,104.05,92.76,103.56,99.11,103.56Z" transform="translate(-15.47 -18.79)"/><path class="cls-1" d="M118.92,65.19c4.58,0,5.88.64,6.06,3.74A131.89,131.89,0,0,1,124.92,83a6.49,6.49,0,0,1-1.85,3.61c-1.58,1.71-4,1-4.14-1.31A177.34,177.34,0,0,1,118.92,65.19Z" transform="translate(-15.47 -18.79)"/><path class="cls-1" d="M20,75.34c0-2.45,0-4.9,0-7.35,0-1.94,1.21-2.81,3-2.95,2.06-.15,2.93,1.17,3,2.9.07,5.42.08,10.85-.11,16.28-.06,1.47-.63,3.58-2.7,3.06a4.7,4.7,0,0,1-3-3,62.94,62.94,0,0,1-.14-8.91Z" transform="translate(-15.47 -18.79)"/><path class="cls-1" d="M66.65,136.35c-.19-5.16.42-6,4.13-6.27a15.58,15.58,0,0,1,4.68.24c2,.48,2.68,2,2.4,4s-1.67,2-3.1,2C72.18,136.36,69.6,136.35,66.65,136.35Z" transform="translate(-15.47 -18.79)"/><path class="cls-1" d="M67.51,92.81c3.79-5.84,4-11.41.13-16.76,3.14-2.38,3.14-2.39,6.75-.53,1.33,5.77-1.13,12.15,2.78,17.52C72.59,94.9,71.61,94.88,67.51,92.81Z" transform="translate(-15.47 -18.79)"/><path class="cls-1" d="M74,64.88c-3,3.53-3.54,3.51-6-.16C71.07,62.67,71.08,62.67,74,64.88Z" transform="translate(-15.47 -18.79)"/></svg>