<svg id="Capa_1" data-name="Capa 1" xmlns="http://www.w3.org/2000/svg" viewBox="0 0 119.46 119.46"><g id="Forma_1" data-name="Forma 1"><path class="cls-1" d="M131,30H16.72a2.6,2.6,0,0,0-2.59,2.6V146.9a2.59,2.59,0,0,0,2.59,2.6H37.5a2.6,2.6,0,0,0,2.6-2.6v-2.59h67.51v2.59a2.6,2.6,0,0,0,2.6,2.6H131a2.59,2.59,0,0,0,2.59-2.6V32.64A2.6,2.6,0,0,0,131,30ZM71.26,139.11H40.1V61.21H71.26Zm36.35,0H76.45V61.21h31.16Zm20.78,5.2H112.81v-2.6h0V58.61a2.61,2.61,0,0,0-2.6-2.6H37.5a2.61,2.61,0,0,0-2.6,2.6v83.1h0v2.6H19.32V35.24H128.39ZM120.6,87.17a2.6,2.6,0,1,0-2.6-2.59A2.6,2.6,0,0,0,120.6,87.17Zm0,10.39A2.6,2.6,0,1,0,118,95,2.6,2.6,0,0,0,120.6,97.56ZM54.92,50.06l3.35-3.36,3.36,3.36a2.6,2.6,0,0,0,3.68-3.67l-5.2-5.2a2.6,2.6,0,0,0-3.67,0l-5.19,5.2a2.6,2.6,0,0,0,3.67,3.67Zm32.68,0a2.6,2.6,0,0,0,3.67,0l5.19-5.19a2.6,2.6,0,0,0-3.67-3.68l-3.35,3.36-3.36-3.36a2.6,2.6,0,0,0-3.68,3.68Z" transform="translate(-14.13 -30.04)"/></g></svg>