<svg id="Capa_1" data-name="Capa 1" xmlns="http://www.w3.org/2000/svg" viewBox="0 0 177.99 184.58"><path class="cls-1" d="M114.07,41.3H79.54A26.31,26.31,0,0,0,53.26,67.58V102.1a26.31,26.31,0,0,0,26.28,26.28H92.69v97.5h8.23v-97.5h13.15a26.31,26.31,0,0,0,26.27-26.28V67.58A26.31,26.31,0,0,0,114.07,41.3Zm19.48,60.8a19.51,19.51,0,0,1-19.48,19.49H79.54A19.51,19.51,0,0,1,60.06,102.1V67.58A19.51,19.51,0,0,1,79.54,48.09h34.53a19.51,19.51,0,0,1,19.48,19.49Z" transform="translate(-53.26 -41.3)"/><path class="cls-1" d="M97.07,61.19H83.15v43.08H93.34V89.91H98c10,0,17-4.67,17-14.67C115,65.79,108.2,61.19,97.07,61.19Zm.06,21.38H93.34V68.46H97c5,0,7.58,2.18,7.58,6.78C104.53,80.64,101.73,82.57,97.13,82.57Z" transform="translate(-53.26 -41.3)"/><path class="cls-1" d="M214.22,186.48a8,8,0,1,0-8-8A8,8,0,0,0,214.22,186.48Zm0-13.13a5.15,5.15,0,1,1-5.15,5.15A5.16,5.16,0,0,1,214.22,173.35Z" transform="translate(-53.26 -41.3)"/><path class="cls-1" d="M142.39,186.48a8,8,0,1,0-8-8A8,8,0,0,0,142.39,186.48Zm0-13.13a5.15,5.15,0,1,1-5.14,5.15A5.16,5.16,0,0,1,142.39,173.35Z" transform="translate(-53.26 -41.3)"/><path class="cls-1" d="M229.81,191.71V174a12.59,12.59,0,0,0-12.58-12.58h0L213.44,137a5.11,5.11,0,0,0-5.09-4.37H148.26a5.13,5.13,0,0,0-5.09,4.36l-3.76,24.4h0A12.6,12.6,0,0,0,126.8,174v17.71a6.73,6.73,0,0,0-1.44,4h0a6.83,6.83,0,0,0,6.83,6.82h3.13v12.79a5.41,5.41,0,0,0,5.4,5.4h3.33a5.4,5.4,0,0,0,5.4-5.4V202.54H207v12.79a5.4,5.4,0,0,0,5.4,5.4h3.33a5.41,5.41,0,0,0,5.4-5.4V202.54h3.31a6.84,6.84,0,0,0,6.84-6.82A6.68,6.68,0,0,0,229.81,191.71Zm-83-54.13a1.45,1.45,0,0,1,1.44-1.23h60.12a1.44,1.44,0,0,1,1.43,1.22l3.42,23.85H143.4ZM132.47,174a6.92,6.92,0,0,1,6.92-6.92h77.84a6.93,6.93,0,0,1,6.92,6.92v13.61H132.49l0,.61Zm13.2,43h-6.56v-14.5h6.56Zm71.65,0h-6.56v-14.5h6.56Zm7-18.48H132.28a2.85,2.85,0,0,1-2.85-2.85,2.78,2.78,0,0,1,1.29-2.32l2.21-.12,91.09,0,1.88.1a2.8,2.8,0,0,1,1.29,2.32A2.85,2.85,0,0,1,224.33,198.56Z" transform="translate(-53.26 -41.3)"/></svg>