<?xml version="1.0" encoding="UTF-8"?>
<svg width="635px" height="500px" viewBox="0 0 635 519" version="1.1" xmlns="http://www.w3.org/2000/svg" xmlns:xlink="http://www.w3.org/1999/xlink">
    <title>Group</title>
    <g id="Page-1" stroke="none" stroke-width="1" fill="none" fill-rule="evenodd">
        <g id="Group" fill-rule="nonzero">
            <path d="M615.988024,42.8716216 L568.550292,42.8716216 C557.826587,17.6688243 532.882874,0 503.817365,0 C474.751856,0 449.809094,17.6688243 439.085389,42.8716216 L19.011976,42.8716216 C8.51166168,42.8716216 0,51.4021216 0,61.9256757 L0,79.0743243 C0,89.5978784 8.51166168,98.1283784 19.011976,98.1283784 L439.085389,98.1283784 C449.808144,123.331176 474.752807,141 503.817365,141 C532.881924,141 557.825636,123.331176 568.549341,98.1283784 L615.988024,98.1283784 C626.488338,98.1283784 635,89.5978784 635,79.0743243 L635,61.9256757 C635,51.4021216 626.488338,42.8716216 615.988024,42.8716216 Z" id="Path" fill="#0B0B0B"></path>
            <path d="M615.988024,231.871622 L212.07479,231.871622 C201.351085,206.668824 176.407373,189 147.342814,189 C118.278256,189 93.3345434,206.668824 82.6108383,231.871622 L19.011976,231.871622 C8.51166168,231.871622 0,240.402122 0,250.925676 L0,268.074324 C0,278.597878 8.51166168,287.128378 19.011976,287.128378 L82.6108383,287.128378 C93.3345434,312.331176 118.278256,330 147.342814,330 C176.407373,330 201.351085,312.331176 212.07479,287.128378 L615.988024,287.128378 C626.488338,287.128378 635,278.597878 635,268.074324 L635,250.925676 C635,240.402122 626.488338,231.871622 615.988024,231.871622 Z" id="Path" fill="#0A0A0A"></path>
            <path d="M615.988024,420.871622 L398.393106,420.871622 C387.669401,395.668824 362.725689,378 333.66018,378 C304.594671,378 279.651909,395.668824 268.928204,420.871622 L19.011976,420.871622 C8.51166168,420.871622 0,429.402122 0,439.925676 L0,457.074324 C0,467.597878 8.51166168,476.128378 19.011976,476.128378 L268.928204,476.128378 C279.651909,501.331176 304.595621,519 333.66018,519 C362.724738,519 387.668451,501.331176 398.392156,476.128378 L615.988024,476.128378 C626.488338,476.128378 635,467.597878 635,457.074324 L635,439.925676 C635,429.402122 626.488338,420.871622 615.988024,420.871622 Z" id="Path" fill="#0E0D0D"></path>
        </g>
    </g>
</svg>