<svg version="1.1" xmlns="http://www.w3.org/2000/svg" xmlns:xlink="http://www.w3.org/1999/xlink" x="0px" y="0px" width="1200px"
	 height="1200px" viewBox="0 0 1200 1200" enable-background="new 0 0 1200 1200" xml:space="preserve">
<g id="Layer_1">
</g>
<g id="Layer_2">
	<g>
		<path fill="#FFFFFF" d="M917,378h-49.903c-11.281-26.454-37.521-45-68.097-45s-56.815,18.546-68.096,45H289
			c-11.046,0-20,8.954-20,20v18c0,11.046,8.954,20,20,20h441.904c11.28,26.454,37.521,45,68.096,45s56.815-18.546,68.096-45H917
			c11.046,0,20-8.954,20-20v-18C937,386.954,928.046,378,917,378z"/>
		<path fill="#FFFFFF" d="M917,582H492.096c-11.281-26.454-37.521-45-68.096-45s-56.815,18.546-68.096,45H289
			c-11.046,0-20,8.954-20,20v18c0,11.046,8.954,20,20,20h66.904c11.281,26.454,37.521,45,68.096,45s56.815-18.546,68.096-45H917
			c11.046,0,20-8.954,20-20v-18C937,590.954,928.046,582,917,582z"/>
		<path fill="#FFFFFF" d="M917,752H688.097c-11.281-26.454-37.521-45-68.097-45c-30.576,0-56.815,18.546-68.096,45H289
			c-11.046,0-20,8.954-20,20v18c0,11.046,8.954,20,20,20h262.904c11.281,26.454,37.521,45,68.096,45
			c30.575,0,56.815-18.546,68.096-45H917c11.046,0,20-8.954,20-20v-18C937,760.954,928.046,752,917,752z"/>
	</g>
</g>
</svg>
