<?xml version="1.0" encoding="UTF-8"?>
<svg width="966px" height="966px" viewBox="0 0 966 966" version="1.1" xmlns="http://www.w3.org/2000/svg" xmlns:xlink="http://www.w3.org/1999/xlink">
    <title>filtered</title>
    <g id="Page-1" stroke="none" stroke-width="1" fill="none" fill-rule="evenodd">
        <g id="filtered" transform="translate(40.000000, 40.000000)" fill-rule="nonzero">
            <path d="M665.14,334.46 C664.56,513.51 518.69,665.29 332.78,665.20004 C146.57,665.11 -3.44,513.56 0.06,325.07 C3.31,150.34 146.6,0.19 332.36,-0.000181399664 C517.07,-0.19 665.13,148.9 665.14,334.46 Z" id="Path" stroke="#060505" stroke-width="80"></path>
            <path d="M867.26,925.33 C854.26,925.7 841.56,920.28 831.04,909.78 C772.3,851.113333 713.606667,792.396667 654.96,733.63 C639.34,717.94 634.17,698.72 641.19,677.63 C648.33,656.14 663.81,642.9 686.27,639.23 C702.54,636.57 717.4,640.91 730.01,651.89 C733.01,654.46 735.72,657.28 738.5,660.06 C794.926667,716.453333 851.356667,772.843333 907.79,829.23 C923.5,844.91 929.02,863.4 923.38,884.95 C918.53,903.42 898.38,926.42 867.26,925.33 Z" id="Path" fill="#000000"></path>
            <path d="M618.3,668 C617.36,667.21 616.68,666.72 616.1,666.14 C598.033333,648.046667 579.933333,629.956667 561.8,611.87 C559.47,609.56 559.16,608.3 561.9,606.01 C577.494031,592.995388 591.885388,578.604031 604.9,563.01 C606.65,560.91 607.69,561.01 609.56,562.91 C627.346667,580.843333 645.203333,598.706667 663.13,616.5 C665.64,618.98 664.76,619.74 662.13,620.96 C641.42,630.62 626.93,646.18 618.3,668 Z" id="Path" fill="#000000"></path>
        </g>
    </g>
</svg>