<svg id="Capa_1" data-name="Capa 1" xmlns="http://www.w3.org/2000/svg" viewBox="0 0 128.37 96.53"><path class="cls-1" d="M130.22,135.82H23.15a10.87,10.87,0,0,1-10.61-10.57V64.3A10.29,10.29,0,0,1,22.7,54.15h26l1.47-7.7a8.54,8.54,0,0,1,8.64-7.16H95a8.57,8.57,0,0,1,8.66,7.24l1.45,7.62h26.09a9.93,9.93,0,0,1,9.69,10.15v61A10.64,10.64,0,0,1,130.22,135.82ZM22.7,60a4.42,4.42,0,0,0-4.3,4.31v61A5,5,0,0,0,23.15,130H130.22a4.73,4.73,0,0,0,4.83-4.73V64.3A4.1,4.1,0,0,0,131.22,60H100.28L97.91,47.54A2.78,2.78,0,0,0,95,45.13H58.82A2.73,2.73,0,0,0,56,47.46L53.56,60Z" transform="translate(-12.54 -39.29)"/><path class="cls-2" d="M89.13,83.9a17.44,17.44,0,0,0-6.23-4.32,16.05,16.05,0,0,0-7.3-1.46,18.85,18.85,0,0,0-7.22,1.46,20.73,20.73,0,0,0-5.77,4.32,9.34,9.34,0,0,0-3.84,5.74,19.4,19.4,0,0,0-1.93,7.16A19.54,19.54,0,0,0,58.77,104c.46,2.41,1.92,4.32,3.84,6.24a38.68,38.68,0,0,0,5.77,3.83,19.75,19.75,0,0,0,7.22,1.41,16.76,16.76,0,0,0,7.3-1.41,27.41,27.41,0,0,0,6.23-3.83c1.45-1.92,3.38-3.83,3.92-6.24a20.2,20.2,0,0,0,1.38-7.24,20,20,0,0,0-1.38-7.16c-.54-2.41-2.47-4.32-3.92-5.74Z" transform="translate(-12.54 -39.29)"/><path class="cls-1" d="M31.71,76.67A6.83,6.83,0,0,1,24.94,70c0-3.59,2.91-6.29,6.77-6.29s6.77,2.7,6.77,6.29A6.74,6.74,0,0,1,31.71,76.67Zm0-10.07c-1.91,0-3.84,1.16-3.84,3.37a3.86,3.86,0,0,0,3.84,3.78A3.82,3.82,0,0,0,35.55,70C35.55,67.66,33.56,66.6,31.71,66.6Z" transform="translate(-12.54 -39.29)"/></svg>