<?xml version="1.0" encoding="utf-8"?>
<!-- Generator: Adobe Illustrator 25.1.0, SVG Export Plug-In . SVG Version: 6.00 Build 0)  -->
<svg version="1.1" id="Capa_1" xmlns="http://www.w3.org/2000/svg" xmlns:xlink="http://www.w3.org/1999/xlink" x="0px" y="0px"
	 viewBox="0 0 1200 1200" style="enable-background:new 0 0 1200 1200;" xml:space="preserve">

<g>
	<path class="st0" d="M1165.99,663.1c-0.72-9.89-2.07-19.69-2.35-29.62c-0.31-11.34,2.1-23.23-5.11-32.81
		c-11.67-15.49-32.81-13.38-50.55-12.99c-0.51-25.96-1.06-51.93-1.07-77.89c-0.01-17.86,5.98-48.47-4.93-64.4
		c-17.89-26.13-70.48-22.85-101.95-23.71c-0.29-4.39-0.23-8.81-0.61-13.19c-5.82-66.96-42.21-77.43-106.43-77.93
		c-70.94-0.52-89.38,24.52-94.31,94.1c-3.89,54.88-5.27,110.22-6.09,165.5c-67.68,5.59-140.08-2.29-208.1-1.48
		c-58.37,0.69-117.1,1.06-175.47,3.32c-0.84-54.79-2.39-109.6-6.21-164.01c-4.84-68.95-23.21-94.63-94.31-94.11
		c-49.57-0.07-100.46,4.75-106.89,61.24c-1.13,9.92-1.92,19.92-2.48,29.97c-30.97,0.59-79.35-2.06-97.37,20.73
		C78.77,474.9,89.38,552.06,89.12,586.01c-0.01,1.17-0.05,2.42-0.06,3.59c-14.01-0.7-30.87-1.71-42.31,3.14
		c-20.86,8.85-13.1,44.33-12.9,62.08c0.21,18.41-6.41,47.8,16.64,52.69c11.53,2.44,23.87,2.92,36.06,2.53
		c0.05,43.26,2.54,86.3,12.12,124.23c12,47.46,57.56,47.26,101.9,48.14c0.4,6.11,0.43,12.39,0.95,18.44
		c5.26,60.07,38.15,64.05,91.31,64.94c33.82,0.56,87.12,12.42,106.84-21.57c11.65-20.08,9.19-54.97,9.91-77.33
		c1.54-48.09,1.14-96.3,0.73-144.41c-0.03-3.83-0.06-7.69-0.09-11.53c126.7-1.51,254.54,4.8,380.97-1.93
		c-0.46,43.01-0.61,86.03,0.16,129.04c0.5,27.82-4.13,63.18,4.84,89.73c15.33,45.36,68.71,35.3,108.76,34.69
		c45.23-0.69,82.84,2.26,93.46-49.94c2.17-10.7,3.31-21.95,3.82-33.48c42.14-0.81,88.33-0.95,100.38-46.4
		c9.54-36,10.53-77.41,9.43-118.51c14.26,0.8,30.71,0.1,42.13-5.68C1170.27,700.32,1167.1,678.36,1165.99,663.1z M59.62,683.44
		c-1.27-11.52,0.04-24.47-0.08-35.53c-0.08-6.92-0.26-13.85-0.24-20.77c0.01-1.78,1.59-10.4-0.66-11.2
		c4.36-1.15,13.92-0.26,17.39-0.36c4.17-0.12,8.36,0.03,12.54,0.11c-0.58,22.39-1.39,45.81-1.79,69.43
		C77.92,685.57,68.06,685.09,59.62,683.44z M122.67,812.76c-4.78-19.44-2.89-42.75-3.92-62.92c-2.81-54.55-4.25-109.2-3.84-163.82
		c0.24-32.07-3.37-70.43,4.19-101.79c8.86-36.73,44.51-32.55,79.14-33.3c-1.09,60.16,4.61,121.8,3.45,181.18
		c-1.44,73.12-5.44,150.24-2.45,224.54C158.68,855.97,133.88,858.34,122.67,812.76z M383.3,885.66
		c-1.85,27.98,1.05,47.97-28.49,54.78c-16.27,3.75-41.24,0.22-57.53-0.01c-31.34-0.44-61.08-14.28-69.99-47.02
		c-6.43-23.64,0.84-59.11,0.6-83.86c-0.57-59.2-1.6-118.26-0.43-177.46c0.77-39.15-0.44-78.14-1.09-117.25
		c-0.51-30.96,2.1-61.77,1.79-92.71c-0.5-50.88,33.7-62.54,80.34-62.48c22.6-0.16,51.82,11.76,64.69,32.07
		c7.45,11.76,3.81,40.43,4.55,55.02c1.53,30.25,2.13,60.57,3.03,90.84c1.72,57.99,3.04,115.99,3.64,174
		C385.01,769.33,387.12,828,383.3,885.66z M410.02,685.18c-0.16-22.44-0.41-44.91-0.67-67.41c58.26-2.26,116.88-2.63,175.14-3.32
		c67.88-0.81,140.14,7.03,207.71,1.49c-0.27,22.47-0.52,44.9-0.79,67.28C664.84,689.99,536.87,683.65,410.02,685.18z M975.12,511.51
		c-0.98,39.11-1.86,78.11-1.09,117.25c1.09,55.48,0.33,110.79-0.31,166.28c-0.71,61.22,17.95,140.34-68.77,141.66
		c-14.46,0.22-41.33,5.55-55.03-0.54c-38.81-17.24-31.78-47.24-32.4-78.86c-1.08-54.65-1.13-109.29-0.43-163.94
		c0.72-56.84,2.15-113.66,3.93-170.47c1.93-61.37-16.48-167.2,71.97-166.56c52.54,0.41,72.71,17.62,81.36,72.83
		C978.52,455.71,975.79,484.78,975.12,511.51z M1082.11,754.3c-0.62,17.91,1.33,39.83-3.18,57.43
		c-11.09,43.3-38.16,40.96-76.53,41.57c-0.53-27.42-2.93-55.39-2.55-80.77c0.72-47.99,0.9-95.78-0.04-143.77
		c-1.18-60.22,3.21-120.94,1.42-181.23c15.92,0.5,33.26,0.16,47.83,4.15c28.75,7.88,29.29,10.7,32.26,43.3
		c3.67,40.27,0.92,82.45,1.43,122.88C1083.33,663.33,1083.69,708.85,1082.11,754.3z M1111.13,687.44
		c-1.03-24.12-2.32-47.74-2.6-69.57c-0.02-1.42-0.06-2.84-0.08-4.26c5.95,0.03,11.88,0.05,17.83,0.26
		c8.73,0.32,8.88-1.54,11.47,5.25c2.04,5.34,0.04,14.73,0.36,20.55c0.41,7.36,1.42,14.65,1.99,22c0.46,5.92,0.75,11.89,0.69,17.84
		c0,0.51-0.51,4.18-0.33,6.27c-0.88,0.36-1.83,0.7-2.63,0.7C1128.88,686.42,1120.04,687.24,1111.13,687.44z"/>
</g>
</svg>
