<svg id="Capa_1" data-name="Capa 1" xmlns="http://www.w3.org/2000/svg" viewBox="0 0 199.02 197.73"><path class="cls-1" d="M206.41,124.54a5.1,5.1,0,0,0-5.28,5.28V212.5H160.21V179.43c0-3.47-1.81-6.11-5.28-6.11H126.16a6,6,0,0,0-6.11,6.11V212.5H80V133.3a5.88,5.88,0,0,0-6.11-6.12c-3.48,0-5.22,1.67-5.22,6.12v86.15a5,5,0,0,0,5.22,5.28h52.31a5.61,5.61,0,0,0,5.21-5.28V184.71h17.45v34.74c0,2.64,3.53,5.28,6.11,5.28h51.48c3.47,0,6-2.64,6-5.28V129.82c0-3.47-2.57-5.28-6-5.28ZM73.85,37.42h0c2.63,0,5.21,2.63,5.21,7.09V89.66l56.69-60.85A11.1,11.1,0,0,1,141,27c.84,0,1.67.83,2.57,1.81,34,35.7,56.7,60,94.14,100h0c2.65,1.81,2.65,6.12,0,8.75a6.69,6.69,0,0,1-3.47,1.81,7,7,0,0,1-4.37-1.81L141,41.73,50.29,135.94c-1.73,3.47-5.21,3.47-7.85,0-.83-1-1.73-1.81-1.73-3.47A6.94,6.94,0,0,1,42.44,128l26.19-27.92V44.51c0-4.46,2.57-7.09,5.22-7.09Z" transform="translate(-40.71 -27)"/></svg>