<?xml version="1.0" encoding="utf-8"?>
<!-- Generator: Adobe Illustrator 17.0.0, SVG Export Plug-In . SVG Version: 6.00 Build 0)  -->
<!DOCTYPE svg PUBLIC "-//W3C//DTD SVG 1.1//EN" "http://www.w3.org/Graphics/SVG/1.1/DTD/svg11.dtd">
<svg version="1.1" id="Capa_1" xmlns="http://www.w3.org/2000/svg" xmlns:xlink="http://www.w3.org/1999/xlink" x="0px" y="0px"
	 width="1200px" height="1200px" viewBox="0 0 1200 1200" enable-background="new 0 0 1200 1200" xml:space="preserve">
<g>
	<path d="M600,1119.5c-70.117,0-138.155-13.74-202.224-40.839c-61.866-26.167-117.419-63.62-165.118-111.319
		c-47.699-47.698-85.152-103.252-111.319-165.118C94.24,738.155,80.5,670.117,80.5,600c0-70.117,13.74-138.155,40.839-202.224
		c26.167-61.866,63.62-117.419,111.319-165.118c47.699-47.699,103.252-85.152,165.118-111.319C461.845,94.24,529.883,80.5,600,80.5
		c70.117,0,138.155,13.74,202.224,40.839c61.866,26.167,117.42,63.62,165.118,111.319c47.699,47.699,85.152,103.252,111.319,165.118
		C1105.76,461.845,1119.5,529.883,1119.5,600c0,70.117-13.74,138.155-40.839,202.224c-26.167,61.866-63.62,117.42-111.319,165.118
		c-47.698,47.699-103.252,85.152-165.118,111.319C738.155,1105.76,670.117,1119.5,600,1119.5z M600,149.5
		c-248.407,0-450.5,202.093-450.5,450.5c0,248.406,202.093,450.5,450.5,450.5c248.406,0,450.5-202.094,450.5-450.5
		C1050.5,351.593,848.406,149.5,600,149.5z"/>
</g>
<g>
	<path d="M688,926c0,6.627-5.373,12-12,12H522c-6.627,0-12-5.373-12-12V562c0-6.627,5.373-12,12-12h154c6.627,0,12,5.373,12,12V926z
		"/>
</g>
<g>
	<circle cx="600" cy="357.667" r="103.333"/>
</g>
</svg>
