<svg id="Capa_1" data-name="Capa 1" xmlns="http://www.w3.org/2000/svg" viewBox="0 0 125.17 106.26"><path class="cls-1" d="M77.48,97.43A21.75,21.75,0,0,0,84,113a22.53,22.53,0,0,0,27.39,3.23l18.42,18.18a5.25,5.25,0,0,0,3.72,1.52h0a5.28,5.28,0,0,0,3.72-1.52,5.15,5.15,0,0,0,0-7.34l-18.43-18.18a21.83,21.83,0,0,0-3.27-27,22.52,22.52,0,0,0-31.55,0A21.71,21.71,0,0,0,77.48,97.43Zm57,32.37a1.33,1.33,0,0,1,0,1.88,1.39,1.39,0,0,1-1.9,0l-18-17.78c.33-.29.66-.59,1-.9s.63-.64.92-1ZM99.79,79.27a18.42,18.42,0,0,1,13,5.32,18,18,0,0,1,0,25.67,18.57,18.57,0,0,1-26,0,18,18,0,0,1,0-25.67A18.4,18.4,0,0,1,99.79,79.27Z" transform="translate(-15.1 -31.15)"/><path class="cls-1" d="M133.54,137.41a6.71,6.71,0,0,1-4.76-1.95l-17.62-17.39a24,24,0,0,1-28.18-4,23.28,23.28,0,0,1,0-33.24,24,24,0,0,1,33.62,0,23.21,23.21,0,0,1,4.09,27.83L138.29,126a6.62,6.62,0,0,1,0,9.44A6.67,6.67,0,0,1,133.54,137.41Zm-21.92-23,19.24,19a3.92,3.92,0,0,0,5.36,0,3.67,3.67,0,0,0,0-5.24l-19.26-19,.62-1a20.28,20.28,0,0,0-3.06-25.2,21,21,0,0,0-29.47,0,20.35,20.35,0,0,0,0,29,21.08,21.08,0,0,0,25.59,3Zm21.92,19.16a2.8,2.8,0,0,1-2-.81l-19.14-18.88,1.2-1c.31-.27.62-.55.92-.84s.58-.6.86-.91l1-1.15,19.11,18.86a2.8,2.8,0,0,1,0,4A2.85,2.85,0,0,1,133.54,133.53ZM99.79,117.06a19.86,19.86,0,0,1-14.05-5.75,19.47,19.47,0,0,1,0-27.77,20,20,0,0,1,28.09,0,19.47,19.47,0,0,1,0,27.77A19.84,19.84,0,0,1,99.79,117.06Zm0-36.32a16.93,16.93,0,0,0-12,4.9,16.5,16.5,0,0,0,0,23.57,17.07,17.07,0,0,0,23.94,0,16.54,16.54,0,0,0,0-23.58A17,17,0,0,0,99.79,80.74Z" transform="translate(-15.1 -31.15)"/><path class="cls-1" d="M107.61,93.72A2.3,2.3,0,0,1,106,93h0l-.32-.3a2.3,2.3,0,0,1-.15-3.25,2.35,2.35,0,0,1,3.29-.14l.47.44a2.29,2.29,0,0,1,0,3.26A2.34,2.34,0,0,1,107.61,93.72Zm-1.12-1.2a1.64,1.64,0,0,0,2.25,0,1.55,1.55,0,0,0,0-2.2l-.45-.43a1.6,1.6,0,0,0-2.24.1,1.51,1.51,0,0,0-.42,1.12,1.56,1.56,0,0,0,.51,1.08l.35.33Z" transform="translate(-15.1 -31.15)"/><path class="cls-1" d="M102.18,90.52a2.48,2.48,0,0,1-.65-.09,10.72,10.72,0,0,0-6.07,0h0a2.33,2.33,0,0,1-2.88-1.55A2.3,2.3,0,0,1,94.15,86a15.39,15.39,0,0,1,8.69,0,2.3,2.3,0,0,1,1.39,1.11,2.27,2.27,0,0,1,.18,1.75A2.33,2.33,0,0,1,102.18,90.52Zm-3.7-1.27a11.61,11.61,0,0,1,3.25.47,1.56,1.56,0,0,0,1.85-2.24,1.53,1.53,0,0,0-.94-.75,14.5,14.5,0,0,0-8.28,0,1.55,1.55,0,0,0-1,.76,1.49,1.49,0,0,0-.12,1.17,1.59,1.59,0,0,0,2,1.06h0A11.34,11.34,0,0,1,98.48,89.25Z" transform="translate(-15.1 -31.15)"/><path class="cls-2" d="M99.1,116.26c-1.33,0-1.6.12-1.6,1.87l.21,11h-22l.16-16.86c0-1.75-.92-3.09-2.67-3.09H61.49a3,3,0,0,0-3.1,3.09l-.11,16.86-23.53.18.06-42.68c0-2.25-2.05-3.93-3.09-3.09s-.95.66-.95,2.91V130a2.55,2.55,0,0,0,2.64,2.67H59.88A2.84,2.84,0,0,0,62.52,130V112.42h8.82V130c0,1.33,1.79,2.67,3.09,2.67l24.5,0A2.94,2.94,0,0,0,102,130l.06-11.24m2.4-42L67,38.07,20.8,87.16c-.88,1.76-2.63,1.76-4,0-.42-.49-.19-.33-.19-1.17a3.52,3.52,0,0,1,.88-2.26L30.77,69.61V41.48c0-2.25-.07-3.36,2.64-3.59h0c1.33,0,1.51,2.56,1.51,4.81V65.55l29.81-32a5.59,5.59,0,0,1,2.67-.92c.43,0,.85.42,1.3.92C85.89,51.6,91.83,58.06,110.77,78.31" transform="translate(-15.1 -31.15)"/><path class="cls-1" d="M98.93,134.18l-24.5,0c-2.05,0-4.56-1.92-4.56-4.15V113.9H64V130a4.3,4.3,0,0,1-4.11,4.15H33.41A4.06,4.06,0,0,1,29.29,130V86c0-2,.05-2.51,1.38-3.57a2.71,2.71,0,0,1,3-.34,5,5,0,0,1,2.63,4.48l-.06,41.19,20.58-.16.11-15.39a4.52,4.52,0,0,1,4.57-4.57H73.15c2.48,0,4.15,1.84,4.15,4.57l-.15,15.38h19L96,118.16c0-2.5.81-3.37,3.08-3.37v2.95H99c0,.1,0,.23,0,.39l.24,12.43h-25l.18-18.34c0-1.06-.41-1.6-1.2-1.6H61.49a1.56,1.56,0,0,0-1.62,1.61l-.12,18.32-26.48.21.07-44.18a2.2,2.2,0,0,0-.89-1.78l-.27.23a3.51,3.51,0,0,1,.07,1v44a1.1,1.1,0,0,0,1.16,1.2H59.88A1.4,1.4,0,0,0,61,130V111H72.82v19c0,.36,1,1.2,1.61,1.2l24.5,0a1.5,1.5,0,0,0,1.58-1.19l.07-11.25,3,0L103.46,130A4.41,4.41,0,0,1,98.93,134.18ZM32.65,84.64h0ZM19,90a4.28,4.28,0,0,1-3.33-1.9,1.88,1.88,0,0,1-.53-1.71,1.44,1.44,0,0,0,0-.35,5,5,0,0,1,1.31-3.3L29.29,69V41.48c0-2.3,0-4.73,4-5.06h0c3.1,0,3.1,4.24,3.1,6.28V61.8L64,32.25a7,7,0,0,1,3.39-1.1,3.45,3.45,0,0,1,2.39,1.38C83,46.41,89.58,53.46,100.49,65.14L111.85,77.3l-2.16,2L98.33,67.15c-10.91-11.67-17.49-18.72-30.7-32.6a5.78,5.78,0,0,0-.43-.43,4.31,4.31,0,0,0-1.55.6L33.44,69.3V42.7a10.53,10.53,0,0,0-.32-3.3,1.64,1.64,0,0,0-.75.23,6.06,6.06,0,0,0-.12,1.69V70.19L18.59,84.74A2.09,2.09,0,0,0,18.12,86c0,.15,0,.28,0,.39A1.67,1.67,0,0,0,19,87c.14,0,.32-.21.47-.5l.25-.35,47.2-50.22,38.58,39.88-2.12,2L67,40.21,22,88a3.55,3.55,0,0,1-2.72,1.91Z" transform="translate(-15.1 -31.15)"/></svg>