<?xml version="1.0" encoding="utf-8"?>
<!-- Generator: Adobe Illustrator 25.1.0, SVG Export Plug-In . SVG Version: 6.00 Build 0)  -->
<svg version="1.1" id="Capa_1" xmlns="http://www.w3.org/2000/svg" xmlns:xlink="http://www.w3.org/1999/xlink" x="0px" y="0px"
	 viewBox="0 0 1200 1200" style="enable-background:new 0 0 1200 1200;" xml:space="preserve">

<g>
	<g>
		<path class="st0" d="M731.55,103.31c32.66,8.68,62.94,22.82,79.71,53.2c10.68,19.34,10.65,45.2,23,62.84
			c11.78,16.82,36.23,24.36,49.74,40.48c10.5,12.54,15.7,31.65,17.71,48.5c1.58,13.26,5.9,19.46,16.93,25.22
			c25.39,13.25,43.99,33.55,56.39,59.5c4.5,9.42,7.11,20.03-4.56,23.72c-5.18,1.64-16.64-4.89-19.83-10.69
			c-13.33-24.24-31.28-42.49-56.81-53.46c-13.6-5.84-19.88-16.59-19.38-31.67c1.14-33.75-13.73-56.98-46.24-67.78
			c-16.7-5.55-23.31-17.22-24.51-34.25c-3.54-50.39-41.39-86.46-90.17-86.87c-49.45-0.42-88.54,36.15-91.8,87.23
			c-1.17,18.36-9.47,29.18-26.48,34.78c-27.75,9.14-43.65,29.07-43.63,57.74c0.01,22.54-5.89,38.4-29.47,44.66
			c8.6,34.55,18.74,67.14,24.51,100.48c7.63,44.09,11.58,88.81,17.76,133.17c1.06,7.65,3.67,16.21,8.4,22.03
			c29.19,35.87,91.88,34.48,120.63-2.06c9.99-12.69,5.95-93.57-5.37-104.99c-15.14-15.27-30.4-30.42-45.64-45.59
			c-7.47-7.44-15.44-15.69-5.47-25.69c9.98-10.01,18.37-2.2,25.66,5.43c10.33,10.8,20.5,21.75,30.74,32.64
			c1.64-0.72,3.27-1.44,4.91-2.17c0-17.96-1.33-36.08,0.64-53.82c0.82-7.4,7.86-19.11,13.47-20c13.57-2.15,14.84,9.92,14.91,20.69
			c0.17,26.53,0.48,53.07,0.79,79.6c0,0.38,0.79,0.75,3.2,2.86c11.13-11.36,21.61-23.93,34.12-33.97
			c5.39-4.32,17.55-7.18,22.14-4.08c10.19,6.9,5,16.26-2.57,23.74c-14.85,14.66-28.95,30.16-44.5,44.02
			c-10.44,9.31-15.27,19.46-13.25,33.13c0.37,2.48,0.05,5.05,0.05,7.58c0,40.42,6.93,51.73,38.9,63.45
			c32.13,11.78,66.62,4.55,86.27-20.57c8.69-11.11,12.32-26.04,20-38.12c6.35-9.98,13.55-21.58,23.38-26.8
			c30.84-16.36,52.36-39.01,60.67-73.39c2.45-10.13,5.44-21.41,19.27-17.79c13.72,3.59,11.67,15.28,8.21,24.96
			c-6.08,17.05-13.49,33.63-20.63,51.1c0.49,0.38,1.75,2.11,3.34,2.5c62.65,15.31,96.95,57.87,113.34,117.69
			c1.48,5.41,2.96,10.82,4.44,16.22c0,16.44,0,32.89,0,49.33c-17.18,69.23-53.42,120.45-128.13,134.2c0,64.92,0,128.57,0,194.34
			c34.88,0,68.91-0.6,102.88,0.42c8.5,0.26,16.84,5.72,25.25,8.79c0,3.79,0,7.59,0,11.38c-8.11,2.52-16.21,7.25-24.32,7.26
			c-307.3,0.38-614.59,0.32-921.89,0.3c-4.42,0-9.81,1.29-13.03-0.74c-4.8-3.03-11.66-8.98-11.13-12.77
			c0.72-5.17,6.86-10.72,12.05-13.75c3.83-2.24,9.86-0.87,14.91-0.87c53.75-0.03,107.49-0.02,161.24-0.02c6.77,0,13.54,0,21.34,0
			c0-69.88,0-137.28,0-206.04c-11.44-2.4-23.11-4.35-34.51-7.31c-89.75-23.31-159.4-105.21-172.66-200.83
			c-9.79-70.57,5.68-138.31,20.65-206.17c4.89-22.16,11.69-43.9,17.99-65.73c2.95-10.2,5.48-23.34,20.29-19.11
			c14.77,4.23,9.5,16.07,7.09,26.77c-12.76,56.6-27.83,112.86-36.87,170.07c-13.56,85.77,4.4,163.76,71.17,224.84
			c29.59,27.07,64.37,43.62,107.69,46.66c0-35.89,0.36-70.41-0.43-104.9c-0.1-4.59-5.52-9.54-9.35-13.48
			c-15.42-15.87-31.88-30.8-46.37-47.46c-4.06-4.67-2.69-14.06-3.81-21.29c7.76,0.58,18.06-1.77,22.78,2.32
			c11.58,10.04,20.59,23.05,30.63,34.87c2.26-1.51,4.51-3.02,6.77-4.53c0-31.94-0.01-63.89,0.01-95.83c0-5.69-1.63-12.19,0.56-16.87
			c2.74-5.83,8.67-10.17,13.22-15.15c4.64,4.91,12.74,9.48,13.27,14.8c1.7,17.32,0.64,34.91,0.64,57.77
			c13.66-13.28,23.88-22.96,33.81-32.94c7.64-7.67,16.03-14.65,25.81-4.93c9.32,9.25,2.1,17.19-4.96,24.2
			c-1.35,1.34-2.5,2.95-4.05,3.99c-44.47,30.02-57.21,72.04-51.14,123.89c3.57,30.49,0.65,61.74,0.65,96.63
			c14.35-2.98,27.15-4.49,39.21-8.33c86.77-27.61,147.58-116.22,142.96-216.81c-6.14-133.79-43.23-259.87-107.74-377.34
			c-10.5-19.11-24.82-36.83-40.21-52.39c-31.92-32.28-65.48-33.61-95.52,0.03c-23.65,26.49-41.67,58.22-60.55,88.65
			c-9.23,14.88-13.62,32.71-22.44,47.91c-3.38,5.83-13,8.04-19.78,11.91c-1.9-7.62-7.74-17.2-5.08-22.56
			c19.87-40.04,39.91-80.15,62.92-118.42c17.18-28.58,43.81-48.2,75.39-60.21c11.38,0,22.77,0,34.15,0
			c33.08,13.27,60.06,34.74,78.71,64.75c18.23,29.34,34.62,59.95,49.92,90.95c11.04,22.38,18.97,46.3,28.29,69.53
			c1.79,0.24,3.58,0.49,5.38,0.73c1.52-5.31,2.88-10.68,4.6-15.93c5.97-18.23,8.07-39.53,19.17-53.8
			c12.77-16.39,37.92-23.47,49.66-40.23c12.3-17.54,12.08-43.41,22.68-62.7c16.66-30.31,46.87-44.43,79.35-53.3
			C706.25,103.31,718.9,103.31,731.55,103.31z M696.83,1045.53c0-133.61,0-265.68,0-399.44c-47.19,27.36-92.22,28.37-136.64-4.14
			c-28.59,109.31-91.6,180.98-206.54,198.4c0,68.33,0,136.21,0,205.19C468.22,1045.53,581.67,1045.53,696.83,1045.53z
			 M926.15,852.99c-67.67-19.29-105.31-53.38-120.93-111.88c-5.15-19.28-4.71-40.01-8.01-59.87c-0.9-5.44-5.08-13.2-9.52-14.7
			c-19.34-6.55-39.32-11.2-59.23-16.58c0,130.23,0,262.48,0,394.93c66.42,0,131.64,0,197.69,0
			C926.15,980.13,926.15,917.09,926.15,852.99z M957.9,823.63c11.98-4.81,24.19-8.19,34.88-14.25
			c47.83-27.09,72.9-89.8,60.01-148.05c-12.69-57.37-55.43-97.68-106.3-100.23c-25.44-1.28-40.95,8.75-50.95,31.99
			c-11.77,27.37-29.22,49.75-55.94,64.6c-5.5,3.06-11.17,10.8-11.79,16.89c-5.15,50.32,8.92,94.17,49.51,126.19
			c13.09,10.33,29.97,15.84,49.67,25.86c0-13.77,0-20.55,0-27.34c0.03-32.85-0.6-65.73,0.68-98.53c0.23-5.99,8.26-11.67,12.68-17.49
			c5.02,5.85,12.96,11.08,14.4,17.71c2.4,11.12,0.66,23.13,0.66,34.77c2.24,1.34,4.47,2.68,6.71,4.02
			c5.59-7.52,9.92-16.85,17.21-21.93c5-3.48,14.12-1.04,21.39-1.25c-0.52,6.81,1.11,14.91-2.05,20.12
			c-4.78,7.87-12.13,14.76-19.71,20.24C956.88,772.9,950.58,793.93,957.9,823.63z"/>
		<path class="st0" d="M130.45,1077.71c-2.36,0-4.65-0.32-6.56-1.52c-1.35-0.86-13.2-8.55-12.27-15.24
			c0.88-6.27,7.69-12.31,13.27-15.58c3.47-2.06,7.84-1.72,12.04-1.43c1.4,0.1,2.8,0.22,4.13,0.22c40.29-0.05,80.6-0.07,120.93-0.05
			l59.14,0.02v-201.5c-2.88-0.57-5.78-1.16-8.68-1.72c-7.87-1.52-16.03-3.12-23.96-5.19C197.67,812.15,127.54,730.6,113.98,632.8
			c-9.66-69.68,5.33-137.6,19.86-203.25l0.84-3.81c3.91-17.82,9.14-35.62,14.21-52.82l4.4-15.09c1.92-6.88,4.08-14.65,10.18-18.07
			c3.42-1.87,7.67-2.14,12.63-0.71c15.31,4.38,12.27,16.27,9.81,25.83c-0.34,1.3-0.66,2.61-0.96,3.91
			c-3.54,15.68-7.25,31.34-10.96,47c-9.51,40.14-19.34,81.63-25.88,122.9c-14.48,91.73,9.19,166.62,70.4,222.59
			c30.04,27.48,63.91,42.47,103.48,45.79c0-7.82,0.02-15.58,0.02-23.28c0.07-27.14,0.15-52.77-0.44-78.85
			c-0.1-3.1-4.15-7.2-7.4-10.5l-1.25-1.28c-5.41-5.55-10.91-10.99-16.44-16.42c-10.1-9.95-20.55-20.23-30.01-31.14
			c-3.37-3.86-3.64-9.86-3.88-15.63c-0.1-2.36-0.2-4.74-0.52-6.93l-0.49-3.1l3.15,0.22c2.29,0.12,4.92,0.07,7.47-0.05
			c6.32-0.2,12.81-0.52,16.79,2.97c8.41,7.3,15.53,16.17,22.42,24.78c2.34,2.9,4.65,5.8,7.03,8.65l3.79-2.56v-94.48
			c0-1.67-0.15-3.39-0.29-5.11c-0.34-4.4-0.71-8.95,1.08-12.81c2.14-4.52,5.85-8.09,9.41-11.53c1.45-1.4,2.9-2.8,4.23-4.25
			l1.84-1.99l1.84,1.97c1.4,1.47,3.12,2.9,4.87,4.35c4.25,3.56,8.63,7.25,9.09,11.92c1.2,12.39,1.03,24.85,0.84,39.25
			c-0.07,4.08-0.12,8.33-0.17,12.81l7.25-7.03c8.26-7.99,15.31-14.77,22.22-21.73c6-5.97,17.06-17.16,29.37-4.94
			c3.44,3.42,5.19,7.05,5.19,10.79c-0.02,6.42-5.01,11.9-10.15,16.98c-0.34,0.37-0.71,0.76-1.08,1.18
			c-0.98,1.08-1.97,2.21-3.29,3.12c-40.65,27.43-56.56,66.04-50.07,121.5c2.46,20.99,1.87,42.25,1.25,64.74
			c-0.25,9.41-0.52,19.12-0.57,29.1c3.61-0.71,7.15-1.35,10.59-1.97c8.92-1.62,17.35-3.12,25.32-5.68
			c87.65-27.9,145.71-116.01,141.23-214.28c-6.02-130.81-42.15-257.4-107.46-376.26c-9.49-17.3-22.88-34.73-39.79-51.84
			c-15.71-15.9-31.56-23.96-47.14-23.96c-0.37,0-0.76,0.02-1.13,0.02c-15.09,0.39-29.77,8.41-43.58,23.87
			c-19.74,22.15-35.81,48.4-51.35,73.81c-2.97,4.84-5.95,9.68-8.92,14.5c-4.72,7.6-8.26,16.25-11.65,24.63
			c-3.17,7.77-6.46,15.83-10.74,23.2c-2.75,4.72-8.5,7.23-14.06,9.66c-2.31,1.01-4.62,2.02-6.66,3.17l-2.9,1.65l-0.79-3.22
			c-0.57-2.26-1.55-4.84-2.51-7.35c-2.31-6.05-4.69-12.29-2.38-16.96c22.17-44.66,40.88-81.75,63.02-118.57
			c16.62-27.63,42.4-48.22,76.66-61.28l0.88-0.15l35.07,0.17c34.51,13.84,61.4,35.96,79.91,65.75
			c16.57,26.64,32.94,56.46,50.04,91.16c7.69,15.58,13.96,32.13,20.03,48.13c2.56,6.76,5.11,13.52,7.79,20.23l1.75,0.22l0.84-2.97
			c1.01-3.66,2.04-7.32,3.22-10.94c1.77-5.41,3.22-11.23,4.65-16.86c3.37-13.44,6.83-27.33,14.92-37.7
			c6.49-8.31,15.93-14.28,25.05-20.06c9.68-6.1,18.8-11.87,24.55-20.08c6.37-9.07,9.22-20.43,12.24-32.47
			c2.58-10.23,5.24-20.82,10.27-29.96c18.61-33.85,53.02-46.92,80.92-54.54l0.66-0.07l38.59,0.07
			c41.51,11.04,66.59,27.82,81.28,54.44c5.06,9.17,7.77,19.74,10.42,29.99c3.1,12.07,6.02,23.47,12.44,32.59
			c5.92,8.46,15.21,14.45,25.02,20.82c8.82,5.7,17.94,11.58,24.58,19.49c12.54,14.99,16.81,37.66,18.26,49.82
			c1.47,12.39,5.14,17.82,15.58,23.28c25.22,13.17,44.56,33.58,57.49,60.66c4.15,8.68,5.11,14.97,3,19.81
			c-1.5,3.49-4.55,5.97-9.05,7.4c-6.54,2.14-19.2-5.31-22.81-11.9c-13.76-25.05-31.95-42.18-55.57-52.33
			c-14.43-6.19-21.46-17.65-20.92-34.07c1.13-33.16-13.84-55.13-44.51-65.31c-16.52-5.51-24.85-17.08-26.23-36.48
			c-3.42-48.57-40.29-84.11-87.67-84.53c-0.27,0-0.54,0-0.84,0c-48.18,0-85.29,35.57-88.44,84.87
			c-1.23,19.32-10.2,31.09-28.22,37.02c-27.41,9.05-41.91,28.19-41.91,55.35c0.02,18.61-3.47,38.57-28.93,46.41
			c2.53,10.05,5.16,19.93,7.79,29.72c6.27,23.47,12.19,45.64,16.17,68.6c4.77,27.55,8.16,55.8,11.43,83.13
			c1.97,16.44,4.01,33.48,6.32,50.14c1.18,8.5,4.06,16.07,7.87,20.77c13.08,16.05,33.77,25.22,56.88,25.22c0.25,0,0.47,0,0.71-0.02
			c23.74-0.17,45.87-10.37,59.14-27.21c9.07-11.58,5.01-91.39-5.21-101.68c-12.61-12.71-25.32-25.34-38-37.98l-7.62-7.57
			c-3.54-3.51-7.91-7.89-9.83-12.76c-2.29-5.78-0.81-11.33,4.35-16.52c3.64-3.64,7.47-5.48,11.4-5.48c0.05,0,0.07,0,0.12,0
			c6.76,0.07,12.49,5.43,17.75,10.94c7.05,7.4,14.06,14.85,21.06,22.32l8.48,9.05l1.75-0.79c0-4.6-0.1-9.19-0.2-13.81
			c-0.27-12.71-0.57-25.83,0.86-38.64c0.86-7.77,8.33-21.09,15.58-22.22c4.92-0.84,8.95,0.07,11.9,2.58
			c5.11,4.35,5.87,12.46,5.92,20.57c0.17,26.23,0.47,52.43,0.79,78.63c0.02,0.02,0.02,0.02,0.05,0.05c0.12,0.1,0.29,0.22,0.47,0.37
			c2.65-2.75,5.28-5.55,7.91-8.36c7.77-8.31,15.78-16.89,24.8-24.14c5.7-4.5,19.17-8.18,25.14-4.18c4.08,2.78,6.37,6.17,6.73,10.1
			c0.49,5.28-2.53,11.16-8.95,17.5c-5.06,4.99-10,10.05-14.97,15.14c-9.49,9.71-19.32,19.76-29.64,28.95
			c-10.37,9.27-14.21,18.8-12.44,30.9c0.29,1.92,0.22,3.81,0.15,5.65c-0.02,0.76-0.07,1.55-0.07,2.31
			c0,39.45,6.27,49.72,37.26,61.08c32.22,11.77,64.84,3.98,83.42-19.76c4.67-5.97,7.79-13.03,11.11-20.5
			c2.58-5.87,5.26-11.92,8.77-17.43l0.47-0.74c6.42-10.1,13.67-21.53,23.84-26.91c32.91-17.48,51.79-40.29,59.38-71.77
			c1.62-6.64,3.64-14.9,9.76-18.56c3.42-2.02,7.62-2.34,12.61-1.06c5.26,1.38,8.92,3.98,10.91,7.77c3.39,6.44,1.08,14.77-0.98,20.47
			c-4.28,12.02-9.12,23.6-14.26,35.84c-1.92,4.55-3.86,9.14-5.75,13.81c0.32,0.29,0.69,0.59,0.96,0.66
			c59.46,14.53,97.11,53.61,115.18,119.46c1.47,5.41,2.95,10.81,4.45,16.22l0.07,0.66v49.33
			c-19.49,78.88-61.37,123.27-128.13,136.29v189.75c8.6-0.02,17.16-0.05,25.66-0.1c25.64-0.15,49.95-0.22,74.77,0.52
			c6.34,0.2,12.41,2.95,18.26,5.63c2.61,1.18,5.19,2.36,7.79,3.32l1.65,0.59v14.99l-1.75,0.57c-2.53,0.79-5.04,1.77-7.55,2.78
			c-5.65,2.26-11.53,4.57-17.55,4.57c-278.02,0.34-560.66,0.29-834.1,0.32l-87.8-0.02c-1.16,0-2.41,0.1-3.64,0.2
			C133.22,1077.61,131.82,1077.71,130.45,1077.71z M132.36,1048.75c-1.94,0-3.69,0.22-4.92,0.93c-4.97,2.93-10.3,7.96-10.86,11.95
			c-0.22,1.67,4.18,6.61,10,10.27c1.6,1.06,4.67,0.79,7.64,0.57c1.38-0.1,2.75-0.2,4.03-0.2h87.8c273.4,0,556.08,0.05,834.1-0.29
			c5.06,0,10.23-2.06,15.71-4.23c2.04-0.81,4.08-1.62,6.12-2.34v-7.82c-2.19-0.86-4.35-1.84-6.49-2.85
			c-5.68-2.58-11.04-5.01-16.35-5.19c-24.73-0.74-48.91-0.61-74.6-0.49c-9.34,0.05-18.73,0.07-28.19,0.07h-2.51V850.2l2.04-0.39
			c66.71-12.27,106.8-54.32,126.17-132.34l-0.07-48.37c-1.47-5.31-2.92-10.59-4.38-15.9c-17.53-63.93-54-101.86-111.49-115.92
			c-1.94-0.47-3.34-1.94-4.1-2.73l-1.47-1.18l0.49-1.99c2.14-5.19,4.28-10.32,6.42-15.41c5.11-12.17,9.93-23.67,14.18-35.57
			c1.72-4.82,3.71-11.75,1.25-16.42c-1.33-2.53-3.86-4.25-7.74-5.26c-3.71-1.01-6.54-0.81-8.75,0.52c-4.3,2.58-6.05,9.68-7.45,15.41
			c-7.84,32.54-28.09,57.1-61.92,75.02c-9,4.79-15.88,15.63-21.95,25.19l-0.49,0.74c-3.29,5.16-5.87,11.06-8.41,16.74
			c-3.29,7.45-6.69,15.12-11.72,21.58c-19.98,25.51-54.98,33.92-89.12,21.38c-32.99-12.09-40.56-24.38-40.56-65.8
			c0-0.84,0.02-1.67,0.05-2.51c0.07-1.67,0.15-3.24-0.07-4.72c-2.04-13.76,2.43-25.02,14.06-35.37
			c10.2-9.09,19.96-19.07,29.37-28.73c4.99-5.11,9.98-10.2,15.04-15.21c5.24-5.16,7.82-9.81,7.47-13.44
			c-0.22-2.38-1.72-4.47-4.55-6.39c-3.39-2.29-14.26,0.02-19.17,3.93c-8.75,7.03-16.64,15.46-24.26,23.62
			c-3.2,3.44-6.39,6.83-9.64,10.15l-1.67,1.7l-1.79-1.57c-0.96-0.84-1.65-1.4-2.11-1.77c-0.98-0.81-1.92-1.55-1.92-2.97
			c-0.32-26.52-0.61-53.04-0.79-79.59c-0.05-6.59-0.59-13.74-4.15-16.79c-1.82-1.5-4.38-1.99-7.87-1.45
			c-4.03,0.64-10.62,10.96-11.36,17.8c-1.4,12.49-1.11,25.46-0.86,38c0.12,5.19,0.22,10.37,0.22,15.56v1.65l-8.01,3.54l-10.94-11.65
			c-6.98-7.45-13.96-14.9-21.02-22.27c-4.52-4.72-9.34-9.34-14.16-9.39c-0.02,0-0.05,0-0.07,0c-2.58,0-5.14,1.3-7.84,3.98
			c-4.84,4.87-4.28,8.5-3.24,11.11c1.55,3.91,5.51,7.87,8.7,11.04l7.62,7.6c12.71,12.63,25.42,25.27,38.05,38
			c12.29,12.41,16.52,94.41,5.55,108.32c-14.21,18.07-37.75,28.95-63.02,29.15c-0.27,0-0.52,0-0.76,0
			c-24.63,0-46.75-9.83-60.76-27.04c-6.02-7.37-8.18-17.75-8.95-23.28c-2.34-16.71-4.38-33.75-6.37-50.24
			c-3.27-27.26-6.64-55.43-11.38-82.88c-3.93-22.71-9.83-44.78-16.07-68.13c-2.83-10.57-5.68-21.26-8.38-32.15l-0.61-2.41l2.41-0.64
			c22.91-6.07,27.6-21.26,27.58-42.23c0-29.13,16.1-50.49,45.35-60.12c16.03-5.28,23.67-15.31,24.78-32.57
			c3.29-52.03,42.55-89.59,93.45-89.59c0.3,0,0.59,0.02,0.89,0.02c50.07,0.42,89.05,37.93,92.64,89.2
			c1.23,17.33,8.26,27.21,22.79,32.05c33.06,10.96,49.18,34.58,47.95,70.25c-0.47,14.33,5.38,23.92,17.87,29.27
			c24.7,10.62,43.68,28.44,58.03,54.54c2.92,5.33,13.49,10.79,16.86,9.49c3.1-0.96,5.04-2.46,5.95-4.57
			c1.47-3.37,0.52-8.48-2.9-15.66c-12.46-26.08-31.04-45.72-55.28-58.35c-11.82-6.17-16.62-13.27-18.29-27.16
			c-1.38-11.63-5.41-33.21-17.13-47.17c-6.12-7.35-14.92-13.03-23.42-18.51c-9.81-6.34-19.93-12.88-26.42-22.15
			c-6.93-9.88-10.1-22.27-13.2-34.24c-2.56-9.93-5.19-20.2-9.95-28.83c-13.94-25.22-37.95-41.24-77.82-51.91h-37.29
			c-39.84,10.94-63.73,26.99-77.5,52.01c-4.72,8.6-7.3,18.85-9.81,28.78c-3,11.95-6.12,24.31-13,34.14
			c-6.34,9.02-16.32,15.34-25.98,21.46c-8.77,5.53-17.84,11.26-23.77,18.88c-7.45,9.54-10.79,22.91-14.03,35.81
			c-1.43,5.73-2.9,11.65-4.74,17.23c-1.16,3.51-2.14,7.1-3.12,10.69l-2.04,7.23l-9-1.23l-0.54-1.35
			c-2.88-7.18-5.63-14.43-8.38-21.68c-6.02-15.88-12.24-32.3-19.84-47.68c-17.03-34.53-33.33-64.23-49.8-90.72
			c-17.84-28.73-43.78-50.09-77.06-63.56h-33.18c-32.96,12.63-57.76,32.49-73.69,59.02c-22.07,36.65-40.73,73.66-62.82,118.23
			c-1.35,2.68,0.74,8.11,2.56,12.9c0.61,1.62,1.25,3.27,1.79,4.89c1.43-0.69,2.92-1.33,4.38-1.97c4.79-2.09,9.78-4.28,11.7-7.57
			c4.1-7.08,7.32-14.94,10.42-22.59c3.49-8.55,7.1-17.4,12.04-25.37c2.97-4.79,5.95-9.64,8.9-14.48
			c15.66-25.59,31.83-52.06,51.91-74.52c14.77-16.54,30.65-25.14,47.19-25.56c0.42,0,0.84,0,1.28,0c16.96,0,33.99,8.55,50.71,25.44
			c17.23,17.43,30.9,35.25,40.63,52.97c65.65,119.53,102,246.88,108.05,378.42c4.6,100.55-54.91,190.74-144.72,219.35
			c-8.28,2.63-16.86,4.18-25.96,5.8c-4.35,0.79-8.85,1.6-13.49,2.56l-3.02,0.64v-3.1c0-11.11,0.29-21.9,0.57-32.32
			c0.61-22.29,1.2-43.38-1.23-64c-6.73-57.54,9.88-97.65,52.26-126.26c0.79-0.54,1.55-1.4,2.36-2.29c0.42-0.47,0.84-0.96,1.28-1.4
			c4.4-4.35,8.68-8.95,8.68-13.42c0-2.38-1.2-4.74-3.69-7.2c-7.35-7.35-13.27-4.13-22.24,4.89c-6.96,6.98-14.01,13.81-22.29,21.8
			l-15.8,15.31v-5.95c0-6.69,0.07-12.93,0.17-18.83c0.2-14.26,0.37-26.57-0.81-38.69c-0.25-2.63-3.86-5.65-7.32-8.55
			c-1.16-0.96-2.31-1.94-3.37-2.92c-0.88,0.88-1.77,1.75-2.68,2.61c-3.39,3.29-6.61,6.39-8.33,10.05
			c-1.25,2.65-0.96,6.34-0.64,10.25c0.17,1.89,0.32,3.76,0.29,5.53v97.16l-9.73,6.56l-1.45-1.72c-2.92-3.42-5.73-6.93-8.55-10.47
			c-6.76-8.41-13.74-17.13-21.8-24.14c-2.48-2.14-7.99-1.97-13.3-1.72c-1.62,0.07-3.29,0.12-4.92,0.12c-0.05,0-0.07,0-0.1,0
			c0.12,1.47,0.17,2.97,0.25,4.5c0.22,4.89,0.42,9.98,2.63,12.54c9.34,10.74,19.74,20.97,29.77,30.85
			c5.55,5.48,11.09,10.94,16.49,16.52l1.23,1.23c4.08,4.13,8.73,8.8,8.85,13.91c0.61,26.15,0.54,51.81,0.47,78.97
			c-0.02,8.6-0.05,17.25-0.05,26v2.7l-2.68-0.2c-41.91-2.95-77.62-18.41-109.21-47.29c-62.53-57.2-86.74-133.59-71.97-227.11
			c6.56-41.44,16.42-83.03,25.96-123.27c3.71-15.63,7.4-31.29,10.94-46.97c0.32-1.33,0.66-2.68,1.01-4.03
			c2.73-10.67,3.79-16.86-6.32-19.76c-3.74-1.03-6.61-0.93-8.8,0.29c-4.28,2.38-6.14,9.09-7.79,15.02l-4.4,15.17
			c-5.04,17.13-10.25,34.83-14.13,52.48l-0.84,3.81c-14.43,65.23-29.35,132.68-19.81,201.48c13.3,95.81,81.95,175.67,170.83,198.75
			c7.79,2.02,15.85,3.59,23.67,5.11c3.59,0.71,7.15,1.43,10.72,2.16l1.99,0.42v210.6h-64.15c-40.31,0-80.62-0.02-120.93,0.02
			c-1.45,0-2.95-0.1-4.47-0.2C135.16,1048.88,133.71,1048.75,132.36,1048.75z M699.33,1048.04H351.14V838.18l2.14-0.32
			c107.24-16.27,174.14-80.57,204.48-196.56l0.93-3.59l2.97,2.19c41.91,30.65,85.63,32.05,133.91,4.01l3.76-2.19V1048.04z
			 M356.16,1043.03h338.16V650.42c-47.51,26.15-90.97,24.8-132.63-4.33c-31.12,115.18-98.39,179.45-205.53,196.41V1043.03z
			 M928.66,1047.4H725.95V646.68l3.17,0.86c5.36,1.45,10.74,2.85,16.12,4.25c14.28,3.71,29.05,7.55,43.26,12.36
			c5.8,1.97,10.22,10.94,11.18,16.66c1.33,8.04,2.06,16.3,2.78,24.26c1.06,11.8,2.14,24.01,5.19,35.39
			c15.19,56.97,51.96,90.94,119.19,110.12l1.82,0.52V1047.4z M730.97,1042.39h192.68V854.9c-67.99-19.81-105.27-54.76-120.86-113.14
			c-3.15-11.77-4.25-24.21-5.33-36.23c-0.71-7.89-1.43-16.03-2.73-23.87c-0.88-5.28-4.84-11.72-7.84-12.73
			c-14.03-4.77-28.71-8.58-42.92-12.27c-4.33-1.13-8.65-2.24-13-3.39V1042.39z M929.5,830.73l-3.64-1.87
			c-6.49-3.29-12.63-6.1-18.56-8.77c-12.09-5.51-22.56-10.25-31.54-17.35c-39.03-30.8-56.02-74.01-50.46-128.4
			c0.71-6.69,6.69-15.31,13.08-18.85c24.41-13.54,42.35-34.29,54.86-63.39c10.52-24.51,26.82-34.76,53.39-33.5
			c52.03,2.61,95.69,43.68,108.62,102.2c13.25,59.78-12.51,123.19-61.23,150.77c-7.5,4.25-15.83,7.28-23.89,10.18
			c-3.76,1.35-7.52,2.73-11.28,4.23l-2.68,1.08l-0.69-2.8c-7.64-30.95-0.64-52.97,22-69.34c8.38-6.05,14.97-12.78,19.07-19.49
			c1.77-2.97,1.7-7.45,1.6-12.19c-0.02-1.4-0.05-2.78-0.05-4.13c-1.52-0.07-3.12-0.2-4.69-0.32c-4.89-0.32-9.88-0.74-12.66,1.13
			c-4.67,3.27-8.09,8.55-11.7,14.13c-1.6,2.46-3.2,4.94-4.92,7.23l-1.35,1.82l-9.88-5.9v-1.43c0-3.51,0.15-7.03,0.29-10.57
			c0.39-8.33,0.74-16.17-0.88-23.67c-0.84-3.81-4.72-7.52-8.46-11.09c-1.16-1.11-2.31-2.21-3.39-3.32c-1.03,1.16-2.11,2.29-3.2,3.39
			c-3.42,3.56-6.93,7.23-7.08,10.37c-0.93,24.46-0.84,49.4-0.74,73.54c0.02,8.28,0.07,16.59,0.05,24.87V830.73z M942.2,563.51
			c-21.83,0-35.22,9.32-44.34,30.55c-12.98,30.18-31.63,51.71-57.02,65.85c-4.99,2.75-10,9.86-10.52,14.94
			c-5.38,52.58,10.96,94.29,48.54,123.95c8.53,6.69,18.73,11.33,30.53,16.69c4.87,2.21,9.86,4.5,15.09,7.05V799.3
			c0-8.28-0.05-16.57-0.07-24.87c-0.1-24.16-0.2-49.16,0.76-73.74c0.2-5.06,4.4-9.44,8.46-13.64c1.77-1.84,3.42-3.56,4.72-5.28
			l1.89-2.48l2.04,2.36c1.5,1.77,3.27,3.47,5.06,5.16c4.28,4.1,8.73,8.33,9.88,13.64c1.77,8.14,1.38,16.69,1.01,24.97
			c-0.12,2.97-0.27,5.97-0.29,8.92l3.49,2.09c1.16-1.67,2.29-3.39,3.39-5.11c3.71-5.75,7.57-11.7,13.05-15.53
			c4.2-2.9,10.18-2.41,15.93-2.02c2.36,0.2,4.72,0.37,6.86,0.32l2.8-0.1l-0.22,2.8c-0.15,2.02-0.1,4.18-0.05,6.32
			c0.1,5.26,0.2,10.69-2.34,14.92c-4.45,7.28-11.5,14.53-20.43,20.97c-20.38,14.72-26.82,33.7-20.72,61.25
			c2.9-1.13,5.8-2.19,8.7-3.22c8.23-2.97,16-5.78,23.13-9.83c46.85-26.52,71.58-87.63,58.79-145.31
			c-12.44-56.26-54.22-95.76-103.95-98.27C944.96,563.53,943.55,563.51,942.2,563.51z"/>
	</g>
</g>
</svg>
