<?xml version="1.0" encoding="UTF-8"?>
<svg width="163px" height="205px" viewBox="0 0 163 205" version="1.1" xmlns="http://www.w3.org/2000/svg" xmlns:xlink="http://www.w3.org/1999/xlink">
    <title>LoadingImage</title>
    <defs>
        <linearGradient x1="50%" y1="935.2%" x2="50%" y2="452.3%" id="linearGradient-1">
            <stop stop-color="#003B8B" offset="0%"></stop>
            <stop stop-color="#A3D7E5" offset="100%"></stop>
        </linearGradient>
        <linearGradient x1="50%" y1="792.3%" x2="50%" y2="309.3%" id="linearGradient-2">
            <stop stop-color="#003B8B" offset="0%"></stop>
            <stop stop-color="#A3D7E5" offset="100%"></stop>
        </linearGradient>
        <linearGradient x1="50%" y1="117.938216%" x2="50%" y2="24.9%" id="linearGradient-3">
            <stop stop-color="#003B8B" offset="0%"></stop>
            <stop stop-color="#A3D7E5" offset="100%"></stop>
        </linearGradient>
        <radialGradient cx="50%" cy="153.161571%" fx="50%" fy="153.161571%" r="66.5133672%" gradientTransform="translate(0.500000,1.531616),scale(1.000000,0.697026),rotate(-90.000000),translate(-0.500000,-1.531616)" id="radialGradient-4">
            <stop stop-color="#003B8B" offset="0%"></stop>
            <stop stop-color="#C4E4EC" offset="100%"></stop>
        </radialGradient>
        <linearGradient x1="50%" y1="-701%" x2="50%" y2="-163.6%" id="linearGradient-5">
            <stop stop-color="#003B8B" offset="0%"></stop>
            <stop stop-color="#A3D7E5" offset="100%"></stop>
        </linearGradient>
        <linearGradient x1="50%" y1="-844.3%" x2="50%" y2="-306.8%" id="linearGradient-6">
            <stop stop-color="#003B8B" offset="0%"></stop>
            <stop stop-color="#A3D7E5" offset="100%"></stop>
        </linearGradient>
        <linearGradient x1="50%" y1="-95.8%" x2="50%" y2="-39.2%" id="linearGradient-7">
            <stop stop-color="#003B8B" offset="0%"></stop>
            <stop stop-color="#A3D7E5" offset="100%"></stop>
        </linearGradient>
        <linearGradient x1="50%" y1="-33.9934789%" x2="50%" y2="47.1%" id="linearGradient-8">
            <stop stop-color="#003B8B" offset="0%"></stop>
            <stop stop-color="#A3D7E5" offset="100%"></stop>
        </linearGradient>
    </defs>
    <g id="Page-1" stroke="none" stroke-width="1" fill="none" fill-rule="evenodd">
        <g id="LoadingImage" fill-rule="nonzero">
            <g id="Grupo_242" transform="translate(0.514000, 0.000000)">
                <rect id="Rect치ngulo_145" fill="url(#linearGradient-1)" x="66.838" y="72.53" width="11.366" height="11.368"></rect>
                <rect id="Rect치ngulo_146" fill="url(#linearGradient-2)" x="66.838" y="88.796" width="11.366" height="11.367"></rect>
                <path d="M35.809,97.289 L22.638,107.205 C42.228,150.468 80.868,204.376 80.868,204.376 L80.868,204.376 L80.868,122.344 C62.5044826,122.430429 45.4253116,112.933577 35.809,97.289 Z" id="Trazado_385" fill="url(#linearGradient-3)"></path>
                <path d="M80.872,0 C42.5756996,0 11.5301045,31.0446996 11.529,69.341 C11.529,77.977 15.106,88.814 18.243,96.82 L0.003,116.02 C41.068,85.108 24.331,97.801 80.68,54.741 L80.872,54.88 L80.872,30.18 L80.68,29.987 L30.032,84.406 C25.2887613,68.3659588 28.3884893,51.0283217 38.3957096,37.6254571 C48.4029298,24.2225926 64.1453404,16.3245873 80.872,16.315 L80.872,0 Z" id="Trazado_386" fill="url(#radialGradient-4)" style="mix-blend-mode: lighten;"></path>
            </g>
            <g id="Grupo_243" transform="translate(81.384000, 0.000000)">
                <rect id="Rect치ngulo_147" fill="url(#linearGradient-5)" x="2.667" y="72.53" width="11.368" height="11.368"></rect>
                <rect id="Rect치ngulo_148" fill="url(#linearGradient-6)" x="2.667" y="88.796" width="11.368" height="11.367"></rect>
                <path d="M45.648,96.315 C36.1678505,112.516811 18.7703422,122.436847 -0.001,122.344 L-0.001,204.376 C0.035,204.327 39.321,149.504 58.738,106.076 L45.648,96.315 Z" id="Trazado_387" fill="url(#linearGradient-7)"></path>
                <path d="M63.071,95.677 C66.05,87.918 69.342,77.645 69.342,69.341 C69.3414477,31.0448614 38.2961386,2.27373675e-13 -1.13686838e-13,2.27373675e-13 L-1.13686838e-13,16.315 C16.505485,16.320591 32.0676733,24.0096581 42.1001877,37.1161343 C52.1327021,50.2226106 55.4919804,67.2525462 51.188,83.187 L31.981,63.005 L31.981,41.357 L20.764,41.357 L20.764,51.216 L-1.13686838e-13,30.184 L-1.13686838e-13,54.884 C57.219,96.605 40.337,84.16 80.87,114.384 L63.071,95.677 Z" id="Trazado_388" fill="url(#linearGradient-8)"></path>
            </g>
        </g>
    </g>
</svg>