<?xml version="1.0" encoding="UTF-8"?>
<svg id="Grupo_177" data-name="Grupo 177" xmlns="http://www.w3.org/2000/svg" width="26.844" height="42.684" viewBox="0 0 26.844 42.684">
  <g id="Grupo_176" data-name="Grupo 176">
    <path id="Trazado_236" data-name="Trazado 236" d="M266.255,80.806c-4.656-5.613-9.426-10.994-12.239-17.693a12.73,12.73,0,0,1,2.175-14.1,12.575,12.575,0,0,1,13.536-4.124c5.441,1.475,8.682,5.22,9.717,10.746a12.417,12.417,0,0,1-.8,7.153c-2.229,5.344-5.7,9.875-9.321,14.312C268.334,78.309,267.329,79.508,266.255,80.806Zm6.66-22.99a6.668,6.668,0,1,0-6.724,6.6A6.65,6.65,0,0,0,272.915,57.816Z" transform="translate(-252.81 -44.345)" fill="#3ab8ea"/>
    <path id="Trazado_237" data-name="Trazado 237" d="M270.3,78.209c.492-.158,1.061-.561,1.463-.434a24.9,24.9,0,0,1,5.084,1.94c2.3,1.337,2.239,3.367.032,4.853a15.217,15.217,0,0,1-7.112,2.248,25.461,25.461,0,0,1-11.963-1.174,10.215,10.215,0,0,1-2.835-1.666,2.241,2.241,0,0,1-.085-3.655,11.051,11.051,0,0,1,6.141-2.578c.354-.056.79.4,1.33.693a18.642,18.642,0,0,0-2.092,1.216c-.907.708-.884,1.478-.037,2.251,2.208,2.014,9.756,2.037,12.05.036a1.355,1.355,0,0,0-.074-2.353,14.436,14.436,0,0,0-1.775-.978Z" transform="translate(-252.81 -44.345)" fill="#3ab8ea"/>
  </g>
</svg>
