<?xml version="1.0" encoding="UTF-8"?>
<svg width="208px" height="214px" viewBox="0 0 208 214" version="1.1" xmlns="http://www.w3.org/2000/svg" xmlns:xlink="http://www.w3.org/1999/xlink">
    <title>LoadingImage</title>
    <defs>
        <linearGradient x1="50%" y1="935.2%" x2="50%" y2="452.3%" id="linearGradient-1">
            <stop stop-color="#A3D7E5" offset="0%"></stop>
            <stop stop-color="#003B8B" offset="100%"></stop>
        </linearGradient>
        <linearGradient x1="50%" y1="792.3%" x2="50%" y2="309.3%" id="linearGradient-2">
            <stop stop-color="#A3D7E5" offset="0%"></stop>
            <stop stop-color="#003B8B" offset="100%"></stop>
        </linearGradient>
        <linearGradient x1="50%" y1="76.2%" x2="50%" y2="24.9%" id="linearGradient-3">
            <stop stop-color="#A3D7E5" offset="0%"></stop>
            <stop stop-color="#003B8B" offset="100%"></stop>
        </linearGradient>
        <linearGradient x1="50%" y1="154.2%" x2="50%" y2="106.8%" id="linearGradient-4">
            <stop stop-color="#A3D7E5" offset="0%"></stop>
            <stop stop-color="#003B8B" offset="100%"></stop>
        </linearGradient>
        <linearGradient x1="50%" y1="-701%" x2="50%" y2="-163.6%" id="linearGradient-5">
            <stop stop-color="#A3D7E5" offset="0%"></stop>
            <stop stop-color="#003B8B" offset="100%"></stop>
        </linearGradient>
        <linearGradient x1="50%" y1="-844.3%" x2="50%" y2="-306.8%" id="linearGradient-6">
            <stop stop-color="#A3D7E5" offset="0%"></stop>
            <stop stop-color="#003B8B" offset="100%"></stop>
        </linearGradient>
        <linearGradient x1="50%" y1="-95.8%" x2="50%" y2="-39.2%" id="linearGradient-7">
            <stop stop-color="#A3D7E5" offset="0%"></stop>
            <stop stop-color="#003B8B" offset="100%"></stop>
        </linearGradient>
        <linearGradient x1="50%" y1="-6.3%" x2="50%" y2="47.1%" id="linearGradient-8">
            <stop stop-color="#A3D7E5" offset="0%"></stop>
            <stop stop-color="#003B8B" offset="100%"></stop>
        </linearGradient>
    </defs>
    <g id="Page-1" stroke="none" stroke-width="1" fill="none" fill-rule="evenodd">
        <g id="LoadingImage" fill-rule="nonzero">
            <g id="Grupo_242" transform="translate(22.514000, 0.000000)">
                <rect id="Rect치ngulo_145" fill="url(#linearGradient-1)" x="66.838" y="72.53" width="11.366" height="11.368"></rect>
                <rect id="Rect치ngulo_146" fill="url(#linearGradient-2)" x="66.838" y="88.796" width="11.366" height="11.367"></rect>
                <path d="M35.809,97.289 L22.638,107.205 C42.228,150.468 80.868,204.376 80.868,204.376 L80.868,204.376 L80.868,122.344 C62.5044826,122.430429 45.4253116,112.933577 35.809,97.289 Z" id="Trazado_385" fill="url(#linearGradient-3)"></path>
                <path d="M80.872,16.315 L80.872,16.315 L80.872,0 L80.872,0 C42.5756996,0 11.5301045,31.0446996 11.529,69.341 C11.529,77.977 15.106,88.814 18.243,96.82 L0.003,116.02 C41.068,85.108 24.331,97.801 80.68,54.741 L80.872,54.88 L80.872,30.18 L80.68,29.987 L30.032,84.406 C25.2887613,68.3659588 28.3884893,51.0283217 38.3957096,37.6254571 C48.4029298,24.2225926 64.1453404,16.3245873 80.872,16.315 L80.872,16.315 Z" id="Trazado_386" fill="url(#linearGradient-4)"></path>
            </g>
            <g id="Grupo_243" transform="translate(103.384000, 0.000000)">
                <rect id="Rect치ngulo_147" fill="url(#linearGradient-5)" x="2.667" y="72.53" width="11.368" height="11.368"></rect>
                <rect id="Rect치ngulo_148" fill="url(#linearGradient-6)" x="2.667" y="88.796" width="11.368" height="11.367"></rect>
                <path d="M45.648,96.315 C36.1678505,112.516811 18.7703422,122.436847 -0.001,122.344 L-0.001,204.376 C0.035,204.327 39.321,149.504 58.738,106.076 L45.648,96.315 Z" id="Trazado_387" fill="url(#linearGradient-7)"></path>
                <path d="M63.071,95.677 C66.05,87.918 69.342,77.645 69.342,69.341 C69.3414477,31.0448614 38.2961386,2.27373675e-13 -1.13686838e-13,2.27373675e-13 L-1.13686838e-13,16.315 C16.505485,16.320591 32.0676733,24.0096581 42.1001877,37.1161343 C52.1327021,50.2226106 55.4919804,67.2525462 51.188,83.187 L31.981,63.005 L31.981,41.357 L20.764,41.357 L20.764,51.216 L-1.13686838e-13,30.184 L-1.13686838e-13,54.884 C57.219,96.605 40.337,84.16 80.87,114.384 L63.071,95.677 Z" id="Trazado_388" fill="url(#linearGradient-8)"></path>
            </g>
            <g id="Grupo_244" opacity="0.4" transform="translate(0.000000, 201.220000)">
                <path d="M103.749,0 C46.449,0 -1.13686838e-13,2.56 -1.13686838e-13,5.719 C-1.13686838e-13,8.878 46.452,11.442 103.749,11.442 C161.046,11.442 207.501,8.879 207.501,5.722 C207.501,2.565 161.046,0 103.749,0 Z" id="Trazado_389" fill="#BABABA" opacity="0" style="mix-blend-mode: multiply;"></path>
                <path d="M103.749,0.067 C47.649,0.067 2.171,2.573 2.171,5.667 C2.171,8.761 47.651,11.267 103.749,11.267 C159.847,11.267 205.327,8.757 205.327,5.667 C205.327,2.577 159.847,0.067 103.749,0.067 Z" id="Trazado_390" fill="#B6B6B6" opacity="0.024" style="mix-blend-mode: multiply;"></path>
                <path d="M103.749,0.133 C48.849,0.133 4.344,2.586 4.344,5.612 C4.344,8.638 48.851,11.095 103.749,11.095 C158.647,11.095 203.156,8.639 203.156,5.612 C203.156,2.585 158.646,0.133 103.749,0.133 Z" id="Trazado_391" fill="#B2B2B2" opacity="0.049" style="mix-blend-mode: multiply;"></path>
                <path d="M103.749,0.2 C50.049,0.2 6.516,2.6 6.516,5.559 C6.516,8.518 50.051,10.922 103.749,10.922 C157.447,10.922 200.983,8.522 200.983,5.559 C200.983,2.596 157.442,0.2 103.749,0.2 Z" id="Trazado_392" fill="#AEAEAE" opacity="0.073" style="mix-blend-mode: multiply;"></path>
                <path d="M103.749,0.266 C51.249,0.266 8.688,2.612 8.688,5.505 C8.688,8.398 51.25,10.75 103.749,10.75 C156.248,10.75 198.811,8.401 198.811,5.505 C198.811,2.609 156.247,0.266 103.749,0.266 Z" id="Trazado_393" fill="#ABAAAA" opacity="0.098" style="mix-blend-mode: multiply;"></path>
                <path d="M103.749,0.332 C52.449,0.332 10.86,2.625 10.86,5.452 C10.86,8.279 52.45,10.577 103.749,10.577 C155.048,10.577 196.64,8.282 196.64,5.452 C196.64,2.622 155.048,0.332 103.749,0.332 Z" id="Trazado_394" fill="#A7A6A6" opacity="0.122" style="mix-blend-mode: multiply;"></path>
                <path d="M103.749,0.396 C53.649,0.396 13.032,2.635 13.032,5.396 C13.032,8.157 53.65,10.396 103.749,10.396 C153.848,10.396 194.467,8.155 194.467,5.396 C194.467,2.637 153.848,0.396 103.749,0.396 Z" id="Trazado_395" fill="#A3A2A2" opacity="0.146" style="mix-blend-mode: multiply;"></path>
                <path d="M103.749,0.465 C54.849,0.465 15.204,2.651 15.204,5.346 C15.204,8.041 54.848,10.231 103.749,10.231 C152.65,10.231 192.295,8.044 192.295,5.346 C192.295,2.648 152.648,0.465 103.749,0.465 Z" id="Trazado_396" fill="#9F9E9E" opacity="0.171" style="mix-blend-mode: multiply;"></path>
                <path d="M103.749,0.532 C56.049,0.532 17.376,2.663 17.376,5.293 C17.376,7.923 56.048,10.058 103.749,10.058 C151.45,10.058 190.123,7.924 190.123,5.293 C190.123,2.662 151.449,0.532 103.749,0.532 Z" id="Trazado_397" fill="#9B9A9A" opacity="0.195" style="mix-blend-mode: multiply;"></path>
                <path d="M103.749,0.598 C57.249,0.598 19.549,2.676 19.549,5.239 C19.549,7.802 57.249,9.884 103.749,9.884 C150.249,9.884 187.949,7.804 187.949,5.239 C187.949,2.674 150.249,0.598 103.749,0.598 Z" id="Trazado_398" fill="#969696" opacity="0.22" style="mix-blend-mode: multiply;"></path>
                <path d="M103.749,0.665 C58.449,0.665 21.72,2.689 21.72,5.186 C21.72,7.683 58.447,9.711 103.749,9.711 C149.051,9.711 185.779,7.685 185.779,5.186 C185.779,2.687 149.05,0.665 103.749,0.665 Z" id="Trazado_399" fill="#929292" opacity="0.244" style="mix-blend-mode: multiply;"></path>
                <path d="M103.751,0.731 C59.651,0.731 23.894,2.702 23.894,5.131 C23.894,7.56 59.649,9.536 103.751,9.536 C147.853,9.536 183.609,7.564 183.609,5.131 C183.609,2.698 147.851,0.731 103.751,0.731 Z" id="Trazado_400" fill="#8E8E8E" opacity="0.268" style="mix-blend-mode: multiply;"></path>
                <path d="M103.75,0.798 C60.85,0.798 26.065,2.715 26.065,5.08 C26.065,7.445 60.848,9.366 103.75,9.366 C146.652,9.366 181.436,7.447 181.436,5.08 C181.436,2.713 146.651,0.798 103.75,0.798 Z" id="Trazado_401" fill="#8A8A8A" opacity="0.293" style="mix-blend-mode: multiply;"></path>
                <path d="M103.749,0.864 C62.049,0.864 28.236,2.728 28.236,5.027 C28.236,7.326 62.046,9.193 103.749,9.193 C145.452,9.193 179.263,7.328 179.263,5.027 C179.263,2.726 145.451,0.864 103.749,0.864 Z" id="Trazado_402" fill="#868686" opacity="0.317" style="mix-blend-mode: multiply;"></path>
                <path d="M103.749,0.928 C63.249,0.928 30.408,2.738 30.408,4.971 C30.408,7.204 63.246,9.017 103.749,9.017 C144.252,9.017 177.091,7.205 177.091,4.971 C177.091,2.737 144.251,0.928 103.749,0.928 Z" id="Trazado_403" fill="#838282" opacity="0.341" style="mix-blend-mode: multiply;"></path>
                <path d="M103.75,0.997 C64.45,0.997 32.581,2.754 32.581,4.92 C32.581,7.086 64.446,8.846 103.75,8.846 C143.054,8.846 174.919,7.088 174.919,4.92 C174.919,2.752 143.052,0.997 103.75,0.997 Z" id="Trazado_404" fill="#7F7E7E" opacity="0.366" style="mix-blend-mode: multiply;"></path>
                <path d="M103.749,1.064 C65.649,1.064 34.749,2.764 34.749,4.864 C34.749,6.964 65.642,8.67 103.749,8.67 C141.856,8.67 172.749,6.97 172.749,4.864 C172.749,2.758 141.852,1.064 103.749,1.064 Z" id="Trazado_405" fill="#7B7A7A" opacity="0.39" style="mix-blend-mode: multiply;"></path>
                <path d="M103.749,1.13 C66.849,1.13 36.924,2.78 36.924,4.814 C36.924,6.848 66.845,8.5 103.749,8.5 C140.653,8.5 170.574,6.849 170.574,4.814 C170.574,2.779 140.653,1.13 103.749,1.13 Z" id="Trazado_406" fill="#777776" opacity="0.415" style="mix-blend-mode: multiply;"></path>
                <path d="M103.747,1.197 C68.047,1.197 39.094,2.797 39.094,4.761 C39.094,6.725 68.042,8.327 103.747,8.327 C139.452,8.327 168.4,6.727 168.4,4.761 C168.4,2.795 139.453,1.197 103.747,1.197 Z" id="Trazado_407" fill="#737372" opacity="0.439" style="mix-blend-mode: multiply;"></path>
                <path d="M103.749,1.263 C69.244,1.263 41.268,2.805 41.268,4.708 C41.268,6.611 69.244,8.155 103.749,8.155 C138.254,8.155 166.23,6.612 166.23,4.708 C166.23,2.804 138.254,1.263 103.749,1.263 Z" id="Trazado_408" fill="#6F6E6E" opacity="0.463" style="mix-blend-mode: multiply;"></path>
                <path d="M103.75,1.329 C70.444,1.329 43.441,2.818 43.441,4.653 C43.441,6.488 70.441,7.981 103.75,7.981 C137.059,7.981 164.059,6.492 164.059,4.653 C164.059,2.814 137.054,1.329 103.75,1.329 Z" id="Trazado_409" fill="#6B6A6A" opacity="0.488" style="mix-blend-mode: multiply;"></path>
                <path d="M103.749,1.396 C71.643,1.396 45.612,2.831 45.612,4.596 C45.612,6.361 71.643,7.804 103.749,7.804 C135.855,7.804 161.887,6.369 161.887,4.596 C161.887,2.823 135.854,1.396 103.749,1.396 Z" id="Trazado_410" fill="#676666" opacity="0.512" style="mix-blend-mode: multiply;"></path>
                <path d="M103.749,1.46 C72.842,1.46 47.784,2.842 47.784,4.545 C47.784,6.248 72.843,7.632 103.749,7.632 C134.655,7.632 159.714,6.251 159.714,4.545 C159.714,2.839 134.654,1.46 103.749,1.46 Z" id="Trazado_411" fill="#626262" opacity="0.537" style="mix-blend-mode: multiply;"></path>
                <path d="M103.75,1.529 C74.043,1.529 49.957,2.857 49.957,4.494 C49.957,6.131 74.043,7.462 103.75,7.462 C133.457,7.462 157.543,6.134 157.543,4.494 C157.543,2.854 133.455,1.529 103.75,1.529 Z" id="Trazado_412" fill="#5E5E5D" opacity="0.561" style="mix-blend-mode: multiply;"></path>
                <path d="M103.749,1.595 C75.241,1.595 52.128,2.87 52.128,4.441 C52.128,6.012 75.241,7.289 103.749,7.289 C132.257,7.289 155.37,6.015 155.37,4.441 C155.37,2.867 132.255,1.595 103.749,1.595 Z" id="Trazado_413" fill="#5A5A59" opacity="0.585" style="mix-blend-mode: multiply;"></path>
                <path d="M103.749,1.662 C76.441,1.662 54.3,2.883 54.3,4.388 C54.3,5.893 76.441,7.116 103.749,7.116 C131.057,7.116 153.198,5.896 153.198,4.388 C153.198,2.88 131.055,1.662 103.749,1.662 Z" id="Trazado_414" fill="#565655" opacity="0.61" style="mix-blend-mode: multiply;"></path>
                <path d="M103.75,1.728 C77.642,1.728 56.473,2.896 56.473,4.334 C56.473,5.772 77.642,6.942 103.75,6.942 C129.858,6.942 151.027,5.775 151.027,4.334 C151.027,2.893 129.856,1.728 103.75,1.728 Z" id="Trazado_415" fill="#525251" opacity="0.634" style="mix-blend-mode: multiply;"></path>
                <path d="M103.749,1.795 C78.84,1.795 58.649,2.909 58.649,4.281 C58.649,5.653 78.849,6.77 103.749,6.77 C128.649,6.77 148.849,5.656 148.849,4.281 C148.849,2.906 128.656,1.795 103.749,1.795 Z" id="Trazado_416" fill="#4E4E4D" opacity="0.659" style="mix-blend-mode: multiply;"></path>
                <path d="M103.749,1.861 C80.04,1.861 60.817,2.922 60.817,4.228 C60.817,5.534 80.04,6.597 103.749,6.597 C127.458,6.597 146.683,5.534 146.683,4.228 C146.683,2.922 127.457,1.861 103.749,1.861 Z" id="Trazado_417" fill="#4B4A4A" opacity="0.683" style="mix-blend-mode: multiply;"></path>
                <path d="M103.75,1.928 C81.241,1.928 62.989,2.935 62.989,4.175 C62.989,5.415 81.241,6.423 103.75,6.423 C126.259,6.423 144.511,5.417 144.511,4.175 C144.511,2.933 126.258,1.928 103.75,1.928 Z" id="Trazado_418" fill="#474646" opacity="0.707" style="mix-blend-mode: multiply;"></path>
                <path d="M103.749,1.992 C82.439,1.992 65.16,2.946 65.16,4.12 C65.16,5.294 82.439,6.249 103.749,6.249 C125.059,6.249 142.338,5.297 142.338,4.12 C142.338,2.943 125.057,1.992 103.749,1.992 Z" id="Trazado_419" fill="#434242" opacity="0.732" style="mix-blend-mode: multiply;"></path>
                <path d="M103.749,2.061 C83.639,2.061 67.333,2.961 67.333,4.069 C67.333,5.177 83.639,6.078 103.749,6.078 C123.859,6.078 140.165,5.178 140.165,4.069 C140.165,2.96 123.858,2.061 103.749,2.061 Z" id="Trazado_420" fill="#3F3E3E" opacity="0.756" style="mix-blend-mode: multiply;"></path>
                <path d="M103.75,2.127 C84.84,2.127 69.505,2.974 69.505,4.015 C69.505,5.056 84.839,5.904 103.75,5.904 C122.661,5.904 137.995,5.059 137.995,4.015 C137.995,2.971 122.659,2.127 103.75,2.127 Z" id="Trazado_421" fill="#3B3A3A" opacity="0.78" style="mix-blend-mode: multiply;"></path>
                <path d="M103.751,2.194 C86.04,2.194 71.678,2.987 71.678,3.962 C71.678,4.937 86.038,5.729 103.751,5.729 C121.464,5.729 135.823,4.938 135.823,3.96 C135.823,2.982 121.459,2.194 103.751,2.194 Z" id="Trazado_422" fill="#373635" opacity="0.805" style="mix-blend-mode: multiply;"></path>
                <path d="M103.749,2.26 C87.238,2.26 73.849,2.999 73.849,3.909 C73.849,4.819 87.238,5.558 103.749,5.558 C120.26,5.558 133.649,4.821 133.649,3.909 C133.649,2.997 120.259,2.26 103.749,2.26 Z" id="Trazado_423" fill="#323231" opacity="0.829" style="mix-blend-mode: multiply;"></path>
                <path d="M103.749,2.326 C88.437,2.326 76.02,3.012 76.02,3.856 C76.02,4.7 88.437,5.386 103.749,5.386 C119.061,5.386 131.477,4.702 131.477,3.856 C131.477,3.01 119.06,2.326 103.749,2.326 Z" id="Trazado_424" fill="#2E2E2D" opacity="0.854" style="mix-blend-mode: multiply;"></path>
                <path d="M103.749,2.393 C89.637,2.393 78.193,3.025 78.193,3.802 C78.193,4.579 89.637,5.212 103.749,5.212 C117.861,5.212 129.305,4.582 129.305,3.802 C129.305,3.022 117.86,2.393 103.749,2.393 Z" id="Trazado_425" fill="#2B2A2A" opacity="0.878" style="mix-blend-mode: multiply;"></path>
                <path d="M103.75,2.459 C90.837,2.459 80.365,3.038 80.365,3.749 C80.365,4.46 90.837,5.039 103.75,5.039 C116.663,5.039 127.134,4.463 127.134,3.749 C127.134,3.035 116.661,2.459 103.75,2.459 Z" id="Trazado_426" fill="#272626" opacity="0.902" style="mix-blend-mode: multiply;"></path>
                <path d="M103.749,2.524 C92.036,2.524 82.536,3.049 82.536,3.694 C82.536,4.339 92.036,4.864 103.749,4.864 C115.462,4.864 124.961,4.342 124.961,3.694 C124.961,3.046 115.461,2.524 103.749,2.524 Z" id="Trazado_427" fill="#222221" opacity="0.927" style="mix-blend-mode: multiply;"></path>
                <path d="M103.749,2.592 C93.235,2.592 84.709,3.064 84.709,3.642 C84.709,4.22 93.236,4.693 103.749,4.693 C114.262,4.693 122.789,4.224 122.789,3.642 C122.789,3.06 114.261,2.592 103.749,2.592 Z" id="Trazado_428" fill="#1E1E1D" opacity="0.951" style="mix-blend-mode: multiply;"></path>
                <path d="M103.747,2.659 C94.433,2.659 86.878,3.077 86.878,3.589 C86.878,4.101 94.433,4.52 103.747,4.52 C113.061,4.52 120.615,4.104 120.615,3.589 C120.615,3.074 113.062,2.659 103.747,2.659 Z" id="Trazado_429" fill="#1A1A19" opacity="0.976" style="mix-blend-mode: multiply;"></path>
                <path d="M103.749,2.725 C95.635,2.725 89.049,3.09 89.049,3.536 C89.049,3.982 95.632,4.347 103.749,4.347 C111.866,4.347 118.449,3.985 118.449,3.536 C118.449,3.087 111.86,2.725 103.749,2.725 Z" id="Trazado_430" fill="#161615" style="mix-blend-mode: multiply;"></path>
            </g>
        </g>
    </g>
</svg>