<?xml version="1.0" encoding="utf-8"?>
<!-- Generator: Adobe Illustrator 25.1.0, SVG Export Plug-In . SVG Version: 6.00 Build 0)  -->
<svg version="1.1" id="Capa_1" xmlns="http://www.w3.org/2000/svg" xmlns:xlink="http://www.w3.org/1999/xlink" x="0px" y="0px"
	 viewBox="0 0 1200 1200" style="enable-background:new 0 0 1200 1200;" xml:space="preserve">

<g>
	<g>
		<g>
			<g>
				<path class="st0" d="M196.67,1113L196.67,1113c-41.2-0.02-74.73-33.55-74.73-74.73V723.41c0-19.88,7.8-38.65,21.95-52.8
					c14.17-14.15,32.92-21.93,52.77-21.93h314.87c19.86,0,38.6,7.78,52.77,21.93c14.15,14.15,21.95,32.92,21.95,52.8v314.87
					c0,19.88-7.8,38.62-21.95,52.77c-14.15,14.15-32.87,21.93-52.75,21.93L196.67,1113z M196.67,669.61
					c-14.26,0-27.75,5.62-37.97,15.81c-10.19,10.19-15.81,23.68-15.81,37.99v314.87c0,29.66,24.11,53.77,53.77,53.77h314.87
					c14.31,0,27.8-5.62,37.97-15.81c10.19-10.19,15.81-23.68,15.81-37.97l0.02-314.87c0-14.29-5.62-27.77-15.83-37.99
					c-10.19-10.19-23.68-15.81-37.94-15.81H196.67z"/>
			</g>
		</g>
		<g>
			<g>
				<path class="st0" d="M1002.77,1113l-314.87-0.02c-19.86,0-38.6-7.78-52.77-21.93c-14.15-14.15-21.95-32.89-21.95-52.77V723.41
					c0-41.2,33.53-74.73,74.73-74.73l314.87-0.02c41.2,0.02,74.7,33.55,74.7,74.75v314.87
					C1077.47,1079.45,1043.96,1112.98,1002.77,1113z M687.9,669.61c-29.64,0-53.77,24.13-53.8,53.8l0.02,314.87
					c0,14.29,5.62,27.77,15.81,37.97c10.17,10.19,23.66,15.81,37.97,15.81h314.87c29.64,0,53.75-24.14,53.77-53.77l-0.02-314.87
					c0-29.66-24.11-53.8-53.75-53.8H687.9z"/>
			</g>
		</g>
		<g>
			<g>
				<path class="st0" d="M764.19,621.79H449.35c-41.2,0-74.73-33.53-74.73-74.75V232.22c0-19.88,7.8-38.65,21.95-52.8
					c14.13-14.15,32.87-21.95,52.77-21.95h314.85c41.2,0,74.73,33.53,74.75,74.75l-0.02,314.82
					C838.92,588.26,805.39,621.79,764.19,621.79z M449.35,178.4c-14.29,0-27.77,5.62-37.97,15.83
					c-10.19,10.17-15.81,23.66-15.81,37.99l-0.02,314.82c0.02,29.66,24.16,53.8,53.8,53.8h314.85c29.66,0,53.8-24.13,53.8-53.8
					V232.22c0-29.66-24.13-53.8-53.8-53.8L449.35,178.4z"/>
			</g>
		</g>
		<g>
			<g>
				<path class="st0" d="M354.1,1036.96c-86.08,0-156.12-70.04-156.12-156.12c0-86.1,70.04-156.14,156.12-156.14
					c86.1,0,156.14,70.04,156.14,156.14C510.22,966.92,440.18,1036.96,354.1,1036.96z M354.1,745.65
					c-74.52,0-135.16,60.64-135.16,135.19s60.64,135.19,135.16,135.19c74.54,0,135.19-60.64,135.19-135.19
					S428.65,745.65,354.1,745.65z"/>
			</g>
		</g>
		<g>
			<g>
				<path class="st0" d="M845.35,1036.96c-41.74,0-80.96-16.24-110.44-45.72c-29.48-29.5-45.72-68.72-45.72-110.39
					c0-41.67,16.24-80.89,45.72-110.39c29.5-29.5,68.72-45.74,110.42-45.74c86.08,0,156.12,70.04,156.12,156.14
					C1001.45,966.92,931.43,1036.96,845.35,1036.96z M845.33,745.65c-36.1,0-70.06,14.06-95.61,39.58
					c-25.52,25.57-39.58,59.53-39.58,95.61c0,36.12,14.06,70.06,39.58,95.58c25.55,25.55,59.48,39.6,95.61,39.6
					c74.52,0,135.16-60.64,135.19-135.19C980.5,806.3,919.85,745.65,845.33,745.65z"/>
			</g>
		</g>
		<g>
			<g>
				<path class="st0" d="M606.78,545.77c-86.1,0-156.14-70.06-156.14-156.16c0-86.08,70.04-156.09,156.14-156.09
					c86.08,0,156.12,70.02,156.12,156.09C762.9,475.71,692.86,545.77,606.78,545.77z M606.78,254.45
					c-74.54,0-135.19,60.64-135.21,135.16c0.02,74.57,60.67,135.21,135.21,135.21s135.19-60.64,135.19-135.21
					C741.95,315.09,681.3,254.45,606.78,254.45z"/>
			</g>
		</g>
		<g>
			<g>
				<g>
					<path class="st0" d="M582.06,305.59h51.35v180.25h-34.07V337.81h-37.13L582.06,305.59z"/>
				</g>
			</g>
		</g>
		<g>
			<g>
				<g>
					<path class="st0" d="M331.97,841.26h-33.45c0.9-19.44,7-34.75,18.32-45.89c11.31-11.15,25.83-16.72,43.56-16.72
						c10.95,0,20.6,2.31,28.98,6.92c8.37,4.61,15.08,11.27,20.1,19.97c5.03,8.71,7.53,17.55,7.53,26.54
						c0,10.69-3.04,22.22-9.13,34.55c-6.09,12.34-17.23,26.92-33.41,43.75l-20.22,21.33h64.24v31.73H293.62v-16.43l55.75-56.86
						c13.48-13.63,22.45-24.6,26.9-32.9c4.45-8.3,6.67-15.79,6.67-22.49c0-6.93-2.31-12.67-6.92-17.21
						c-4.62-4.54-10.57-6.81-17.84-6.81c-7.35,0-13.48,2.74-18.38,8.22C334.91,824.43,332.3,831.88,331.97,841.26z"/>
				</g>
			</g>
		</g>
		<g>
			<g>
				<g>
					<path class="st0" d="M829.15,827.66h-32.96c1.72-13.33,6.49-24.02,14.33-32.11c10.95-11.27,24.72-16.9,41.3-16.9
						c14.79,0,27.18,4.7,37.19,14.09c10,9.4,15.01,20.55,15.01,33.46c0,8.01-2.19,15.32-6.55,21.93
						c-4.38,6.63-10.73,11.96-19.06,16.05c10.95,3.27,19.51,8.97,25.68,17.1c6.16,8.13,9.25,17.7,9.25,28.74
						c0,16.18-5.96,29.88-17.89,41.1c-11.93,11.24-27.12,16.87-45.58,16.87c-17.48,0-31.74-5.3-42.77-15.88
						c-11.03-10.57-17.07-24.96-18.14-43.19h33.95c1.47,9.31,4.72,16.23,9.74,20.77c5.03,4.54,11.37,6.81,19.05,6.81
						c8.01,0,14.65-2.58,19.92-7.72c5.27-5.16,7.91-11.44,7.91-18.88c0-8.17-3.56-15.07-10.67-20.71
						c-7.11-5.63-17.36-8.53-30.75-8.7v-29.41c8.25-0.65,14.4-1.94,18.44-3.87c4.04-1.91,7.18-4.54,9.43-7.9
						c2.24-3.34,3.37-6.9,3.37-10.66c0-4.9-1.72-8.97-5.15-12.2c-3.43-3.23-7.92-4.83-13.48-4.83c-4.9,0-9.35,1.49-13.35,4.47
						C833.36,819.06,830.62,822.93,829.15,827.66z"/>
				</g>
			</g>
		</g>
	</g>
</g>
</svg>
