<svg id="Capa_1" data-name="Capa 1" xmlns="http://www.w3.org/2000/svg" viewBox="0 0 178.96 233.13"><path class="cls-1" d="M74.08,11.23H46.63V112.52H74.08Zm-8.26,93H54.89V19.48H65.82Z" transform="translate(-46.63 -11.23)"/><path class="cls-1" d="M225.59,119.46h-179v27.08H65.82v97.82h74.42v-4.13c0-10.7,2.58-18.56,7.68-23.35a19.76,19.76,0,0,1,13.51-5.13l.52,0,.51-.09c22.32-4,38.36-13.17,47.67-27.39,9.42-14.37,9.33-29.92,8.49-37.76h7Zm-8.25,18.83h-8.79l1.23,5.09c0,.19,4.5,19.52-6.55,36.4-8,12.15-22,20.13-41.78,23.71a27.65,27.65,0,0,0-19.06,7.25c-6.16,5.73-9.61,14.24-10.29,25.37h-58V138.29H54.89V127.71H217.34Z" transform="translate(-46.63 -11.23)"/></svg>