<?xml version="1.0" encoding="utf-8"?>
<!-- Generator: Adobe Illustrator 25.1.0, SVG Export Plug-In . SVG Version: 6.00 Build 0)  -->
<svg version="1.1" id="Layer_1" xmlns="http://www.w3.org/2000/svg" xmlns:xlink="http://www.w3.org/1999/xlink" x="0px" y="0px"
	 viewBox="0 0 800 800" style="enable-background:new 0 0 800 800;" xml:space="preserve">
<path class="st0" d="M559.6,581.6c-7.1,0-14.2-2.7-19.6-8.1c-10.8-10.8-10.8-28.4,0-39.2c75.7-75.7,75.7-198.8,0-274.5
	c-10.8-10.8-10.8-28.4,0-39.2c10.8-10.8,28.4-10.8,39.2,0c47.2,47.2,73.1,109.8,73.1,176.5c0,66.7-27.9,131.2-75.1,178.3
	C571.8,580.7,566.7,581.6,559.6,581.6z M480.7,521.2c-0.9,0.9-1.8,1.7-2.7,2.4c-5,3.8-10.9,5.7-16.9,5.7c-7.1,0-14.2-2.7-19.6-8.1
	c-10.8-10.8-10.8-28.4,0-39.2 M464.5,449.8c21.9-44.8,14.2-100.6-23-137.8c-10.8-10.8-10.8-28.4,0-39.2c10.8-10.8,28.4-10.8,39.2,0
	c59.5,59.5,67.3,151.4,23.4,219.3 M402.8,440.5v195.6c0,21-12.2,26-27,11.2L236.4,507.9h-92.4V286.1h92.4l14.1-14.1 M278.2,244.2
	l97.6-97.6c14.8-14.8,27-9.8,27,11.2v223"/>
<g>
	<path class="st1" d="M632.7,676.9c-3.7,0-7.5-1.5-10.2-4.5L138.1,140c-5.1-5.6-4.7-14.3,0.9-19.4c5.6-5.1,14.3-4.7,19.4,0.9
		l484.4,532.4c5.1,5.6,4.7,14.3-0.9,19.4C639.3,675.7,636,676.9,632.7,676.9z"/>
</g>
</svg>
