<svg xmlns="http://www.w3.org/2000/svg" viewBox="0 0 923.26 924.08"><defs></defs><g id="Capa_2" data-name="Capa 2"><g id="Capa_1-2" data-name="Capa 1"><path class="cls-1" d="M595.86,403.73c-12.06-62.49-69.15-109.3-132.81-109.64-4.77.23-9.56.21-14.3.73-58.77,6.43-104.2,43.88-119.67,101C315.62,445.49,327.67,490,363,527.14c29.72,31.26,60.9,61.14,91.43,91.63,6,6,8.15,6,14.26-.13q43.74-43.6,87.45-87.25C591.66,495.81,605.42,453.25,595.86,403.73Zm-54.64,81.84c-.14,5.9-2.67,8.34-8.52,8.35q-35.79,0-71.6,0-35.06,0-70.12,0c-7,0-9-1.85-8.91-8.71.06-8.54-1.18-17.25.87-25.6,4.42-18,17.79-27.73,37.44-27.9,4.5,0,8.92,0,11.84-4.42,1.7-2.57,2-4.55-.61-6.83-5.53-4.88-8.88-11.05-9.15-18.52-.42-11.51-.93-23.06.24-34.54a28.51,28.51,0,0,1,27-26.07,230.89,230.89,0,0,1,24.68,0c12.14.62,23.93,11.69,25.42,23.92,1.55,12.61,1.22,25.3.26,38-.49,6.51-3.53,11.89-8.21,16.4-3.74,3.61-3.57,6.19.43,9.6,3,2.58,6.65,2.53,10.29,2.48,12.76-.17,23.47,4.05,31.44,14.42,4.92,6.41,6.81,13.8,7.12,21.66C541.4,473.7,541.36,479.64,541.22,485.57Z"/><path class="cls-1" d="M462.47,664.7a90.58,90.58,0,0,0-34.71,6.45C376.7,691.32,350,753.8,380.19,807c21.25,37.49,45.59,73.24,68.72,109.66,6.55,10.32,19.47,9.67,26-.73q30.94-49.39,62.12-98.64c13-20.49,19.83-42.29,17.53-66.93C550.08,702.68,510.22,665.29,462.47,664.7Zm.65,140A44,44,0,0,1,418,760.53c.34-23.27,19.95-42.86,43.46-42.9,24.14,0,43.6,19.73,43.56,44.26C505,784.66,485.35,804.18,463.12,804.68Z"/><path class="cls-1" d="M185.63,414.55c-6.17-37.36-26.16-64.3-62-77C58.59,314.46-1.73,367.88.11,427.86c-.57,9.32,1.18,19.3,4.12,29.18,4,13.49,11.87,24.89,19.22,36.58,19,30.1,37.8,60.25,56.88,90.27,7,11,19,10.8,25.91-.08,21.66-34.22,43.43-68.37,64.86-102.74C183.8,460.72,189.6,438.62,185.63,414.55ZM93.32,472.23c-24.51,0-43.38-19.13-43.45-44.12-.07-23.79,19.46-43,43.6-43,24,.05,43.63,20.14,43.53,44.48C136.89,452.79,117,472.2,93.32,472.23Z"/><path class="cls-1" d="M380.22,142.72q33.93,54.22,68.09,108.3c7.29,11.53,19.7,11.11,26.95-.48C495,219,514.48,187.29,534.81,156.13c16.88-25.88,24.93-53.08,17.31-83.84C541.32,28.69,500.85-5.3,450.19.69c-47.94,5.66-83.8,48.44-82.3,96.76C368.37,113.24,373.11,131.35,380.22,142.72Zm82.13-89.84c24.25.57,43.1,20.55,42.63,45.19-.43,22.69-20.74,42.26-43.34,41.77-25.77-.57-44.13-20-43.57-46.1C418.54,71.34,439.14,52.35,462.35,52.88Z"/><path class="cls-1" d="M918.74,398.69c-19.6-61.84-91.68-87-143.67-48.32-39.07,29.09-52.25,83.08-23.5,129.84,21.31,34.63,43.22,68.89,64.92,103.28,7.22,11.43,19.38,11.32,26.55,0q31.35-49.7,62.75-99.36c10.67-16.88,17.49-35,17.41-58.4C923.61,418.51,921.84,408.48,918.74,398.69Zm-89.46,73.55c-24.68-.24-43.1-19.6-42.92-45.14.16-23.24,20.16-42.27,44.1-42,23.76.29,43.1,20.29,43,44.49C873.41,453,853.17,472.46,829.28,472.24Z"/><path class="cls-1" d="M336.62,794.66c-50.95-18.86-95.55-47.6-133.29-86.83A350.92,350.92,0,0,1,131.66,599.2c-4.26,6.07-8.57,11-14.11,14.64-7.56,4.93-7.73,4.91-3.78,13.3A373,373,0,0,0,207.66,751a379.15,379.15,0,0,0,124.71,72.53c9,3.15,18.21,5.74,28.67,9C355,822.81,349.6,814.37,347,804.84,345.31,799,342,796.64,336.62,794.66Z"/><path class="cls-1" d="M807.31,614.48c-8.32-5.5-14-13.26-19.15-22.44-.8,1.53-1.15,2.09-1.39,2.68Q749.29,686.61,669.86,746a338.27,338.27,0,0,1-84.06,46.3c-2.37.89-5.41,1.12-6.32,4.15-3.36,11.2-8.3,21.71-14.46,32.68a316,316,0,0,0,35.3-12q105.1-43.09,170.79-135.88a376.28,376.28,0,0,0,35.82-62.48C807.53,617.49,809.34,615.82,807.31,614.48Z"/><path class="cls-1" d="M116.49,305.11c1.93.4,3.82,1,5.75,1.38a95.23,95.23,0,0,1,14.56,4.41c2,0,2.25-1.79,2.85-3a352.47,352.47,0,0,1,52.9-79.47,356.2,356.2,0,0,1,107.57-83.05,338.06,338.06,0,0,1,39-16.6c1.94-.68,4.32-1.06,3.43-4.24a97.91,97.91,0,0,1-3-21.48c-.14-3-1-3.93-4.19-2.76-11,4-21.93,8-32.57,12.85C217.31,151.94,154.47,214,113.28,298.2,110.51,303.87,110.59,303.89,116.49,305.11Z"/><path class="cls-1" d="M585.65,131.71c57.15,22.68,105.6,57.43,145,104.73a351.28,351.28,0,0,1,47.18,73.9c1.32,2.76,2.43,3.27,5.13,1.79A57.78,57.78,0,0,1,802.08,306c3.89-.6,4-1.68,2.45-5a371.89,371.89,0,0,0-45.81-74.79c-31.1-39.32-68.05-71.87-111.72-96.63a368.45,368.45,0,0,0-58.13-27c-1.52-.54-4.42-3.12-4.51,1.25-.17,8-2.24,15.61-3.31,23.46C580.34,131.06,583.65,130.91,585.65,131.71Z"/><path class="cls-1" d="M461.48,747a14.07,14.07,0,0,0-14.07,14.11c0,7.53,6.58,14.27,14.07,14.32s14.33-6.67,14.43-14.05A14.43,14.43,0,0,0,461.48,747Z"/><path class="cls-1" d="M93,414.59A14.18,14.18,0,0,0,93.53,443,14.18,14.18,0,1,0,93,414.59Z"/><path class="cls-1" d="M461.45,110.65a14.44,14.44,0,0,0,14.4-13.93,14.29,14.29,0,0,0-14.33-14.44,14.19,14.19,0,0,0-.07,28.37Z"/><path class="cls-1" d="M830.15,414.59A14.18,14.18,0,1,0,844,428.94,14.25,14.25,0,0,0,830.15,414.59Z"/></g></g></svg>