<svg xmlns="http://www.w3.org/2000/svg" viewBox="0 0 1084 1084.41"><defs></defs><g id="Capa_2" data-name="Capa 2"><g id="Capa_1-2" data-name="Capa 1"><path class="cls-1" d="M1076.66,660.76c-1-1-2-2-3-3Q880.51,465,687.33,272.21,588,173,488.8,73.65c-7.29-7.33-15.08-10.34-25.23-10.33q-180.94.27-361.89.26c-5.84,0-9.73-1.87-13.65-5.84C71.31,40.8,54.37,24.08,37.48,7.32c-2.44-2.41-5-4.68-8.3-5.93C19.37-2.3,8.72,1.5,2.37,11.05c-4.14,6.24-2.68,21.13,3,27.08q25.92,27.12,52.11,54A14.53,14.53,0,0,1,62,103.26q-.21,91.38-.1,182.76c0,60.11.12,120.23-.12,180.34,0,9.55,2.86,16.8,9.7,23.61q82.79,82.38,165.09,165.22,74.35,74.55,148.64,149.16,135.3,135.54,270.69,271c11.93,11.94,27.55,12.13,39.45.21q152-152.22,304-304.45,38.48-38.54,76.88-77.17C1086.5,683.62,1086.51,671.48,1076.66,660.76ZM184.22,265.68c-.34-43.06,34.83-78.88,77.91-79.34,43.84-.48,79.05,34.38,79.55,78.77.48,42.56-34.63,78.21-77.69,78.88S184.56,308.83,184.22,265.68ZM383.41,465.43c-5.94-5-6.63-10.11-5.22-17.33,6.61-34,12.67-68.09,18.91-102.15.15-.78.09-1.59.21-4.23-5.29,5.35-9.49,9.63-13.72,13.86-17.11,17.12-34.28,34.18-51.28,51.41-2.65,2.69-4.35,3.4-6.95.13-3.11-3.91-9.57-6.68-9.63-11s6.12-7.41,9.64-10.94c27.76-27.87,55.71-55.55,83.28-83.59,4.28-4.35,6.23-3.8,10.09.23,4.11,4.31,5.66,8.05,4.45,14.3-6.93,36-13.24,72.05-19.8,108.3,2.66-.34,3.68-2.48,5.13-3.92,20.15-20.07,40.33-40.11,60.27-60.39,3.25-3.3,4.94-3.09,8,.09,10.1,10.36,10.24,10.23.19,20.28-28.24,28.24-56.54,56.41-84.63,84.8C388.85,468.87,387.19,468.58,383.41,465.43Zm46.42,15.9c1.79-7.73,5.86-14.07,11.37-19.59,21.67-21.69,43.41-43.32,65-65.12,2.59-2.61,3.89-2.74,6.58-.08,11.33,11.19,11.43,11.08,0,22.48q-28,28-56,56.07c-8.31,8.32-9.91,16.14-5.25,26.93,5,11.5,13.31,19.59,25.32,23.52,9,2.94,16.84,1.37,23.76-5.64,21-21.25,42.27-42.19,63.2-63.47,3.51-3.56,5.64-4.07,8.85,0,2.86,3.61,8.7,6.71,8.77,10.13s-5.49,6.78-8.73,10c-19.37,19.42-38.83,38.77-58.17,58.23-8.07,8.11-17.57,12.62-29.11,12.5C452.46,547.19,422.74,511.86,429.83,481.33Zm177.55,122c-4.08.33-7.31-6.09-10.87-9.58q-15.3-15.06-30.34-30.39c-2.56-2.63-4.19-3.41-7.12-.28-6.74,7.21-13.75,14.19-20.94,20.95-3,2.86-3.21,4.55-.1,7.57,13.15,12.8,25.93,26,39.06,38.77,2.91,2.84,2.88,4.55-.13,7-3.88,3.13-6.71,9.69-11,9.48-3.63-.17-7-6-10.46-9.4-15.27-15.23-30.44-30.57-45.83-45.68-3-3-3.69-4.49-.25-7.89q46-45.51,91.58-91.47c2.47-2.48,3.91-3.48,7-.35,17.79,18.14,35.84,36,53.79,54,1,1,1.84,2,3.43,3.8-2,1.66-4,3-5.76,4.74-8.86,8.77-8.84,8.8-17.58,0-11.27-11.26-22.6-22.45-33.73-33.84-2.54-2.6-4-2.89-6.67-.09-6.78,7.17-13.76,14.18-21,20.94-3.07,2.88-3.11,4.57,0,7.55,12.71,12.37,25.09,25.08,37.76,37.51,2.65,2.6,3.49,4.36.21,7.07C614.58,597,611.29,603,607.38,603.35ZM631.25,708.1c-3,1.33-5.45,1.48-7.2-1.5-2-3.46-8.59-4.47-6.06-10.39,19.2-45,38.46-90,58.49-136.74,5,5.45,9.33,10.28,13.78,15,2.22,2.35.18,4.22-.6,6q-19.38,45.25-38.93,90.42c-1,2.32-1.94,4.67-3.41,8.22,14.47-6.16,27.74-11.77,41-17.43,19.26-8.22,38.53-16.39,57.72-24.78,3.45-1.51,5.85-1.45,8.37,1.56a64.22,64.22,0,0,0,8.11,8.13c3.7,3.12,2.39,4.3-1.34,5.87-21.34,9-42.61,18.12-63.89,27.23C675.25,689.15,653.22,698.54,631.25,708.1ZM782.71,834.75a70,70,0,0,1-73-63.06c-4.38-44.88,29.67-78.3,68.47-79.58,36.78-3.18,70.67,26.39,73.8,65.41C855,795.55,827.26,832.73,782.71,834.75Z"/><path class="cls-1" d="M781.42,712.3a51.26,51.26,0,0,0-51.52,51.45,50.33,50.33,0,0,0,50.53,50.86c27.94,0,51.3-23.3,51.39-51.23A50.49,50.49,0,0,0,781.42,712.3Z"/></g></g></svg>