<?xml version="1.0" encoding="utf-8"?>
<!-- Generator: Adobe Illustrator 25.1.0, SVG Export Plug-In . SVG Version: 6.00 Build 0)  -->
<svg version="1.1" id="Layer_1" xmlns="http://www.w3.org/2000/svg" xmlns:xlink="http://www.w3.org/1999/xlink" x="0px" y="0px"
	 viewBox="0 0 800 800" style="enable-background:new 0 0 800 800;" xml:space="preserve">
<path class="st0" d="M103.85,596.75v95.71h427.13V579.42L103.85,596.75z M551.43,122.2c-2.67,185.34,5.63,384.91,2.96,570.25
	c48,0,96,0,144.01,0c0-151.86,0-303.72,0-455.58C664.17,190.5,608.46,142.21,551.43,122.2L551.43,122.2z M103.85,224.28
	c1.04,34.07-3.11,69.19-2.07,103.26c103.11-79.41,236.3-130.68,429.2-103.26c0-36.74,0-73.34,0-109.94
	C405.49,79.24,268.01,94.8,103.85,224.28L103.85,224.28z M103.85,351.7c0,32.59,0,65.04,0,97.49
	c118.53-69.05,260.75-91.27,427.13-66.08c0-38.23,0-76.45,0-114.67C394.83,240.87,252.74,266.21,103.85,351.7L103.85,351.7z
	 M103.85,470.37c0,34.08,0,68.15,0,102.07c138.67-36,280.16-41.92,427.13-36c0-33.34,0-81.49,0-114.82
	C376.75,407.4,235.26,425.93,103.85,470.37L103.85,470.37z"/>
</svg>
