<svg id="Capa_1" data-name="Capa 1" xmlns="http://www.w3.org/2000/svg" viewBox="0 0 185.34 191.06"><path class="cls-1" d="M140.38,124.14A47.12,47.12,0,1,1,187.49,77,47.17,47.17,0,0,1,140.38,124.14Zm0-83.81A36.7,36.7,0,1,0,177.07,77,36.74,36.74,0,0,0,140.38,40.33Z" transform="translate(-47.71 -29.9)"/><path class="cls-1" d="M233.05,221H222.62a75,75,0,0,0-75-75H133.09a75,75,0,0,0-74.95,75H47.71a85.48,85.48,0,0,1,85.38-85.38h14.57A85.48,85.48,0,0,1,233.05,221Z" transform="translate(-47.71 -29.9)"/></svg>