<?xml version="1.0" encoding="utf-8"?>
<!-- Generator: Adobe Illustrator 25.1.0, SVG Export Plug-In . SVG Version: 6.00 Build 0)  -->
<svg version="1.1" id="Layer_1" xmlns="http://www.w3.org/2000/svg" xmlns:xlink="http://www.w3.org/1999/xlink" x="0px" y="0px"
	 viewBox="0 0 800 800" style="enable-background:new 0 0 800 800;" xml:space="preserve">

<path class="st0" d="M631.6,625.9c-8.7,0-17.4-3.3-24-9.9c-13.3-13.3-13.3-34.7,0-48c92.6-92.6,92.6-243.3,0-336
	c-13.3-13.3-13.3-34.7,0-48c13.2-13.2,34.7-13.2,48,0c57.7,57.7,89.5,134.4,89.5,216c0,81.6-31.8,158.3-89.5,216
	C649,622.6,640.3,625.9,631.6,625.9z M511.1,561.9c-8.7,0-17.4-3.3-24-9.9c-13.2-13.2-13.2-34.7,0-48c57.4-57.3,57.4-150.6,0-208
	c-13.2-13.3-13.2-34.7,0-48c13.3-13.2,34.7-13.2,48,0c83.8,83.8,83.8,220.2,0,304C528.5,558.6,519.8,561.9,511.1,561.9z M406.7,93.6
	c18.1-18.2,33-12,33,13.7v585.4c0,25.6-14.9,31.8-33,13.7L236.1,535.8H122.9V264.3h113.1L406.7,93.6z"/>
</svg>
