<svg id="Capa_1" data-name="Capa 1" xmlns="http://www.w3.org/2000/svg" viewBox="0 0 235.27 233.81"><path class="cls-1" d="M242.7,46.53H224.15V13.2h-9.1V9H202.24v7.6H194l.34-1.57L182,12.42l-7.34,34.11H100.75v-31H48.48v31H32.64V60.35H242.7ZM215.05,16.91h5.39V45.85h-5.39Zm-9.11-4.17h5.4V45.85h-5.4Zm-9.44,7.6h5.4V45.85h-5.4ZM184.67,16.5l5.54,1.19-6.15,28.56-5.53-1.19ZM192.8,22V46.53h-5.28ZM52.19,19.21H97V45.85H52.19ZM239,56.64H36.35V50.23H186.22l.49.11,0-.11H239Z" transform="translate(-20 -9.03)"/><path class="cls-1" d="M55.85,42.48H93.38V22.65H55.85Zm3.71-16.12H89.67V38.77H59.56Z" transform="translate(-20 -9.03)"/><path class="cls-1" d="M238.94,160.14V80.86H34v79.52A16.8,16.8,0,0,0,20,177v65.86H255.27V177A16.79,16.79,0,0,0,238.94,160.14ZM39.53,85.94H233.44V160.1h-.17V137.5a13.45,13.45,0,0,0-13.44-13.43H156a13.45,13.45,0,0,0-13.44,13.43v22.6h-11.1V137.5A13.45,13.45,0,0,0,118,124.07H54.16A13.45,13.45,0,0,0,40.72,137.5v22.6H39.53Zm144.9,86.12L52.75,204.25,47,172.06ZM45.8,160.1V137.5a8.37,8.37,0,0,1,8.36-8.36H118a8.37,8.37,0,0,1,8.36,8.36v22.6Zm101.83,0V137.5a8.37,8.37,0,0,1,8.35-8.36h63.85a8.36,8.36,0,0,1,8.35,8.36v22.6ZM28.26,177a8.5,8.5,0,0,1,6-8.13l4.06,22.81H28.26ZM247,234.59H28.26V199.92H39.83l2.26,12.71A6,6,0,0,0,48,217.55a8.47,8.47,0,0,0,1.42-.17l71.47-17.46H247Zm0-42.93H154.62l80.9-19.77a5.9,5.9,0,0,0,3.93-3.36A8.48,8.48,0,0,1,247,177Z" transform="translate(-20 -9.03)"/></svg>