<?xml version="1.0" encoding="utf-8"?>
<!-- Generator: Adobe Illustrator 25.1.0, SVG Export Plug-In . SVG Version: 6.00 Build 0)  -->
<svg version="1.1" id="Capa_1" xmlns="http://www.w3.org/2000/svg" xmlns:xlink="http://www.w3.org/1999/xlink" x="0px" y="0px"
	 viewBox="0 0 1200 1200" style="enable-background:new 0 0 1200 1200;" xml:space="preserve">
<g>
	<g>
		<path class="st0" d="M730.7,93.82c12.35,22.3,10.11,25.67-22.74,33.44c0,8.37,0,16.9,0,27.61c23.81,0,46.69-0.08,69.56,0.01
			c88.39,0.35,153.89,54.16,172.08,140.17c1.68,7.93,7.93,16.16,14.32,21.6c22.05,18.78,25.68,52.38,2.88,69
			c-15.91,11.6-18.12,24.57-17.3,42.16c17.24,3.07,32.05,5.7,45.18-13.21c14.35-20.66,44.43-20.61,63.28-3.81
			c18.61,16.59,20.34,45.22,3.86,63.95c-16.26,18.5-45.44,20.46-64,4.31c-23.51-20.46-23.51-20.46-52.5-18.32
			c-18.88,30.92-33.77,62.52-55.37,88.55c-19.06,22.97-44.38,41.55-69.35,58.5c-12.83,8.71-14.75,15.83-11.58,29.03
			c37.04,153.98,73.83,308.03,110.43,462.12c2.93,12.35,12.37,29.68-6.34,34.78c-21.16,5.77-19.97-15.62-23.01-28.05
			c-18.66-76.26-36.9-152.63-54.3-229.19c-3.52-15.5-10.11-19.96-25.88-19.89c-139.65,0.66-279.31,0.67-418.96-0.01
			c-15.88-0.08-23.22,4.37-25.73,20.04c-2.76,17.27-7.51,34.22-11.32,50.99c54.53,28.58,83.94,84.36,56.4,145.71
			c-21.57,48.04-74.3,72.01-125.22,58.04c-48.42-13.28-82.73-61.88-77.98-110.46c5.73-58.6,46.19-94.13,116.52-99.82
			c23.92-100.05,48.07-201.05,72.49-303.19c-65.88-34.67-111.47-86.09-135.32-157.88c-9.99,0-20.27-1.22-30.07,0.42
			c-6.91,1.15-15.08,4.59-19.38,9.76c-19.1,22.92-49.34,26.72-69.49,7.48c-19.15-18.29-18.59-49.33,1.21-66.91
			c20.65-18.34,50.8-15.69,67.26,8.55c11.74,17.29,26.2,7.79,41.02,10.31c0.54-17.54,0.88-30.92-15.77-42.57
			c-24.03-16.82-21.21-50.96,1.46-70.47c6.77-5.83,12.88-14.96,14.73-23.55c17.98-83.42,83.92-137.59,169.68-138.12
			c23.55-0.15,47.1-0.02,71.58-0.02c0-10.73,0-19.25,0-27.62c-32.88-7.74-35.15-11.16-22.75-33.43
			C557.09,93.82,643.89,93.82,730.7,93.82z M918.94,398.98c-9.07,0-16.46,0-23.85,0c-183.69,0-367.38,0.08-551.06-0.19
			c-12.44-0.02-31.65,5.77-31.94-14.43c-0.32-22.38,20.19-15.29,32.8-15.31c189.79-0.4,379.58-0.27,569.36-0.31
			c7.45,0,15.61,1.45,22.12-1.12c5.74-2.26,14.21-10.34,13.34-13.83c-1.51-6.06-8.67-11.54-14.67-15.34
			c-3.41-2.15-9.25-0.51-13.99-0.51c-213.51-0.01-427.02-0.01-640.54,0c-5.42,0-11.58-1.46-16.07,0.62
			c-5.43,2.51-12.41,7.58-13.23,12.45c-0.79,4.71,4.69,14.54,8.68,15.27c19.04,3.51,19.56,16.62,20.84,31.62
			c10.34,121.07,99.16,208.81,220.47,213.76c71.01,2.9,142.41,2.54,213.38-1.21C822.56,604.76,915.02,507.9,918.94,398.98z
			 M283.98,306.38c210.97,0,421.98,0,635.18,0c-1.37-7.97-1.91-14.6-3.68-20.88c-17.14-61.06-69.6-99.63-136.99-99.81
			c-118.64-0.32-237.28-0.31-355.92,0.18c-15.4,0.06-31.35,1.82-46.06,6.13C324.02,207.37,282.57,258.94,283.98,306.38z
			 M738.13,639.91c0,23.41-0.59,46.4,0.19,69.35c0.61,18.17-6.88,25.88-25.14,25.79c-75.27-0.37-150.55-0.37-225.82-0.01
			c-18.57,0.09-25.3-8.37-24.69-26.22c0.78-22.93,0.19-45.91,0.19-69.39c-13.19-3.27-24.78-6.14-38.26-9.48
			c-15.69,65.84-30.99,130.05-46.57,195.45c149.12,0,296.07,0,445.05,0c-15.81-65.94-31.32-130.61-46.97-195.86
			C761.63,633.49,750.6,636.51,738.13,639.91z M494.78,702.93c71.77,0,141.21,0,210.65,0c0-20.45,0-39.62,0-58.61
			c-71,0-140.44,0-210.65,0C494.78,664.25,494.78,682.96,494.78,702.93z M389.55,1029.61c0.37-42.55-32.72-76.68-74.83-77.19
			c-42.18-0.5-76.45,33-76.87,75.16c-0.43,42.69,32.38,76.44,74.84,77.01C355.12,1105.15,389.18,1071.92,389.55,1029.61z
			 M524.58,153.37c51.87,0,101.61,0,151.1,0c0-9.97,0-18.41,0-26.97c-51.12,0-100.76,0-151.1,0
			C524.58,136.16,524.58,144.08,524.58,153.37z M194.87,445.5c-9.86-7.3-15.93-15.13-20.47-14.33c-6.05,1.07-10.92,8.85-16.29,13.75
			c4.71,4.95,9.25,13.65,14.17,13.87C178.19,459.05,184.42,452.08,194.87,445.5z M1049.35,445.55
			c-9.84-7.32-15.89-15.17-20.43-14.38c-6.05,1.05-10.94,8.82-16.33,13.71c4.7,4.96,9.22,13.68,14.14,13.91
			C1032.64,459.07,1038.89,452.11,1049.35,445.55z"/>
		<path class="st0" d="M314.12,1138c-9.82,0-19.83-1.32-29.76-4.03c-49.7-13.64-84.81-63.4-79.94-113.31
			c5.82-59.66,47.36-95.85,117.05-102.09l71.54-299.27c-66.59-35.53-110.52-86.82-134.17-156.59c-2.37-0.03-4.74-0.13-7.14-0.21
			c-6.85-0.24-13.91-0.47-20.52,0.61c-6.01,0.97-13.8,4.08-17.75,8.82c-10.46,12.51-24.21,19.89-38.75,20.7
			c-12.77,0.68-25.13-3.9-34.69-13.01c-9.67-9.25-15.07-22.26-14.83-35.74c0.24-13.46,6.11-26.26,16.12-35.14
			c10.85-9.59,24.1-13.99,37.74-12.3c13.43,1.69,25.34,9.27,33.56,21.34c7.16,10.61,14.91,9.96,24.84,9.14
			c3.69-0.32,7.48-0.66,11.33-0.32c0.45-15.57-0.08-27.08-14.72-37.35c-10.88-7.61-17.23-19.1-17.91-32.35
			c-0.76-15.54,6.4-31.37,19.18-42.38c6.8-5.82,12.22-14.49,13.85-22.07c18.23-84.66,85.87-139.71,172.29-140.23
			c16.15-0.16,32.27-0.11,48.7-0.05h20.2v-22.78c-17.62-4.21-26.05-7.3-28.79-13.51c-2.48-5.58,0.21-12.25,6.4-23.36l0.76-1.37
			h263.56l0.79,1.37c6.14,11.14,8.82,17.81,6.35,23.39c-2.74,6.16-11.14,9.27-28.76,13.51v22.78l18.67-0.03
			c16.25-0.03,32.21-0.03,48.2,0.05c89.27,0.34,156.22,54.87,174.71,142.29c1.63,7.77,8.01,15.49,13.43,20.12
			c12.62,10.77,19.83,26.42,19.25,41.85c-0.5,12.8-6.35,23.94-16.54,31.37c-14.07,10.27-16.8,21.31-16.28,37.72
			c16.01,2.84,28.74,4.27,40.35-12.49c6.56-9.46,16.7-15.44,28.53-16.83c13.75-1.66,28.16,3.11,38.77,12.56
			c19.68,17.52,21.52,47.91,4.08,67.75c-17.12,19.52-48.23,21.62-67.8,4.53c-22.26-19.36-22.57-19.68-49.15-17.75
			c-5.48,9.03-10.67,18.23-15.72,27.1c-12.33,21.76-24,42.33-39.14,60.58c-19.28,23.23-44.99,42.09-69.91,59.03
			c-12.43,8.43-13.25,14.62-10.46,26.16c34.43,143.21,70.54,294.35,110.42,462.1c0.47,2.05,1.16,4.24,1.84,6.51
			c2.4,7.82,5.11,16.73,1.34,23.57c-2.11,3.77-5.95,6.45-11.46,7.95c-6.37,1.76-11.48,1.34-15.44-1.19
			c-6.72-4.32-8.24-13.64-9.59-21.89c-0.4-2.45-0.79-4.85-1.29-6.95c-20.62-84.21-38.4-159.17-54.34-229.21
			c-3.11-13.75-8.24-17.81-22.81-17.81c-0.13,0-0.26,0-0.4,0c-140,0.71-280.86,0.66-419.01-0.03c-0.13,0-0.26,0-0.4,0
			c-15.17,0-20.49,4.21-22.65,17.78c-1.95,12.2-4.9,24.34-7.74,36.06c-1.08,4.37-2.13,8.74-3.16,13.09
			c58.95,31.87,81.39,91.21,55.79,148.24C394.99,1114.06,356.14,1138,314.12,1138z M242.77,456.88c3.06,0,6.11,0.11,9.14,0.21
			c2.95,0.13,5.93,0.24,8.88,0.24h1.95l0.61,1.84c23.26,69.98,67.11,121.11,134.04,156.33l1.84,0.97l-0.47,2.05l-72.96,305.09
			l-1.95,0.16c-68.93,5.58-108.39,39.27-114.05,97.4c-4.64,47.36,28.76,94.61,75.99,107.57c49.83,13.72,101.2-10.11,122.08-56.53
			c25-55.71,3.32-111.52-55.23-142.21l-1.82-0.97l0.45-2.03c1.16-5.03,2.4-10.11,3.63-15.2c2.82-11.62,5.74-23.63,7.66-35.61
			c2.95-18.52,12.88-22.31,27.95-22.31c0.16,0,0.32,0,0.47,0c138.05,0.66,279.02,0.68,418.93,0.03c0.11,0,0.24,0,0.37,0
			c17.09,0,24.47,5.77,28.13,21.97c15.91,70.01,33.69,144.97,54.29,229.16c0.55,2.24,0.97,4.74,1.4,7.35
			c1.16,7.11,2.5,15.2,7.19,18.2c2.58,1.69,6.19,1.84,11.09,0.53c4.11-1.11,6.77-2.87,8.14-5.35c2.69-4.85,0.42-12.25-1.76-19.41
			c-0.74-2.34-1.42-4.66-1.95-6.8c-39.85-167.76-75.96-318.92-110.42-462.1c-3.61-14.96-0.4-22.99,12.67-31.9
			c24.6-16.7,49.97-35.3,68.8-57.97c14.86-17.91,26.39-38.27,38.61-59.82c5.29-9.32,10.75-18.94,16.54-28.42l0.71-1.19l1.37-0.11
			c29.76-2.19,30.34-2.05,54.47,18.96c17.44,15.09,44.96,13.3,60.21-4.06c15.49-17.59,13.85-44.59-3.61-60.16
			c-9.51-8.43-22.34-12.64-34.56-11.22c-10.27,1.24-19.07,6.4-24.73,14.54c-14.14,20.39-30.58,17.44-47.86,14.36l-2.11-0.4
			l-0.11-2.13c-0.9-19.02,1.84-32.4,18.41-44.49c8.8-6.43,13.88-16.09,14.3-27.21c0.53-13.8-5.98-27.81-17.36-37.53
			c-6.11-5.22-13.3-14.04-15.2-23.13C929,210.81,864.07,157.92,777.52,157.58c-15.99-0.05-31.92-0.03-48.18-0.03h-24.07v-32.42
			l2.05-0.5c16.17-3.82,25.26-6.69,27.16-10.93c1.45-3.29-0.84-8.85-5.4-17.2H471.87c-4.56,8.35-6.85,13.88-5.4,17.2
			c1.9,4.24,11.01,7.11,27.16,10.9l2.08,0.5v32.45l-25.58-0.03c-16.36,0-32.5-0.05-48.65,0.05
			c-83.81,0.53-149.4,53.92-167.07,136.02c-1.84,8.64-7.98,18.46-15.59,25.02c-11.54,9.9-17.99,24.13-17.31,38.01
			c0.58,11.54,6.11,21.55,15.62,28.18c17.94,12.59,17.46,27.55,16.91,44.88l-0.08,3.11l-3.06-0.53c-4.27-0.74-8.72-0.37-13.04,0
			c-10.3,0.84-20.83,1.69-29.76-11.48c-7.32-10.77-17.88-17.52-29.74-19.02c-11.88-1.4-23.84,2.42-33.5,11.01
			c-8.88,7.85-14.09,19.23-14.3,31.19c-0.24,11.98,4.58,23.55,13.17,31.74c7.88,7.53,17.86,11.59,28.34,11.59
			c0.76,0,1.53-0.03,2.29-0.05c13.04-0.74,25.44-7.43,34.9-18.81c5.19-6.16,14.57-9.61,21.02-10.67
			C234.42,457.09,238.61,456.88,242.77,456.88z M313.81,1107.29c-0.4,0-0.76,0-1.13-0.03c-43.93-0.55-77.97-35.58-77.49-79.7
			c0.18-21.1,8.53-40.8,23.52-55.47c14.78-14.46,34.29-22.39,55.08-22.39c0.34,0,0.66,0,0.97,0.03
			c43.86,0.5,77.89,35.61,77.49,79.91c-0.18,21.15-8.48,40.83-23.39,55.39C354.16,1099.41,334.64,1107.29,313.81,1107.29z
			 M313.78,955.1c-19.36,0-37.53,7.4-51.31,20.86c-13.93,13.64-21.73,32-21.91,51.65c-0.42,41.12,31.29,73.72,72.17,74.28
			c0.37,0,0.71,0,1.05,0c19.44,0,37.61-7.32,51.31-20.7c13.85-13.57,21.6-31.9,21.78-51.6l2.69,0.03l-2.69-0.03
			c0.34-41.27-31.34-73.99-72.17-74.49C314.39,955.1,314.1,955.1,313.78,955.1z M826.51,828.09H374.6l47.99-201.39l42.93,10.64v2.11
			c0,7.14,0.08,14.22,0.13,21.26c0.11,15.83,0.24,32.21-0.32,48.23c-0.29,8.67,1.26,14.64,4.77,18.25c3.4,3.48,8.96,5.19,16.99,5.19
			c0.08,0,0.16,0,0.26,0c74.91-0.37,150.87-0.37,225.84,0c0.08,0,0.16,0,0.26,0c8.3,0,14.01-1.74,17.44-5.27
			c3.48-3.56,5-9.35,4.74-17.75c-0.55-16.15-0.45-32.63-0.32-48.6c0.05-6.9,0.11-13.85,0.11-20.83v-2.05l42.64-11.67L826.51,828.09z
			 M381.45,822.71h438.21l-45.54-189.83l-33.32,9.09c0,6.3-0.05,12.59-0.11,18.83c-0.11,15.88-0.24,32.35,0.32,48.36
			c0.34,9.93-1.71,17.04-6.24,21.7c-4.5,4.64-11.48,6.87-21.34,6.87c-0.08,0-0.18,0-0.26,0c-74.96-0.37-150.93-0.37-225.78,0
			c-0.11,0-0.18,0-0.29,0c-9.56,0-16.38-2.21-20.86-6.82c-4.56-4.71-6.64-11.96-6.27-22.18c0.53-15.91,0.42-32.21,0.29-47.99
			c-0.05-6.37-0.11-12.77-0.11-19.2l-33.56-8.32L381.45,822.71z M708.11,705.61H492.1v-63.98h216.01V705.61z M497.47,700.23h205.27
			V647H497.47V700.23z M595.12,616.29c-31.34,0-62.71-0.63-94.01-1.92c-120.87-4.93-212.59-93.82-223.05-216.2l-0.13-1.42
			c-1.21-14.38-2.08-24.79-18.52-27.79c-5.82-1.08-11.83-12.49-10.85-18.39c1.03-6.08,8.59-11.59,14.75-14.46
			c3.82-1.76,8.24-1.45,12.54-1.11c1.58,0.13,3.16,0.26,4.69,0.26c213.51-0.05,427.02-0.05,640.53,0c1.34,0,2.79-0.16,4.24-0.29
			c3.92-0.37,7.98-0.82,11.19,1.19c9.27,5.87,14.46,11.43,15.83,16.96c1.42,5.74-9.14,14.7-14.96,16.99
			c-5.4,2.11-11.43,1.84-17.25,1.53c-1.98-0.11-3.95-0.21-5.87-0.21H782.87c-143.53,0.03-291.98,0-437.98,0.29
			c-0.03,0-0.05,0-0.08,0c-2.42,0-5.14-0.24-7.93-0.5c-7.27-0.66-14.86-1.4-18.81,2.29c-2.29,2.13-3.35,5.66-3.29,10.83
			c0.08,4.5,1.13,7.64,3.27,9.59c3.95,3.63,11.41,3.11,18.65,2.55c2.53-0.21,4.98-0.37,7.24-0.37c0.03,0,0.05,0,0.08,0
			c149.27,0.21,298.48,0.16,447.75,0.18h129.96l-0.11,2.79c-3.98,110.31-98.72,208.35-206.9,214.06
			C675.19,615.23,635.21,616.29,595.12,616.29z M270.69,340.14c-1.92,0-3.69,0.21-5.11,0.87c-5.29,2.48-11.12,7.06-11.69,10.46
			c-0.63,3.79,4.4,11.77,6.53,12.17c20.47,3.77,21.7,18.46,22.89,32.66l0.13,1.4c10.38,121.48,97.96,206.4,217.88,211.3
			c71.17,2.87,142.84,2.48,213.14-1.21c104.57-5.53,196.31-99.59,201.66-206.11l-124.35,0.03c-149.19-0.05-298.48,0.03-447.75-0.21
			c-0.03,0-0.05,0-0.08,0c-2.13,0-4.45,0.18-6.85,0.37c-8.03,0.55-17.04,1.24-22.68-3.92c-3.24-2.98-4.93-7.53-5-13.54
			c-0.11-6.77,1.53-11.62,5-14.83c5.74-5.35,14.93-4.45,22.97-3.71c2.61,0.24,5.16,0.5,7.43,0.5c0.03,0,0.05,0,0.08,0
			c146-0.29,294.29-0.29,437.98-0.29h131.38c2,0,4.06,0.08,6.14,0.18c5.58,0.29,10.77,0.55,14.99-1.13
			c5.24-2.05,11.69-8.74,11.72-10.8c-1-3.95-5.53-8.56-13.49-13.56c-1.61-1.05-4.74-0.68-7.77-0.42c-1.63,0.16-3.24,0.32-4.77,0.32
			c-213.51,0-427.02,0-640.53,0c-1.66,0-3.37-0.11-5.11-0.24C273.8,340.27,272.19,340.14,270.69,340.14z M1027.09,461.52
			c-0.16,0-0.32,0-0.47-0.03c-4.66-0.21-8.32-5.03-11.88-9.69c-1.37-1.79-2.71-3.58-4.08-5.06l-1.9-1.98l2.03-1.87
			c1.55-1.4,3.03-3.06,4.53-4.71c3.92-4.29,7.98-8.77,13.14-9.67c4.16-0.61,8.22,2.74,13.75,7.64c2.56,2.24,5.45,4.77,8.74,7.24
			l3.16,2.34l-3.35,2.11c-3.42,2.16-6.4,4.35-9.06,6.32C1036.18,458.25,1031.78,461.52,1027.09,461.52z M1016.32,445.05
			c0.9,1.11,1.82,2.29,2.71,3.48c2.53,3.32,5.69,7.48,7.85,7.59c0.05,0,0.13,0,0.21,0c2.92,0,6.66-2.79,11.41-6.3
			c1.9-1.4,3.95-2.92,6.22-4.45c-2.21-1.79-4.24-3.56-6.06-5.19c-3.56-3.13-7.24-6.37-9.03-6.37c-0.08,0-0.16,0-0.21,0.03
			c-3.35,0.58-6.77,4.35-10.09,7.98C1018.32,442.92,1017.32,444,1016.32,445.05z M172.57,461.52c-0.13,0-0.26,0-0.4-0.03
			c-4.69-0.21-8.35-5-11.91-9.67c-1.37-1.79-2.74-3.58-4.11-5.03l-1.9-2l2.03-1.87c1.55-1.4,3.06-3.08,4.56-4.74
			c3.9-4.29,7.93-8.74,13.06-9.67c4.19-0.61,8.27,2.74,13.78,7.59c2.55,2.24,5.45,4.79,8.77,7.24l3.16,2.34l-3.32,2.11
			c-3.42,2.16-6.4,4.35-9.03,6.32C181.71,458.22,177.32,461.52,172.57,461.52z M161.83,445.05c0.92,1.13,1.84,2.32,2.74,3.5
			c2.53,3.32,5.69,7.45,7.85,7.56c0.05,0,0.11,0,0.18,0c2.92,0,6.69-2.82,11.46-6.35c1.87-1.4,3.92-2.9,6.16-4.45
			c-2.24-1.79-4.24-3.56-6.08-5.16c-3.56-3.13-7.24-6.35-9.03-6.35c-0.08,0-0.16,0-0.24,0.03c-3.32,0.58-6.72,4.35-10.01,7.95
			C163.86,442.89,162.85,444.03,161.83,445.05z M922.36,309.06H281.38l-0.08-2.61c-1.48-48.86,40.91-101.36,94.45-117.03
			c13.8-4.06,29.55-6.16,46.78-6.24c114.47-0.45,230.89-0.55,355.96-0.18c68.54,0.18,122.01,39.19,139.6,101.78
			c1.21,4.35,1.87,8.85,2.55,13.62c0.34,2.37,0.71,4.87,1.16,7.53L922.36,309.06z M286.65,303.69h629.34
			c-0.26-1.55-0.47-3.06-0.68-4.53c-0.68-4.79-1.29-8.93-2.42-12.91c-16.88-60.19-68.4-97.69-134.39-97.88
			c-125.11-0.32-241.46-0.26-355.93,0.18c-16.73,0.11-31.98,2.13-45.28,6.03C326.9,209.34,286.81,257.86,286.65,303.69z
			 M678.38,156.05H521.89v-32.35h156.48V156.05z M527.27,150.68H673v-21.6H527.27V150.68z"/>
	</g>
	<g>
		<path class="st0" d="M359.52,1029.4c-0.5,24.48-21.52,45.02-45.97,44.93c-25.18-0.1-46.65-22.43-45.54-47.35
			c1.11-24.87,21.85-44.09,46.93-43.5C339.82,984.06,360.01,1004.86,359.52,1029.4z M312.7,1049.26
			c7.23-8.84,15.22-14.48,14.57-18.82c-0.91-6.09-8.26-11.22-12.85-16.77c-5.1,5.07-12.91,9.47-14.39,15.44
			C298.96,1033.39,306.37,1039.77,312.7,1049.26z"/>
		<path class="st0" d="M313.68,1077.02c-0.05,0-0.08,0-0.13,0c-12.83-0.05-25.47-5.64-34.74-15.36
			c-9.14-9.59-14.04-22.28-13.49-34.82c1.16-26.05,22.36-46.09,48.49-46.09c0.4,0,0.79,0,1.19,0.03
			c26.58,0.63,47.75,22.47,47.2,48.68l0,0C361.67,1055.27,339.46,1077.02,313.68,1077.02z M313.81,986.15
			c-23.23,0-42.09,17.78-43.12,40.96c-0.47,11.06,3.9,22.31,12.04,30.82c8.24,8.67,19.47,13.67,30.82,13.72c0.05,0,0.11,0,0.13,0
			c22.94,0,42.67-19.36,43.14-42.3l2.69,0.05l-2.69-0.05c0.47-23.23-18.36-42.62-41.93-43.2
			C314.52,986.15,314.18,986.15,313.81,986.15z M312.49,1053.79l-2.03-3.03c-2.13-3.19-4.4-6.06-6.43-8.59
			c-4.45-5.58-7.66-9.64-6.61-13.72c1.24-5.06,5.82-8.82,10.25-12.46c1.69-1.4,3.37-2.79,4.85-4.24l2.08-2.05l1.9,2.27
			c1.32,1.58,2.9,3.16,4.45,4.71c4.03,4.03,8.22,8.22,8.98,13.35c0.63,4.16-2.95,7.88-7.93,13.01c-2.24,2.32-4.79,4.95-7.22,7.93
			L312.49,1053.79z M314.23,1017.52c-1.03,0.9-2.08,1.76-3.13,2.63c-3.74,3.08-7.61,6.27-8.46,9.61c-0.37,1.5,2.82,5.51,5.64,9.03
			c1.45,1.84,3.06,3.85,4.64,6.06c1.79-2.03,3.58-3.87,5.22-5.56c3.13-3.27,6.72-6.95,6.48-8.48c-0.53-3.37-4.06-6.9-7.48-10.33
			C316.15,1019.5,315.15,1018.52,314.23,1017.52z"/>
	</g>
</g>
</svg>
