<?xml version="1.0" encoding="utf-8"?>
<!-- Generator: Adobe Illustrator 25.1.0, SVG Export Plug-In . SVG Version: 6.00 Build 0)  -->
<svg version="1.1" id="Capa_1" xmlns="http://www.w3.org/2000/svg" xmlns:xlink="http://www.w3.org/1999/xlink" x="0px" y="0px"
	 viewBox="0 0 1200 1200" style="enable-background:new 0 0 1200 1200;" xml:space="preserve">

<g>
	<g>
		<path class="st0" d="M1147.48,964.95H754.5c-3.46,0-6.26-2.81-6.26-6.26V802.6c0-82.18-63.12-149.05-140.7-149.05
			c-77.45,0-140.45,66.87-140.45,149.05v156.09c0,3.45-2.8,6.26-6.26,6.26H67.61c-3.46,0-6.26-2.81-6.26-6.26V524
			c0-3.45,2.8-6.26,6.26-6.26h1079.87c3.46,0,6.26,2.81,6.26,6.26v434.69C1153.74,962.14,1150.94,964.95,1147.48,964.95z
			 M760.76,952.43h380.45V530.26H73.87v422.17h380.71V802.6c0-89.1,68.62-161.57,152.96-161.57c84.49,0,153.22,72.47,153.22,161.57
			V952.43z M1078.04,868.05H975.22c-3.46,0-6.26-2.81-6.26-6.26V751.98c0-3.45,2.8-6.26,6.26-6.26h102.82
			c3.46,0,6.26,2.81,6.26,6.26v109.81C1084.3,865.24,1081.5,868.05,1078.04,868.05z M981.48,855.53h90.3v-97.29h-90.3V855.53z
			 M953.69,868.05H850.85c-3.46,0-6.26-2.81-6.26-6.26V751.98c0-3.45,2.8-6.26,6.26-6.26h102.84c3.46,0,6.26,2.81,6.26,6.26v109.81
			C959.95,865.24,957.15,868.05,953.69,868.05z M857.11,855.53h90.32v-97.29h-90.32V855.53z M360.72,868.05H257.91
			c-3.46,0-6.26-2.81-6.26-6.26V751.98c0-3.45,2.8-6.26,6.26-6.26h102.82c3.46,0,6.26,2.81,6.26,6.26v109.81
			C366.98,865.24,364.18,868.05,360.72,868.05z M264.17,855.53h90.3v-97.29h-90.3V855.53z M236.64,868.05H133.55
			c-3.46,0-6.26-2.81-6.26-6.26V751.98c0-3.45,2.8-6.26,6.26-6.26h103.08c3.46,0,6.26,2.81,6.26,6.26v109.81
			C242.9,865.24,240.1,868.05,236.64,868.05z M139.81,855.53h90.57v-97.29h-90.57V855.53z M1077.77,736.73H975.22
			c-3.46,0-6.26-2.81-6.26-6.26v-109.3c0-1.76,0.75-3.45,2.05-4.62c1.28-1.2,3-1.83,4.8-1.61c59.71,5.75,106.23,55.31,108.21,115.33
			c0.05,1.69-0.59,3.33-1.76,4.55C1081.08,736.04,1079.47,736.73,1077.77,736.73z M981.48,724.21h89.62
			c-4.54-48.51-41.62-88.15-89.62-95.92V724.21z M953.69,736.73H850.85c-1.7,0-3.33-0.68-4.5-1.91c-1.17-1.22-1.81-2.86-1.76-4.55
			c1.99-60.03,48.64-109.61,108.5-115.33c1.81-0.2,3.52,0.42,4.8,1.61c1.31,1.17,2.05,2.86,2.05,4.62v109.3
			C959.95,733.91,957.15,736.73,953.69,736.73z M857.52,724.21h89.92v-95.92C899.27,636.04,862.08,675.67,857.52,724.21z
			 M360.72,736.73H257.91c-3.46,0-6.26-2.81-6.26-6.26v-109.3c0-1.76,0.75-3.45,2.05-4.62c1.28-1.2,2.98-1.83,4.8-1.61
			c59.84,5.72,106.48,55.31,108.48,115.33c0.05,1.69-0.59,3.33-1.76,4.55C364.05,736.04,362.42,736.73,360.72,736.73z
			 M264.17,724.21h89.89c-4.56-48.53-41.74-88.17-89.89-95.92V724.21z M236.64,736.73H133.82c-1.7,0-3.31-0.68-4.5-1.91
			c-1.17-1.22-1.81-2.86-1.76-4.55c1.97-60.03,48.61-109.61,108.48-115.33c1.87-0.2,3.51,0.42,4.8,1.61
			c1.31,1.17,2.05,2.86,2.05,4.62v109.3C242.9,733.91,240.1,736.73,236.64,736.73z M140.48,724.21h89.89v-95.92
			C182.21,636.04,145.02,675.67,140.48,724.21z M1147.48,476.15H67.61c-2.8,0-5.26-1.86-6.03-4.55c-0.76-2.71,0.37-5.57,2.75-7.04
			c108.56-66.6,192.87-122.43,260.61-167.29c281.33-186.27,286.62-186.22,568.47,1.22c67.02,44.57,150.41,100.03,257.36,166.07
			c2.38,1.47,3.5,4.35,2.74,7.04C1152.74,474.3,1150.28,476.15,1147.48,476.15z M89.71,463.64H1125.5
			c-98.21-61.08-175.89-112.72-239.02-154.72c-277.61-184.6-277.61-184.63-554.62-1.2C267.99,349.99,189.45,402.02,89.71,463.64z"/>
		<path class="st0" d="M1147.48,971.21H754.5c-6.91,0-12.52-5.62-12.52-12.52V802.6c0-78.73-60.31-142.79-134.44-142.79
			c-73.99,0-134.19,64.06-134.19,142.79v156.09c0,6.9-5.61,12.52-12.52,12.52H67.61c-6.91,0-12.52-5.62-12.52-12.52V524
			c0-6.9,5.61-12.52,12.52-12.52h1079.87c6.91,0,12.52,5.62,12.52,12.52v434.69C1160,965.59,1154.39,971.21,1147.48,971.21z
			 M754.5,958.69h392.97l0,0H754.5z M67.61,958.69h393.23V802.6c0-85.65,65.81-155.31,146.7-155.31
			c81.03,0,146.96,69.66,146.96,155.31c0-85.65-65.93-155.31-146.96-155.31c-80.9,0-146.7,69.66-146.7,155.31v156.09H67.61z
			 M1147.48,524v434.69l0,0V524z M767.02,946.17h367.94V536.52H80.13v409.65h368.19V802.6c0-92.55,71.43-167.83,159.22-167.83
			c87.94,0,159.48,75.28,159.48,167.83V946.17z M975.22,861.79h102.82l0,0H975.22z M850.85,861.79h102.84l0,0H850.85z
			 M1078.04,751.98v109.81l0,0V751.98z M953.69,751.98v109.81l0,0V751.98z M960.09,741.23c1.8,1.08,3.3,2.57,4.38,4.38
			c1.06-1.81,2.57-3.3,4.36-4.38c-1.8-1.08-3.3-2.57-4.36-4.38C963.39,738.66,961.88,740.15,960.09,741.23z M850.85,730.47
			L850.85,730.47h102.84l0,0H850.85z M975.22,621.17v109.3h102.55H975.22V621.17L975.22,621.17z M953.69,621.17v109.3l0,0V621.17z
			 M1076.42,716.33c0.38,2.42,0.68,4.84,0.92,7.29l0.06,0.73C1077.17,721.66,1076.84,719,1076.42,716.33z M947.65,621.91
			c-4.65,0.71-9.22,1.69-13.67,2.91c4.06-1.12,8.22-2.03,12.46-2.71L947.65,621.91z M981.46,621.93l1.03,0.17
			c3.36,0.56,6.68,1.25,9.94,2.08C988.83,623.25,985.17,622.52,981.46,621.93z M257.91,861.79h102.82l0,0H257.91z M133.55,861.79
			h103.08l0,0H133.55z M360.72,751.98v109.81l0,0V751.98z M236.64,751.98v109.81l0,0V751.98z M243.03,741.23
			c1.72,1.03,3.18,2.47,4.24,4.16c1.06-1.69,2.52-3.13,4.24-4.16c-1.72-1.03-3.18-2.47-4.24-4.16
			C246.21,738.76,244.75,740.2,243.03,741.23z M360.72,730.47v6.26l0.01-6.26C360.72,730.47,360.72,730.47,360.72,730.47z
			 M133.82,730.47L133.82,730.47h102.82l0,0H133.82z M257.91,730.47h102.8H257.91z M236.64,621.17v109.3l0,0V621.17z M134.87,718.29
			c-0.28,1.98-0.5,3.96-0.68,5.99l0.06-0.66C134.42,721.84,134.63,720.05,134.87,718.29z M263.64,621.86l1.52,0.24
			c5,0.81,9.88,1.93,14.63,3.35C274.56,623.89,269.17,622.66,263.64,621.86z M230.61,621.91c-4.83,0.73-9.56,1.76-14.17,3.06
			c4.22-1.2,8.53-2.15,12.95-2.86L230.61,621.91z M1147.48,482.41H67.61c-5.56,0-10.51-3.74-12.04-9.1
			c-1.52-5.38,0.75-11.17,5.49-14.08c108.84-66.78,192.89-122.45,260.43-167.17c284.75-188.54,290.15-188.52,575.4,1.22
			c66.9,44.5,150.18,99.88,257.17,165.95c4.73,2.91,6.99,8.7,5.48,14.06C1157.99,478.67,1153.04,482.41,1147.48,482.41z
			 M1147.48,469.89v6.26v-6.23C1147.48,469.89,1147.48,469.89,1147.48,469.89c-90.81-56.09-164.52-104.43-225.66-144.99
			c56.36,37.39,124.08,81.86,206.98,133.43l18.62,11.57H67.67l12.27-7.58c-4.07,2.52-8.19,5.04-12.34,7.58H1147.48z M111.68,457.38
			h991.96c-90.53-56.68-162.27-104.43-220.63-143.26c-274.18-182.33-274.17-182.35-547.69-1.2l-1.58,1.05
			C274.62,353.12,201.97,401.21,111.68,457.38z M608.61,163.35c-70.08,0-140.19,46.43-280.21,139.13
			c-7.95,5.26-16.1,10.66-24.5,16.24c7.86-5.21,15.5-10.27,22.93-15.18l1.56-1.03c270.73-179.3,282.63-183.87,540.77-12.62
			C742.11,205.51,675.37,163.35,608.61,163.35z"/>
	</g>
</g>
</svg>
