<svg id="Capa_1" data-name="Capa 1" xmlns="http://www.w3.org/2000/svg" viewBox="0 0 114.66 132.27"><path class="cls-1" d="M13,82.25v33.07a2.19,2.19,0,0,0,1.13,1.92L69.2,148.1h0a1.57,1.57,0,0,0,.3.12,1.5,1.5,0,0,0,.78.16h0a2.1,2.1,0,0,0,.56-.07l.19-.07a2.33,2.33,0,0,0,.33-.14l55.12-30.87a2.19,2.19,0,0,0,1.13-1.92V49.17c0-.05,0-.1,0-.15l0-.2a2.27,2.27,0,0,0-.21-.67s0,0,0,0v0a2.3,2.3,0,0,0-.5-.58l-.17-.12a1.92,1.92,0,0,0-.17-.13L71.38,16.38l-.23-.07a1.81,1.81,0,0,0-.85-.18,1.84,1.84,0,0,0-.41,0,2.13,2.13,0,0,0-.43.13l-.24.08L14.1,47.25l-.18.13-.16.12a2.3,2.3,0,0,0-.5.58v0s0,0,0,.07a1.91,1.91,0,0,0-.21.65l0,.2s0,.1,0,.15ZM70.3,20.83l50.61,28.34L70.3,77.51,19.69,49.17ZM17.38,82.25V75l50.72,28.4v17L17.38,92Zm55.13,21.13L123.22,75V92l-50.71,28.4Zm50.71-33.45L72.51,98.33v-17l50.71-28.4ZM68.1,81.33v17L17.38,69.93v-17ZM17.38,114V97l50.72,28.4v17Zm55.13,28.4v-17L123.22,97v17Z" transform="translate(-12.97 -16.13)"/><path class="cls-1" d="M70.44,18.87,18.77,47.71l-1.61.8L68.83,79l52.08-29.78ZM32.64,50a1.95,1.95,0,0,1-1.19,1.19,2.18,2.18,0,0,1-2.4-.46,2.16,2.16,0,0,1-.64-1.57,2.21,2.21,0,0,1,4.41,0A2,2,0,0,1,32.64,50Zm13.41,5.78a2.25,2.25,0,0,1-.65,1.56,2.2,2.2,0,0,1-1.56.64,2.19,2.19,0,0,1-2.2-2.2V42.56a2.21,2.21,0,1,1,4.41,0ZM59.28,62.4a2.22,2.22,0,0,1-2.21,2.21A2.25,2.25,0,0,1,55.51,64a2.2,2.2,0,0,1-.64-1.56V35.94a2.21,2.21,0,0,1,4.41,0ZM72.51,69a2.25,2.25,0,0,1-.65,1.56,2.2,2.2,0,0,1-1.56.64A2.19,2.19,0,0,1,68.1,69V29.33a2.21,2.21,0,1,1,4.41,0ZM85.74,62.4a2.21,2.21,0,1,1-4.41,0V35.94a2.21,2.21,0,0,1,4.41,0ZM99,55.79a2.19,2.19,0,0,1-.64,1.56,2.2,2.2,0,0,1-3.76-1.56V42.56a2.2,2.2,0,1,1,4.4,0Zm11-4.41a2.19,2.19,0,1,1,1.84-1A2.19,2.19,0,0,1,110,51.38Z" transform="translate(-12.97 -16.13)"/><polygon class="cls-1" points="1.79 55.21 55.46 84.85 110.25 58.85 110.25 80.9 57.46 106.88 4.41 75.85 1.79 55.21"/></svg>