<svg id="Capa_1" data-name="Capa 1" xmlns="http://www.w3.org/2000/svg" viewBox="0 0 101.63 117.24"><path class="cls-1" d="M26.16,79.35v29.32a2,2,0,0,0,1,1.71L76,137.73h0a1.39,1.39,0,0,0,.26.1,1.43,1.43,0,0,0,.7.15h0a1.73,1.73,0,0,0,.5-.07l.16-.06a1.48,1.48,0,0,0,.29-.12l48.87-27.36a2,2,0,0,0,1-1.71V50s0-.09,0-.14l0-.17a1.83,1.83,0,0,0-.19-.6s0,0,0-.05h0a2.16,2.16,0,0,0-.44-.51l-.15-.12c-.06,0-.1-.08-.15-.11L77.93,21l-.2-.07a1.63,1.63,0,0,0-.75-.15,1.64,1.64,0,0,0-.74.15L76,21,27.16,48.33l-.16.12-.14.11a1.78,1.78,0,0,0-.44.51v0s0,0,0,.06a2,2,0,0,0-.19.58,1.1,1.1,0,0,0,0,.18s0,.08,0,.13ZM77,24.91,121.84,50,77,75.16,32.12,50ZM30.07,79.35V72.92L75,98.09v15.07L30.07,88ZM78.93,98.09l45-25.17V88l-45,25.18Zm45-29.65-45,25.17V78.54l45-25.17ZM75,78.54V93.61L30.07,68.44V53.37Zm-44.95,29V92.46L75,117.63V132.7ZM78.93,132.7V117.63l45-25.17v15.07Z" transform="translate(-26.16 -20.75)"/><path class="cls-1" d="M40.41,51.42a1.92,1.92,0,0,0,2.13.41,1.78,1.78,0,0,0,1.05-1,1.6,1.6,0,0,0,.16-.74,2,2,0,1,0-3.91,0A1.92,1.92,0,0,0,40.41,51.42Z" transform="translate(-26.16 -20.75)"/><path class="cls-1" d="M53.52,57.85a1.95,1.95,0,0,0,2-2V44.17a2,2,0,0,0-3.91,0V55.9a1.95,1.95,0,0,0,2,2Z" transform="translate(-26.16 -20.75)"/><path class="cls-1" d="M65.25,63.72a2,2,0,0,0,2-2V38.31a2,2,0,1,0-3.91,0V61.76a1.95,1.95,0,0,0,2,2Z" transform="translate(-26.16 -20.75)"/><path class="cls-1" d="M112.16,52a1.94,1.94,0,1,0-1.63-.86A1.94,1.94,0,0,0,112.16,52Z" transform="translate(-26.16 -20.75)"/><path class="cls-1" d="M100.43,57.85a2,2,0,0,0,2-2V44.17a2,2,0,0,0-3.91,0V55.9a1.95,1.95,0,0,0,2,2Z" transform="translate(-26.16 -20.75)"/><path class="cls-1" d="M88.71,63.72a1.95,1.95,0,0,0,2-2V38.31a2,2,0,1,0-3.91,0V61.76a1.95,1.95,0,0,0,2,2Z" transform="translate(-26.16 -20.75)"/><path class="cls-1" d="M77,69.58a1.95,1.95,0,0,0,2-2V32.45a2,2,0,1,0-3.91,0V67.63A2,2,0,0,0,75.6,69,1.92,1.92,0,0,0,77,69.58Z" transform="translate(-26.16 -20.75)"/></svg>