<svg id="Capa_1" data-name="Capa 1" xmlns="http://www.w3.org/2000/svg" viewBox="0 0 80.92 116.6"><path class="cls-1" d="M71.87,131.07l-1.8-1.6C29.2,93.33,31.35,56.26,31.47,54.69a40.41,40.41,0,0,1,80.82.11c.16,2.66,1.59,39.12-38.61,74.67Zm0-111.15a35,35,0,0,0-35,35c0,.54-1.89,35.13,35,68.87,36.86-33.74,35-68.33,35-68.68v-.19A35,35,0,0,0,71.87,19.92Z" transform="translate(-31.41 -14.47)"/><path class="cls-1" d="M89.46,83.09H74.27V73.5a2,2,0,1,0-4,0v9.59H55.05V62.62H44.75l27.5-28.09,27.5,28.09H89.46Zm-9.74-5.46H84V57.17h2.78L72.25,42.32,57.72,57.17H60.5V77.63h4.28V73.5a7.47,7.47,0,0,1,14.94,0Z" transform="translate(-31.41 -14.47)"/></svg>